<?xml version="1.0" encoding="UTF-8" standalone="no"?>
<!DOCTYPE svg PUBLIC "-//W3C//DTD SVG 1.1//EN"
 "http://www.w3.org/Graphics/SVG/1.1/DTD/svg11.dtd">
<!-- Generated by graphviz version 2.43.0 (0)
 -->
<!-- Title: kalshi_system Pages: 1 -->
<svg width="1535pt" height="682pt"
 viewBox="0.00 0.00 1535.00 682.00" xmlns="http://www.w3.org/2000/svg" xmlns:xlink="http://www.w3.org/1999/xlink">
<g id="graph0" class="graph" transform="scale(1 1) rotate(0) translate(4 678)">
<title>kalshi_system</title>
<polygon fill="#0a0e14" stroke="transparent" points="-4,4 -4,-678 1531,-678 1531,4 -4,4"/>
<g id="clust1" class="cluster">
<title>cluster_external</title>
<path fill="#1a0a1a" stroke="#ff00ff" stroke-width="2" d="M23,-407C23,-407 212,-407 212,-407 218,-407 224,-413 224,-419 224,-419 224,-544 224,-544 224,-550 218,-556 212,-556 212,-556 23,-556 23,-556 17,-556 11,-550 11,-544 11,-544 11,-419 11,-419 11,-413 17,-407 23,-407"/>
<text text-anchor="middle" x="117.5" y="-540.8" font-family="JetBrains Mono" font-size="14.00" fill="#ff00ff">External APIs</text>
</g>
<g id="clust2" class="cluster">
<title>cluster_systemd</title>
<path fill="#0a1a1a" stroke="#00ffff" stroke-width="2" d="M20,-8C20,-8 467,-8 467,-8 473,-8 479,-14 479,-20 479,-20 479,-129 479,-129 479,-135 473,-141 467,-141 467,-141 20,-141 20,-141 14,-141 8,-135 8,-129 8,-129 8,-20 8,-20 8,-14 14,-8 20,-8"/>
<text text-anchor="middle" x="243.5" y="-125.8" font-family="JetBrains Mono" font-size="14.00" fill="#00ffff">systemd (cron of last resort)</text>
</g>
<g id="clust3" class="cluster">
<title>cluster_python</title>
<path fill="#0a1a0a" stroke="#39ff14" stroke-width="2" d="M283.5,-221C283.5,-221 710,-221 710,-221 716,-221 722,-227 722,-233 722,-233 722,-654 722,-654 722,-660 716,-666 710,-666 710,-666 283.5,-666 283.5,-666 277.5,-666 271.5,-660 271.5,-654 271.5,-654 271.5,-233 271.5,-233 271.5,-227 277.5,-221 283.5,-221"/>
<text text-anchor="middle" x="496.75" y="-650.8" font-family="JetBrains Mono" font-size="14.00" fill="#39ff14">Python pipeline — ~/programs/gemini_trader/ &#160;(12 GB)</text>
</g>
<g id="clust4" class="cluster">
<title>cluster_state</title>
<path fill="#1a1408" stroke="#ffaa00" stroke-width="2" d="M755,-367C755,-367 1035,-367 1035,-367 1041,-367 1047,-373 1047,-379 1047,-379 1047,-612 1047,-612 1047,-618 1041,-624 1035,-624 1035,-624 755,-624 755,-624 749,-624 743,-618 743,-612 743,-612 743,-379 743,-379 743,-373 749,-367 755,-367"/>
<text text-anchor="middle" x="895" y="-608.8" font-family="JetBrains Mono" font-size="14.00" fill="#ffaa00">Runtime state — ~/.local/share/kalshi&#45;tui/</text>
</g>
<g id="clust5" class="cluster">
<title>cluster_tui</title>
<path fill="#0a1a0a" stroke="#39ff14" stroke-width="2" d="M1080,-426C1080,-426 1515,-426 1515,-426 1521,-426 1527,-432 1527,-438 1527,-438 1527,-547 1527,-547 1527,-553 1521,-559 1515,-559 1515,-559 1080,-559 1080,-559 1074,-559 1068,-553 1068,-547 1068,-547 1068,-438 1068,-438 1068,-432 1074,-426 1080,-426"/>
<text text-anchor="middle" x="1297.5" y="-543.8" font-family="JetBrains Mono" font-size="14.00" fill="#39ff14">Operator UI — claude_creations/2026&#45;04&#45;12_161843_kalshi&#45;tui/</text>
</g>
<!-- gemini -->
<g id="node1" class="node">
<title>gemini</title>
<path fill="#2a1a2a" stroke="#ff66ff" stroke-width="2" d="M169.5,-525C169.5,-525 65.5,-525 65.5,-525 59.5,-525 53.5,-519 53.5,-513 53.5,-513 53.5,-499 53.5,-499 53.5,-493 59.5,-487 65.5,-487 65.5,-487 169.5,-487 169.5,-487 175.5,-487 181.5,-493 181.5,-499 181.5,-499 181.5,-513 181.5,-513 181.5,-519 175.5,-525 169.5,-525"/>
<text text-anchor="middle" x="117.5" y="-509.8" font-family="JetBrains Mono" font-size="14.00" fill="#e6e6e6">Gemini WS</text>
<text text-anchor="middle" x="117.5" y="-494.8" font-family="JetBrains Mono" font-size="14.00" fill="#e6e6e6">1m BTC candles</text>
</g>
<!-- candles -->
<g id="node6" class="node">
<title>candles</title>
<path fill="#1a1f2e" stroke="#39ff14" stroke-width="2" d="M423,-525C423,-525 325,-525 325,-525 319,-525 313,-519 313,-513 313,-513 313,-499 313,-499 313,-493 319,-487 325,-487 325,-487 423,-487 423,-487 429,-487 435,-493 435,-499 435,-499 435,-513 435,-513 435,-519 429,-525 423,-525"/>
<text text-anchor="middle" x="374" y="-509.8" font-family="JetBrains Mono" font-size="14.00" fill="#e6e6e6">live_candles.py</text>
<text text-anchor="middle" x="374" y="-494.8" font-family="JetBrains Mono" font-size="14.00" fill="#e6e6e6">1440 1m bars</text>
</g>
<!-- gemini&#45;&gt;candles -->
<g id="edge10" class="edge">
<title>gemini&#45;&gt;candles</title>
<path fill="none" stroke="#ff00ff" stroke-width="1.5" d="M181.74,-506C218.34,-506 264.49,-506 302.29,-506"/>
<polygon fill="#ff00ff" stroke="#ff00ff" stroke-width="1.5" points="302.72,-509.5 312.72,-506 302.72,-502.5 302.72,-509.5"/>
</g>
<!-- kalshi -->
<g id="node2" class="node">
<title>kalshi</title>
<path fill="#2a1a2a" stroke="#ff66ff" stroke-width="2" d="M204,-468.5C204,-468.5 31,-468.5 31,-468.5 25,-468.5 19,-462.5 19,-456.5 19,-456.5 19,-427.5 19,-427.5 19,-421.5 25,-415.5 31,-415.5 31,-415.5 204,-415.5 204,-415.5 210,-415.5 216,-421.5 216,-427.5 216,-427.5 216,-456.5 216,-456.5 216,-462.5 210,-468.5 204,-468.5"/>
<text text-anchor="middle" x="117.5" y="-453.3" font-family="JetBrains Mono" font-size="14.00" fill="#e6e6e6">Kalshi REST</text>
<text text-anchor="middle" x="117.5" y="-438.3" font-family="JetBrains Mono" font-size="14.00" fill="#e6e6e6">/markets /portfolio /orders</text>
<text text-anchor="middle" x="117.5" y="-423.3" font-family="JetBrains Mono" font-size="14.00" fill="#e6e6e6">(RSA&#45;PSS auth)</text>
</g>
<!-- ob_coll -->
<g id="node12" class="node">
<title>ob_coll</title>
<path fill="#1a1f2e" stroke="#39ff14" stroke-width="2" d="M448.5,-635C448.5,-635 299.5,-635 299.5,-635 293.5,-635 287.5,-629 287.5,-623 287.5,-623 287.5,-611 287.5,-611 287.5,-605 293.5,-599 299.5,-599 299.5,-599 448.5,-599 448.5,-599 454.5,-599 460.5,-605 460.5,-611 460.5,-611 460.5,-623 460.5,-623 460.5,-629 454.5,-635 448.5,-635"/>
<text text-anchor="middle" x="374" y="-613.3" font-family="JetBrains Mono" font-size="14.00" fill="#e6e6e6">orderbook_collector.py</text>
</g>
<!-- kalshi&#45;&gt;ob_coll -->
<g id="edge15" class="edge">
<title>kalshi&#45;&gt;ob_coll</title>
<path fill="none" stroke="#ff00ff" stroke-width="1.5" stroke-dasharray="5,2" d="M212.03,-468.66C216.29,-471.47 220.32,-474.57 224,-478 263.59,-514.83 230.67,-554.56 271.5,-590 273.76,-591.96 276.15,-593.78 278.63,-595.47"/>
<polygon fill="#ff00ff" stroke="#ff00ff" stroke-width="1.5" points="277.07,-598.61 287.45,-600.73 280.65,-592.6 277.07,-598.61"/>
</g>
<!-- timer -->
<g id="node3" class="node">
<title>timer</title>
<path fill="#1a2a2a" stroke="#66ffff" stroke-width="2" d="M196,-54C196,-54 39,-54 39,-54 33,-54 27,-48 27,-42 27,-42 27,-28 27,-28 27,-22 33,-16 39,-16 39,-16 196,-16 196,-16 202,-16 208,-22 208,-28 208,-28 208,-42 208,-42 208,-48 202,-54 196,-54"/>
<text text-anchor="middle" x="117.5" y="-38.8" font-family="JetBrains Mono" font-size="14.00" fill="#e6e6e6">kalshi&#45;auto&#45;trader.timer</text>
<text text-anchor="middle" x="117.5" y="-23.8" font-family="JetBrains Mono" font-size="14.00" fill="#e6e6e6">*/10 min</text>
</g>
<!-- svc -->
<g id="node4" class="node">
<title>svc</title>
<path fill="#1a2a2a" stroke="#66ffff" stroke-width="2" d="M459,-82C459,-82 289,-82 289,-82 283,-82 277,-76 277,-70 277,-70 277,-56 277,-56 277,-50 283,-44 289,-44 289,-44 459,-44 459,-44 465,-44 471,-50 471,-56 471,-56 471,-70 471,-70 471,-76 465,-82 459,-82"/>
<text text-anchor="middle" x="374" y="-66.8" font-family="JetBrains Mono" font-size="14.00" fill="#e6e6e6">kalshi&#45;auto&#45;trader.service</text>
<text text-anchor="middle" x="374" y="-51.8" font-family="JetBrains Mono" font-size="14.00" fill="#e6e6e6">(oneshot)</text>
</g>
<!-- timer&#45;&gt;svc -->
<g id="edge1" class="edge">
<title>timer&#45;&gt;svc</title>
<path fill="none" stroke="#39ff14" stroke-width="1.5" d="M208.23,-44.87C227.12,-46.95 247.22,-49.16 266.65,-51.3"/>
<polygon fill="#39ff14" stroke="#39ff14" stroke-width="1.5" points="266.42,-54.79 276.74,-52.41 267.18,-47.84 266.42,-54.79"/>
<text text-anchor="middle" x="248" y="-53" font-family="JetBrains Mono" font-size="10.00" fill="#cccccc">fires</text>
</g>
<!-- auto -->
<g id="node8" class="node">
<title>auto</title>
<path fill="#1a3a1a" stroke="#aaff66" stroke-width="2" d="M689,-413C689,-413 596,-413 596,-413 590,-413 584,-407 584,-401 584,-401 584,-387 584,-387 584,-381 590,-375 596,-375 596,-375 689,-375 689,-375 695,-375 701,-381 701,-387 701,-387 701,-401 701,-401 701,-407 695,-413 689,-413"/>
<text text-anchor="middle" x="642.5" y="-397.8" font-family="JetBrains Mono" font-size="14.00" fill="#e6e6e6">auto_trader.py</text>
<text text-anchor="middle" x="642.5" y="-382.8" font-family="JetBrains Mono" font-size="14.00" fill="#e6e6e6">MAIN ENTRY</text>
</g>
<!-- svc&#45;&gt;auto -->
<g id="edge2" class="edge">
<title>svc&#45;&gt;auto</title>
<path fill="none" stroke="#39ff14" stroke-width="1.5" d="M438.87,-82.02C476.59,-96.17 522.73,-118.99 553,-153 608.49,-215.35 630.15,-315.43 637.79,-364.69"/>
<polygon fill="#39ff14" stroke="#39ff14" stroke-width="1.5" points="634.34,-365.29 639.25,-374.67 641.26,-364.27 634.34,-365.29"/>
</g>
<!-- ob_svc -->
<g id="node5" class="node">
<title>ob_svc</title>
<path fill="#1a2a2a" stroke="#66ffff" stroke-width="2" d="M207,-110C207,-110 28,-110 28,-110 22,-110 16,-104 16,-98 16,-98 16,-84 16,-84 16,-78 22,-72 28,-72 28,-72 207,-72 207,-72 213,-72 219,-78 219,-84 219,-84 219,-98 219,-98 219,-104 213,-110 207,-110"/>
<text text-anchor="middle" x="117.5" y="-94.8" font-family="JetBrains Mono" font-size="14.00" fill="#e6e6e6">orderbook&#45;collector.service</text>
<text text-anchor="middle" x="117.5" y="-79.8" font-family="JetBrains Mono" font-size="14.00" fill="#e6e6e6">L2 snapshots / 60s</text>
</g>
<!-- ob_svc&#45;&gt;ob_coll -->
<g id="edge3" class="edge">
<title>ob_svc&#45;&gt;ob_coll</title>
<path fill="none" stroke="#39ff14" stroke-width="1.5" d="M126.87,-110.13C151.36,-166.95 223.42,-340.2 259,-491 264.09,-512.58 256.91,-573.3 271.5,-590 273.78,-592.61 276.28,-594.98 278.96,-597.13"/>
<polygon fill="#39ff14" stroke="#39ff14" stroke-width="1.5" points="277.24,-600.2 287.46,-602.96 281.19,-594.42 277.24,-600.2"/>
</g>
<!-- candles&#45;&gt;auto -->
<g id="edge4" class="edge">
<title>candles&#45;&gt;auto</title>
<path fill="none" stroke="#39ff14" stroke-width="1.5" d="M435.1,-492.17C449.67,-488.17 465.05,-483.41 479,-478 522.03,-461.31 568.58,-436.49 600.78,-418.16"/>
<polygon fill="#39ff14" stroke="#39ff14" stroke-width="1.5" points="602.54,-421.19 609.47,-413.17 599.05,-415.12 602.54,-421.19"/>
</g>
<!-- clf_dev -->
<g id="node7" class="node">
<title>clf_dev</title>
<path fill="#1a1f2e" stroke="#39ff14" stroke-width="2" d="M456.5,-267C456.5,-267 291.5,-267 291.5,-267 285.5,-267 279.5,-261 279.5,-255 279.5,-255 279.5,-241 279.5,-241 279.5,-235 285.5,-229 291.5,-229 291.5,-229 456.5,-229 456.5,-229 462.5,-229 468.5,-235 468.5,-241 468.5,-241 468.5,-255 468.5,-255 468.5,-261 462.5,-267 456.5,-267"/>
<text text-anchor="middle" x="374" y="-251.8" font-family="JetBrains Mono" font-size="14.00" fill="#e6e6e6">classifier_device.py</text>
<text text-anchor="middle" x="374" y="-236.8" font-family="JetBrains Mono" font-size="14.00" fill="#e6e6e6">CPU fallback if GPU busy</text>
</g>
<!-- clf_dev&#45;&gt;auto -->
<g id="edge7" class="edge">
<title>clf_dev&#45;&gt;auto</title>
<path fill="none" stroke="#39ff14" stroke-width="1.5" stroke-dasharray="5,2" d="M457.21,-267.08C464.71,-269.73 472.08,-272.7 479,-276 530.12,-300.41 581.81,-341.37 612.75,-368.04"/>
<polygon fill="#39ff14" stroke="#39ff14" stroke-width="1.5" points="610.7,-370.89 620.54,-374.82 615.3,-365.61 610.7,-370.89"/>
</g>
<!-- auto&#45;&gt;kalshi -->
<g id="edge9" class="edge">
<title>auto&#45;&gt;kalshi</title>
<path fill="none" stroke="#ff00ff" stroke-width="1.5" d="M634.24,-374.7C616.13,-329.77 564.22,-218.77 479,-176 437.79,-155.32 311.41,-152.91 271.5,-176 185.18,-225.93 143.3,-345.04 127.01,-405.48"/>
<polygon fill="#ff00ff" stroke="#ff00ff" stroke-width="1.5" points="123.58,-404.8 124.44,-415.36 130.35,-406.56 123.58,-404.8"/>
<text text-anchor="middle" x="374" y="-212" font-family="JetBrains Mono" font-size="10.00" fill="#cccccc">GET /markets</text>
<text text-anchor="middle" x="374" y="-201" font-family="JetBrains Mono" font-size="10.00" fill="#cccccc">GET /portfolio/balance</text>
<text text-anchor="middle" x="374" y="-190" font-family="JetBrains Mono" font-size="10.00" fill="#cccccc">GET /portfolio/positions</text>
<text text-anchor="middle" x="374" y="-179" font-family="JetBrains Mono" font-size="10.00" fill="#cccccc">POST /portfolio/orders</text>
</g>
<!-- db -->
<g id="node15" class="node">
<title>db</title>
<path fill="#2a1a0a" stroke="#ffcc66" stroke-width="2" d="M954,-534.48C954,-537.11 927.56,-539.25 895,-539.25 862.44,-539.25 836,-537.11 836,-534.48 836,-534.48 836,-491.52 836,-491.52 836,-488.89 862.44,-486.75 895,-486.75 927.56,-486.75 954,-488.89 954,-491.52 954,-491.52 954,-534.48 954,-534.48"/>
<path fill="none" stroke="#ffcc66" stroke-width="2" d="M954,-534.48C954,-531.84 927.56,-529.7 895,-529.7 862.44,-529.7 836,-531.84 836,-534.48"/>
<text text-anchor="middle" x="895" y="-516.8" font-family="JetBrains Mono" font-size="14.00" fill="#e6e6e6">auto_trader.db</text>
<text text-anchor="middle" x="895" y="-501.8" font-family="JetBrains Mono" font-size="14.00" fill="#e6e6e6">runs + trades</text>
</g>
<!-- auto&#45;&gt;db -->
<g id="edge11" class="edge">
<title>auto&#45;&gt;db</title>
<path fill="none" stroke="#39ff14" stroke-width="1.5" d="M660.65,-413.02C679.11,-432.31 710.26,-461.6 743,-478 768.6,-490.83 799.01,-499.04 825.8,-504.25"/>
<polygon fill="#39ff14" stroke="#39ff14" stroke-width="1.5" points="825.41,-507.74 835.88,-506.11 826.68,-500.85 825.41,-507.74"/>
</g>
<!-- log -->
<g id="node16" class="node">
<title>log</title>
<polygon fill="#2a1a0a" stroke="#ffcc66" stroke-width="2" points="949.5,-413 834.5,-413 834.5,-375 955.5,-375 955.5,-407 949.5,-413"/>
<polyline fill="none" stroke="#ffcc66" stroke-width="2" points="949.5,-413 949.5,-407 "/>
<polyline fill="none" stroke="#ffcc66" stroke-width="2" points="955.5,-407 949.5,-407 "/>
<text text-anchor="middle" x="895" y="-397.8" font-family="JetBrains Mono" font-size="14.00" fill="#e6e6e6">auto_trader.log</text>
<text text-anchor="middle" x="895" y="-382.8" font-family="JetBrains Mono" font-size="14.00" fill="#e6e6e6">append&#45;only</text>
</g>
<!-- auto&#45;&gt;log -->
<g id="edge12" class="edge">
<title>auto&#45;&gt;log</title>
<path fill="none" stroke="#39ff14" stroke-width="1.5" d="M701.28,-394C737.89,-394 785.46,-394 824.18,-394"/>
<polygon fill="#39ff14" stroke="#39ff14" stroke-width="1.5" points="824.33,-397.5 834.33,-394 824.33,-390.5 824.33,-397.5"/>
</g>
<!-- hwm -->
<g id="node17" class="node">
<title>hwm</title>
<polygon fill="#2a1a0a" stroke="#ffcc66" stroke-width="2" points="962,-469 822,-469 822,-431 968,-431 968,-463 962,-469"/>
<polyline fill="none" stroke="#ffcc66" stroke-width="2" points="962,-469 962,-463 "/>
<polyline fill="none" stroke="#ffcc66" stroke-width="2" points="968,-463 962,-463 "/>
<text text-anchor="middle" x="895" y="-453.8" font-family="JetBrains Mono" font-size="14.00" fill="#e6e6e6">hwm.json</text>
<text text-anchor="middle" x="895" y="-438.8" font-family="JetBrains Mono" font-size="14.00" fill="#e6e6e6">HWM + drawdown</text>
</g>
<!-- auto&#45;&gt;hwm -->
<g id="edge13" class="edge">
<title>auto&#45;&gt;hwm</title>
<path fill="none" stroke="#39ff14" stroke-width="1.5" d="M701.15,-411.18C714.81,-414.99 729.37,-418.82 743,-422 765.28,-427.19 789.59,-432.05 812.06,-436.21"/>
<polygon fill="#39ff14" stroke="#39ff14" stroke-width="1.5" points="811.44,-439.65 821.91,-438.01 812.7,-432.77 811.44,-439.65"/>
</g>
<!-- auth -->
<g id="node9" class="node">
<title>auth</title>
<path fill="#1a1f2e" stroke="#39ff14" stroke-width="2" d="M424,-469C424,-469 324,-469 324,-469 318,-469 312,-463 312,-457 312,-457 312,-443 312,-443 312,-437 318,-431 324,-431 324,-431 424,-431 424,-431 430,-431 436,-437 436,-443 436,-443 436,-457 436,-457 436,-463 430,-469 424,-469"/>
<text text-anchor="middle" x="374" y="-453.8" font-family="JetBrains Mono" font-size="14.00" fill="#e6e6e6">kalshi_auth.py</text>
<text text-anchor="middle" x="374" y="-438.8" font-family="JetBrains Mono" font-size="14.00" fill="#e6e6e6">RSA&#45;PSS signer</text>
</g>
<!-- auth&#45;&gt;auto -->
<g id="edge5" class="edge">
<title>auth&#45;&gt;auto</title>
<path fill="none" stroke="#39ff14" stroke-width="1.5" stroke-dasharray="5,2" d="M436.14,-437.15C477.26,-428.51 531.48,-417.12 573.88,-408.21"/>
<polygon fill="#39ff14" stroke="#39ff14" stroke-width="1.5" points="574.77,-411.6 583.84,-406.12 573.33,-404.75 574.77,-411.6"/>
</g>
<!-- risk -->
<g id="node10" class="node">
<title>risk</title>
<path fill="#1a1f2e" stroke="#39ff14" stroke-width="2" d="M427.5,-413C427.5,-413 320.5,-413 320.5,-413 314.5,-413 308.5,-407 308.5,-401 308.5,-401 308.5,-387 308.5,-387 308.5,-381 314.5,-375 320.5,-375 320.5,-375 427.5,-375 427.5,-375 433.5,-375 439.5,-381 439.5,-387 439.5,-387 439.5,-401 439.5,-401 439.5,-407 433.5,-413 427.5,-413"/>
<text text-anchor="middle" x="374" y="-397.8" font-family="JetBrains Mono" font-size="14.00" fill="#e6e6e6">risk_manager.py</text>
<text text-anchor="middle" x="374" y="-382.8" font-family="JetBrains Mono" font-size="14.00" fill="#e6e6e6">Kelly sizing</text>
</g>
<!-- risk&#45;&gt;auto -->
<g id="edge6" class="edge">
<title>risk&#45;&gt;auto</title>
<path fill="none" stroke="#39ff14" stroke-width="1.5" stroke-dasharray="5,2" d="M439.51,-394C480.13,-394 532.48,-394 573.7,-394"/>
<polygon fill="#39ff14" stroke="#39ff14" stroke-width="1.5" points="573.93,-397.5 583.93,-394 573.93,-390.5 573.93,-397.5"/>
</g>
<!-- clf_pkl -->
<g id="node11" class="node">
<title>clf_pkl</title>
<path fill="#2a1a0a" stroke="#ffaa00" stroke-width="2" d="M450.5,-350.76C450.5,-354.41 416.21,-357.38 374,-357.38 331.79,-357.38 297.5,-354.41 297.5,-350.76 297.5,-350.76 297.5,-291.24 297.5,-291.24 297.5,-287.59 331.79,-284.62 374,-284.62 416.21,-284.62 450.5,-287.59 450.5,-291.24 450.5,-291.24 450.5,-350.76 450.5,-350.76"/>
<path fill="none" stroke="#ffaa00" stroke-width="2" d="M450.5,-350.76C450.5,-347.11 416.21,-344.15 374,-344.15 331.79,-344.15 297.5,-347.11 297.5,-350.76"/>
<text text-anchor="middle" x="374" y="-332.3" font-family="JetBrains Mono" font-size="14.00" fill="#e6e6e6">time_series/</text>
<text text-anchor="middle" x="374" y="-317.3" font-family="JetBrains Mono" font-size="14.00" fill="#e6e6e6">classifier_model.pkl</text>
<text text-anchor="middle" x="374" y="-302.3" font-family="JetBrains Mono" font-size="14.00" fill="#e6e6e6">XGBoost GBT</text>
</g>
<!-- clf_pkl&#45;&gt;auto -->
<g id="edge8" class="edge">
<title>clf_pkl&#45;&gt;auto</title>
<path fill="none" stroke="#39ff14" stroke-width="1.5" d="M450.66,-341.72C489.5,-352.36 536.44,-365.22 574.04,-375.52"/>
<polygon fill="#39ff14" stroke="#39ff14" stroke-width="1.5" points="573.31,-378.95 583.88,-378.22 575.16,-372.2 573.31,-378.95"/>
</g>
<!-- ob_db -->
<g id="node18" class="node">
<title>ob_db</title>
<path fill="#2a1a0a" stroke="#ffcc66" stroke-width="2" d="M950,-589.73C950,-591.53 925.35,-593 895,-593 864.65,-593 840,-591.53 840,-589.73 840,-589.73 840,-560.27 840,-560.27 840,-558.47 864.65,-557 895,-557 925.35,-557 950,-558.47 950,-560.27 950,-560.27 950,-589.73 950,-589.73"/>
<path fill="none" stroke="#ffcc66" stroke-width="2" d="M950,-589.73C950,-587.92 925.35,-586.45 895,-586.45 864.65,-586.45 840,-587.92 840,-589.73"/>
<text text-anchor="middle" x="895" y="-571.3" font-family="JetBrains Mono" font-size="14.00" fill="#e6e6e6">orderbook.db</text>
</g>
<!-- ob_coll&#45;&gt;ob_db -->
<g id="edge14" class="edge">
<title>ob_coll&#45;&gt;ob_db</title>
<path fill="none" stroke="#39ff14" stroke-width="1.5" d="M460.7,-610.06C564.35,-601.68 736.46,-587.75 829.52,-580.22"/>
<polygon fill="#39ff14" stroke="#39ff14" stroke-width="1.5" points="829.96,-583.69 839.64,-579.4 829.39,-576.72 829.96,-583.69"/>
</g>
<!-- invest -->
<g id="node13" class="node">
<title>invest</title>
<path fill="#1a1f2e" stroke="#39ff14" stroke-width="2" d="M444.5,-581C444.5,-581 303.5,-581 303.5,-581 297.5,-581 291.5,-575 291.5,-569 291.5,-569 291.5,-555 291.5,-555 291.5,-549 297.5,-543 303.5,-543 303.5,-543 444.5,-543 444.5,-543 450.5,-543 456.5,-549 456.5,-555 456.5,-555 456.5,-569 456.5,-569 456.5,-575 450.5,-581 444.5,-581"/>
<text text-anchor="middle" x="374" y="-565.8" font-family="JetBrains Mono" font-size="14.00" fill="#e6e6e6">investigate_recent.py</text>
<text text-anchor="middle" x="374" y="-550.8" font-family="JetBrains Mono" font-size="14.00" fill="#e6e6e6">calibration check</text>
</g>
<!-- bt -->
<g id="node14" class="node">
<title>bt</title>
<path fill="#1a1f2e" stroke="#39ff14" stroke-width="2" d="M702,-534C702,-534 583,-534 583,-534 577,-534 571,-528 571,-522 571,-522 571,-510 571,-510 571,-504 577,-498 583,-498 583,-498 702,-498 702,-498 708,-498 714,-504 714,-510 714,-510 714,-522 714,-522 714,-528 708,-534 702,-534"/>
<text text-anchor="middle" x="642.5" y="-512.3" font-family="JetBrains Mono" font-size="14.00" fill="#e6e6e6">backtest_gates.py</text>
</g>
<!-- invest&#45;&gt;bt -->
<g id="edge21" class="edge">
<title>invest&#45;&gt;bt</title>
<path fill="none" stroke="#39ff14" stroke-width="1.5" stroke-dasharray="5,2" d="M456.73,-543.26C467.56,-541.02 478.53,-538.87 489,-537 512.15,-532.87 537.4,-529.1 560.57,-525.93"/>
<polygon fill="#39ff14" stroke="#39ff14" stroke-width="1.5" points="561.27,-529.37 570.71,-524.56 560.33,-522.43 561.27,-529.37"/>
<text text-anchor="middle" x="521" y="-540" font-family="JetBrains Mono" font-size="10.00" fill="#cccccc">EV/WR check</text>
</g>
<!-- db&#45;&gt;invest -->
<g id="edge19" class="edge">
<title>db&#45;&gt;invest</title>
<path fill="none" stroke="#39ff14" stroke-width="1.5" d="M835.73,-524.92C802.54,-531.27 760.1,-538.65 722,-543 635.73,-552.85 536.79,-557.63 466.69,-559.93"/>
<polygon fill="#39ff14" stroke="#39ff14" stroke-width="1.5" points="466.44,-556.43 456.56,-560.25 466.66,-563.43 466.44,-556.43"/>
</g>
<!-- tui -->
<g id="node19" class="node">
<title>tui</title>
<path fill="#1a3a1a" stroke="#39ff14" stroke-width="2" d="M1375,-472C1375,-472 1220,-472 1220,-472 1214,-472 1208,-466 1208,-460 1208,-460 1208,-446 1208,-446 1208,-440 1214,-434 1220,-434 1220,-434 1375,-434 1375,-434 1381,-434 1387,-440 1387,-446 1387,-446 1387,-460 1387,-460 1387,-466 1381,-472 1375,-472"/>
<text text-anchor="middle" x="1297.5" y="-456.8" font-family="JetBrains Mono" font-size="14.00" fill="#e6e6e6">kalshi&#45;tui (Rust/Ratatui)</text>
<text text-anchor="middle" x="1297.5" y="-441.8" font-family="JetBrains Mono" font-size="14.00" fill="#e6e6e6">5 tabs incl. System</text>
</g>
<!-- db&#45;&gt;tui -->
<g id="edge16" class="edge">
<title>db&#45;&gt;tui</title>
<path fill="none" stroke="#39ff14" stroke-width="1.5" d="M954.36,-501.21C987.58,-494.74 1030.03,-486.85 1068,-481 1110.42,-474.46 1157.47,-468.48 1197.79,-463.74"/>
<polygon fill="#39ff14" stroke="#39ff14" stroke-width="1.5" points="1198.36,-467.2 1207.89,-462.56 1197.55,-460.24 1198.36,-467.2"/>
</g>
<!-- wizard -->
<g id="node20" class="node">
<title>wizard</title>
<path fill="#1a1f2e" stroke="#39ff14" stroke-width="2" d="M1331,-528C1331,-528 1264,-528 1264,-528 1258,-528 1252,-522 1252,-516 1252,-516 1252,-502 1252,-502 1252,-496 1258,-490 1264,-490 1264,-490 1331,-490 1331,-490 1337,-490 1343,-496 1343,-502 1343,-502 1343,-516 1343,-516 1343,-522 1337,-528 1331,-528"/>
<text text-anchor="middle" x="1297.5" y="-512.8" font-family="JetBrains Mono" font-size="14.00" fill="#e6e6e6">wizard.py</text>
<text text-anchor="middle" x="1297.5" y="-497.8" font-family="JetBrains Mono" font-size="14.00" fill="#e6e6e6">guided CLI</text>
</g>
<!-- db&#45;&gt;wizard -->
<g id="edge20" class="edge">
<title>db&#45;&gt;wizard</title>
<path fill="none" stroke="#39ff14" stroke-width="1.5" d="M954.24,-512.42C1031.32,-511.65 1166.23,-510.3 1241.6,-509.55"/>
<polygon fill="#39ff14" stroke="#39ff14" stroke-width="1.5" points="1241.86,-513.05 1251.83,-509.45 1241.79,-506.05 1241.86,-513.05"/>
</g>
<!-- log&#45;&gt;tui -->
<g id="edge17" class="edge">
<title>log&#45;&gt;tui</title>
<path fill="none" stroke="#39ff14" stroke-width="1.5" d="M955.53,-402.77C1019.34,-412.17 1121.71,-427.25 1197.64,-438.44"/>
<polygon fill="#39ff14" stroke="#39ff14" stroke-width="1.5" points="1197.3,-441.92 1207.71,-439.92 1198.32,-435 1197.3,-441.92"/>
</g>
<!-- hwm&#45;&gt;tui -->
<g id="edge18" class="edge">
<title>hwm&#45;&gt;tui</title>
<path fill="none" stroke="#39ff14" stroke-width="1.5" d="M968.06,-450.54C1032.14,-451.02 1126.42,-451.73 1197.55,-452.26"/>
<polygon fill="#39ff14" stroke="#39ff14" stroke-width="1.5" points="1197.84,-455.76 1207.87,-452.34 1197.89,-448.76 1197.84,-455.76"/>
</g>
</g>
</svg>
