<?xml version="1.0" encoding="UTF-8" standalone="no"?>
<!DOCTYPE svg PUBLIC "-//W3C//DTD SVG 1.1//EN"
 "http://www.w3.org/Graphics/SVG/1.1/DTD/svg11.dtd">
<!-- Generated by graphviz version 2.43.0 (0)
 -->
<!-- Title: per_run_flow Pages: 1 -->
<svg width="922pt" height="1494pt"
 viewBox="0.00 0.00 921.64 1493.62" xmlns="http://www.w3.org/2000/svg" xmlns:xlink="http://www.w3.org/1999/xlink">
<g id="graph0" class="graph" transform="scale(1 1) rotate(0) translate(4 1489.62)">
<title>per_run_flow</title>
<polygon fill="#0a0e14" stroke="transparent" points="-4,4 -4,-1489.62 917.64,-1489.62 917.64,4 -4,4"/>
<!-- start -->
<g id="node1" class="node">
<title>start</title>
<ellipse fill="#0a3a0a" stroke="#39ff14" stroke-width="3" cx="654.5" cy="-1458.75" rx="107.46" ry="26.74"/>
<text text-anchor="middle" x="654.5" y="-1462.55" font-family="JetBrains Mono" font-size="14.00" fill="#e6e6e6">systemd timer fires</text>
<text text-anchor="middle" x="654.5" y="-1447.55" font-family="JetBrains Mono" font-size="14.00" fill="#e6e6e6">(every 10 min)</text>
</g>
<!-- auth -->
<g id="node2" class="node">
<title>auth</title>
<path fill="#1a1f2e" stroke="#39ff14" stroke-width="2" d="M741.5,-1394.88C741.5,-1394.88 567.5,-1394.88 567.5,-1394.88 561.5,-1394.88 555.5,-1388.88 555.5,-1382.88 555.5,-1382.88 555.5,-1368.88 555.5,-1368.88 555.5,-1362.88 561.5,-1356.88 567.5,-1356.88 567.5,-1356.88 741.5,-1356.88 741.5,-1356.88 747.5,-1356.88 753.5,-1362.88 753.5,-1368.88 753.5,-1368.88 753.5,-1382.88 753.5,-1382.88 753.5,-1388.88 747.5,-1394.88 741.5,-1394.88"/>
<text text-anchor="middle" x="654.5" y="-1379.67" font-family="JetBrains Mono" font-size="14.00" fill="#e6e6e6">Load RSA key</text>
<text text-anchor="middle" x="654.5" y="-1364.67" font-family="JetBrains Mono" font-size="14.00" fill="#e6e6e6">KalshiSigner.from_config()</text>
</g>
<!-- start&#45;&gt;auth -->
<g id="edge1" class="edge">
<title>start&#45;&gt;auth</title>
<path fill="none" stroke="#39ff14" stroke-width="1.5" d="M654.5,-1431.71C654.5,-1423.18 654.5,-1413.66 654.5,-1404.98"/>
<polygon fill="#39ff14" stroke="#39ff14" stroke-width="1.5" points="658,-1404.93 654.5,-1394.93 651,-1404.93 658,-1404.93"/>
</g>
<!-- bal -->
<g id="node3" class="node">
<title>bal</title>
<path fill="#1a1f2e" stroke="#39ff14" stroke-width="2" d="M731.5,-1319.88C731.5,-1319.88 577.5,-1319.88 577.5,-1319.88 571.5,-1319.88 565.5,-1313.88 565.5,-1307.88 565.5,-1307.88 565.5,-1293.88 565.5,-1293.88 565.5,-1287.88 571.5,-1281.88 577.5,-1281.88 577.5,-1281.88 731.5,-1281.88 731.5,-1281.88 737.5,-1281.88 743.5,-1287.88 743.5,-1293.88 743.5,-1293.88 743.5,-1307.88 743.5,-1307.88 743.5,-1313.88 737.5,-1319.88 731.5,-1319.88"/>
<text text-anchor="middle" x="654.5" y="-1304.67" font-family="JetBrains Mono" font-size="14.00" fill="#e6e6e6">GET /portfolio/balance</text>
<text text-anchor="middle" x="654.5" y="-1289.67" font-family="JetBrains Mono" font-size="14.00" fill="#e6e6e6">GET /portfolio/positions</text>
</g>
<!-- auth&#45;&gt;bal -->
<g id="edge2" class="edge">
<title>auth&#45;&gt;bal</title>
<path fill="none" stroke="#39ff14" stroke-width="1.5" d="M654.5,-1356.83C654.5,-1348.76 654.5,-1339.05 654.5,-1330.06"/>
<polygon fill="#39ff14" stroke="#39ff14" stroke-width="1.5" points="658,-1329.97 654.5,-1319.97 651,-1329.97 658,-1329.97"/>
</g>
<!-- halt1 -->
<g id="node4" class="node">
<title>halt1</title>
<path fill="#3a0a0a" stroke="#ff3333" stroke-width="2" d="M642.57,-1243.61C642.57,-1243.61 496.35,-1228.14 496.35,-1228.14 490.38,-1227.51 490.38,-1226.24 496.35,-1225.61 496.35,-1225.61 642.57,-1210.14 642.57,-1210.14 648.53,-1209.51 660.47,-1209.51 666.43,-1210.14 666.43,-1210.14 812.65,-1225.61 812.65,-1225.61 818.62,-1226.24 818.62,-1227.51 812.65,-1228.14 812.65,-1228.14 666.43,-1243.61 666.43,-1243.61 660.47,-1244.24 648.53,-1244.24 642.57,-1243.61"/>
<text text-anchor="middle" x="654.5" y="-1223.17" font-family="JetBrains Mono" font-size="14.00" fill="#ff9999">Halt: Balance API down?</text>
</g>
<!-- bal&#45;&gt;halt1 -->
<g id="edge3" class="edge">
<title>bal&#45;&gt;halt1</title>
<path fill="none" stroke="#39ff14" stroke-width="1.5" d="M654.5,-1281.71C654.5,-1273.77 654.5,-1264.28 654.5,-1255.5"/>
<polygon fill="#39ff14" stroke="#39ff14" stroke-width="1.5" points="658,-1255.29 654.5,-1245.29 651,-1255.29 658,-1255.29"/>
</g>
<!-- halt2 -->
<g id="node5" class="node">
<title>halt2</title>
<path fill="#3a0a0a" stroke="#ff3333" stroke-width="2" d="M494.8,-1159.21C494.8,-1159.21 351.2,-1126.54 351.2,-1126.54 345.35,-1125.21 345.35,-1122.54 351.2,-1121.21 351.2,-1121.21 494.8,-1088.54 494.8,-1088.54 500.65,-1087.21 512.35,-1087.21 518.2,-1088.54 518.2,-1088.54 661.8,-1121.21 661.8,-1121.21 667.65,-1122.54 667.65,-1125.21 661.8,-1126.54 661.8,-1126.54 518.2,-1159.21 518.2,-1159.21 512.35,-1160.54 500.65,-1160.54 494.8,-1159.21"/>
<text text-anchor="middle" x="506.5" y="-1127.67" font-family="JetBrains Mono" font-size="14.00" fill="#ff9999">Halt: balance &lt; $5</text>
<text text-anchor="middle" x="506.5" y="-1112.67" font-family="JetBrains Mono" font-size="14.00" fill="#ff9999">or drawdown ≥ 50%?</text>
</g>
<!-- halt1&#45;&gt;halt2 -->
<g id="edge5" class="edge">
<title>halt1&#45;&gt;halt2</title>
<path fill="none" stroke="#39ff14" stroke-width="1.5" d="M632.66,-1210.97C612.42,-1197.16 581.58,-1176.11 555.46,-1158.29"/>
<polygon fill="#39ff14" stroke="#39ff14" stroke-width="1.5" points="557.4,-1155.37 547.16,-1152.63 553.45,-1161.15 557.4,-1155.37"/>
<text text-anchor="middle" x="609" y="-1182.88" font-family="JetBrains Mono" font-size="10.00" fill="#cccccc">no</text>
</g>
<!-- skip1 -->
<g id="node18" class="node">
<title>skip1</title>
<ellipse fill="#3a0a0a" stroke="#ff3333" stroke-width="2" cx="802.5" cy="-1123.88" rx="111.28" ry="18"/>
<text text-anchor="middle" x="802.5" y="-1120.17" font-family="JetBrains Mono" font-size="14.00" fill="#e6e6e6">[STOP] standing down</text>
</g>
<!-- halt1&#45;&gt;skip1 -->
<g id="edge4" class="edge">
<title>halt1&#45;&gt;skip1</title>
<path fill="none" stroke="#ff3333" stroke-width="1.5" d="M676.34,-1210.97C700.97,-1194.16 741.28,-1166.65 769.7,-1147.26"/>
<polygon fill="#ff3333" stroke="#ff3333" stroke-width="1.5" points="771.82,-1150.05 778.11,-1141.52 767.87,-1144.27 771.82,-1150.05"/>
<text text-anchor="middle" x="729.5" y="-1182.88" font-family="JetBrains Mono" font-size="10.00" fill="#cccccc">yes</text>
</g>
<!-- halt3 -->
<g id="node6" class="node">
<title>halt3</title>
<path fill="#3a0a0a" stroke="#ff3333" stroke-width="2" d="M362.61,-1037.28C362.61,-1037.28 252,-1022.47 252,-1022.47 246.05,-1021.67 246.05,-1020.08 252,-1019.28 252,-1019.28 362.61,-1004.47 362.61,-1004.47 368.55,-1003.67 380.45,-1003.67 386.39,-1004.47 386.39,-1004.47 497,-1019.28 497,-1019.28 502.95,-1020.08 502.95,-1021.67 497,-1022.47 497,-1022.47 386.39,-1037.28 386.39,-1037.28 380.45,-1038.08 368.55,-1038.08 362.61,-1037.28"/>
<text text-anchor="middle" x="374.5" y="-1017.17" font-family="JetBrains Mono" font-size="14.00" fill="#ff9999">Halt: daily cap hit?</text>
</g>
<!-- halt2&#45;&gt;halt3 -->
<g id="edge7" class="edge">
<title>halt2&#45;&gt;halt3</title>
<path fill="none" stroke="#39ff14" stroke-width="1.5" d="M469.03,-1094.2C447.65,-1077.84 421.32,-1057.7 401.89,-1042.83"/>
<polygon fill="#39ff14" stroke="#39ff14" stroke-width="1.5" points="403.82,-1039.9 393.75,-1036.61 399.57,-1045.46 403.82,-1039.9"/>
<text text-anchor="middle" x="440" y="-1059.88" font-family="JetBrains Mono" font-size="10.00" fill="#cccccc">no</text>
</g>
<!-- skip2 -->
<g id="node19" class="node">
<title>skip2</title>
<ellipse fill="#3a0a0a" stroke="#ff3333" stroke-width="2" cx="637.5" cy="-1020.88" rx="111.28" ry="18"/>
<text text-anchor="middle" x="637.5" y="-1017.17" font-family="JetBrains Mono" font-size="14.00" fill="#e6e6e6">[STOP] standing down</text>
</g>
<!-- halt2&#45;&gt;skip2 -->
<g id="edge6" class="edge">
<title>halt2&#45;&gt;skip2</title>
<path fill="none" stroke="#ff3333" stroke-width="1.5" d="M543.69,-1094.2C563.98,-1078.56 588.77,-1059.45 607.77,-1044.8"/>
<polygon fill="#ff3333" stroke="#ff3333" stroke-width="1.5" points="610,-1047.49 615.79,-1038.62 605.73,-1041.95 610,-1047.49"/>
<text text-anchor="middle" x="600.5" y="-1059.88" font-family="JetBrains Mono" font-size="10.00" fill="#cccccc">yes</text>
</g>
<!-- window -->
<g id="node7" class="node">
<title>window</title>
<path fill="#1a1f2e" stroke="#39ff14" stroke-width="2" d="M350,-955.88C350,-955.88 215,-955.88 215,-955.88 209,-955.88 203,-949.88 203,-943.88 203,-943.88 203,-929.88 203,-929.88 203,-923.88 209,-917.88 215,-917.88 215,-917.88 350,-917.88 350,-917.88 356,-917.88 362,-923.88 362,-929.88 362,-929.88 362,-943.88 362,-943.88 362,-949.88 356,-955.88 350,-955.88"/>
<text text-anchor="middle" x="282.5" y="-940.67" font-family="JetBrains Mono" font-size="14.00" fill="#e6e6e6">Find next settlement</text>
<text text-anchor="middle" x="282.5" y="-925.67" font-family="JetBrains Mono" font-size="14.00" fill="#e6e6e6">(within 90 min only)</text>
</g>
<!-- halt3&#45;&gt;window -->
<g id="edge9" class="edge">
<title>halt3&#45;&gt;window</title>
<path fill="none" stroke="#39ff14" stroke-width="1.5" d="M357.63,-1004.83C344.46,-993.1 325.89,-976.55 310.51,-962.84"/>
<polygon fill="#39ff14" stroke="#39ff14" stroke-width="1.5" points="312.59,-960.01 302.8,-955.97 307.94,-965.24 312.59,-960.01"/>
<text text-anchor="middle" x="341" y="-976.88" font-family="JetBrains Mono" font-size="10.00" fill="#cccccc">no</text>
</g>
<!-- skip3 -->
<g id="node20" class="node">
<title>skip3</title>
<ellipse fill="#3a0a0a" stroke="#ff3333" stroke-width="2" cx="465.5" cy="-936.88" rx="85.29" ry="18"/>
<text text-anchor="middle" x="465.5" y="-933.17" font-family="JetBrains Mono" font-size="14.00" fill="#e6e6e6">[STOP] daily cap</text>
</g>
<!-- halt3&#45;&gt;skip3 -->
<g id="edge8" class="edge">
<title>halt3&#45;&gt;skip3</title>
<path fill="none" stroke="#ff3333" stroke-width="1.5" d="M391.19,-1004.83C404.65,-992.71 423.82,-975.43 439.32,-961.47"/>
<polygon fill="#ff3333" stroke="#ff3333" stroke-width="1.5" points="441.95,-963.81 447.04,-954.51 437.26,-958.61 441.95,-963.81"/>
<text text-anchor="middle" x="434.5" y="-976.88" font-family="JetBrains Mono" font-size="10.00" fill="#cccccc">yes</text>
</g>
<!-- candles -->
<g id="node8" class="node">
<title>candles</title>
<path fill="#1a1f2e" stroke="#39ff14" stroke-width="2" d="M360,-880.88C360,-880.88 205,-880.88 205,-880.88 199,-880.88 193,-874.88 193,-868.88 193,-868.88 193,-854.88 193,-854.88 193,-848.88 199,-842.88 205,-842.88 205,-842.88 360,-842.88 360,-842.88 366,-842.88 372,-848.88 372,-854.88 372,-854.88 372,-868.88 372,-868.88 372,-874.88 366,-880.88 360,-880.88"/>
<text text-anchor="middle" x="282.5" y="-865.67" font-family="JetBrains Mono" font-size="14.00" fill="#e6e6e6">Fetch 1440 1m candles</text>
<text text-anchor="middle" x="282.5" y="-850.67" font-family="JetBrains Mono" font-size="14.00" fill="#e6e6e6">from Gemini</text>
</g>
<!-- window&#45;&gt;candles -->
<g id="edge10" class="edge">
<title>window&#45;&gt;candles</title>
<path fill="none" stroke="#39ff14" stroke-width="1.5" d="M282.5,-917.83C282.5,-909.76 282.5,-900.05 282.5,-891.06"/>
<polygon fill="#39ff14" stroke="#39ff14" stroke-width="1.5" points="286,-890.97 282.5,-880.97 279,-890.97 286,-890.97"/>
</g>
<!-- feats -->
<g id="node9" class="node">
<title>feats</title>
<path fill="#1a1f2e" stroke="#39ff14" stroke-width="2" d="M363,-805.88C363,-805.88 202,-805.88 202,-805.88 196,-805.88 190,-799.88 190,-793.88 190,-793.88 190,-764.88 190,-764.88 190,-758.88 196,-752.88 202,-752.88 202,-752.88 363,-752.88 363,-752.88 369,-752.88 375,-758.88 375,-764.88 375,-764.88 375,-793.88 375,-793.88 375,-799.88 369,-805.88 363,-805.88"/>
<text text-anchor="middle" x="282.5" y="-790.67" font-family="JetBrains Mono" font-size="14.00" fill="#e6e6e6">Build features:</text>
<text text-anchor="middle" x="282.5" y="-775.67" font-family="JetBrains Mono" font-size="14.00" fill="#e6e6e6">rel_ma, vol, momentum,</text>
<text text-anchor="middle" x="282.5" y="-760.67" font-family="JetBrains Mono" font-size="14.00" fill="#e6e6e6">RSI, ma_slope, amount</text>
</g>
<!-- candles&#45;&gt;feats -->
<g id="edge11" class="edge">
<title>candles&#45;&gt;feats</title>
<path fill="none" stroke="#39ff14" stroke-width="1.5" d="M282.5,-842.61C282.5,-834.72 282.5,-825.21 282.5,-816.02"/>
<polygon fill="#39ff14" stroke="#39ff14" stroke-width="1.5" points="286,-815.89 282.5,-805.89 279,-815.89 286,-815.89"/>
</g>
<!-- clf -->
<g id="node10" class="node">
<title>clf</title>
<path fill="#1a1f2e" stroke="#39ff14" stroke-width="2" d="M378.5,-715.88C378.5,-715.88 186.5,-715.88 186.5,-715.88 180.5,-715.88 174.5,-709.88 174.5,-703.88 174.5,-703.88 174.5,-674.88 174.5,-674.88 174.5,-668.88 180.5,-662.88 186.5,-662.88 186.5,-662.88 378.5,-662.88 378.5,-662.88 384.5,-662.88 390.5,-668.88 390.5,-674.88 390.5,-674.88 390.5,-703.88 390.5,-703.88 390.5,-709.88 384.5,-715.88 378.5,-715.88"/>
<text text-anchor="middle" x="282.5" y="-700.67" font-family="JetBrains Mono" font-size="14.00" fill="#e6e6e6">Run XGBoost classifier</text>
<text text-anchor="middle" x="282.5" y="-685.67" font-family="JetBrains Mono" font-size="14.00" fill="#e6e6e6">(GPU or CPU fallback)</text>
<text text-anchor="middle" x="282.5" y="-670.67" font-family="JetBrains Mono" font-size="14.00" fill="#e6e6e6">→ P(price &gt; strike) per strike</text>
</g>
<!-- feats&#45;&gt;clf -->
<g id="edge12" class="edge">
<title>feats&#45;&gt;clf</title>
<path fill="none" stroke="#39ff14" stroke-width="1.5" d="M282.5,-752.45C282.5,-744.21 282.5,-734.95 282.5,-726.15"/>
<polygon fill="#39ff14" stroke="#39ff14" stroke-width="1.5" points="286,-726.12 282.5,-716.12 279,-726.12 286,-726.12"/>
</g>
<!-- edge_g -->
<g id="node11" class="node">
<title>edge_g</title>
<path fill="#1a2a1a" stroke="#39ff14" stroke-width="2" d="M359.5,-625.88C359.5,-625.88 205.5,-625.88 205.5,-625.88 199.5,-625.88 193.5,-619.88 193.5,-613.88 193.5,-613.88 193.5,-569.88 193.5,-569.88 193.5,-563.88 199.5,-557.88 205.5,-557.88 205.5,-557.88 359.5,-557.88 359.5,-557.88 365.5,-557.88 371.5,-563.88 371.5,-569.88 371.5,-569.88 371.5,-613.88 371.5,-613.88 371.5,-619.88 365.5,-625.88 359.5,-625.88"/>
<text text-anchor="middle" x="282.5" y="-610.67" font-family="JetBrains Mono" font-size="14.00" fill="#e6e6e6">Per&#45;strike edge gates:</text>
<text text-anchor="middle" x="282.5" y="-595.67" font-family="JetBrains Mono" font-size="14.00" fill="#e6e6e6">• edge ≥ 5%</text>
<text text-anchor="middle" x="282.5" y="-580.67" font-family="JetBrains Mono" font-size="14.00" fill="#e6e6e6">• 10¢ ≤ price &lt; 95¢*</text>
<text text-anchor="middle" x="282.5" y="-565.67" font-family="JetBrains Mono" font-size="14.00" fill="#e6e6e6">• prob/price ratio ≤ 3×</text>
</g>
<!-- clf&#45;&gt;edge_g -->
<g id="edge13" class="edge">
<title>clf&#45;&gt;edge_g</title>
<path fill="none" stroke="#39ff14" stroke-width="1.5" d="M282.5,-662.78C282.5,-654.59 282.5,-645.29 282.5,-636.2"/>
<polygon fill="#39ff14" stroke="#39ff14" stroke-width="1.5" points="286,-636.1 282.5,-626.1 279,-636.1 286,-636.1"/>
</g>
<!-- sort -->
<g id="node12" class="node">
<title>sort</title>
<path fill="#1a1f2e" stroke="#39ff14" stroke-width="2" d="M250,-512.38C250,-512.38 55,-512.38 55,-512.38 49,-512.38 43,-506.38 43,-500.38 43,-500.38 43,-488.38 43,-488.38 43,-482.38 49,-476.38 55,-476.38 55,-476.38 250,-476.38 250,-476.38 256,-476.38 262,-482.38 262,-488.38 262,-488.38 262,-500.38 262,-500.38 262,-506.38 256,-512.38 250,-512.38"/>
<text text-anchor="middle" x="152.5" y="-490.68" font-family="JetBrains Mono" font-size="14.00" fill="#e6e6e6">Sort opportunities by edge ↓</text>
</g>
<!-- edge_g&#45;&gt;sort -->
<g id="edge14" class="edge">
<title>edge_g&#45;&gt;sort</title>
<path fill="none" stroke="#39ff14" stroke-width="1.5" d="M237.4,-557.74C219.95,-544.92 200.38,-530.55 184.44,-518.84"/>
<polygon fill="#39ff14" stroke="#39ff14" stroke-width="1.5" points="186.12,-515.73 175.98,-512.63 181.97,-521.37 186.12,-515.73"/>
</g>
<!-- note -->
<g id="node21" class="node">
<title>note</title>
<polygon fill="#2a1a0a" stroke="#ffaa00" stroke-width="2" points="539,-520.88 280,-520.88 280,-467.88 545,-467.88 545,-514.88 539,-520.88"/>
<polyline fill="none" stroke="#ffaa00" stroke-width="2" points="539,-520.88 539,-514.88 "/>
<polyline fill="none" stroke="#ffaa00" stroke-width="2" points="545,-514.88 539,-514.88 "/>
<text text-anchor="middle" x="412.5" y="-505.68" font-family="JetBrains Mono" font-size="14.00" fill="#ffcc66">* gate uses ACTUAL side&#45;price</text>
<text text-anchor="middle" x="412.5" y="-490.68" font-family="JetBrains Mono" font-size="14.00" fill="#ffcc66">(yes_price for YES, no_price for NO)</text>
<text text-anchor="middle" x="412.5" y="-475.68" font-family="JetBrains Mono" font-size="14.00" fill="#ffcc66">— bug (a) fix this session</text>
</g>
<!-- edge_g&#45;&gt;note -->
<g id="edge20" class="edge">
<title>edge_g&#45;&gt;note</title>
<path fill="none" stroke="#ffaa00" stroke-width="1.5" stroke-dasharray="1,5" d="M327.6,-557.74C344.03,-545.67 362.33,-532.23 377.73,-520.92"/>
</g>
<!-- recon -->
<g id="node13" class="node">
<title>recon</title>
<path fill="#3a0a3a" stroke="#ff66ff" stroke-width="3" d="M293,-430.88C293,-430.88 12,-430.88 12,-430.88 6,-430.88 0,-424.88 0,-418.88 0,-418.88 0,-389.88 0,-389.88 0,-383.88 6,-377.88 12,-377.88 12,-377.88 293,-377.88 293,-377.88 299,-377.88 305,-383.88 305,-389.88 305,-389.88 305,-418.88 305,-418.88 305,-424.88 299,-430.88 293,-430.88"/>
<text text-anchor="middle" x="152.5" y="-415.68" font-family="JetBrains Mono" font-size="14.00" fill="#ffccff">★ NEW: position reconciliation</text>
<text text-anchor="middle" x="152.5" y="-400.68" font-family="JetBrains Mono" font-size="14.00" fill="#ffccff">GET /portfolio/positions::market_positions</text>
<text text-anchor="middle" x="152.5" y="-385.68" font-family="JetBrains Mono" font-size="14.00" fill="#ffccff">drop opps that oppose held side</text>
</g>
<!-- sort&#45;&gt;recon -->
<g id="edge15" class="edge">
<title>sort&#45;&gt;recon</title>
<path fill="none" stroke="#39ff14" stroke-width="1.5" d="M152.5,-475.99C152.5,-466.07 152.5,-453.26 152.5,-441.28"/>
<polygon fill="#39ff14" stroke="#39ff14" stroke-width="1.5" points="156,-441.06 152.5,-431.06 149,-441.06 156,-441.06"/>
</g>
<!-- cap -->
<g id="node14" class="node">
<title>cap</title>
<path fill="#3a0a3a" stroke="#ff66ff" stroke-width="3" d="M260.5,-340.88C260.5,-340.88 44.5,-340.88 44.5,-340.88 38.5,-340.88 32.5,-334.88 32.5,-328.88 32.5,-328.88 32.5,-299.88 32.5,-299.88 32.5,-293.88 38.5,-287.88 44.5,-287.88 44.5,-287.88 260.5,-287.88 260.5,-287.88 266.5,-287.88 272.5,-293.88 272.5,-299.88 272.5,-299.88 272.5,-328.88 272.5,-328.88 272.5,-334.88 266.5,-340.88 260.5,-340.88"/>
<text text-anchor="middle" x="152.5" y="-325.68" font-family="JetBrains Mono" font-size="14.00" fill="#ffccff">★ NEW: top&#45;N cap</text>
<text text-anchor="middle" x="152.5" y="-310.68" font-family="JetBrains Mono" font-size="14.00" fill="#ffccff">MAX_PLACEMENTS_PER_RUN=3</text>
<text text-anchor="middle" x="152.5" y="-295.68" font-family="JetBrains Mono" font-size="14.00" fill="#ffccff">keep top&#45;N by edge</text>
</g>
<!-- recon&#45;&gt;cap -->
<g id="edge16" class="edge">
<title>recon&#45;&gt;cap</title>
<path fill="none" stroke="#39ff14" stroke-width="1.5" d="M152.5,-377.45C152.5,-369.21 152.5,-359.95 152.5,-351.15"/>
<polygon fill="#39ff14" stroke="#39ff14" stroke-width="1.5" points="156,-351.12 152.5,-341.12 149,-351.12 156,-351.12"/>
</g>
<!-- place -->
<g id="node15" class="node">
<title>place</title>
<path fill="#1a1f2e" stroke="#39ff14" stroke-width="2" d="M237.5,-250.88C237.5,-250.88 67.5,-250.88 67.5,-250.88 61.5,-250.88 55.5,-244.88 55.5,-238.88 55.5,-238.88 55.5,-194.88 55.5,-194.88 55.5,-188.88 61.5,-182.88 67.5,-182.88 67.5,-182.88 237.5,-182.88 237.5,-182.88 243.5,-182.88 249.5,-188.88 249.5,-194.88 249.5,-194.88 249.5,-238.88 249.5,-238.88 249.5,-244.88 243.5,-250.88 237.5,-250.88"/>
<text text-anchor="middle" x="152.5" y="-235.68" font-family="JetBrains Mono" font-size="14.00" fill="#e6e6e6">For each surviving opp:</text>
<text text-anchor="middle" x="152.5" y="-220.68" font-family="JetBrains Mono" font-size="14.00" fill="#e6e6e6">• Kelly stake (33% of full)</text>
<text text-anchor="middle" x="152.5" y="-205.68" font-family="JetBrains Mono" font-size="14.00" fill="#e6e6e6">• count = stake / price</text>
<text text-anchor="middle" x="152.5" y="-190.68" font-family="JetBrains Mono" font-size="14.00" fill="#e6e6e6">• POST /portfolio/orders</text>
</g>
<!-- cap&#45;&gt;place -->
<g id="edge17" class="edge">
<title>cap&#45;&gt;place</title>
<path fill="none" stroke="#39ff14" stroke-width="1.5" d="M152.5,-287.78C152.5,-279.59 152.5,-270.29 152.5,-261.2"/>
<polygon fill="#39ff14" stroke="#39ff14" stroke-width="1.5" points="156,-261.1 152.5,-251.1 149,-261.1 156,-261.1"/>
</g>
<!-- log_s -->
<g id="node16" class="node">
<title>log_s</title>
<path fill="#2a1a0a" stroke="#ffcc66" stroke-width="2" d="M283.5,-139.2C283.5,-142.85 224.78,-145.81 152.5,-145.81 80.22,-145.81 21.5,-142.85 21.5,-139.2 21.5,-139.2 21.5,-79.68 21.5,-79.68 21.5,-76.03 80.22,-73.06 152.5,-73.06 224.78,-73.06 283.5,-76.03 283.5,-79.68 283.5,-79.68 283.5,-139.2 283.5,-139.2"/>
<path fill="none" stroke="#ffcc66" stroke-width="2" d="M283.5,-139.2C283.5,-135.55 224.78,-132.59 152.5,-132.59 80.22,-132.59 21.5,-135.55 21.5,-139.2"/>
<text text-anchor="middle" x="152.5" y="-120.74" font-family="JetBrains Mono" font-size="14.00" fill="#e6e6e6">UPDATE runs SET trades_placed=N</text>
<text text-anchor="middle" x="152.5" y="-105.74" font-family="JetBrains Mono" font-size="14.00" fill="#e6e6e6">INSERT trades (per order)</text>
<text text-anchor="middle" x="152.5" y="-90.74" font-family="JetBrains Mono" font-size="14.00" fill="#e6e6e6">append log line</text>
</g>
<!-- place&#45;&gt;log_s -->
<g id="edge18" class="edge">
<title>place&#45;&gt;log_s</title>
<path fill="none" stroke="#39ff14" stroke-width="1.5" d="M152.5,-182.8C152.5,-174.29 152.5,-164.98 152.5,-155.96"/>
<polygon fill="#39ff14" stroke="#39ff14" stroke-width="1.5" points="156,-155.95 152.5,-145.95 149,-155.95 156,-155.95"/>
</g>
<!-- done -->
<g id="node17" class="node">
<title>done</title>
<ellipse fill="#0a3a0a" stroke="#39ff14" stroke-width="3" cx="152.5" cy="-18" rx="36.29" ry="18"/>
<text text-anchor="middle" x="152.5" y="-14.3" font-family="JetBrains Mono" font-size="14.00" fill="#e6e6e6">exit 0</text>
</g>
<!-- log_s&#45;&gt;done -->
<g id="edge19" class="edge">
<title>log_s&#45;&gt;done</title>
<path fill="none" stroke="#39ff14" stroke-width="1.5" d="M152.5,-72.83C152.5,-63.93 152.5,-54.52 152.5,-46.1"/>
<polygon fill="#39ff14" stroke="#39ff14" stroke-width="1.5" points="156,-46.08 152.5,-36.08 149,-46.08 156,-46.08"/>
</g>
</g>
</svg>
