<?xml version="1.0" encoding="UTF-8" standalone="no"?>
<!DOCTYPE svg PUBLIC "-//W3C//DTD SVG 1.1//EN"
 "http://www.w3.org/Graphics/SVG/1.1/DTD/svg11.dtd">
<!-- Generated by graphviz version 2.43.0 (0)
 -->
<!-- Title: failure_modes Pages: 1 -->
<svg width="1021pt" height="864pt"
 viewBox="0.00 0.00 1021.00 864.00" xmlns="http://www.w3.org/2000/svg" xmlns:xlink="http://www.w3.org/1999/xlink">
<g id="graph0" class="graph" transform="scale(1 1) rotate(0) translate(4 860)">
<title>failure_modes</title>
<polygon fill="#0a0e14" stroke="transparent" points="-4,4 -4,-860 1017,-860 1017,4 -4,4"/>
<g id="clust1" class="cluster">
<title>cluster_failures</title>
<path fill="#1a0a0a" stroke="#ff3333" stroke-width="2" d="M20,-209C20,-209 284,-209 284,-209 290,-209 296,-215 296,-221 296,-221 296,-836 296,-836 296,-842 290,-848 284,-848 284,-848 20,-848 20,-848 14,-848 8,-842 8,-836 8,-836 8,-221 8,-221 8,-215 14,-209 20,-209"/>
<text text-anchor="middle" x="152" y="-832.8" font-family="JetBrains Mono" font-size="14.00" fill="#ff6666">Past Failures</text>
</g>
<g id="clust2" class="cluster">
<title>cluster_gates</title>
<path fill="#0a1a0a" stroke="#39ff14" stroke-width="2" d="M329,-213C329,-213 586,-213 586,-213 592,-213 598,-219 598,-225 598,-225 598,-807 598,-807 598,-813 592,-819 586,-819 586,-819 329,-819 329,-819 323,-819 317,-813 317,-807 317,-807 317,-225 317,-225 317,-219 323,-213 329,-213"/>
<text text-anchor="middle" x="457.5" y="-803.8" font-family="JetBrains Mono" font-size="14.00" fill="#aaff66">Active Mitigations</text>
</g>
<g id="clust3" class="cluster">
<title>cluster_open</title>
<path fill="#1a1408" stroke="#ffaa00" stroke-width="2" d="M732,-8C732,-8 993,-8 993,-8 999,-8 1005,-14 1005,-20 1005,-20 1005,-317 1005,-317 1005,-323 999,-329 993,-329 993,-329 732,-329 732,-329 726,-329 720,-323 720,-317 720,-317 720,-20 720,-20 720,-14 726,-8 732,-8"/>
<text text-anchor="middle" x="862.5" y="-313.8" font-family="JetBrains Mono" font-size="14.00" fill="#ffcc66">Open / partially mitigated</text>
</g>
<!-- f_lstm -->
<g id="node1" class="node">
<title>f_lstm</title>
<path fill="#2a0a0a" stroke="#ff6666" stroke-width="2" d="M266.5,-816.5C266.5,-816.5 37.5,-816.5 37.5,-816.5 31.5,-816.5 25.5,-810.5 25.5,-804.5 25.5,-804.5 25.5,-745.5 25.5,-745.5 25.5,-739.5 31.5,-733.5 37.5,-733.5 37.5,-733.5 266.5,-733.5 266.5,-733.5 272.5,-733.5 278.5,-739.5 278.5,-745.5 278.5,-745.5 278.5,-804.5 278.5,-804.5 278.5,-810.5 272.5,-816.5 266.5,-816.5"/>
<text text-anchor="middle" x="152" y="-801.3" font-family="JetBrains Mono" font-size="14.00" fill="#ffcccc">LSTM regime drift</text>
<text text-anchor="middle" x="152" y="-786.3" font-family="JetBrains Mono" font-size="14.00" fill="#ffcccc">(2026&#45;04&#45;13)</text>
<text text-anchor="middle" x="152" y="-771.3" font-family="JetBrains Mono" font-size="14.00" fill="#ffcccc">absolute price model trained</text>
<text text-anchor="middle" x="152" y="-756.3" font-family="JetBrains Mono" font-size="14.00" fill="#ffcccc">on $60–126k range</text>
<text text-anchor="middle" x="152" y="-741.3" font-family="JetBrains Mono" font-size="14.00" fill="#ffcccc">predicted $76k when BTC at $71k</text>
</g>
<!-- g_lstm -->
<g id="node8" class="node">
<title>g_lstm</title>
<path fill="#0a2a0a" stroke="#39ff14" stroke-width="2" d="M557.5,-787.5C557.5,-787.5 357.5,-787.5 357.5,-787.5 351.5,-787.5 345.5,-781.5 345.5,-775.5 345.5,-775.5 345.5,-746.5 345.5,-746.5 345.5,-740.5 351.5,-734.5 357.5,-734.5 357.5,-734.5 557.5,-734.5 557.5,-734.5 563.5,-734.5 569.5,-740.5 569.5,-746.5 569.5,-746.5 569.5,-775.5 569.5,-775.5 569.5,-781.5 563.5,-787.5 557.5,-787.5"/>
<text text-anchor="middle" x="457.5" y="-772.3" font-family="JetBrains Mono" font-size="14.00" fill="#aaffaa">LSTM RETIRED 2026&#45;04&#45;14</text>
<text text-anchor="middle" x="457.5" y="-757.3" font-family="JetBrains Mono" font-size="14.00" fill="#aaffaa">classifier&#45;only path</text>
<text text-anchor="middle" x="457.5" y="-742.3" font-family="JetBrains Mono" font-size="14.00" fill="#aaffaa">skip&#45;on&#45;failure, never fallback</text>
</g>
<!-- f_lstm&#45;&gt;g_lstm -->
<g id="edge1" class="edge">
<title>f_lstm&#45;&gt;g_lstm</title>
<path fill="none" stroke="#39ff14" stroke-width="1.5" d="M278.64,-769.2C297.21,-768.35 316.32,-767.47 334.82,-766.61"/>
<polygon fill="#39ff14" stroke="#39ff14" stroke-width="1.5" points="335.19,-770.1 345.02,-766.14 334.87,-763.11 335.19,-770.1"/>
</g>
<!-- f_cuda -->
<g id="node2" class="node">
<title>f_cuda</title>
<path fill="#2a0a0a" stroke="#ff6666" stroke-width="2" d="M276,-715C276,-715 28,-715 28,-715 22,-715 16,-709 16,-703 16,-703 16,-659 16,-659 16,-653 22,-647 28,-647 28,-647 276,-647 276,-647 282,-647 288,-653 288,-659 288,-659 288,-703 288,-703 288,-709 282,-715 276,-715"/>
<text text-anchor="middle" x="152" y="-699.8" font-family="JetBrains Mono" font-size="14.00" fill="#ffcccc">GPU OOM mid&#45;tick</text>
<text text-anchor="middle" x="152" y="-684.8" font-family="JetBrains Mono" font-size="14.00" fill="#ffcccc">(2026&#45;04&#45;14 17:30)</text>
<text text-anchor="middle" x="152" y="-669.8" font-family="JetBrains Mono" font-size="14.00" fill="#ffcccc">Ollama loaded 14B model</text>
<text text-anchor="middle" x="152" y="-654.8" font-family="JetBrains Mono" font-size="14.00" fill="#ffcccc">XGBoost cudaErrorMemoryAllocation</text>
</g>
<!-- g_cpu -->
<g id="node9" class="node">
<title>g_cpu</title>
<path fill="#0a2a0a" stroke="#39ff14" stroke-width="2" d="M565,-716.5C565,-716.5 350,-716.5 350,-716.5 344,-716.5 338,-710.5 338,-704.5 338,-704.5 338,-675.5 338,-675.5 338,-669.5 344,-663.5 350,-663.5 350,-663.5 565,-663.5 565,-663.5 571,-663.5 577,-669.5 577,-675.5 577,-675.5 577,-704.5 577,-704.5 577,-710.5 571,-716.5 565,-716.5"/>
<text text-anchor="middle" x="457.5" y="-701.3" font-family="JetBrains Mono" font-size="14.00" fill="#aaffaa">classifier_device.py</text>
<text text-anchor="middle" x="457.5" y="-686.3" font-family="JetBrains Mono" font-size="14.00" fill="#aaffaa">probe nvidia&#45;smi for ≥1500 MiB</text>
<text text-anchor="middle" x="457.5" y="-671.3" font-family="JetBrains Mono" font-size="14.00" fill="#aaffaa">else CUDA_VISIBLE_DEVICES=&#39;&#39;</text>
</g>
<!-- f_cuda&#45;&gt;g_cpu -->
<g id="edge2" class="edge">
<title>f_cuda&#45;&gt;g_cpu</title>
<path fill="none" stroke="#39ff14" stroke-width="1.5" d="M288.33,-685.01C301.3,-685.4 314.43,-685.79 327.35,-686.17"/>
<polygon fill="#39ff14" stroke="#39ff14" stroke-width="1.5" points="327.54,-689.68 337.64,-686.48 327.75,-682.68 327.54,-689.68"/>
</g>
<!-- f_mae -->
<g id="node3" class="node">
<title>f_mae</title>
<path fill="#2a0a0a" stroke="#ff6666" stroke-width="2" d="M257,-629C257,-629 47,-629 47,-629 41,-629 35,-623 35,-617 35,-617 35,-573 35,-573 35,-567 41,-561 47,-561 47,-561 257,-561 257,-561 263,-561 269,-567 269,-573 269,-573 269,-617 269,-617 269,-623 263,-629 257,-629"/>
<text text-anchor="middle" x="152" y="-613.8" font-family="JetBrains Mono" font-size="14.00" fill="#ffcccc">Phantom edge from MAE</text>
<text text-anchor="middle" x="152" y="-598.8" font-family="JetBrains Mono" font-size="14.00" fill="#ffcccc">(2026&#45;04&#45;13 21:00)</text>
<text text-anchor="middle" x="152" y="-583.8" font-family="JetBrains Mono" font-size="14.00" fill="#ffcccc">model uncertainty $3,999 wide</text>
<text text-anchor="middle" x="152" y="-568.8" font-family="JetBrains Mono" font-size="14.00" fill="#ffcccc">every strike looked like edge</text>
</g>
<!-- g_mae -->
<g id="node10" class="node">
<title>g_mae</title>
<path fill="#0a2a0a" stroke="#39ff14" stroke-width="2" d="M560.5,-645.5C560.5,-645.5 354.5,-645.5 354.5,-645.5 348.5,-645.5 342.5,-639.5 342.5,-633.5 342.5,-633.5 342.5,-604.5 342.5,-604.5 342.5,-598.5 348.5,-592.5 354.5,-592.5 354.5,-592.5 560.5,-592.5 560.5,-592.5 566.5,-592.5 572.5,-598.5 572.5,-604.5 572.5,-604.5 572.5,-633.5 572.5,-633.5 572.5,-639.5 566.5,-645.5 560.5,-645.5"/>
<text text-anchor="middle" x="457.5" y="-630.3" font-family="JetBrains Mono" font-size="14.00" fill="#aaffaa">MAE_MAX_DOLLARS gate</text>
<text text-anchor="middle" x="457.5" y="-615.3" font-family="JetBrains Mono" font-size="14.00" fill="#aaffaa">(now moot — classifier doesn&#39;t</text>
<text text-anchor="middle" x="457.5" y="-600.3" font-family="JetBrains Mono" font-size="14.00" fill="#aaffaa">produce MAE; kept for safety)</text>
</g>
<!-- f_mae&#45;&gt;g_mae -->
<g id="edge3" class="edge">
<title>f_mae&#45;&gt;g_mae</title>
<path fill="none" stroke="#39ff14" stroke-width="1.5" d="M269.04,-604.18C289.68,-605.81 311.25,-607.51 332.1,-609.16"/>
<polygon fill="#39ff14" stroke="#39ff14" stroke-width="1.5" points="332.03,-612.67 342.28,-609.97 332.59,-605.69 332.03,-612.67"/>
</g>
<!-- f_thin -->
<g id="node4" class="node">
<title>f_thin</title>
<path fill="#2a0a0a" stroke="#ff6666" stroke-width="2" d="M232.5,-543C232.5,-543 71.5,-543 71.5,-543 65.5,-543 59.5,-537 59.5,-531 59.5,-531 59.5,-487 59.5,-487 59.5,-481 65.5,-475 71.5,-475 71.5,-475 232.5,-475 232.5,-475 238.5,-475 244.5,-481 244.5,-487 244.5,-487 244.5,-531 244.5,-531 244.5,-537 238.5,-543 232.5,-543"/>
<text text-anchor="middle" x="152" y="-527.8" font-family="JetBrains Mono" font-size="14.00" fill="#ffcccc">Thin&#45;contract trap</text>
<text text-anchor="middle" x="152" y="-512.8" font-family="JetBrains Mono" font-size="14.00" fill="#ffcccc">(2026&#45;04&#45;13 00:30)</text>
<text text-anchor="middle" x="152" y="-497.8" font-family="JetBrains Mono" font-size="14.00" fill="#ffcccc">2¢ market price</text>
<text text-anchor="middle" x="152" y="-482.8" font-family="JetBrains Mono" font-size="14.00" fill="#ffcccc">Gaussian saw 30× edge</text>
</g>
<!-- g_min -->
<g id="node11" class="node">
<title>g_min</title>
<path fill="#0a2a0a" stroke="#39ff14" stroke-width="2" d="M557.5,-574.5C557.5,-574.5 357.5,-574.5 357.5,-574.5 351.5,-574.5 345.5,-568.5 345.5,-562.5 345.5,-562.5 345.5,-533.5 345.5,-533.5 345.5,-527.5 351.5,-521.5 357.5,-521.5 357.5,-521.5 557.5,-521.5 557.5,-521.5 563.5,-521.5 569.5,-527.5 569.5,-533.5 569.5,-533.5 569.5,-562.5 569.5,-562.5 569.5,-568.5 563.5,-574.5 557.5,-574.5"/>
<text text-anchor="middle" x="457.5" y="-559.3" font-family="JetBrains Mono" font-size="14.00" fill="#aaffaa">MIN_CONTRACT_CENTS=10</text>
<text text-anchor="middle" x="457.5" y="-544.3" font-family="JetBrains Mono" font-size="14.00" fill="#aaffaa">MAX_PROB_RATIO=3×</text>
<text text-anchor="middle" x="457.5" y="-529.3" font-family="JetBrains Mono" font-size="14.00" fill="#aaffaa">rejects extreme thin contracts</text>
</g>
<!-- f_thin&#45;&gt;g_min -->
<g id="edge4" class="edge">
<title>f_thin&#45;&gt;g_min</title>
<path fill="none" stroke="#39ff14" stroke-width="1.5" d="M244.88,-520.81C273.33,-524.46 305.13,-528.55 335.25,-532.42"/>
<polygon fill="#39ff14" stroke="#39ff14" stroke-width="1.5" points="335.03,-535.92 345.39,-533.72 335.92,-528.98 335.03,-535.92"/>
</g>
<!-- f_400 -->
<g id="node5" class="node">
<title>f_400</title>
<path fill="#2a0a0a" stroke="#ff6666" stroke-width="2" d="M240,-457C240,-457 64,-457 64,-457 58,-457 52,-451 52,-445 52,-445 52,-401 52,-401 52,-395 58,-389 64,-389 64,-389 240,-389 240,-389 246,-389 252,-395 252,-401 252,-401 252,-445 252,-445 252,-451 246,-457 240,-457"/>
<text text-anchor="middle" x="152" y="-441.8" font-family="JetBrains Mono" font-size="14.00" fill="#ffcccc">100¢ API rejects</text>
<text text-anchor="middle" x="152" y="-426.8" font-family="JetBrains Mono" font-size="14.00" fill="#ffcccc">(54/night, 2026&#45;04&#45;14/15)</text>
<text text-anchor="middle" x="152" y="-411.8" font-family="JetBrains Mono" font-size="14.00" fill="#ffcccc">filter used 1&#45;yes_price</text>
<text text-anchor="middle" x="152" y="-396.8" font-family="JetBrains Mono" font-size="14.00" fill="#ffcccc">but order used no_price</text>
</g>
<!-- g_price -->
<g id="node12" class="node">
<title>g_price</title>
<path fill="#0a2a0a" stroke="#39ff14" stroke-width="2" d="M578,-503.5C578,-503.5 337,-503.5 337,-503.5 331,-503.5 325,-497.5 325,-491.5 325,-491.5 325,-462.5 325,-462.5 325,-456.5 331,-450.5 337,-450.5 337,-450.5 578,-450.5 578,-450.5 584,-450.5 590,-456.5 590,-462.5 590,-462.5 590,-491.5 590,-491.5 590,-497.5 584,-503.5 578,-503.5"/>
<text text-anchor="middle" x="457.5" y="-488.3" font-family="JetBrains Mono" font-size="14.00" fill="#aaffaa">★ Gate uses ACTUAL side&#45;price</text>
<text text-anchor="middle" x="457.5" y="-473.3" font-family="JetBrains Mono" font-size="14.00" fill="#aaffaa">(yes_price for YES, no_price for NO)</text>
<text text-anchor="middle" x="457.5" y="-458.3" font-family="JetBrains Mono" font-size="14.00" fill="#aaffaa">2026&#45;04&#45;15 fix</text>
</g>
<!-- f_400&#45;&gt;g_price -->
<g id="edge5" class="edge">
<title>f_400&#45;&gt;g_price</title>
<path fill="none" stroke="#39ff14" stroke-width="1.5" d="M252.38,-440.68C272.38,-444.24 293.76,-448.04 314.88,-451.8"/>
<polygon fill="#39ff14" stroke="#39ff14" stroke-width="1.5" points="314.43,-455.28 324.88,-453.58 315.65,-448.38 314.43,-455.28"/>
</g>
<!-- f_collide -->
<g id="node6" class="node">
<title>f_collide</title>
<path fill="#2a0a0a" stroke="#ff6666" stroke-width="2" d="M265,-371C265,-371 39,-371 39,-371 33,-371 27,-365 27,-359 27,-359 27,-315 27,-315 27,-309 33,-303 39,-303 39,-303 265,-303 265,-303 271,-303 277,-309 277,-315 277,-315 277,-359 277,-359 277,-365 271,-371 265,-371"/>
<text text-anchor="middle" x="152" y="-355.8" font-family="JetBrains Mono" font-size="14.00" fill="#ffcccc">Opposing same&#45;strike bets</text>
<text text-anchor="middle" x="152" y="-340.8" font-family="JetBrains Mono" font-size="14.00" fill="#ffcccc">(2026&#45;04&#45;15 04:00 &#45;55%)</text>
<text text-anchor="middle" x="152" y="-325.8" font-family="JetBrains Mono" font-size="14.00" fill="#ffcccc">classifier flipped between runs</text>
<text text-anchor="middle" x="152" y="-310.8" font-family="JetBrains Mono" font-size="14.00" fill="#ffcccc">YES+NO accumulated on T73699</text>
</g>
<!-- g_recon -->
<g id="node13" class="node">
<title>g_recon</title>
<path fill="#0a2a0a" stroke="#39ff14" stroke-width="2" d="M539.5,-432C539.5,-432 375.5,-432 375.5,-432 369.5,-432 363.5,-426 363.5,-420 363.5,-420 363.5,-376 363.5,-376 363.5,-370 369.5,-364 375.5,-364 375.5,-364 539.5,-364 539.5,-364 545.5,-364 551.5,-370 551.5,-376 551.5,-376 551.5,-420 551.5,-420 551.5,-426 545.5,-432 539.5,-432"/>
<text text-anchor="middle" x="457.5" y="-416.8" font-family="JetBrains Mono" font-size="14.00" fill="#aaffaa">★ Position reconciliation</text>
<text text-anchor="middle" x="457.5" y="-401.8" font-family="JetBrains Mono" font-size="14.00" fill="#aaffaa">GET /portfolio/positions</text>
<text text-anchor="middle" x="457.5" y="-386.8" font-family="JetBrains Mono" font-size="14.00" fill="#aaffaa">drop opposing&#45;side opps</text>
<text text-anchor="middle" x="457.5" y="-371.8" font-family="JetBrains Mono" font-size="14.00" fill="#aaffaa">2026&#45;04&#45;15 fix</text>
</g>
<!-- f_collide&#45;&gt;g_recon -->
<g id="edge6" class="edge">
<title>f_collide&#45;&gt;g_recon</title>
<path fill="none" stroke="#39ff14" stroke-width="1.5" d="M277.32,-361.99C302.5,-367.05 328.72,-372.32 353.09,-377.21"/>
<polygon fill="#39ff14" stroke="#39ff14" stroke-width="1.5" points="352.55,-380.68 363.04,-379.22 353.93,-373.81 352.55,-380.68"/>
</g>
<!-- o_conv -->
<g id="node16" class="node">
<title>o_conv</title>
<path fill="#2a1a0a" stroke="#ffaa00" stroke-width="2" d="M977,-211.5C977,-211.5 748,-211.5 748,-211.5 742,-211.5 736,-205.5 736,-199.5 736,-199.5 736,-170.5 736,-170.5 736,-164.5 742,-158.5 748,-158.5 748,-158.5 977,-158.5 977,-158.5 983,-158.5 989,-164.5 989,-170.5 989,-170.5 989,-199.5 989,-199.5 989,-205.5 983,-211.5 977,-211.5"/>
<text text-anchor="middle" x="862.5" y="-196.3" font-family="JetBrains Mono" font-size="14.00" fill="#ffcc66">Conviction gate (proposed)</text>
<text text-anchor="middle" x="862.5" y="-181.3" font-family="JetBrains Mono" font-size="14.00" fill="#ffcc66">require |clf_prob&#45;0.5| ≥ N</text>
<text text-anchor="middle" x="862.5" y="-166.3" font-family="JetBrains Mono" font-size="14.00" fill="#ffcc66">the 04:00 NO had clf_prob=0.614</text>
</g>
<!-- f_collide&#45;&gt;o_conv -->
<g id="edge8" class="edge">
<title>f_collide&#45;&gt;o_conv</title>
<path fill="none" stroke="#ffaa00" stroke-width="1.5" stroke-dasharray="5,2" d="M277.06,-309.97C284.02,-305.43 290.43,-300.15 296,-294 328.54,-258.09 279.63,-217.86 317,-187 377.01,-137.44 585.12,-150.81 725.96,-166.66"/>
<polygon fill="#ffaa00" stroke="#ffaa00" stroke-width="1.5" points="725.65,-170.15 735.99,-167.8 726.45,-163.19 725.65,-170.15"/>
<text text-anchor="middle" x="457.5" y="-201" font-family="JetBrains Mono" font-size="10.00" fill="#cccccc">weak signal</text>
<text text-anchor="middle" x="457.5" y="-190" font-family="JetBrains Mono" font-size="10.00" fill="#cccccc">still placed</text>
</g>
<!-- o_net -->
<g id="node17" class="node">
<title>o_net</title>
<path fill="#2a1a0a" stroke="#ffaa00" stroke-width="2" d="M985,-140.5C985,-140.5 740,-140.5 740,-140.5 734,-140.5 728,-134.5 728,-128.5 728,-128.5 728,-99.5 728,-99.5 728,-93.5 734,-87.5 740,-87.5 740,-87.5 985,-87.5 985,-87.5 991,-87.5 997,-93.5 997,-99.5 997,-99.5 997,-128.5 997,-128.5 997,-134.5 991,-140.5 985,-140.5"/>
<text text-anchor="middle" x="862.5" y="-125.3" font-family="JetBrains Mono" font-size="14.00" fill="#ffcc66">Stake&#45;side netting (proposed)</text>
<text text-anchor="middle" x="862.5" y="-110.3" font-family="JetBrains Mono" font-size="14.00" fill="#ffcc66">current reconciliation = binary block</text>
<text text-anchor="middle" x="862.5" y="-95.3" font-family="JetBrains Mono" font-size="14.00" fill="#ffcc66">should reduce existing position</text>
</g>
<!-- f_collide&#45;&gt;o_net -->
<g id="edge9" class="edge">
<title>f_collide&#45;&gt;o_net</title>
<path fill="none" stroke="#ffaa00" stroke-width="1.5" stroke-dasharray="5,2" d="M277.1,-310.99C284.15,-306.22 290.56,-300.6 296,-294 319.93,-264.96 288.62,-150.7 317,-126 346.57,-100.27 566.27,-102.83 717.39,-107.84"/>
<polygon fill="#ffaa00" stroke="#ffaa00" stroke-width="1.5" points="717.59,-111.35 727.7,-108.19 717.82,-104.35 717.59,-111.35"/>
<text text-anchor="middle" x="457.5" y="-140" font-family="JetBrains Mono" font-size="10.00" fill="#cccccc">block&#45;only,</text>
<text text-anchor="middle" x="457.5" y="-129" font-family="JetBrains Mono" font-size="10.00" fill="#cccccc">does not unwind</text>
</g>
<!-- f_sprawl -->
<g id="node7" class="node">
<title>f_sprawl</title>
<path fill="#2a0a0a" stroke="#ff6666" stroke-width="2" d="M249.5,-285C249.5,-285 54.5,-285 54.5,-285 48.5,-285 42.5,-279 42.5,-273 42.5,-273 42.5,-229 42.5,-229 42.5,-223 48.5,-217 54.5,-217 54.5,-217 249.5,-217 249.5,-217 255.5,-217 261.5,-223 261.5,-229 261.5,-229 261.5,-273 261.5,-273 261.5,-279 255.5,-285 249.5,-285"/>
<text text-anchor="middle" x="152" y="-269.8" font-family="JetBrains Mono" font-size="14.00" fill="#ffcccc">Strike sprawl</text>
<text text-anchor="middle" x="152" y="-254.8" font-family="JetBrains Mono" font-size="14.00" fill="#ffcccc">(2026&#45;04&#45;15 04:00)</text>
<text text-anchor="middle" x="152" y="-239.8" font-family="JetBrains Mono" font-size="14.00" fill="#ffcccc">20 orders across 11 strikes</text>
<text text-anchor="middle" x="152" y="-224.8" font-family="JetBrains Mono" font-size="14.00" fill="#ffcccc">$100&#45;wide profitable corridor</text>
</g>
<!-- g_cap -->
<g id="node14" class="node">
<title>g_cap</title>
<path fill="#0a2a0a" stroke="#39ff14" stroke-width="2" d="M565.5,-345.5C565.5,-345.5 349.5,-345.5 349.5,-345.5 343.5,-345.5 337.5,-339.5 337.5,-333.5 337.5,-333.5 337.5,-304.5 337.5,-304.5 337.5,-298.5 343.5,-292.5 349.5,-292.5 349.5,-292.5 565.5,-292.5 565.5,-292.5 571.5,-292.5 577.5,-298.5 577.5,-304.5 577.5,-304.5 577.5,-333.5 577.5,-333.5 577.5,-339.5 571.5,-345.5 565.5,-345.5"/>
<text text-anchor="middle" x="457.5" y="-330.3" font-family="JetBrains Mono" font-size="14.00" fill="#aaffaa">★ Top&#45;N cap</text>
<text text-anchor="middle" x="457.5" y="-315.3" font-family="JetBrains Mono" font-size="14.00" fill="#aaffaa">MAX_PLACEMENTS_PER_RUN=3</text>
<text text-anchor="middle" x="457.5" y="-300.3" font-family="JetBrains Mono" font-size="14.00" fill="#aaffaa">2026&#45;04&#45;15 fix</text>
</g>
<!-- f_sprawl&#45;&gt;g_cap -->
<g id="edge7" class="edge">
<title>f_sprawl&#45;&gt;g_cap</title>
<path fill="none" stroke="#39ff14" stroke-width="1.5" d="M261.71,-275.36C283.27,-280.19 306.09,-285.3 328.23,-290.26"/>
<polygon fill="#39ff14" stroke="#39ff14" stroke-width="1.5" points="327.48,-293.68 338.01,-292.45 329.01,-286.85 327.48,-293.68"/>
</g>
<!-- o_expiry -->
<g id="node18" class="node">
<title>o_expiry</title>
<path fill="#2a1a0a" stroke="#ffaa00" stroke-width="2" d="M982,-69.5C982,-69.5 743,-69.5 743,-69.5 737,-69.5 731,-63.5 731,-57.5 731,-57.5 731,-28.5 731,-28.5 731,-22.5 737,-16.5 743,-16.5 743,-16.5 982,-16.5 982,-16.5 988,-16.5 994,-22.5 994,-28.5 994,-28.5 994,-57.5 994,-57.5 994,-63.5 988,-69.5 982,-69.5"/>
<text text-anchor="middle" x="862.5" y="-54.3" font-family="JetBrains Mono" font-size="14.00" fill="#ffcc66">Per&#45;expiry exposure cap (proposed)</text>
<text text-anchor="middle" x="862.5" y="-39.3" font-family="JetBrains Mono" font-size="14.00" fill="#ffcc66">limit total cost across all</text>
<text text-anchor="middle" x="862.5" y="-24.3" font-family="JetBrains Mono" font-size="14.00" fill="#ffcc66">strikes for one settlement</text>
</g>
<!-- f_sprawl&#45;&gt;o_expiry -->
<g id="edge10" class="edge">
<title>f_sprawl&#45;&gt;o_expiry</title>
<path fill="none" stroke="#ffaa00" stroke-width="1.5" stroke-dasharray="5,2" d="M172.81,-216.78C199.47,-174.4 251.25,-104.01 317,-73 443.86,-13.17 606.25,-12.54 720.56,-22.63"/>
<polygon fill="#ffaa00" stroke="#ffaa00" stroke-width="1.5" points="720.5,-26.14 730.78,-23.57 721.14,-19.17 720.5,-26.14"/>
<text text-anchor="middle" x="457.5" y="-87" font-family="JetBrains Mono" font-size="10.00" fill="#cccccc">top&#45;N caps count,</text>
<text text-anchor="middle" x="457.5" y="-76" font-family="JetBrains Mono" font-size="10.00" fill="#cccccc">not total $</text>
</g>
<!-- g_dd -->
<g id="node15" class="node">
<title>g_dd</title>
<path fill="#0a2a0a" stroke="#39ff14" stroke-width="2" d="M554.5,-274.5C554.5,-274.5 360.5,-274.5 360.5,-274.5 354.5,-274.5 348.5,-268.5 348.5,-262.5 348.5,-262.5 348.5,-233.5 348.5,-233.5 348.5,-227.5 354.5,-221.5 360.5,-221.5 360.5,-221.5 554.5,-221.5 554.5,-221.5 560.5,-221.5 566.5,-227.5 566.5,-233.5 566.5,-233.5 566.5,-262.5 566.5,-262.5 566.5,-268.5 560.5,-274.5 554.5,-274.5"/>
<text text-anchor="middle" x="457.5" y="-259.3" font-family="JetBrains Mono" font-size="14.00" fill="#aaffaa">DRAWDOWN_HALT=50%</text>
<text text-anchor="middle" x="457.5" y="-244.3" font-family="JetBrains Mono" font-size="14.00" fill="#aaffaa">portfolio = cash + open_cost</text>
<text text-anchor="middle" x="457.5" y="-229.3" font-family="JetBrains Mono" font-size="14.00" fill="#aaffaa">(not just cash)</text>
</g>
<!-- o_var -->
<g id="node19" class="node">
<title>o_var</title>
<path fill="#2a1a0a" stroke="#ffaa00" stroke-width="2" d="M980.5,-298C980.5,-298 744.5,-298 744.5,-298 738.5,-298 732.5,-292 732.5,-286 732.5,-286 732.5,-242 732.5,-242 732.5,-236 738.5,-230 744.5,-230 744.5,-230 980.5,-230 980.5,-230 986.5,-230 992.5,-236 992.5,-242 992.5,-242 992.5,-286 992.5,-286 992.5,-292 986.5,-298 980.5,-298"/>
<text text-anchor="middle" x="862.5" y="-282.8" font-family="JetBrains Mono" font-size="14.00" fill="#ffcc66">Variance, not drift</text>
<text text-anchor="middle" x="862.5" y="-267.8" font-family="JetBrains Mono" font-size="14.00" fill="#ffcc66">occasional &#45;55% settlement events</text>
<text text-anchor="middle" x="862.5" y="-252.8" font-family="JetBrains Mono" font-size="14.00" fill="#ffcc66">are statistically expected</text>
<text text-anchor="middle" x="862.5" y="-237.8" font-family="JetBrains Mono" font-size="14.00" fill="#ffcc66">at current sizing — accepted risk</text>
</g>
<!-- g_dd&#45;&gt;o_var -->
<g id="edge11" class="edge">
<title>g_dd&#45;&gt;o_var</title>
<path fill="none" stroke="#ffaa00" stroke-width="1.5" stroke-dasharray="5,2" d="M566.76,-252.3C614.52,-254.19 671.24,-256.45 722.11,-258.47"/>
<polygon fill="#ffaa00" stroke="#ffaa00" stroke-width="1.5" points="722.07,-261.97 732.2,-258.87 722.35,-254.97 722.07,-261.97"/>
<text text-anchor="middle" x="659" y="-271" font-family="JetBrains Mono" font-size="10.00" fill="#cccccc">catches catastrophe,</text>
<text text-anchor="middle" x="659" y="-260" font-family="JetBrains Mono" font-size="10.00" fill="#cccccc">not variance</text>
</g>
</g>
</svg>
