<?xml version="1.0" encoding="UTF-8" standalone="no"?>
<!DOCTYPE svg PUBLIC "-//W3C//DTD SVG 1.1//EN"
 "http://www.w3.org/Graphics/SVG/1.1/DTD/svg11.dtd">
<!-- Generated by graphviz version 2.43.0 (0)
 -->
<!-- Title: why_it_works Pages: 1 -->
<svg width="1471pt" height="556pt"
 viewBox="0.00 0.00 1471.00 555.95" xmlns="http://www.w3.org/2000/svg" xmlns:xlink="http://www.w3.org/1999/xlink">
<g id="graph0" class="graph" transform="scale(1 1) rotate(0) translate(4 551.95)">
<title>why_it_works</title>
<polygon fill="#0a0e14" stroke="transparent" points="-4,4 -4,-551.95 1467,-551.95 1467,4 -4,4"/>
<g id="clust1" class="cluster">
<title>cluster_signal</title>
<path fill="#0a1a0a" stroke="#39ff14" stroke-width="2" d="M20,-117.95C20,-117.95 276,-117.95 276,-117.95 282,-117.95 288,-123.95 288,-129.95 288,-129.95 288,-527.95 288,-527.95 288,-533.95 282,-539.95 276,-539.95 276,-539.95 20,-539.95 20,-539.95 14,-539.95 8,-533.95 8,-527.95 8,-527.95 8,-129.95 8,-129.95 8,-123.95 14,-117.95 20,-117.95"/>
<text text-anchor="middle" x="148" y="-524.75" font-family="JetBrains Mono" font-size="14.00" fill="#aaff66">The signal — why edge exists</text>
</g>
<g id="clust2" class="cluster">
<title>cluster_edge</title>
<path fill="#1a0a1a" stroke="#ff00ff" stroke-width="2" d="M308,-117.95C308,-117.95 840,-117.95 840,-117.95 846,-117.95 852,-123.95 852,-129.95 852,-129.95 852,-316.95 852,-316.95 852,-322.95 846,-328.95 840,-328.95 840,-328.95 308,-328.95 308,-328.95 302,-328.95 296,-322.95 296,-316.95 296,-316.95 296,-129.95 296,-129.95 296,-123.95 302,-117.95 308,-117.95"/>
<text text-anchor="middle" x="574" y="-313.75" font-family="JetBrains Mono" font-size="14.00" fill="#ff66ff">Where the edge comes from</text>
</g>
<g id="clust3" class="cluster">
<title>cluster_sizing</title>
<path fill="#0a1a1a" stroke="#00ffff" stroke-width="2" d="M872,-117.95C872,-117.95 1164,-117.95 1164,-117.95 1170,-117.95 1176,-123.95 1176,-129.95 1176,-129.95 1176,-520.45 1176,-520.45 1176,-526.45 1170,-532.45 1164,-532.45 1164,-532.45 872,-532.45 872,-532.45 866,-532.45 860,-526.45 860,-520.45 860,-520.45 860,-129.95 860,-129.95 860,-123.95 866,-117.95 872,-117.95"/>
<text text-anchor="middle" x="1018" y="-517.25" font-family="JetBrains Mono" font-size="14.00" fill="#66ffff">Why we don&#39;t blow up — sizing</text>
</g>
<g id="clust4" class="cluster">
<title>cluster_loop</title>
<path fill="#1a1408" stroke="#ffaa00" stroke-width="2" d="M1196,-102.95C1196,-102.95 1443,-102.95 1443,-102.95 1449,-102.95 1455,-108.95 1455,-114.95 1455,-114.95 1455,-527.95 1455,-527.95 1455,-533.95 1449,-539.95 1443,-539.95 1443,-539.95 1196,-539.95 1196,-539.95 1190,-539.95 1184,-533.95 1184,-527.95 1184,-527.95 1184,-114.95 1184,-114.95 1184,-108.95 1190,-102.95 1196,-102.95"/>
<text text-anchor="middle" x="1319.5" y="-524.75" font-family="JetBrains Mono" font-size="14.00" fill="#ffcc66">Why it survives bad ticks — the loop</text>
</g>
<!-- m1 -->
<g id="node1" class="node">
<title>m1</title>
<path fill="#0a2a0a" stroke="#39ff14" stroke-width="2" d="M222,-508.95C222,-508.95 74,-508.95 74,-508.95 68,-508.95 62,-502.95 62,-496.95 62,-496.95 62,-467.95 62,-467.95 62,-461.95 68,-455.95 74,-455.95 74,-455.95 222,-455.95 222,-455.95 228,-455.95 234,-461.95 234,-467.95 234,-467.95 234,-496.95 234,-496.95 234,-502.95 228,-508.95 222,-508.95"/>
<text text-anchor="middle" x="148" y="-493.75" font-family="JetBrains Mono" font-size="14.00" fill="#e6e6e6">6.2M training samples</text>
<text text-anchor="middle" x="148" y="-478.75" font-family="JetBrains Mono" font-size="14.00" fill="#e6e6e6">horizons 10–90 min</text>
<text text-anchor="middle" x="148" y="-463.75" font-family="JetBrains Mono" font-size="14.00" fill="#e6e6e6">chronological split</text>
</g>
<!-- m2 -->
<g id="node2" class="node">
<title>m2</title>
<path fill="#0a2a0a" stroke="#39ff14" stroke-width="2" d="M267.5,-412.45C267.5,-412.45 28.5,-412.45 28.5,-412.45 22.5,-412.45 16.5,-406.45 16.5,-400.45 16.5,-400.45 16.5,-356.45 16.5,-356.45 16.5,-350.45 22.5,-344.45 28.5,-344.45 28.5,-344.45 267.5,-344.45 267.5,-344.45 273.5,-344.45 279.5,-350.45 279.5,-356.45 279.5,-356.45 279.5,-400.45 279.5,-400.45 279.5,-406.45 273.5,-412.45 267.5,-412.45"/>
<text text-anchor="middle" x="148" y="-397.25" font-family="JetBrains Mono" font-size="14.00" fill="#e6e6e6">XGBoost classifier</text>
<text text-anchor="middle" x="148" y="-382.25" font-family="JetBrains Mono" font-size="14.00" fill="#e6e6e6">P(price &gt; strike at T_settle)</text>
<text text-anchor="middle" x="148" y="-367.25" font-family="JetBrains Mono" font-size="14.00" fill="#e6e6e6">given {rel_ma, vol, momentum,</text>
<text text-anchor="middle" x="148" y="-352.25" font-family="JetBrains Mono" font-size="14.00" fill="#e6e6e6">RSI, ma_slope, amount, dist, mins}</text>
</g>
<!-- m1&#45;&gt;m2 -->
<g id="edge1" class="edge">
<title>m1&#45;&gt;m2</title>
<path fill="none" stroke="#39ff14" stroke-width="1.5" d="M148,-455.71C148,-445.68 148,-433.91 148,-422.65"/>
<polygon fill="#39ff14" stroke="#39ff14" stroke-width="1.5" points="151.5,-422.53 148,-412.53 144.5,-422.53 151.5,-422.53"/>
</g>
<!-- m3 -->
<g id="node3" class="node">
<title>m3</title>
<path fill="#0a2a0a" stroke="#39ff14" stroke-width="2" d="M239,-290.45C239,-290.45 65,-290.45 65,-290.45 59,-290.45 53,-284.45 53,-278.45 53,-278.45 53,-249.45 53,-249.45 53,-243.45 59,-237.45 65,-237.45 65,-237.45 239,-237.45 239,-237.45 245,-237.45 251,-243.45 251,-249.45 251,-249.45 251,-278.45 251,-278.45 251,-284.45 245,-290.45 239,-290.45"/>
<text text-anchor="middle" x="152" y="-275.25" font-family="JetBrains Mono" font-size="14.00" fill="#e6e6e6">Isotonic calibration</text>
<text text-anchor="middle" x="152" y="-260.25" font-family="JetBrains Mono" font-size="14.00" fill="#e6e6e6">on held&#45;out validation</text>
<text text-anchor="middle" x="152" y="-245.25" font-family="JetBrains Mono" font-size="14.00" fill="#e6e6e6">→ probabilities, not scores</text>
</g>
<!-- m2&#45;&gt;m3 -->
<g id="edge2" class="edge">
<title>m2&#45;&gt;m3</title>
<path fill="none" stroke="#39ff14" stroke-width="1.5" d="M149.18,-344.31C149.66,-330.67 150.23,-314.85 150.72,-300.93"/>
<polygon fill="#39ff14" stroke="#39ff14" stroke-width="1.5" points="154.23,-300.85 151.08,-290.73 147.23,-300.6 154.23,-300.85"/>
</g>
<!-- m4 -->
<g id="node4" class="node">
<title>m4</title>
<path fill="#0a2a0a" stroke="#39ff14" stroke-width="2" d="M260.5,-178.95C260.5,-178.95 53.5,-178.95 53.5,-178.95 47.5,-178.95 41.5,-172.95 41.5,-166.95 41.5,-166.95 41.5,-137.95 41.5,-137.95 41.5,-131.95 47.5,-125.95 53.5,-125.95 53.5,-125.95 260.5,-125.95 260.5,-125.95 266.5,-125.95 272.5,-131.95 272.5,-137.95 272.5,-137.95 272.5,-166.95 272.5,-166.95 272.5,-172.95 266.5,-178.95 260.5,-178.95"/>
<text text-anchor="middle" x="157" y="-163.75" font-family="JetBrains Mono" font-size="14.00" fill="#e6e6e6">Backtest gate:</text>
<text text-anchor="middle" x="157" y="-148.75" font-family="JetBrains Mono" font-size="14.00" fill="#e6e6e6">AUC 0.992 &#160;Brier&#45;skill +87%</text>
<text text-anchor="middle" x="157" y="-133.75" font-family="JetBrains Mono" font-size="14.00" fill="#e6e6e6">avg EV/bet +0.099 &#160;WR 68.3%</text>
</g>
<!-- m3&#45;&gt;m4 -->
<g id="edge3" class="edge">
<title>m3&#45;&gt;m4</title>
<path fill="none" stroke="#39ff14" stroke-width="1.5" d="M153.17,-237.28C153.82,-223 154.65,-205.01 155.36,-189.35"/>
<polygon fill="#39ff14" stroke="#39ff14" stroke-width="1.5" points="158.88,-189.11 155.84,-178.97 151.88,-188.8 158.88,-189.11"/>
</g>
<!-- win -->
<g id="node16" class="node">
<title>win</title>
<ellipse fill="#0a3a0a" stroke="#39ff14" stroke-width="3" cx="851" cy="-37.48" rx="177.47" ry="37.45"/>
<text text-anchor="middle" x="851" y="-48.78" font-family="JetBrains Mono" font-size="14.00" fill="#aaffaa">EV&#45;positive churn at small stakes,</text>
<text text-anchor="middle" x="851" y="-33.78" font-family="JetBrains Mono" font-size="14.00" fill="#aaffaa">layered halts on tail risk,</text>
<text text-anchor="middle" x="851" y="-18.78" font-family="JetBrains Mono" font-size="14.00" fill="#aaffaa">calibration verified weekly</text>
</g>
<!-- m4&#45;&gt;win -->
<g id="edge12" class="edge">
<title>m4&#45;&gt;win</title>
<path fill="none" stroke="#39ff14" stroke-width="1.5" d="M218.61,-125.95C241.33,-117.44 267.51,-108.68 292,-102.95 416.53,-73.81 559.88,-57.62 670.23,-48.74"/>
<polygon fill="#39ff14" stroke="#39ff14" stroke-width="1.5" points="670.78,-52.21 680.47,-47.93 670.23,-45.23 670.78,-52.21"/>
</g>
<!-- e1 -->
<g id="node5" class="node">
<title>e1</title>
<path fill="#2a0a2a" stroke="#ff66ff" stroke-width="2" d="M832,-290.45C832,-290.45 600,-290.45 600,-290.45 594,-290.45 588,-284.45 588,-278.45 588,-278.45 588,-249.45 588,-249.45 588,-243.45 594,-237.45 600,-237.45 600,-237.45 832,-237.45 832,-237.45 838,-237.45 844,-243.45 844,-249.45 844,-249.45 844,-278.45 844,-278.45 844,-284.45 838,-290.45 832,-290.45"/>
<text text-anchor="middle" x="716" y="-275.25" font-family="JetBrains Mono" font-size="14.00" fill="#e6e6e6">Kalshi market makers price strikes</text>
<text text-anchor="middle" x="716" y="-260.25" font-family="JetBrains Mono" font-size="14.00" fill="#e6e6e6">linearly in distance from spot</text>
<text text-anchor="middle" x="716" y="-245.25" font-family="JetBrains Mono" font-size="14.00" fill="#e6e6e6">(rough Gaussian assumption)</text>
</g>
<!-- e3 -->
<g id="node7" class="node">
<title>e3</title>
<path fill="#2a0a2a" stroke="#ff66ff" stroke-width="2" d="M817.5,-178.95C817.5,-178.95 614.5,-178.95 614.5,-178.95 608.5,-178.95 602.5,-172.95 602.5,-166.95 602.5,-166.95 602.5,-137.95 602.5,-137.95 602.5,-131.95 608.5,-125.95 614.5,-125.95 614.5,-125.95 817.5,-125.95 817.5,-125.95 823.5,-125.95 829.5,-131.95 829.5,-137.95 829.5,-137.95 829.5,-166.95 829.5,-166.95 829.5,-172.95 823.5,-178.95 817.5,-178.95"/>
<text text-anchor="middle" x="716" y="-163.75" font-family="JetBrains Mono" font-size="14.00" fill="#e6e6e6">Classifier learns the residual</text>
<text text-anchor="middle" x="716" y="-148.75" font-family="JetBrains Mono" font-size="14.00" fill="#e6e6e6">between market&#45;implied prob</text>
<text text-anchor="middle" x="716" y="-133.75" font-family="JetBrains Mono" font-size="14.00" fill="#e6e6e6">and empirical conditional prob</text>
</g>
<!-- e1&#45;&gt;e3 -->
<g id="edge4" class="edge">
<title>e1&#45;&gt;e3</title>
<path fill="none" stroke="#39ff14" stroke-width="1.5" d="M716,-237.28C716,-223 716,-205.01 716,-189.35"/>
<polygon fill="#39ff14" stroke="#39ff14" stroke-width="1.5" points="719.5,-188.97 716,-178.97 712.5,-188.97 719.5,-188.97"/>
</g>
<!-- e2 -->
<g id="node6" class="node">
<title>e2</title>
<path fill="#2a0a2a" stroke="#ff66ff" stroke-width="2" d="M557.5,-297.95C557.5,-297.95 316.5,-297.95 316.5,-297.95 310.5,-297.95 304.5,-291.95 304.5,-285.95 304.5,-285.95 304.5,-241.95 304.5,-241.95 304.5,-235.95 310.5,-229.95 316.5,-229.95 316.5,-229.95 557.5,-229.95 557.5,-229.95 563.5,-229.95 569.5,-235.95 569.5,-241.95 569.5,-241.95 569.5,-285.95 569.5,-285.95 569.5,-291.95 563.5,-297.95 557.5,-297.95"/>
<text text-anchor="middle" x="437" y="-282.75" font-family="JetBrains Mono" font-size="14.00" fill="#e6e6e6">Real BTC distribution at 10–90 min</text>
<text text-anchor="middle" x="437" y="-267.75" font-family="JetBrains Mono" font-size="14.00" fill="#e6e6e6">is fatter&#45;tailed AND has</text>
<text text-anchor="middle" x="437" y="-252.75" font-family="JetBrains Mono" font-size="14.00" fill="#e6e6e6">short&#45;horizon momentum/mean&#45;rev</text>
<text text-anchor="middle" x="437" y="-237.75" font-family="JetBrains Mono" font-size="14.00" fill="#e6e6e6">the market doesn&#39;t fully price</text>
</g>
<!-- e2&#45;&gt;e3 -->
<g id="edge5" class="edge">
<title>e2&#45;&gt;e3</title>
<path fill="none" stroke="#39ff14" stroke-width="1.5" d="M521.09,-229.95C559.23,-214.98 603.98,-197.42 640.98,-182.9"/>
<polygon fill="#39ff14" stroke="#39ff14" stroke-width="1.5" points="642.67,-185.99 650.7,-179.08 640.11,-179.48 642.67,-185.99"/>
</g>
<!-- e3&#45;&gt;win -->
<g id="edge13" class="edge">
<title>e3&#45;&gt;win</title>
<path fill="none" stroke="#39ff14" stroke-width="1.5" d="M746.63,-125.82C762.49,-112.55 782.25,-96.01 800.31,-80.9"/>
<polygon fill="#39ff14" stroke="#39ff14" stroke-width="1.5" points="803.04,-83.18 808.46,-74.07 798.55,-77.81 803.04,-83.18"/>
</g>
<!-- s1 -->
<g id="node8" class="node">
<title>s1</title>
<path fill="#0a2a2a" stroke="#66ffff" stroke-width="2" d="M1155.5,-501.45C1155.5,-501.45 880.5,-501.45 880.5,-501.45 874.5,-501.45 868.5,-495.45 868.5,-489.45 868.5,-489.45 868.5,-475.45 868.5,-475.45 868.5,-469.45 874.5,-463.45 880.5,-463.45 880.5,-463.45 1155.5,-463.45 1155.5,-463.45 1161.5,-463.45 1167.5,-469.45 1167.5,-475.45 1167.5,-475.45 1167.5,-489.45 1167.5,-489.45 1167.5,-495.45 1161.5,-501.45 1155.5,-501.45"/>
<text text-anchor="middle" x="1018" y="-486.25" font-family="JetBrains Mono" font-size="14.00" fill="#e6e6e6">Fractional Kelly (0.33×)</text>
<text text-anchor="middle" x="1018" y="-471.25" font-family="JetBrains Mono" font-size="14.00" fill="#e6e6e6">stake = bankroll × Kelly_fraction × edge</text>
</g>
<!-- s2 -->
<g id="node9" class="node">
<title>s2</title>
<path fill="#0a2a2a" stroke="#66ffff" stroke-width="2" d="M1132,-419.95C1132,-419.95 894,-419.95 894,-419.95 888,-419.95 882,-413.95 882,-407.95 882,-407.95 882,-348.95 882,-348.95 882,-342.95 888,-336.95 894,-336.95 894,-336.95 1132,-336.95 1132,-336.95 1138,-336.95 1144,-342.95 1144,-348.95 1144,-348.95 1144,-407.95 1144,-407.95 1144,-413.95 1138,-419.95 1132,-419.95"/>
<text text-anchor="middle" x="1013" y="-404.75" font-family="JetBrains Mono" font-size="14.00" fill="#e6e6e6">Layered ceilings:</text>
<text text-anchor="middle" x="1013" y="-389.75" font-family="JetBrains Mono" font-size="14.00" fill="#e6e6e6">stake ≤ 12% bankroll AND ≤ $25</text>
<text text-anchor="middle" x="1013" y="-374.75" font-family="JetBrains Mono" font-size="14.00" fill="#e6e6e6">run ≤ 40% bankroll AND ≤ $100</text>
<text text-anchor="middle" x="1013" y="-359.75" font-family="JetBrains Mono" font-size="14.00" fill="#e6e6e6">day ≤ 100%* bankroll AND ≤ $10k</text>
<text text-anchor="middle" x="1013" y="-344.75" font-family="JetBrains Mono" font-size="14.00" fill="#e6e6e6">(* bankroll, not realized loss)</text>
</g>
<!-- s1&#45;&gt;s2 -->
<g id="edge6" class="edge">
<title>s1&#45;&gt;s2</title>
<path fill="none" stroke="#39ff14" stroke-width="1.5" d="M1017.11,-463.22C1016.65,-454 1016.08,-442.3 1015.51,-430.6"/>
<polygon fill="#39ff14" stroke="#39ff14" stroke-width="1.5" points="1018.99,-430.19 1015.01,-420.37 1012,-430.53 1018.99,-430.19"/>
</g>
<!-- s3 -->
<g id="node10" class="node">
<title>s3</title>
<path fill="#0a2a2a" stroke="#66ffff" stroke-width="2" d="M1130,-290.45C1130,-290.45 888,-290.45 888,-290.45 882,-290.45 876,-284.45 876,-278.45 876,-278.45 876,-249.45 876,-249.45 876,-243.45 882,-237.45 888,-237.45 888,-237.45 1130,-237.45 1130,-237.45 1136,-237.45 1142,-243.45 1142,-249.45 1142,-249.45 1142,-278.45 1142,-278.45 1142,-284.45 1136,-290.45 1130,-290.45"/>
<text text-anchor="middle" x="1009" y="-275.25" font-family="JetBrains Mono" font-size="14.00" fill="#e6e6e6">Top&#45;N=3 per run (NEW)</text>
<text text-anchor="middle" x="1009" y="-260.25" font-family="JetBrains Mono" font-size="14.00" fill="#e6e6e6">caps strike count</text>
<text text-anchor="middle" x="1009" y="-245.25" font-family="JetBrains Mono" font-size="14.00" fill="#e6e6e6">→ caps simultaneous correlated risk</text>
</g>
<!-- s2&#45;&gt;s3 -->
<g id="edge7" class="edge">
<title>s2&#45;&gt;s3</title>
<path fill="none" stroke="#39ff14" stroke-width="1.5" d="M1011.56,-336.84C1011.13,-324.98 1010.68,-312.12 1010.27,-300.6"/>
<polygon fill="#39ff14" stroke="#39ff14" stroke-width="1.5" points="1013.76,-300.33 1009.91,-290.46 1006.76,-300.58 1013.76,-300.33"/>
</g>
<!-- s4 -->
<g id="node11" class="node">
<title>s4</title>
<path fill="#0a2a2a" stroke="#66ffff" stroke-width="2" d="M1069,-178.95C1069,-178.95 903,-178.95 903,-178.95 897,-178.95 891,-172.95 891,-166.95 891,-166.95 891,-137.95 891,-137.95 891,-131.95 897,-125.95 903,-125.95 903,-125.95 1069,-125.95 1069,-125.95 1075,-125.95 1081,-131.95 1081,-137.95 1081,-137.95 1081,-166.95 1081,-166.95 1081,-172.95 1075,-178.95 1069,-178.95"/>
<text text-anchor="middle" x="986" y="-163.75" font-family="JetBrains Mono" font-size="14.00" fill="#e6e6e6">Drawdown halt at 50%</text>
<text text-anchor="middle" x="986" y="-148.75" font-family="JetBrains Mono" font-size="14.00" fill="#e6e6e6">on portfolio (cash+open)</text>
<text text-anchor="middle" x="986" y="-133.75" font-family="JetBrains Mono" font-size="14.00" fill="#e6e6e6">NOT cash alone</text>
</g>
<!-- s3&#45;&gt;s4 -->
<g id="edge8" class="edge">
<title>s3&#45;&gt;s4</title>
<path fill="none" stroke="#39ff14" stroke-width="1.5" d="M1003.61,-237.28C1000.58,-222.86 996.76,-204.66 993.45,-188.9"/>
<polygon fill="#39ff14" stroke="#39ff14" stroke-width="1.5" points="996.84,-188.03 991.36,-178.97 989.99,-189.47 996.84,-188.03"/>
</g>
<!-- s4&#45;&gt;win -->
<g id="edge14" class="edge">
<title>s4&#45;&gt;win</title>
<path fill="none" stroke="#39ff14" stroke-width="1.5" d="M955.37,-125.82C939.51,-112.55 919.75,-96.01 901.69,-80.9"/>
<polygon fill="#39ff14" stroke="#39ff14" stroke-width="1.5" points="903.45,-77.81 893.54,-74.07 898.96,-83.18 903.45,-77.81"/>
</g>
<!-- l1 -->
<g id="node12" class="node">
<title>l1</title>
<path fill="#2a1a0a" stroke="#ffcc66" stroke-width="2" d="M1430,-508.95C1430,-508.95 1204,-508.95 1204,-508.95 1198,-508.95 1192,-502.95 1192,-496.95 1192,-496.95 1192,-467.95 1192,-467.95 1192,-461.95 1198,-455.95 1204,-455.95 1204,-455.95 1430,-455.95 1430,-455.95 1436,-455.95 1442,-461.95 1442,-467.95 1442,-467.95 1442,-496.95 1442,-496.95 1442,-502.95 1436,-508.95 1430,-508.95"/>
<text text-anchor="middle" x="1317" y="-493.75" font-family="JetBrains Mono" font-size="14.00" fill="#e6e6e6">10&#45;min cadence × 24h × 7d</text>
<text text-anchor="middle" x="1317" y="-478.75" font-family="JetBrains Mono" font-size="14.00" fill="#e6e6e6">≈ 1000 tradeable settlements/wk</text>
<text text-anchor="middle" x="1317" y="-463.75" font-family="JetBrains Mono" font-size="14.00" fill="#e6e6e6">→ law of large numbers</text>
</g>
<!-- l2 -->
<g id="node13" class="node">
<title>l2</title>
<path fill="#2a1a0a" stroke="#ffcc66" stroke-width="2" d="M1399.5,-412.45C1399.5,-412.45 1232.5,-412.45 1232.5,-412.45 1226.5,-412.45 1220.5,-406.45 1220.5,-400.45 1220.5,-400.45 1220.5,-356.45 1220.5,-356.45 1220.5,-350.45 1226.5,-344.45 1232.5,-344.45 1232.5,-344.45 1399.5,-344.45 1399.5,-344.45 1405.5,-344.45 1411.5,-350.45 1411.5,-356.45 1411.5,-356.45 1411.5,-400.45 1411.5,-400.45 1411.5,-406.45 1405.5,-412.45 1399.5,-412.45"/>
<text text-anchor="middle" x="1316" y="-397.25" font-family="JetBrains Mono" font-size="14.00" fill="#e6e6e6">Each settlement is</text>
<text text-anchor="middle" x="1316" y="-382.25" font-family="JetBrains Mono" font-size="14.00" fill="#e6e6e6">small and uncorrelated*</text>
<text text-anchor="middle" x="1316" y="-367.25" font-family="JetBrains Mono" font-size="14.00" fill="#e6e6e6">(* until they aren&#39;t — see</text>
<text text-anchor="middle" x="1316" y="-352.25" font-family="JetBrains Mono" font-size="14.00" fill="#e6e6e6">strike&#45;sprawl failure)</text>
</g>
<!-- l1&#45;&gt;l2 -->
<g id="edge9" class="edge">
<title>l1&#45;&gt;l2</title>
<path fill="none" stroke="#39ff14" stroke-width="1.5" d="M1316.75,-455.71C1316.65,-445.68 1316.53,-433.91 1316.42,-422.65"/>
<polygon fill="#39ff14" stroke="#39ff14" stroke-width="1.5" points="1319.92,-422.49 1316.32,-412.53 1312.92,-422.56 1319.92,-422.49"/>
</g>
<!-- l3 -->
<g id="node14" class="node">
<title>l3</title>
<path fill="#2a1a0a" stroke="#ffcc66" stroke-width="2" d="M1419.5,-290.45C1419.5,-290.45 1210.5,-290.45 1210.5,-290.45 1204.5,-290.45 1198.5,-284.45 1198.5,-278.45 1198.5,-278.45 1198.5,-249.45 1198.5,-249.45 1198.5,-243.45 1204.5,-237.45 1210.5,-237.45 1210.5,-237.45 1419.5,-237.45 1419.5,-237.45 1425.5,-237.45 1431.5,-243.45 1431.5,-249.45 1431.5,-249.45 1431.5,-278.45 1431.5,-278.45 1431.5,-284.45 1425.5,-290.45 1419.5,-290.45"/>
<text text-anchor="middle" x="1315" y="-275.25" font-family="JetBrains Mono" font-size="14.00" fill="#e6e6e6">Position reconciliation (NEW)</text>
<text text-anchor="middle" x="1315" y="-260.25" font-family="JetBrains Mono" font-size="14.00" fill="#e6e6e6">prevents stacking of</text>
<text text-anchor="middle" x="1315" y="-245.25" font-family="JetBrains Mono" font-size="14.00" fill="#e6e6e6">opposing&#45;side bets across runs</text>
</g>
<!-- l2&#45;&gt;l3 -->
<g id="edge10" class="edge">
<title>l2&#45;&gt;l3</title>
<path fill="none" stroke="#39ff14" stroke-width="1.5" d="M1315.71,-344.31C1315.58,-330.67 1315.44,-314.85 1315.32,-300.93"/>
<polygon fill="#39ff14" stroke="#39ff14" stroke-width="1.5" points="1318.82,-300.7 1315.23,-290.73 1311.82,-300.76 1318.82,-300.7"/>
</g>
<!-- l4 -->
<g id="node15" class="node">
<title>l4</title>
<path fill="#2a1a0a" stroke="#ffcc66" stroke-width="2" d="M1422,-193.95C1422,-193.95 1206,-193.95 1206,-193.95 1200,-193.95 1194,-187.95 1194,-181.95 1194,-181.95 1194,-122.95 1194,-122.95 1194,-116.95 1200,-110.95 1206,-110.95 1206,-110.95 1422,-110.95 1422,-110.95 1428,-110.95 1434,-116.95 1434,-122.95 1434,-122.95 1434,-181.95 1434,-181.95 1434,-187.95 1428,-193.95 1422,-193.95"/>
<text text-anchor="middle" x="1314" y="-178.75" font-family="JetBrains Mono" font-size="14.00" fill="#e6e6e6">Skip&#45;on&#45;failure everywhere:</text>
<text text-anchor="middle" x="1314" y="-163.75" font-family="JetBrains Mono" font-size="14.00" fill="#e6e6e6">GPU OOM → CPU</text>
<text text-anchor="middle" x="1314" y="-148.75" font-family="JetBrains Mono" font-size="14.00" fill="#e6e6e6">balance API down → halt</text>
<text text-anchor="middle" x="1314" y="-133.75" font-family="JetBrains Mono" font-size="14.00" fill="#e6e6e6">classifier missing → skip</text>
<text text-anchor="middle" x="1314" y="-118.75" font-family="JetBrains Mono" font-size="14.00" fill="#e6e6e6">NEVER fall back to wrong model</text>
</g>
<!-- l3&#45;&gt;l4 -->
<g id="edge11" class="edge">
<title>l3&#45;&gt;l4</title>
<path fill="none" stroke="#39ff14" stroke-width="1.5" d="M1314.77,-237.28C1314.67,-227.31 1314.57,-215.52 1314.46,-203.98"/>
<polygon fill="#39ff14" stroke="#39ff14" stroke-width="1.5" points="1317.96,-203.93 1314.37,-193.96 1310.96,-203.99 1317.96,-203.93"/>
</g>
<!-- l4&#45;&gt;win -->
<g id="edge15" class="edge">
<title>l4&#45;&gt;win</title>
<path fill="none" stroke="#39ff14" stroke-width="1.5" d="M1206.59,-110.95C1197.65,-108.08 1188.7,-105.37 1180,-102.95 1121.93,-86.86 1057.02,-73.23 1000.3,-62.72"/>
<polygon fill="#39ff14" stroke="#39ff14" stroke-width="1.5" points="1000.64,-59.22 990.17,-60.86 999.37,-66.11 1000.64,-59.22"/>
</g>
</g>
</svg>
