<?xml version="1.0" encoding="UTF-8" standalone="no"?>
<!DOCTYPE svg PUBLIC "-//W3C//DTD SVG 1.1//EN"
 "http://www.w3.org/Graphics/SVG/1.1/DTD/svg11.dtd">
<!-- Generated by graphviz version 2.43.0 (0)
 -->
<!-- Title: phaseA_gate_flow Pages: 1 -->
<svg width="2174pt" height="1165pt"
 viewBox="0.00 0.00 2174.00 1164.74" xmlns="http://www.w3.org/2000/svg" xmlns:xlink="http://www.w3.org/1999/xlink">
<g id="graph0" class="graph" transform="scale(1 1) rotate(0) translate(4 1160.74)">
<title>phaseA_gate_flow</title>
<polygon fill="#0a0e14" stroke="transparent" points="-4,4 -4,-1160.74 2170,-1160.74 2170,4 -4,4"/>
<!-- candle -->
<g id="node1" class="node">
<title>candle</title>
<ellipse fill="#0a3a0a" stroke="#39ff14" stroke-width="3" cx="264" cy="-1129.87" rx="96.75" ry="26.74"/>
<text text-anchor="middle" x="264" y="-1133.67" font-family="JetBrains Mono" font-size="14.00" fill="#e6e6e6">strike candidate</text>
<text text-anchor="middle" x="264" y="-1118.67" font-family="JetBrains Mono" font-size="14.00" fill="#e6e6e6">(for each market)</text>
</g>
<!-- clf -->
<g id="node2" class="node">
<title>clf</title>
<path fill="#1a2a1a" stroke="#39ff14" stroke-width="2" d="M359.5,-1066C359.5,-1066 168.5,-1066 168.5,-1066 162.5,-1066 156.5,-1060 156.5,-1054 156.5,-1054 156.5,-1040 156.5,-1040 156.5,-1034 162.5,-1028 168.5,-1028 168.5,-1028 359.5,-1028 359.5,-1028 365.5,-1028 371.5,-1034 371.5,-1040 371.5,-1040 371.5,-1054 371.5,-1054 371.5,-1060 365.5,-1066 359.5,-1066"/>
<text text-anchor="middle" x="264" y="-1050.8" font-family="JetBrains Mono" font-size="14.00" fill="#e6e6e6">classifier P(price &gt; strike)</text>
<text text-anchor="middle" x="264" y="-1035.8" font-family="JetBrains Mono" font-size="14.00" fill="#e6e6e6">→ clf_prob, side, model_prob</text>
</g>
<!-- candle&#45;&gt;clf -->
<g id="edge1" class="edge">
<title>candle&#45;&gt;clf</title>
<path fill="none" stroke="#39ff14" stroke-width="1.5" d="M264,-1102.84C264,-1094.3 264,-1084.78 264,-1076.1"/>
<polygon fill="#39ff14" stroke="#39ff14" stroke-width="1.5" points="267.5,-1076.05 264,-1066.05 260.5,-1076.05 267.5,-1076.05"/>
</g>
<!-- edge_g -->
<g id="node3" class="node">
<title>edge_g</title>
<path fill="#1a2a1a" stroke="#39ff14" stroke-width="2" d="M252.12,-989.29C252.12,-989.29 11.88,-954.71 11.88,-954.71 5.94,-953.85 5.94,-952.15 11.88,-951.29 11.88,-951.29 252.12,-916.71 252.12,-916.71 258.06,-915.85 269.94,-915.85 275.88,-916.71 275.88,-916.71 516.12,-951.29 516.12,-951.29 522.06,-952.15 522.06,-953.85 516.12,-954.71 516.12,-954.71 275.88,-989.29 275.88,-989.29 269.94,-990.15 258.06,-990.15 252.12,-989.29"/>
<text text-anchor="middle" x="264" y="-956.8" font-family="JetBrains Mono" font-size="14.00" fill="#e6e6e6">edge = model_prob − market_price</text>
<text text-anchor="middle" x="264" y="-941.8" font-family="JetBrains Mono" font-size="14.00" fill="#e6e6e6">edge ≥ 5%?</text>
</g>
<!-- clf&#45;&gt;edge_g -->
<g id="edge2" class="edge">
<title>clf&#45;&gt;edge_g</title>
<path fill="none" stroke="#39ff14" stroke-width="1.5" d="M264,-1027.82C264,-1020.13 264,-1010.78 264,-1001.35"/>
<polygon fill="#39ff14" stroke="#39ff14" stroke-width="1.5" points="267.5,-1001.16 264,-991.16 260.5,-1001.16 267.5,-1001.16"/>
</g>
<!-- conv -->
<g id="node4" class="node">
<title>conv</title>
<path fill="#3a0a3a" stroke="#ff66ff" stroke-width="3" d="M785.16,-989.07C785.16,-989.07 575.84,-954.93 575.84,-954.93 569.92,-953.97 569.92,-952.03 575.84,-951.07 575.84,-951.07 785.16,-916.93 785.16,-916.93 791.08,-915.97 802.92,-915.97 808.84,-916.93 808.84,-916.93 1018.16,-951.07 1018.16,-951.07 1024.08,-952.03 1024.08,-953.97 1018.16,-954.93 1018.16,-954.93 808.84,-989.07 808.84,-989.07 802.92,-990.03 791.08,-990.03 785.16,-989.07"/>
<text text-anchor="middle" x="797" y="-956.8" font-family="JetBrains Mono" font-size="14.00" fill="#ffccff">★ conviction = |clf_prob − 0.5|</text>
<text text-anchor="middle" x="797" y="-941.8" font-family="JetBrains Mono" font-size="14.00" fill="#ffccff">conviction ≥ 0.15?</text>
</g>
<!-- edge_g&#45;&gt;conv -->
<g id="edge4" class="edge">
<title>edge_g&#45;&gt;conv</title>
<path fill="none" stroke="#39ff14" stroke-width="1.5" d="M528.16,-953C536.63,-953 545.1,-953 553.54,-953"/>
<polygon fill="#39ff14" stroke="#39ff14" stroke-width="1.5" points="553.81,-956.5 563.81,-953 553.81,-949.5 553.81,-956.5"/>
<text text-anchor="middle" x="546" y="-959" font-family="JetBrains Mono" font-size="10.00" fill="#cccccc">yes</text>
</g>
<!-- skip -->
<g id="node18" class="node">
<title>skip</title>
<ellipse fill="#2a0a0a" stroke="#ff3333" stroke-width="2" cx="1409" cy="-19" rx="37.89" ry="18"/>
<text text-anchor="middle" x="1409" y="-15.3" font-family="JetBrains Mono" font-size="14.00" fill="#ff9999">[SKIP]</text>
</g>
<!-- edge_g&#45;&gt;skip -->
<g id="edge3" class="edge">
<title>edge_g&#45;&gt;skip</title>
<path fill="none" stroke="#ff3333" stroke-width="1.5" d="M394.5,-933.77C522,-914.12 697,-881.42 697,-850 697,-850 697,-850 697,-122 697,-54.72 1201.62,-28.43 1361.22,-21.8"/>
<polygon fill="#ff3333" stroke="#ff3333" stroke-width="1.5" points="1361.37,-25.29 1371.22,-21.39 1361.09,-18.3 1361.37,-25.29"/>
<text text-anchor="middle" x="703.5" y="-476.5" font-family="JetBrains Mono" font-size="10.00" fill="#cccccc">no</text>
</g>
<!-- price_g -->
<g id="node5" class="node">
<title>price_g</title>
<path fill="#1a2a1a" stroke="#39ff14" stroke-width="2" d="M1251.22,-988.73C1251.22,-988.73 1077.78,-955.27 1077.78,-955.27 1071.89,-954.14 1071.89,-951.86 1077.78,-950.73 1077.78,-950.73 1251.22,-917.27 1251.22,-917.27 1257.11,-916.14 1268.89,-916.14 1274.78,-917.27 1274.78,-917.27 1448.22,-950.73 1448.22,-950.73 1454.11,-951.86 1454.11,-954.14 1448.22,-955.27 1448.22,-955.27 1274.78,-988.73 1274.78,-988.73 1268.89,-989.86 1257.11,-989.86 1251.22,-988.73"/>
<text text-anchor="middle" x="1263" y="-956.8" font-family="JetBrains Mono" font-size="14.00" fill="#e6e6e6">order_price in [10¢, 95¢)?</text>
<text text-anchor="middle" x="1263" y="-941.8" font-family="JetBrains Mono" font-size="14.00" fill="#e6e6e6">(uses actual side&#45;price)</text>
</g>
<!-- conv&#45;&gt;price_g -->
<g id="edge6" class="edge">
<title>conv&#45;&gt;price_g</title>
<path fill="none" stroke="#39ff14" stroke-width="1.5" d="M1030.34,-953C1038.74,-953 1047.15,-953 1055.51,-953"/>
<polygon fill="#39ff14" stroke="#39ff14" stroke-width="1.5" points="1055.68,-956.5 1065.68,-953 1055.68,-949.5 1055.68,-956.5"/>
<text text-anchor="middle" x="1048" y="-959" font-family="JetBrains Mono" font-size="10.00" fill="#cccccc">yes</text>
</g>
<!-- conv&#45;&gt;skip -->
<g id="edge5" class="edge">
<title>conv&#45;&gt;skip</title>
<path fill="none" stroke="#ff3333" stroke-width="1.5" d="M906.44,-932.79C949.12,-918.42 988,-893.42 988,-850 988,-850 988,-850 988,-122 988,-45.96 1250.71,-26.4 1361.08,-21.55"/>
<polygon fill="#ff3333" stroke="#ff3333" stroke-width="1.5" points="1361.42,-25.03 1371.27,-21.12 1361.13,-18.04 1361.42,-25.03"/>
<text text-anchor="middle" x="994.5" y="-476.5" font-family="JetBrains Mono" font-size="10.00" fill="#cccccc">no</text>
</g>
<!-- ratio_g -->
<g id="node6" class="node">
<title>ratio_g</title>
<path fill="#1a2a1a" stroke="#39ff14" stroke-width="2" d="M1714.04,-970.07C1714.04,-970.07 1507.05,-953.93 1507.05,-953.93 1501.06,-953.47 1501.06,-952.53 1507.05,-952.07 1507.05,-952.07 1714.04,-935.93 1714.04,-935.93 1720.02,-935.47 1731.98,-935.47 1737.96,-935.93 1737.96,-935.93 1944.95,-952.07 1944.95,-952.07 1950.94,-952.53 1950.94,-953.47 1944.95,-953.93 1944.95,-953.93 1737.96,-970.07 1737.96,-970.07 1731.98,-970.53 1720.02,-970.53 1714.04,-970.07"/>
<text text-anchor="middle" x="1726" y="-949.3" font-family="JetBrains Mono" font-size="14.00" fill="#e6e6e6">model_prob / market_price ≤ 3×?</text>
</g>
<!-- price_g&#45;&gt;ratio_g -->
<g id="edge8" class="edge">
<title>price_g&#45;&gt;ratio_g</title>
<path fill="none" stroke="#39ff14" stroke-width="1.5" d="M1460.03,-953C1468.25,-953 1476.53,-953 1484.83,-953"/>
<polygon fill="#39ff14" stroke="#39ff14" stroke-width="1.5" points="1484.96,-956.5 1494.96,-953 1484.96,-949.5 1484.96,-956.5"/>
<text text-anchor="middle" x="1477.65" y="-959" font-family="JetBrains Mono" font-size="10.00" fill="#cccccc">yes</text>
</g>
<!-- price_g&#45;&gt;skip -->
<g id="edge7" class="edge">
<title>price_g&#45;&gt;skip</title>
<path fill="none" stroke="#ff3333" stroke-width="1.5" d="M1245.09,-918.05C1236.48,-898.67 1228,-873.59 1228,-850 1228,-850 1228,-850 1228,-122 1228,-60.16 1309.18,-35.4 1362.81,-25.79"/>
<polygon fill="#ff3333" stroke="#ff3333" stroke-width="1.5" points="1363.52,-29.22 1372.81,-24.12 1362.37,-22.32 1363.52,-29.22"/>
<text text-anchor="middle" x="1234.5" y="-476.5" font-family="JetBrains Mono" font-size="10.00" fill="#cccccc">no</text>
</g>
<!-- kelly -->
<g id="node7" class="node">
<title>kelly</title>
<path fill="#1a2a1a" stroke="#39ff14" stroke-width="2" d="M1671.5,-868C1671.5,-868 1480.5,-868 1480.5,-868 1474.5,-868 1468.5,-862 1468.5,-856 1468.5,-856 1468.5,-842 1468.5,-842 1468.5,-836 1474.5,-830 1480.5,-830 1480.5,-830 1671.5,-830 1671.5,-830 1677.5,-830 1683.5,-836 1683.5,-842 1683.5,-842 1683.5,-856 1683.5,-856 1683.5,-862 1677.5,-868 1671.5,-868"/>
<text text-anchor="middle" x="1576" y="-852.8" font-family="JetBrains Mono" font-size="14.00" fill="#e6e6e6">Kelly stake</text>
<text text-anchor="middle" x="1576" y="-837.8" font-family="JetBrains Mono" font-size="14.00" fill="#e6e6e6">stake_pct = K(p, price, 0.33)</text>
</g>
<!-- ratio_g&#45;&gt;kelly -->
<g id="edge10" class="edge">
<title>ratio_g&#45;&gt;kelly</title>
<path fill="none" stroke="#39ff14" stroke-width="1.5" d="M1703.54,-936.73C1679.1,-920.11 1639.7,-893.31 1611.15,-873.9"/>
<polygon fill="#39ff14" stroke="#39ff14" stroke-width="1.5" points="1612.9,-870.86 1602.67,-868.13 1608.97,-876.65 1612.9,-870.86"/>
<text text-anchor="middle" x="1651" y="-889" font-family="JetBrains Mono" font-size="10.00" fill="#cccccc">yes</text>
</g>
<!-- ratio_g&#45;&gt;skip -->
<g id="edge9" class="edge">
<title>ratio_g&#45;&gt;skip</title>
<path fill="none" stroke="#ff3333" stroke-width="1.5" d="M1726,-934.67C1726,-914.38 1726,-879.75 1726,-850 1726,-850 1726,-850 1726,-122 1726,-65.83 1543.38,-36.17 1455.36,-25.13"/>
<polygon fill="#ff3333" stroke="#ff3333" stroke-width="1.5" points="1455.72,-21.65 1445.36,-23.91 1454.86,-28.6 1455.72,-21.65"/>
<text text-anchor="middle" x="1732.5" y="-476.5" font-family="JetBrains Mono" font-size="10.00" fill="#cccccc">no</text>
</g>
<!-- regime -->
<g id="node8" class="node">
<title>regime</title>
<path fill="#3a0a3a" stroke="#ff66ff" stroke-width="3" d="M1512.28,-790.43C1512.28,-790.43 1362.72,-757.57 1362.72,-757.57 1356.86,-756.29 1356.86,-753.71 1362.72,-752.43 1362.72,-752.43 1512.28,-719.57 1512.28,-719.57 1518.14,-718.29 1529.86,-718.29 1535.72,-719.57 1535.72,-719.57 1685.28,-752.43 1685.28,-752.43 1691.14,-753.71 1691.14,-756.29 1685.28,-757.57 1685.28,-757.57 1535.72,-790.43 1535.72,-790.43 1529.86,-791.71 1518.14,-791.71 1512.28,-790.43"/>
<text text-anchor="middle" x="1524" y="-758.8" font-family="JetBrains Mono" font-size="14.00" fill="#ffccff">★ RSI &lt; 20 or &gt; 80?</text>
<text text-anchor="middle" x="1524" y="-743.8" font-family="JetBrains Mono" font-size="14.00" fill="#ffccff">then stake_pct ×= 0.5</text>
</g>
<!-- kelly&#45;&gt;regime -->
<g id="edge11" class="edge">
<title>kelly&#45;&gt;regime</title>
<path fill="none" stroke="#39ff14" stroke-width="1.5" d="M1565.73,-829.82C1560.54,-820.65 1554.02,-809.11 1547.68,-797.9"/>
<polygon fill="#39ff14" stroke="#39ff14" stroke-width="1.5" points="1550.64,-796.02 1542.67,-789.03 1544.54,-799.46 1550.64,-796.02"/>
</g>
<!-- opp -->
<g id="node9" class="node">
<title>opp</title>
<path fill="#1a2a1a" stroke="#39ff14" stroke-width="2" d="M1617,-680C1617,-680 1417,-680 1417,-680 1411,-680 1405,-674 1405,-668 1405,-668 1405,-639 1405,-639 1405,-633 1411,-627 1417,-627 1417,-627 1617,-627 1617,-627 1623,-627 1629,-633 1629,-639 1629,-639 1629,-668 1629,-668 1629,-674 1623,-680 1617,-680"/>
<text text-anchor="middle" x="1517" y="-664.8" font-family="JetBrains Mono" font-size="14.00" fill="#e6e6e6">emit opportunity</text>
<text text-anchor="middle" x="1517" y="-649.8" font-family="JetBrains Mono" font-size="14.00" fill="#e6e6e6">{ticker, side, edge, stake_pct,</text>
<text text-anchor="middle" x="1517" y="-634.8" font-family="JetBrains Mono" font-size="14.00" fill="#e6e6e6">conviction, regime_extreme}</text>
</g>
<!-- regime&#45;&gt;opp -->
<g id="edge12" class="edge">
<title>regime&#45;&gt;opp</title>
<path fill="none" stroke="#39ff14" stroke-width="1.5" d="M1521.43,-717.51C1520.8,-708.59 1520.13,-699.04 1519.51,-690.15"/>
<polygon fill="#39ff14" stroke="#39ff14" stroke-width="1.5" points="1522.99,-689.82 1518.8,-680.09 1516.01,-690.31 1522.99,-689.82"/>
</g>
<!-- sort -->
<g id="node10" class="node">
<title>sort</title>
<path fill="#1a2a1a" stroke="#39ff14" stroke-width="2" d="M1591.5,-590C1591.5,-590 1436.5,-590 1436.5,-590 1430.5,-590 1424.5,-584 1424.5,-578 1424.5,-578 1424.5,-566 1424.5,-566 1424.5,-560 1430.5,-554 1436.5,-554 1436.5,-554 1591.5,-554 1591.5,-554 1597.5,-554 1603.5,-560 1603.5,-566 1603.5,-566 1603.5,-578 1603.5,-578 1603.5,-584 1597.5,-590 1591.5,-590"/>
<text text-anchor="middle" x="1514" y="-568.3" font-family="JetBrains Mono" font-size="14.00" fill="#e6e6e6">sort all opps by edge ↓</text>
</g>
<!-- opp&#45;&gt;sort -->
<g id="edge13" class="edge">
<title>opp&#45;&gt;sort</title>
<path fill="none" stroke="#39ff14" stroke-width="1.5" d="M1516.03,-626.91C1515.72,-618.48 1515.36,-609.08 1515.04,-600.52"/>
<polygon fill="#39ff14" stroke="#39ff14" stroke-width="1.5" points="1518.53,-600.12 1514.65,-590.26 1511.53,-600.38 1518.53,-600.12"/>
</g>
<!-- recon -->
<g id="node11" class="node">
<title>recon</title>
<path fill="#3a0a3a" stroke="#ff66ff" stroke-width="3" d="M1501.27,-514.48C1501.27,-514.48 1347.73,-481.52 1347.73,-481.52 1341.87,-480.26 1341.87,-477.74 1347.73,-476.48 1347.73,-476.48 1501.27,-443.52 1501.27,-443.52 1507.13,-442.26 1518.87,-442.26 1524.73,-443.52 1524.73,-443.52 1678.27,-476.48 1678.27,-476.48 1684.13,-477.74 1684.13,-480.26 1678.27,-481.52 1678.27,-481.52 1524.73,-514.48 1524.73,-514.48 1518.87,-515.74 1507.13,-515.74 1501.27,-514.48"/>
<text text-anchor="middle" x="1513" y="-482.8" font-family="JetBrains Mono" font-size="14.00" fill="#ffccff">★ net reconciliation</text>
<text text-anchor="middle" x="1513" y="-467.8" font-family="JetBrains Mono" font-size="14.00" fill="#ffccff">holding opposing side?</text>
</g>
<!-- sort&#45;&gt;recon -->
<g id="edge14" class="edge">
<title>sort&#45;&gt;recon</title>
<path fill="none" stroke="#39ff14" stroke-width="1.5" d="M1513.81,-553.88C1513.73,-546.25 1513.62,-536.83 1513.52,-527.31"/>
<polygon fill="#39ff14" stroke="#39ff14" stroke-width="1.5" points="1517.02,-526.98 1513.41,-517.02 1510.02,-527.06 1517.02,-526.98"/>
</g>
<!-- override -->
<g id="node12" class="node">
<title>override</title>
<path fill="#3a0a3a" stroke="#ff66ff" stroke-width="2" d="M1551.1,-392.42C1551.1,-392.42 1439.66,-377.58 1439.66,-377.58 1433.72,-376.79 1433.72,-375.21 1439.66,-374.42 1439.66,-374.42 1551.1,-359.58 1551.1,-359.58 1557.05,-358.79 1568.95,-358.79 1574.9,-359.58 1574.9,-359.58 1686.34,-374.42 1686.34,-374.42 1692.28,-375.21 1692.28,-376.79 1686.34,-377.58 1686.34,-377.58 1574.9,-392.42 1574.9,-392.42 1568.95,-393.21 1557.05,-393.21 1551.1,-392.42"/>
<text text-anchor="middle" x="1563" y="-372.3" font-family="JetBrains Mono" font-size="14.00" fill="#e6e6e6">conviction ≥ 0.30?</text>
</g>
<!-- recon&#45;&gt;override -->
<g id="edge16" class="edge">
<title>recon&#45;&gt;override</title>
<path fill="none" stroke="#39ff14" stroke-width="1.5" d="M1529.65,-444.37C1536.49,-430.56 1544.26,-414.85 1550.59,-402.07"/>
<polygon fill="#39ff14" stroke="#39ff14" stroke-width="1.5" points="1553.8,-403.47 1555.1,-392.96 1547.53,-400.37 1553.8,-403.47"/>
<text text-anchor="middle" x="1581.5" y="-415" font-family="JetBrains Mono" font-size="10.00" fill="#cccccc">yes (opposing)</text>
</g>
<!-- cap_n -->
<g id="node13" class="node">
<title>cap_n</title>
<path fill="#1a3a1a" stroke="#aaff66" stroke-width="2" d="M1472.5,-311C1472.5,-311 1345.5,-311 1345.5,-311 1339.5,-311 1333.5,-305 1333.5,-299 1333.5,-299 1333.5,-285 1333.5,-285 1333.5,-279 1339.5,-273 1345.5,-273 1345.5,-273 1472.5,-273 1472.5,-273 1478.5,-273 1484.5,-279 1484.5,-285 1484.5,-285 1484.5,-299 1484.5,-299 1484.5,-305 1478.5,-311 1472.5,-311"/>
<text text-anchor="middle" x="1409" y="-295.8" font-family="JetBrains Mono" font-size="14.00" fill="#e6e6e6">top&#45;N cap</text>
<text text-anchor="middle" x="1409" y="-280.8" font-family="JetBrains Mono" font-size="14.00" fill="#e6e6e6">keep top 3 by edge</text>
</g>
<!-- recon&#45;&gt;cap_n -->
<g id="edge15" class="edge">
<title>recon&#45;&gt;cap_n</title>
<path fill="none" stroke="#39ff14" stroke-width="1.5" d="M1426.85,-459.42C1391.46,-447.09 1353.93,-426.87 1333,-394 1315.53,-366.57 1343.75,-337.06 1370.61,-317.06"/>
<polygon fill="#39ff14" stroke="#39ff14" stroke-width="1.5" points="1372.75,-319.84 1378.85,-311.18 1368.68,-314.14 1372.75,-319.84"/>
<text text-anchor="middle" x="1376" y="-373.5" font-family="JetBrains Mono" font-size="10.00" fill="#cccccc">no (not opposing)</text>
</g>
<!-- override&#45;&gt;cap_n -->
<g id="edge17" class="edge">
<title>override&#45;&gt;cap_n</title>
<path fill="none" stroke="#ff66ff" stroke-width="1.5" d="M1537.22,-361.28C1513.99,-348.9 1479.37,-330.47 1451.96,-315.88"/>
<polygon fill="#ff66ff" stroke="#ff66ff" stroke-width="1.5" points="1453.44,-312.7 1442.97,-311.09 1450.15,-318.88 1453.44,-312.7"/>
<text text-anchor="middle" x="1526.5" y="-332" font-family="JetBrains Mono" font-size="10.00" fill="#cccccc">yes — [NET]</text>
</g>
<!-- override&#45;&gt;skip -->
<g id="edge18" class="edge">
<title>override&#45;&gt;skip</title>
<path fill="none" stroke="#ff3333" stroke-width="1.5" d="M1571.69,-358.87C1579.58,-342.69 1590,-316.83 1590,-293 1590,-293 1590,-293 1590,-122 1590,-60.16 1508.82,-35.4 1455.19,-25.79"/>
<polygon fill="#ff3333" stroke="#ff3333" stroke-width="1.5" points="1455.63,-22.32 1445.19,-24.12 1454.48,-29.22 1455.63,-22.32"/>
<text text-anchor="middle" x="1630.5" y="-214.5" font-family="JetBrains Mono" font-size="10.00" fill="#cccccc">no — [SKIP&#45;OPP]</text>
</g>
<!-- place_loop -->
<g id="node14" class="node">
<title>place_loop</title>
<path fill="#1a2a1a" stroke="#39ff14" stroke-width="2" d="M1472,-236C1472,-236 1346,-236 1346,-236 1340,-236 1334,-230 1334,-224 1334,-224 1334,-210 1334,-210 1334,-204 1340,-198 1346,-198 1346,-198 1472,-198 1472,-198 1478,-198 1484,-204 1484,-210 1484,-210 1484,-224 1484,-224 1484,-230 1478,-236 1472,-236"/>
<text text-anchor="middle" x="1409" y="-220.8" font-family="JetBrains Mono" font-size="14.00" fill="#e6e6e6">placement loop</text>
<text text-anchor="middle" x="1409" y="-205.8" font-family="JetBrains Mono" font-size="14.00" fill="#e6e6e6">(per surviving opp)</text>
</g>
<!-- cap_n&#45;&gt;place_loop -->
<g id="edge19" class="edge">
<title>cap_n&#45;&gt;place_loop</title>
<path fill="none" stroke="#39ff14" stroke-width="1.5" d="M1409,-272.96C1409,-264.88 1409,-255.18 1409,-246.18"/>
<polygon fill="#39ff14" stroke="#39ff14" stroke-width="1.5" points="1412.5,-246.09 1409,-236.09 1405.5,-246.09 1412.5,-246.09"/>
</g>
<!-- budget_g -->
<g id="node15" class="node">
<title>budget_g</title>
<path fill="#1a2a1a" stroke="#39ff14" stroke-width="2" d="M1397.08,-139.59C1397.08,-139.59 1268.26,-124.41 1268.26,-124.41 1262.3,-123.7 1262.3,-122.3 1268.26,-121.59 1268.26,-121.59 1397.08,-106.41 1397.08,-106.41 1403.04,-105.7 1414.96,-105.7 1420.92,-106.41 1420.92,-106.41 1549.74,-121.59 1549.74,-121.59 1555.7,-122.3 1555.7,-123.7 1549.74,-124.41 1549.74,-124.41 1420.92,-139.59 1420.92,-139.59 1414.96,-140.3 1403.04,-140.3 1397.08,-139.59"/>
<text text-anchor="middle" x="1409" y="-119.3" font-family="JetBrains Mono" font-size="14.00" fill="#e6e6e6">run/daily budget left?</text>
</g>
<!-- place_loop&#45;&gt;budget_g -->
<g id="edge20" class="edge">
<title>place_loop&#45;&gt;budget_g</title>
<path fill="none" stroke="#39ff14" stroke-width="1.5" d="M1409,-197.82C1409,-184.59 1409,-166.44 1409,-151.45"/>
<polygon fill="#39ff14" stroke="#39ff14" stroke-width="1.5" points="1412.5,-151.2 1409,-141.2 1405.5,-151.21 1412.5,-151.2"/>
</g>
<!-- expiry_g -->
<g id="node16" class="node">
<title>expiry_g</title>
<path fill="#3a0a3a" stroke="#ff66ff" stroke-width="3" d="M1948.2,-158.82C1948.2,-158.82 1765.8,-125.18 1765.8,-125.18 1759.9,-124.09 1759.9,-121.91 1765.8,-120.82 1765.8,-120.82 1948.2,-87.18 1948.2,-87.18 1954.1,-86.09 1965.9,-86.09 1971.8,-87.18 1971.8,-87.18 2154.2,-120.82 2154.2,-120.82 2160.1,-121.91 2160.1,-124.09 2154.2,-125.18 2154.2,-125.18 1971.8,-158.82 1971.8,-158.82 1965.9,-159.91 1954.1,-159.91 1948.2,-158.82"/>
<text text-anchor="middle" x="1960" y="-126.8" font-family="JetBrains Mono" font-size="14.00" fill="#ffccff">★ expiry cost + this cost ≤</text>
<text text-anchor="middle" x="1960" y="-111.8" font-family="JetBrains Mono" font-size="14.00" fill="#ffccff">50% of portfolio?</text>
</g>
<!-- budget_g&#45;&gt;expiry_g -->
<g id="edge22" class="edge">
<title>budget_g&#45;&gt;expiry_g</title>
<path fill="none" stroke="#39ff14" stroke-width="1.5" d="M1561.75,-123C1618.02,-123 1682.87,-123 1743.68,-123"/>
<polygon fill="#39ff14" stroke="#39ff14" stroke-width="1.5" points="1743.8,-126.5 1753.8,-123 1743.8,-119.5 1743.8,-126.5"/>
<text text-anchor="middle" x="1657.79" y="-129" font-family="JetBrains Mono" font-size="10.00" fill="#cccccc">yes</text>
</g>
<!-- budget_g&#45;&gt;skip -->
<g id="edge21" class="edge">
<title>budget_g&#45;&gt;skip</title>
<path fill="none" stroke="#ff3333" stroke-width="1.5" d="M1409,-104.7C1409,-88.92 1409,-65.36 1409,-47.09"/>
<polygon fill="#ff3333" stroke="#ff3333" stroke-width="1.5" points="1412.5,-47.05 1409,-37.05 1405.5,-47.05 1412.5,-47.05"/>
<text text-anchor="middle" x="1415.5" y="-59" font-family="JetBrains Mono" font-size="10.00" fill="#cccccc">no</text>
</g>
<!-- place -->
<g id="node17" class="node">
<title>place</title>
<path fill="#0a3a0a" stroke="#39ff14" stroke-width="3" d="M2032.5,-38C2032.5,-38 1887.5,-38 1887.5,-38 1881.5,-38 1875.5,-32 1875.5,-26 1875.5,-26 1875.5,-12 1875.5,-12 1875.5,-6 1881.5,0 1887.5,0 1887.5,0 2032.5,0 2032.5,0 2038.5,0 2044.5,-6 2044.5,-12 2044.5,-12 2044.5,-26 2044.5,-26 2044.5,-32 2038.5,-38 2032.5,-38"/>
<text text-anchor="middle" x="1960" y="-22.8" font-family="JetBrains Mono" font-size="14.00" fill="#e6e6e6">POST /portfolio/orders</text>
<text text-anchor="middle" x="1960" y="-7.8" font-family="JetBrains Mono" font-size="14.00" fill="#e6e6e6">log trade to SQLite</text>
</g>
<!-- expiry_g&#45;&gt;place -->
<g id="edge24" class="edge">
<title>expiry_g&#45;&gt;place</title>
<path fill="none" stroke="#39ff14" stroke-width="1.5" d="M1960,-84.89C1960,-72.8 1960,-59.59 1960,-48.26"/>
<polygon fill="#39ff14" stroke="#39ff14" stroke-width="1.5" points="1963.5,-48.07 1960,-38.07 1956.5,-48.07 1963.5,-48.07"/>
<text text-anchor="middle" x="1969" y="-59" font-family="JetBrains Mono" font-size="10.00" fill="#cccccc">yes</text>
</g>
<!-- expiry_g&#45;&gt;skip -->
<g id="edge23" class="edge">
<title>expiry_g&#45;&gt;skip</title>
<path fill="none" stroke="#ff3333" stroke-width="1.5" d="M1890.49,-97.58C1847.61,-83.41 1791.2,-66.37 1740,-56 1640.32,-35.8 1521.29,-26.36 1456.61,-22.43"/>
<polygon fill="#ff3333" stroke="#ff3333" stroke-width="1.5" points="1456.51,-18.92 1446.32,-21.83 1456.1,-25.91 1456.51,-18.92"/>
<text text-anchor="middle" x="1788.5" y="-59" font-family="JetBrains Mono" font-size="10.00" fill="#cccccc">no</text>
</g>
</g>
</svg>
