<?xml version="1.0" encoding="UTF-8" standalone="no"?>
<!DOCTYPE svg PUBLIC "-//W3C//DTD SVG 1.1//EN"
 "http://www.w3.org/Graphics/SVG/1.1/DTD/svg11.dtd">
<!-- Generated by graphviz version 2.43.0 (0)
 -->
<!-- Title: conviction_regions Pages: 1 -->
<svg width="1879pt" height="437pt"
 viewBox="0.00 0.00 1879.05 437.00" xmlns="http://www.w3.org/2000/svg" xmlns:xlink="http://www.w3.org/1999/xlink">
<g id="graph0" class="graph" transform="scale(1 1) rotate(0) translate(4 433)">
<title>conviction_regions</title>
<polygon fill="#0a0e14" stroke="transparent" points="-4,4 -4,-433 1875.05,-433 1875.05,4 -4,4"/>
<g id="clust1" class="cluster">
<title>cluster_regions</title>
<path fill="#0a1a0a" stroke="#39ff14" stroke-width="2" d="M254,-134C254,-134 1529.63,-134 1529.63,-134 1535.63,-134 1541.63,-140 1541.63,-146 1541.63,-146 1541.63,-215 1541.63,-215 1541.63,-221 1535.63,-227 1529.63,-227 1529.63,-227 254,-227 254,-227 248,-227 242,-221 242,-215 242,-215 242,-146 242,-146 242,-140 248,-134 254,-134"/>
<text text-anchor="middle" x="891.81" y="-211.8" font-family="JetBrains Mono" font-size="14.00" fill="#39ff14">Classifier output regions &#160;(MIN_CONVICTION = 0.15, override = 0.30)</text>
</g>
<!-- clf -->
<g id="node1" class="node">
<title>clf</title>
<path fill="#1a2a1a" stroke="#39ff14" stroke-width="3" d="M201,-95C201,-95 12,-95 12,-95 6,-95 0,-89 0,-83 0,-83 0,-69 0,-69 0,-63 6,-57 12,-57 12,-57 201,-57 201,-57 207,-57 213,-63 213,-69 213,-69 213,-83 213,-83 213,-89 207,-95 201,-95"/>
<text text-anchor="middle" x="106.5" y="-79.8" font-family="JetBrains Mono" font-size="14.00" fill="#e6e6e6">clf_prob output</text>
<text text-anchor="middle" x="106.5" y="-64.8" font-family="JetBrains Mono" font-size="14.00" fill="#e6e6e6">(calibrated P(price &gt; strike))</text>
</g>
<!-- strongNO -->
<g id="node2" class="node">
<title>strongNO</title>
<path fill="#0a2a0a" stroke="#39ff14" stroke-width="2" d="M413,-195.5C413,-195.5 262,-195.5 262,-195.5 256,-195.5 250,-189.5 250,-183.5 250,-183.5 250,-154.5 250,-154.5 250,-148.5 256,-142.5 262,-142.5 262,-142.5 413,-142.5 413,-142.5 419,-142.5 425,-148.5 425,-154.5 425,-154.5 425,-183.5 425,-183.5 425,-189.5 419,-195.5 413,-195.5"/>
<text text-anchor="middle" x="337.5" y="-180.3" font-family="JetBrains Mono" font-size="14.00" fill="#aaffaa">clf_prob ∈ [0.00, 0.20]</text>
<text text-anchor="middle" x="337.5" y="-165.3" font-family="JetBrains Mono" font-size="14.00" fill="#aaffaa">STRONG NO</text>
<text text-anchor="middle" x="337.5" y="-150.3" font-family="JetBrains Mono" font-size="14.00" fill="#aaffaa">conviction ≥ 0.30</text>
</g>
<!-- clf&#45;&gt;strongNO -->
<g id="edge5" class="edge">
<title>clf&#45;&gt;strongNO</title>
<path fill="none" stroke="#39ff14" stroke-width="1.5" d="M151.96,-95.07C175.41,-105.04 204.69,-117.35 231,-128 239.72,-131.53 248.87,-135.17 257.98,-138.76"/>
<polygon fill="#39ff14" stroke="#39ff14" stroke-width="1.5" points="256.85,-142.08 267.44,-142.48 259.41,-135.57 256.85,-142.08"/>
</g>
<!-- modNO -->
<g id="node3" class="node">
<title>modNO</title>
<path fill="#1a2a1a" stroke="#aaff66" stroke-width="2" d="M641,-195.5C641,-195.5 474,-195.5 474,-195.5 468,-195.5 462,-189.5 462,-183.5 462,-183.5 462,-154.5 462,-154.5 462,-148.5 468,-142.5 474,-142.5 474,-142.5 641,-142.5 641,-142.5 647,-142.5 653,-148.5 653,-154.5 653,-154.5 653,-183.5 653,-183.5 653,-189.5 647,-195.5 641,-195.5"/>
<text text-anchor="middle" x="557.5" y="-180.3" font-family="JetBrains Mono" font-size="14.00" fill="#e6e6e6">clf_prob ∈ [0.20, 0.35]</text>
<text text-anchor="middle" x="557.5" y="-165.3" font-family="JetBrains Mono" font-size="14.00" fill="#e6e6e6">MODERATE NO</text>
<text text-anchor="middle" x="557.5" y="-150.3" font-family="JetBrains Mono" font-size="14.00" fill="#e6e6e6">conviction ∈ [0.15, 0.30)</text>
</g>
<!-- clf&#45;&gt;modNO -->
<g id="edge6" class="edge">
<title>clf&#45;&gt;modNO</title>
<path fill="none" stroke="#39ff14" stroke-width="1.5" d="M213.03,-93.12C275.02,-103.71 354.74,-118.26 425,-134 433.8,-135.97 442.91,-138.14 452.02,-140.39"/>
<polygon fill="#39ff14" stroke="#39ff14" stroke-width="1.5" points="451.36,-143.83 461.91,-142.86 453.06,-137.04 451.36,-143.83"/>
</g>
<!-- coinflip -->
<g id="node4" class="node">
<title>coinflip</title>
<path fill="#2a0a0a" stroke="#ff3333" stroke-width="2" d="M902,-195.5C902,-195.5 751,-195.5 751,-195.5 745,-195.5 739,-189.5 739,-183.5 739,-183.5 739,-154.5 739,-154.5 739,-148.5 745,-142.5 751,-142.5 751,-142.5 902,-142.5 902,-142.5 908,-142.5 914,-148.5 914,-154.5 914,-154.5 914,-183.5 914,-183.5 914,-189.5 908,-195.5 902,-195.5"/>
<text text-anchor="middle" x="826.5" y="-180.3" font-family="JetBrains Mono" font-size="14.00" fill="#ff9999">clf_prob ∈ [0.35, 0.65]</text>
<text text-anchor="middle" x="826.5" y="-165.3" font-family="JetBrains Mono" font-size="14.00" fill="#ff9999">COIN&#45;FLIP ZONE</text>
<text text-anchor="middle" x="826.5" y="-150.3" font-family="JetBrains Mono" font-size="14.00" fill="#ff9999">conviction &lt; 0.15</text>
</g>
<!-- clf&#45;&gt;coinflip -->
<g id="edge7" class="edge">
<title>clf&#45;&gt;coinflip</title>
<path fill="none" stroke="#39ff14" stroke-width="1.5" d="M213.24,-78.9C275.11,-81.36 354.66,-85.86 425,-94 527.2,-105.82 551.91,-114.88 653,-134 677.54,-138.64 704,-143.89 728.64,-148.88"/>
<polygon fill="#39ff14" stroke="#39ff14" stroke-width="1.5" points="728.22,-152.36 738.72,-150.92 729.61,-145.5 728.22,-152.36"/>
</g>
<!-- modYES -->
<g id="node5" class="node">
<title>modYES</title>
<path fill="#1a2a1a" stroke="#aaff66" stroke-width="2" d="M1225.31,-195.5C1225.31,-195.5 1058.31,-195.5 1058.31,-195.5 1052.31,-195.5 1046.31,-189.5 1046.31,-183.5 1046.31,-183.5 1046.31,-154.5 1046.31,-154.5 1046.31,-148.5 1052.31,-142.5 1058.31,-142.5 1058.31,-142.5 1225.31,-142.5 1225.31,-142.5 1231.31,-142.5 1237.31,-148.5 1237.31,-154.5 1237.31,-154.5 1237.31,-183.5 1237.31,-183.5 1237.31,-189.5 1231.31,-195.5 1225.31,-195.5"/>
<text text-anchor="middle" x="1141.81" y="-180.3" font-family="JetBrains Mono" font-size="14.00" fill="#e6e6e6">clf_prob ∈ [0.65, 0.80]</text>
<text text-anchor="middle" x="1141.81" y="-165.3" font-family="JetBrains Mono" font-size="14.00" fill="#e6e6e6">MODERATE YES</text>
<text text-anchor="middle" x="1141.81" y="-150.3" font-family="JetBrains Mono" font-size="14.00" fill="#e6e6e6">conviction ∈ [0.15, 0.30)</text>
</g>
<!-- clf&#45;&gt;modYES -->
<g id="edge8" class="edge">
<title>clf&#45;&gt;modYES</title>
<path fill="none" stroke="#39ff14" stroke-width="1.5" d="M183.57,-56.94C227.89,-47.46 285.02,-38 336.5,-38 336.5,-38 336.5,-38 827.5,-38 929.56,-38 1036.86,-97.9 1095.65,-136.69"/>
<polygon fill="#39ff14" stroke="#39ff14" stroke-width="1.5" points="1094.05,-139.84 1104.31,-142.49 1097.94,-134.02 1094.05,-139.84"/>
</g>
<!-- strongYES -->
<g id="node6" class="node">
<title>strongYES</title>
<path fill="#0a2a0a" stroke="#39ff14" stroke-width="2" d="M1521.63,-195.5C1521.63,-195.5 1370.63,-195.5 1370.63,-195.5 1364.63,-195.5 1358.63,-189.5 1358.63,-183.5 1358.63,-183.5 1358.63,-154.5 1358.63,-154.5 1358.63,-148.5 1364.63,-142.5 1370.63,-142.5 1370.63,-142.5 1521.63,-142.5 1521.63,-142.5 1527.63,-142.5 1533.63,-148.5 1533.63,-154.5 1533.63,-154.5 1533.63,-183.5 1533.63,-183.5 1533.63,-189.5 1527.63,-195.5 1521.63,-195.5"/>
<text text-anchor="middle" x="1446.13" y="-180.3" font-family="JetBrains Mono" font-size="14.00" fill="#aaffaa">clf_prob ∈ [0.80, 1.00]</text>
<text text-anchor="middle" x="1446.13" y="-165.3" font-family="JetBrains Mono" font-size="14.00" fill="#aaffaa">STRONG YES</text>
<text text-anchor="middle" x="1446.13" y="-150.3" font-family="JetBrains Mono" font-size="14.00" fill="#aaffaa">conviction ≥ 0.30</text>
</g>
<!-- clf&#45;&gt;strongYES -->
<g id="edge9" class="edge">
<title>clf&#45;&gt;strongYES</title>
<path fill="none" stroke="#39ff14" stroke-width="1.5" d="M142.01,-56.82C185.84,-34.31 264.45,0 336.5,0 336.5,0 336.5,0 1142.81,0 1252.57,0 1359.5,-85.91 1411.84,-135.23"/>
<polygon fill="#39ff14" stroke="#39ff14" stroke-width="1.5" points="1409.51,-137.84 1419.16,-142.22 1414.34,-132.78 1409.51,-137.84"/>
</g>
<!-- strongNO&#45;&gt;modNO -->
<!-- netable -->
<g id="node10" class="node">
<title>netable</title>
<ellipse fill="#0a3a3a" stroke="#66ffff" stroke-width="2" cx="1750.84" cy="-294" rx="120.42" ry="37.45"/>
<text text-anchor="middle" x="1750.84" y="-305.3" font-family="JetBrains Mono" font-size="14.00" fill="#ccffff">trade, and can</text>
<text text-anchor="middle" x="1750.84" y="-290.3" font-family="JetBrains Mono" font-size="14.00" fill="#ccffff">net&#45;override opposing</text>
<text text-anchor="middle" x="1750.84" y="-275.3" font-family="JetBrains Mono" font-size="14.00" fill="#ccffff">open position</text>
</g>
<!-- strongNO&#45;&gt;netable -->
<g id="edge10" class="edge">
<title>strongNO&#45;&gt;netable</title>
<path fill="none" stroke="#66ffff" stroke-width="1.5" d="M347.32,-195.65C370.45,-259.88 439.29,-418 556.5,-418 556.5,-418 556.5,-418 1447.13,-418 1537.61,-418 1632.71,-369.97 1691.64,-333.7"/>
<polygon fill="#66ffff" stroke="#66ffff" stroke-width="1.5" points="1693.8,-336.48 1700.43,-328.21 1690.09,-330.54 1693.8,-336.48"/>
<text text-anchor="middle" x="962.5" y="-421" font-family="JetBrains Mono" font-size="10.00" fill="#cccccc">can override</text>
</g>
<!-- modNO&#45;&gt;coinflip -->
<!-- trade -->
<g id="node8" class="node">
<title>trade</title>
<ellipse fill="#0a3a0a" stroke="#39ff14" stroke-width="2" cx="826.5" cy="-262" rx="76.24" ry="26.74"/>
<text text-anchor="middle" x="826.5" y="-265.8" font-family="JetBrains Mono" font-size="14.00" fill="#aaffaa">trade (NO)</text>
<text text-anchor="middle" x="826.5" y="-250.8" font-family="JetBrains Mono" font-size="14.00" fill="#aaffaa">if edge ≥ 5%</text>
</g>
<!-- modNO&#45;&gt;trade -->
<g id="edge11" class="edge">
<title>modNO&#45;&gt;trade</title>
<path fill="none" stroke="#39ff14" stroke-width="1.5" d="M634.65,-195.53C675.01,-209.58 724,-226.64 762.23,-239.96"/>
<polygon fill="#39ff14" stroke="#39ff14" stroke-width="1.5" points="761.12,-243.28 771.71,-243.26 763.42,-236.67 761.12,-243.28"/>
<text text-anchor="middle" x="696" y="-226" font-family="JetBrains Mono" font-size="10.00" fill="#cccccc">trade only</text>
</g>
<!-- coinflip&#45;&gt;modYES -->
<!-- skip -->
<g id="node7" class="node">
<title>skip</title>
<ellipse fill="#2a0a0a" stroke="#ff3333" stroke-width="2" cx="1141.81" cy="-363" rx="130.63" ry="26.74"/>
<text text-anchor="middle" x="1141.81" y="-366.8" font-family="JetBrains Mono" font-size="14.00" fill="#ff9999">[SKIP] conviction &lt; 0.15</text>
<text text-anchor="middle" x="1141.81" y="-351.8" font-family="JetBrains Mono" font-size="14.00" fill="#ff9999">no trade</text>
</g>
<!-- coinflip&#45;&gt;skip -->
<g id="edge12" class="edge">
<title>coinflip&#45;&gt;skip</title>
<path fill="none" stroke="#ff3333" stroke-width="1.5" d="M872,-195.56C885.93,-204.59 901.03,-215.15 914,-226 961.99,-266.14 957.24,-296 1011,-328 1019.35,-332.97 1028.41,-337.25 1037.74,-340.93"/>
<polygon fill="#ff3333" stroke="#ff3333" stroke-width="1.5" points="1036.55,-344.22 1047.14,-344.42 1038.98,-337.66 1036.55,-344.22"/>
<text text-anchor="middle" x="962.5" y="-317" font-family="JetBrains Mono" font-size="10.00" fill="#cccccc">blocked</text>
</g>
<!-- regression -->
<g id="node11" class="node">
<title>regression</title>
<polygon fill="#2a1a0a" stroke="#ffaa00" stroke-width="2" points="1262.81,-318.5 1014.81,-318.5 1014.81,-235.5 1268.81,-235.5 1268.81,-312.5 1262.81,-318.5"/>
<polyline fill="none" stroke="#ffaa00" stroke-width="2" points="1262.81,-318.5 1262.81,-312.5 "/>
<polyline fill="none" stroke="#ffaa00" stroke-width="2" points="1268.81,-312.5 1262.81,-312.5 "/>
<text text-anchor="middle" x="1141.81" y="-303.3" font-family="JetBrains Mono" font-size="14.00" fill="#ffcc66">Regression — 2026&#45;04&#45;15 04:00</text>
<text text-anchor="middle" x="1141.81" y="-288.3" font-family="JetBrains Mono" font-size="14.00" fill="#ffcc66">T73699 NO had clf_prob=0.614</text>
<text text-anchor="middle" x="1141.81" y="-273.3" font-family="JetBrains Mono" font-size="14.00" fill="#ffcc66">→ conviction=0.114 &lt; 0.15</text>
<text text-anchor="middle" x="1141.81" y="-258.3" font-family="JetBrains Mono" font-size="14.00" fill="#ffcc66">→ lands in COIN&#45;FLIP ZONE</text>
<text text-anchor="middle" x="1141.81" y="-243.3" font-family="JetBrains Mono" font-size="14.00" fill="#ffcc66">→ [SKIP] — would not have placed</text>
</g>
<!-- coinflip&#45;&gt;regression -->
<g id="edge15" class="edge">
<title>coinflip&#45;&gt;regression</title>
<path fill="none" stroke="#ffaa00" stroke-width="1.5" stroke-dasharray="1,5" d="M904.55,-195.56C939.43,-207.58 981.48,-222.08 1020.37,-235.48"/>
</g>
<!-- modYES&#45;&gt;strongYES -->
<!-- trade2 -->
<g id="node9" class="node">
<title>trade2</title>
<ellipse fill="#0a3a0a" stroke="#39ff14" stroke-width="2" cx="1446.13" cy="-262" rx="76.24" ry="26.74"/>
<text text-anchor="middle" x="1446.13" y="-265.8" font-family="JetBrains Mono" font-size="14.00" fill="#aaffaa">trade (YES)</text>
<text text-anchor="middle" x="1446.13" y="-250.8" font-family="JetBrains Mono" font-size="14.00" fill="#aaffaa">if edge ≥ 5%</text>
</g>
<!-- modYES&#45;&gt;trade2 -->
<g id="edge13" class="edge">
<title>modYES&#45;&gt;trade2</title>
<path fill="none" stroke="#39ff14" stroke-width="1.5" d="M1229.04,-195.53C1276.42,-210.1 1334.3,-227.91 1378.24,-241.42"/>
<polygon fill="#39ff14" stroke="#39ff14" stroke-width="1.5" points="1377.37,-244.82 1387.95,-244.41 1379.42,-238.13 1377.37,-244.82"/>
<text text-anchor="middle" x="1315.63" y="-232" font-family="JetBrains Mono" font-size="10.00" fill="#cccccc">trade only</text>
</g>
<!-- strongYES&#45;&gt;netable -->
<g id="edge14" class="edge">
<title>strongYES&#45;&gt;netable</title>
<path fill="none" stroke="#66ffff" stroke-width="1.5" d="M1511.33,-195.51C1557.06,-214.39 1618.9,-239.93 1668.15,-260.27"/>
<polygon fill="#66ffff" stroke="#66ffff" stroke-width="1.5" points="1666.93,-263.55 1677.51,-264.13 1669.6,-257.08 1666.93,-263.55"/>
<text text-anchor="middle" x="1582.13" y="-238" font-family="JetBrains Mono" font-size="10.00" fill="#cccccc">can override</text>
</g>
</g>
</svg>
