<?xml version="1.0" encoding="UTF-8" standalone="no"?>
<!DOCTYPE svg PUBLIC "-//W3C//DTD SVG 1.1//EN"
 "http://www.w3.org/Graphics/SVG/1.1/DTD/svg11.dtd">
<!-- Generated by graphviz version 2.43.0 (0)
 -->
<!-- Title: netting_sm Pages: 1 -->
<svg width="2326pt" height="233pt"
 viewBox="0.00 0.00 2325.74 233.37" xmlns="http://www.w3.org/2000/svg" xmlns:xlink="http://www.w3.org/1999/xlink">
<g id="graph0" class="graph" transform="scale(1 1) rotate(0) translate(4 229.37)">
<title>netting_sm</title>
<polygon fill="#0a0e14" stroke="transparent" points="-4,4 -4,-229.37 2321.74,-229.37 2321.74,4 -4,4"/>
<!-- start -->
<g id="node1" class="node">
<title>start</title>
<ellipse fill="#0a3a0a" stroke="#39ff14" stroke-width="3" cx="207.18" cy="-167.5" rx="207.36" ry="26.74"/>
<text text-anchor="middle" x="207.18" y="-171.3" font-family="JetBrains Mono" font-size="14.00" fill="#e6e6e6">(held_side, new_signal_side, conviction)</text>
<text text-anchor="middle" x="207.18" y="-156.3" font-family="JetBrains Mono" font-size="14.00" fill="#e6e6e6">inputs for a single ticker</text>
</g>
<!-- d1 -->
<g id="node2" class="node">
<title>d1</title>
<path fill="#1a2a1a" stroke="#39ff14" stroke-width="2" d="M621.84,-217.14C621.84,-217.14 462.89,-170.86 462.89,-170.86 457.13,-169.18 457.13,-165.82 462.89,-164.14 462.89,-164.14 621.84,-117.86 621.84,-117.86 627.6,-116.18 639.13,-116.18 644.89,-117.86 644.89,-117.86 803.84,-164.14 803.84,-164.14 809.6,-165.82 809.6,-169.18 803.84,-170.86 803.84,-170.86 644.89,-217.14 644.89,-217.14 639.13,-218.82 627.6,-218.82 621.84,-217.14"/>
<text text-anchor="middle" x="633.36" y="-178.8" font-family="JetBrains Mono" font-size="14.00" fill="#e6e6e6">opposing?</text>
<text text-anchor="middle" x="633.36" y="-163.8" font-family="JetBrains Mono" font-size="14.00" fill="#e6e6e6">(held YES &amp; new NO)</text>
<text text-anchor="middle" x="633.36" y="-148.8" font-family="JetBrains Mono" font-size="14.00" fill="#e6e6e6">or (held NO &amp; new YES)</text>
</g>
<!-- start&#45;&gt;d1 -->
<g id="edge1" class="edge">
<title>start&#45;&gt;d1</title>
<path fill="none" stroke="#39ff14" stroke-width="1.5" d="M414.37,-167.5C423.33,-167.5 432.31,-167.5 441.24,-167.5"/>
<polygon fill="#39ff14" stroke="#39ff14" stroke-width="1.5" points="441.3,-171 451.3,-167.5 441.3,-164 441.3,-171"/>
</g>
<!-- pass1 -->
<g id="node3" class="node">
<title>pass1</title>
<ellipse fill="#0a3a0a" stroke="#39ff14" stroke-width="2" cx="1032.97" cy="-198.5" rx="106.55" ry="26.74"/>
<text text-anchor="middle" x="1032.97" y="-202.3" font-family="JetBrains Mono" font-size="14.00" fill="#aaffaa">[PASS] same&#45;side</text>
<text text-anchor="middle" x="1032.97" y="-187.3" font-family="JetBrains Mono" font-size="14.00" fill="#aaffaa">or flat → no conflict</text>
</g>
<!-- d1&#45;&gt;pass1 -->
<g id="edge2" class="edge">
<title>d1&#45;&gt;pass1</title>
<path fill="none" stroke="#39ff14" stroke-width="1.5" d="M777.35,-178.65C824.44,-182.32 876.08,-186.35 920.48,-189.81"/>
<polygon fill="#39ff14" stroke="#39ff14" stroke-width="1.5" points="920.47,-193.32 930.71,-190.61 921.01,-186.34 920.47,-193.32"/>
<text text-anchor="middle" x="842.36" y="-186.5" font-family="JetBrains Mono" font-size="10.00" fill="#cccccc">no</text>
</g>
<!-- d2 -->
<g id="node4" class="node">
<title>d2</title>
<path fill="#1a2a1a" stroke="#39ff14" stroke-width="2" d="M1021.05,-152.19C1021.05,-152.19 881.18,-136.81 881.18,-136.81 875.22,-136.16 875.22,-134.84 881.18,-134.19 881.18,-134.19 1021.05,-118.81 1021.05,-118.81 1027.01,-118.16 1038.94,-118.16 1044.9,-118.81 1044.9,-118.81 1184.77,-134.19 1184.77,-134.19 1190.73,-134.84 1190.73,-136.16 1184.77,-136.81 1184.77,-136.81 1044.9,-152.19 1044.9,-152.19 1038.94,-152.84 1027.01,-152.84 1021.05,-152.19"/>
<text text-anchor="middle" x="1032.97" y="-131.8" font-family="JetBrains Mono" font-size="14.00" fill="#e6e6e6">NET_RECONCILIATION?</text>
</g>
<!-- d1&#45;&gt;d2 -->
<g id="edge3" class="edge">
<title>d1&#45;&gt;d2</title>
<path fill="none" stroke="#39ff14" stroke-width="1.5" d="M776.23,-156.08C826.2,-152.06 881.41,-147.62 927.71,-143.89"/>
<polygon fill="#39ff14" stroke="#39ff14" stroke-width="1.5" points="928.06,-147.37 937.75,-143.08 927.5,-140.4 928.06,-147.37"/>
<text text-anchor="middle" x="842.36" y="-153.5" font-family="JetBrains Mono" font-size="10.00" fill="#cccccc">yes</text>
</g>
<!-- block -->
<g id="node5" class="node">
<title>block</title>
<ellipse fill="#2a0a0a" stroke="#ff3333" stroke-width="2" cx="1520.58" cy="-181.5" rx="148.48" ry="37.45"/>
<text text-anchor="middle" x="1520.58" y="-192.8" font-family="JetBrains Mono" font-size="14.00" fill="#ff9999">[SKIP&#45;OPP] block&#45;only mode</text>
<text text-anchor="middle" x="1520.58" y="-177.8" font-family="JetBrains Mono" font-size="14.00" fill="#ff9999">opposing signal ignored</text>
<text text-anchor="middle" x="1520.58" y="-162.8" font-family="JetBrains Mono" font-size="14.00" fill="#ff9999">regardless of strength</text>
</g>
<!-- d2&#45;&gt;block -->
<g id="edge4" class="edge">
<title>d2&#45;&gt;block</title>
<path fill="none" stroke="#ff3333" stroke-width="1.5" d="M1121.63,-143.8C1190.93,-150.37 1289.24,-159.68 1370.8,-167.41"/>
<polygon fill="#ff3333" stroke="#ff3333" stroke-width="1.5" points="1370.89,-170.93 1381.17,-168.39 1371.55,-163.96 1370.89,-170.93"/>
<text text-anchor="middle" x="1264.58" y="-163.5" font-family="JetBrains Mono" font-size="10.00" fill="#cccccc">=0 (block&#45;only)</text>
</g>
<!-- d3 -->
<g id="node6" class="node">
<title>d3</title>
<path fill="#3a0a3a" stroke="#ff66ff" stroke-width="2" d="M1508.82,-124.12C1508.82,-124.12 1344.35,-90.88 1344.35,-90.88 1338.47,-89.69 1338.47,-87.31 1344.35,-86.12 1344.35,-86.12 1508.82,-52.88 1508.82,-52.88 1514.7,-51.69 1526.47,-51.69 1532.35,-52.88 1532.35,-52.88 1696.82,-86.12 1696.82,-86.12 1702.7,-87.31 1702.7,-89.69 1696.82,-90.88 1696.82,-90.88 1532.35,-124.12 1532.35,-124.12 1526.47,-125.31 1514.7,-125.31 1508.82,-124.12"/>
<text text-anchor="middle" x="1520.58" y="-92.3" font-family="JetBrains Mono" font-size="14.00" fill="#ffccff">conviction ≥ 0.30</text>
<text text-anchor="middle" x="1520.58" y="-77.3" font-family="JetBrains Mono" font-size="14.00" fill="#ffccff">(2 × MIN_CONVICTION)?</text>
</g>
<!-- d2&#45;&gt;d3 -->
<g id="edge5" class="edge">
<title>d2&#45;&gt;d3</title>
<path fill="none" stroke="#39ff14" stroke-width="1.5" d="M1120.79,-127.1C1193.54,-120.06 1298.68,-109.88 1382.75,-101.74"/>
<polygon fill="#39ff14" stroke="#39ff14" stroke-width="1.5" points="1383.27,-105.21 1392.89,-100.76 1382.6,-98.24 1383.27,-105.21"/>
<text text-anchor="middle" x="1264.58" y="-120.5" font-family="JetBrains Mono" font-size="10.00" fill="#cccccc">=1 (netting, default)</text>
</g>
<!-- net -->
<g id="node7" class="node">
<title>net</title>
<ellipse fill="#0a3a3a" stroke="#66ffff" stroke-width="2" cx="1909.66" cy="-134.5" rx="147.16" ry="37.45"/>
<text text-anchor="middle" x="1909.66" y="-145.8" font-family="JetBrains Mono" font-size="14.00" fill="#ccffff">[NET] strong opposing wins</text>
<text text-anchor="middle" x="1909.66" y="-130.8" font-family="JetBrains Mono" font-size="14.00" fill="#ccffff">order placed;</text>
<text text-anchor="middle" x="1909.66" y="-115.8" font-family="JetBrains Mono" font-size="14.00" fill="#ccffff">net resolves on settlement</text>
</g>
<!-- d3&#45;&gt;net -->
<g id="edge6" class="edge">
<title>d3&#45;&gt;net</title>
<path fill="none" stroke="#66ffff" stroke-width="1.5" d="M1639.56,-102.52C1679.5,-107.27 1724.53,-112.62 1766.17,-117.57"/>
<polygon fill="#66ffff" stroke="#66ffff" stroke-width="1.5" points="1765.77,-121.04 1776.11,-118.75 1766.6,-114.09 1765.77,-121.04"/>
<text text-anchor="middle" x="1735.58" y="-116.5" font-family="JetBrains Mono" font-size="10.00" fill="#cccccc">yes</text>
</g>
<!-- weak_skip -->
<g id="node8" class="node">
<title>weak_skip</title>
<ellipse fill="#2a0a0a" stroke="#ff3333" stroke-width="2" cx="1909.66" cy="-41.5" rx="141.34" ry="37.45"/>
<text text-anchor="middle" x="1909.66" y="-52.8" font-family="JetBrains Mono" font-size="14.00" fill="#ff9999">[SKIP&#45;OPP] weak opposing</text>
<text text-anchor="middle" x="1909.66" y="-37.8" font-family="JetBrains Mono" font-size="14.00" fill="#ff9999">(0.15 ≤ conv &lt; 0.30)</text>
<text text-anchor="middle" x="1909.66" y="-22.8" font-family="JetBrains Mono" font-size="14.00" fill="#ff9999">hold current position</text>
</g>
<!-- d3&#45;&gt;weak_skip -->
<g id="edge7" class="edge">
<title>d3&#45;&gt;weak_skip</title>
<path fill="none" stroke="#ff3333" stroke-width="1.5" d="M1638.51,-74.3C1680.11,-69.25 1727.35,-63.52 1770.56,-58.27"/>
<polygon fill="#ff3333" stroke="#ff3333" stroke-width="1.5" points="1771.08,-61.73 1780.58,-57.05 1770.23,-54.78 1771.08,-61.73"/>
<text text-anchor="middle" x="1735.58" y="-67.5" font-family="JetBrains Mono" font-size="10.00" fill="#cccccc">no</text>
</g>
<!-- note -->
<g id="node9" class="node">
<title>note</title>
<polygon fill="#2a1a0a" stroke="#ffaa00" stroke-width="2" points="2311.74,-83 2093.74,-83 2093.74,0 2317.74,0 2317.74,-77 2311.74,-83"/>
<polyline fill="none" stroke="#ffaa00" stroke-width="2" points="2311.74,-83 2311.74,-77 "/>
<polyline fill="none" stroke="#ffaa00" stroke-width="2" points="2317.74,-77 2311.74,-77 "/>
<text text-anchor="middle" x="2205.74" y="-67.8" font-family="JetBrains Mono" font-size="14.00" fill="#ffcc66">Note: conviction &lt; 0.15 cases</text>
<text text-anchor="middle" x="2205.74" y="-52.8" font-family="JetBrains Mono" font-size="14.00" fill="#ffcc66">never reach this gate —</text>
<text text-anchor="middle" x="2205.74" y="-37.8" font-family="JetBrains Mono" font-size="14.00" fill="#ffcc66">they&#39;re skipped at the</text>
<text text-anchor="middle" x="2205.74" y="-22.8" font-family="JetBrains Mono" font-size="14.00" fill="#ffcc66">per&#45;strike conviction gate</text>
<text text-anchor="middle" x="2205.74" y="-7.8" font-family="JetBrains Mono" font-size="14.00" fill="#ffcc66">inside find_opportunities</text>
</g>
<!-- weak_skip&#45;&gt;note -->
<g id="edge8" class="edge">
<title>weak_skip&#45;&gt;note</title>
<path fill="none" stroke="#ffaa00" stroke-width="1.5" stroke-dasharray="1,5" d="M2051.24,-41.5C2065.42,-41.5 2079.68,-41.5 2093.48,-41.5"/>
</g>
</g>
</svg>
