<?xml version="1.0" encoding="UTF-8" standalone="no"?>
<!DOCTYPE svg PUBLIC "-//W3C//DTD SVG 1.1//EN"
 "http://www.w3.org/Graphics/SVG/1.1/DTD/svg11.dtd">
<!-- Generated by graphviz version 2.43.0 (0)
 -->
<!-- Title: expiry_cap Pages: 1 -->
<svg width="1644pt" height="359pt"
 viewBox="0.00 0.00 1644.00 358.50" xmlns="http://www.w3.org/2000/svg" xmlns:xlink="http://www.w3.org/1999/xlink">
<g id="graph0" class="graph" transform="scale(1 1) rotate(0) translate(4 354.5)">
<title>expiry_cap</title>
<polygon fill="#0a0e14" stroke="transparent" points="-4,4 -4,-354.5 1640,-354.5 1640,4 -4,4"/>
<!-- portfolio -->
<g id="node1" class="node">
<title>portfolio</title>
<path fill="#0a2a2a" stroke="#66ffff" stroke-width="3" d="M264.5,-227C264.5,-227 34.5,-227 34.5,-227 28.5,-227 22.5,-221 22.5,-215 22.5,-215 22.5,-186 22.5,-186 22.5,-180 28.5,-174 34.5,-174 34.5,-174 264.5,-174 264.5,-174 270.5,-174 276.5,-180 276.5,-186 276.5,-186 276.5,-215 276.5,-215 276.5,-221 270.5,-227 264.5,-227"/>
<text text-anchor="middle" x="149.5" y="-211.8" font-family="JetBrains Mono" font-size="14.00" fill="#ccffff">portfolio_value</text>
<text text-anchor="middle" x="149.5" y="-196.8" font-family="JetBrains Mono" font-size="14.00" fill="#ccffff">= cash + open_cost</text>
<text text-anchor="middle" x="149.5" y="-181.8" font-family="JetBrains Mono" font-size="14.00" fill="#ccffff">(capped at MAX_BANKROLL $500)</text>
</g>
<!-- cap_calc -->
<g id="node2" class="node">
<title>cap_calc</title>
<path fill="#1a2a1a" stroke="#39ff14" stroke-width="2" d="M512,-219.5C512,-219.5 348,-219.5 348,-219.5 342,-219.5 336,-213.5 336,-207.5 336,-207.5 336,-193.5 336,-193.5 336,-187.5 342,-181.5 348,-181.5 348,-181.5 512,-181.5 512,-181.5 518,-181.5 524,-187.5 524,-193.5 524,-193.5 524,-207.5 524,-207.5 524,-213.5 518,-219.5 512,-219.5"/>
<text text-anchor="middle" x="430" y="-204.3" font-family="JetBrains Mono" font-size="14.00" fill="#e6e6e6">expiry_cap</text>
<text text-anchor="middle" x="430" y="-189.3" font-family="JetBrains Mono" font-size="14.00" fill="#e6e6e6">= portfolio_value × 0.50</text>
</g>
<!-- portfolio&#45;&gt;cap_calc -->
<g id="edge2" class="edge">
<title>portfolio&#45;&gt;cap_calc</title>
<path fill="none" stroke="#39ff14" stroke-width="1.5" d="M276.71,-200.5C293,-200.5 309.54,-200.5 325.41,-200.5"/>
<polygon fill="#39ff14" stroke="#39ff14" stroke-width="1.5" points="325.73,-204 335.73,-200.5 325.73,-197 325.73,-204"/>
</g>
<!-- check -->
<g id="node7" class="node">
<title>check</title>
<path fill="#3a0a3a" stroke="#ff66ff" stroke-width="3" d="M694.73,-216.38C694.73,-216.38 572.27,-171.62 572.27,-171.62 566.64,-169.56 566.64,-165.44 572.27,-163.38 572.27,-163.38 694.73,-118.62 694.73,-118.62 700.36,-116.56 711.64,-116.56 717.27,-118.62 717.27,-118.62 839.73,-163.38 839.73,-163.38 845.36,-165.44 845.36,-169.56 839.73,-171.62 839.73,-171.62 717.27,-216.38 717.27,-216.38 711.64,-218.44 700.36,-218.44 694.73,-216.38"/>
<text text-anchor="middle" x="706" y="-178.8" font-family="JetBrains Mono" font-size="14.00" fill="#ffccff">expiry_cost[event]</text>
<text text-anchor="middle" x="706" y="-163.8" font-family="JetBrains Mono" font-size="14.00" fill="#ffccff">+ this_cost</text>
<text text-anchor="middle" x="706" y="-148.8" font-family="JetBrains Mono" font-size="14.00" fill="#ffccff"> &#160;≤ &#160;expiry_cap?</text>
</g>
<!-- cap_calc&#45;&gt;check -->
<g id="edge3" class="edge">
<title>cap_calc&#45;&gt;check</title>
<path fill="none" stroke="#39ff14" stroke-width="1.5" d="M524.15,-189.28C544.15,-186.87 565.54,-184.3 586.35,-181.79"/>
<polygon fill="#39ff14" stroke="#39ff14" stroke-width="1.5" points="587.01,-185.24 596.52,-180.57 586.17,-178.29 587.01,-185.24"/>
</g>
<!-- api -->
<g id="node3" class="node">
<title>api</title>
<path fill="#2a1a2a" stroke="#ff66ff" stroke-width="2" d="M1199.5,-350.5C1199.5,-350.5 948.5,-350.5 948.5,-350.5 942.5,-350.5 936.5,-344.5 936.5,-338.5 936.5,-338.5 936.5,-324.5 936.5,-324.5 936.5,-318.5 942.5,-312.5 948.5,-312.5 948.5,-312.5 1199.5,-312.5 1199.5,-312.5 1205.5,-312.5 1211.5,-318.5 1211.5,-324.5 1211.5,-324.5 1211.5,-338.5 1211.5,-338.5 1211.5,-344.5 1205.5,-350.5 1199.5,-350.5"/>
<text text-anchor="middle" x="1074" y="-335.3" font-family="JetBrains Mono" font-size="14.00" fill="#ffccff">GET /portfolio/positions</text>
<text text-anchor="middle" x="1074" y="-320.3" font-family="JetBrains Mono" font-size="14.00" fill="#ffccff">→ event_positions[].total_cost_dollars</text>
</g>
<!-- seed -->
<g id="node4" class="node">
<title>seed</title>
<path fill="#2a1a0a" stroke="#ffaa00" stroke-width="2" d="M1606,-331.24C1606,-336.97 1554,-341.63 1490,-341.63 1425.99,-341.63 1374,-336.97 1374,-331.24 1374,-331.24 1374,-237.76 1374,-237.76 1374,-232.03 1425.99,-227.37 1490,-227.37 1554,-227.37 1606,-232.03 1606,-237.76 1606,-237.76 1606,-331.24 1606,-331.24"/>
<path fill="none" stroke="#ffaa00" stroke-width="2" d="M1606,-331.24C1606,-325.51 1554,-320.85 1490,-320.85 1425.99,-320.85 1374,-325.51 1374,-331.24"/>
<text text-anchor="middle" x="1490" y="-310.8" font-family="JetBrains Mono" font-size="14.00" fill="#e6e6e6">expiry_cost = {</text>
<text text-anchor="middle" x="1490" y="-295.8" font-family="JetBrains Mono" font-size="14.00" fill="#e6e6e6"> &#160;KXBTCD&#45;26APR1500: $59.21,</text>
<text text-anchor="middle" x="1490" y="-280.8" font-family="JetBrains Mono" font-size="14.00" fill="#e6e6e6"> &#160;KXBTCD&#45;26APR1505: $12.40,</text>
<text text-anchor="middle" x="1490" y="-265.8" font-family="JetBrains Mono" font-size="14.00" fill="#e6e6e6"> &#160;KXBTCD&#45;26APR1510: $0.00</text>
<text text-anchor="middle" x="1490" y="-250.8" font-family="JetBrains Mono" font-size="14.00" fill="#e6e6e6">}</text>
</g>
<!-- api&#45;&gt;seed -->
<g id="edge1" class="edge">
<title>api&#45;&gt;seed</title>
<path fill="none" stroke="#39ff14" stroke-width="1.5" d="M1211.7,-315.98C1260.74,-310.41 1315.74,-304.17 1363.76,-298.72"/>
<polygon fill="#39ff14" stroke="#39ff14" stroke-width="1.5" points="1364.35,-302.17 1373.89,-297.57 1363.56,-295.22 1364.35,-302.17"/>
</g>
<!-- seed&#45;&gt;check -->
<g id="edge4" class="edge">
<title>seed&#45;&gt;check</title>
<path fill="none" stroke="#39ff14" stroke-width="1.5" d="M1373.97,-294.96C1254.73,-302.52 1063.89,-305.41 905,-265.5 856.44,-253.3 805.92,-228.07 768.07,-206.26"/>
<polygon fill="#39ff14" stroke="#39ff14" stroke-width="1.5" points="769.62,-203.11 759.22,-201.09 766.09,-209.15 769.62,-203.11"/>
</g>
<!-- opp -->
<g id="node5" class="node">
<title>opp</title>
<path fill="#1a2a1a" stroke="#39ff14" stroke-width="2" d="M287,-155.5C287,-155.5 12,-155.5 12,-155.5 6,-155.5 0,-149.5 0,-143.5 0,-143.5 0,-129.5 0,-129.5 0,-123.5 6,-117.5 12,-117.5 12,-117.5 287,-117.5 287,-117.5 293,-117.5 299,-123.5 299,-129.5 299,-129.5 299,-143.5 299,-143.5 299,-149.5 293,-155.5 287,-155.5"/>
<text text-anchor="middle" x="149.5" y="-140.3" font-family="JetBrains Mono" font-size="14.00" fill="#e6e6e6">next opportunity</text>
<text text-anchor="middle" x="149.5" y="-125.3" font-family="JetBrains Mono" font-size="14.00" fill="#e6e6e6">ticker = KXBTCD&#45;26APR1504&#45;T74099.99</text>
</g>
<!-- evkey -->
<g id="node6" class="node">
<title>evkey</title>
<path fill="#1a2a1a" stroke="#39ff14" stroke-width="2" d="M506,-163C506,-163 354,-163 354,-163 348,-163 342,-157 342,-151 342,-151 342,-122 342,-122 342,-116 348,-110 354,-110 354,-110 506,-110 506,-110 512,-110 518,-116 518,-122 518,-122 518,-151 518,-151 518,-157 512,-163 506,-163"/>
<text text-anchor="middle" x="430" y="-147.8" font-family="JetBrains Mono" font-size="14.00" fill="#e6e6e6">event_ticker_of(ticker)</text>
<text text-anchor="middle" x="430" y="-132.8" font-family="JetBrains Mono" font-size="14.00" fill="#e6e6e6">= KXBTCD&#45;26APR1504</text>
<text text-anchor="middle" x="430" y="-117.8" font-family="JetBrains Mono" font-size="14.00" fill="#e6e6e6">(strip &#45;T&lt;strike&gt;)</text>
</g>
<!-- opp&#45;&gt;evkey -->
<g id="edge5" class="edge">
<title>opp&#45;&gt;evkey</title>
<path fill="none" stroke="#39ff14" stroke-width="1.5" d="M299.13,-136.5C310.23,-136.5 321.25,-136.5 331.9,-136.5"/>
<polygon fill="#39ff14" stroke="#39ff14" stroke-width="1.5" points="332,-140 342,-136.5 332,-133 332,-140"/>
</g>
<!-- evkey&#45;&gt;check -->
<g id="edge6" class="edge">
<title>evkey&#45;&gt;check</title>
<path fill="none" stroke="#39ff14" stroke-width="1.5" d="M518.07,-146.35C539.37,-148.76 562.52,-151.38 585.06,-153.93"/>
<polygon fill="#39ff14" stroke="#39ff14" stroke-width="1.5" points="584.68,-157.41 595.01,-155.06 585.47,-150.45 584.68,-157.41"/>
</g>
<!-- place -->
<g id="node8" class="node">
<title>place</title>
<ellipse fill="#0a3a0a" stroke="#39ff14" stroke-width="2" cx="1074" cy="-229.5" rx="169" ry="26.74"/>
<text text-anchor="middle" x="1074" y="-233.3" font-family="JetBrains Mono" font-size="14.00" fill="#aaffaa">POST /portfolio/orders</text>
<text text-anchor="middle" x="1074" y="-218.3" font-family="JetBrains Mono" font-size="14.00" fill="#aaffaa">expiry_cost[event] += this_cost</text>
</g>
<!-- check&#45;&gt;place -->
<g id="edge7" class="edge">
<title>check&#45;&gt;place</title>
<path fill="none" stroke="#39ff14" stroke-width="1.5" d="M805.56,-184.2C849.25,-191.6 901.17,-200.39 947.58,-208.25"/>
<polygon fill="#39ff14" stroke="#39ff14" stroke-width="1.5" points="947.26,-211.75 957.7,-209.97 948.43,-204.85 947.26,-211.75"/>
<text text-anchor="middle" x="878" y="-199.5" font-family="JetBrains Mono" font-size="10.00" fill="#cccccc">yes</text>
</g>
<!-- skip -->
<g id="node9" class="node">
<title>skip</title>
<ellipse fill="#2a0a0a" stroke="#ff3333" stroke-width="2" cx="1074" cy="-41.5" rx="130.22" ry="26.74"/>
<text text-anchor="middle" x="1074" y="-45.3" font-family="JetBrains Mono" font-size="14.00" fill="#ff9999">[SKIP] expiry cap</text>
<text text-anchor="middle" x="1074" y="-30.3" font-family="JetBrains Mono" font-size="14.00" fill="#ff9999">exposure X + Y &gt; cap Z</text>
</g>
<!-- check&#45;&gt;skip -->
<g id="edge8" class="edge">
<title>check&#45;&gt;skip</title>
<path fill="none" stroke="#ff3333" stroke-width="1.5" d="M766.31,-136.47C804.96,-117.28 856.95,-93.36 905,-77.5 923.99,-71.23 944.55,-65.78 964.56,-61.14"/>
<polygon fill="#ff3333" stroke="#ff3333" stroke-width="1.5" points="965.35,-64.55 974.33,-58.93 963.8,-57.72 965.35,-64.55"/>
<text text-anchor="middle" x="878" y="-93.5" font-family="JetBrains Mono" font-size="10.00" fill="#cccccc">no</text>
</g>
<!-- rock -->
<g id="node11" class="node">
<title>rock</title>
<polygon fill="#2a0a0a" stroke="#ff6666" stroke-width="2" points="1200,-184.5 942,-184.5 942,-86.5 1206,-86.5 1206,-178.5 1200,-184.5"/>
<polyline fill="none" stroke="#ff6666" stroke-width="2" points="1200,-184.5 1200,-178.5 "/>
<polyline fill="none" stroke="#ff6666" stroke-width="2" points="1206,-178.5 1200,-178.5 "/>
<text text-anchor="middle" x="1074" y="-169.3" font-family="JetBrains Mono" font-size="14.00" fill="#ffcccc">Failure shape it catches —</text>
<text text-anchor="middle" x="1074" y="-154.3" font-family="JetBrains Mono" font-size="14.00" fill="#ffcccc">2026&#45;04&#45;15 04:00 had $59.21</text>
<text text-anchor="middle" x="1074" y="-139.3" font-family="JetBrains Mono" font-size="14.00" fill="#ffcccc">on single expiry vs $86.03 portfolio</text>
<text text-anchor="middle" x="1074" y="-124.3" font-family="JetBrains Mono" font-size="14.00" fill="#ffcccc">(68% &gt; 50% cap)</text>
<text text-anchor="middle" x="1074" y="-109.3" font-family="JetBrains Mono" font-size="14.00" fill="#ffcccc">→ gate would have blocked</text>
<text text-anchor="middle" x="1074" y="-94.3" font-family="JetBrains Mono" font-size="14.00" fill="#ffcccc">the last ~$15 of over&#45;allocation</text>
</g>
<!-- check&#45;&gt;rock -->
<g id="edge11" class="edge">
<title>check&#45;&gt;rock</title>
<path fill="none" stroke="#ff6666" stroke-width="1.5" stroke-dasharray="1,5" d="M823.31,-157.33C860.98,-154.04 903.03,-150.36 941.72,-146.98"/>
</g>
<!-- place&#45;&gt;seed -->
<g id="edge9" class="edge">
<title>place&#45;&gt;seed</title>
<path fill="none" stroke="#aaff66" stroke-width="1.5" stroke-dasharray="5,2" d="M1234.38,-238.15C1264.88,-240.76 1296.49,-244.15 1326,-248.5 1338.21,-250.3 1350.88,-252.5 1363.5,-254.92"/>
<polygon fill="#aaff66" stroke="#aaff66" stroke-width="1.5" points="1363.13,-258.41 1373.61,-256.9 1364.47,-251.54 1363.13,-258.41"/>
<text text-anchor="middle" x="1293.5" y="-262.5" font-family="JetBrains Mono" font-size="10.00" fill="#cccccc">update</text>
<text text-anchor="middle" x="1293.5" y="-251.5" font-family="JetBrains Mono" font-size="10.00" fill="#cccccc">(accumulate)</text>
</g>
<!-- note -->
<g id="node10" class="node">
<title>note</title>
<polygon fill="#2a1a0a" stroke="#ffaa00" stroke-width="2" points="1630,-83 1344,-83 1344,0 1636,0 1636,-77 1630,-83"/>
<polyline fill="none" stroke="#ffaa00" stroke-width="2" points="1630,-83 1630,-77 "/>
<polyline fill="none" stroke="#ffaa00" stroke-width="2" points="1636,-77 1630,-77 "/>
<text text-anchor="middle" x="1490" y="-67.8" font-family="JetBrains Mono" font-size="14.00" fill="#ffcc66">Live example — 2026&#45;04&#45;15 19:41 CDT</text>
<text text-anchor="middle" x="1490" y="-52.8" font-family="JetBrains Mono" font-size="14.00" fill="#ffcc66">portfolio = $42.56 → cap $21.28</text>
<text text-anchor="middle" x="1490" y="-37.8" font-family="JetBrains Mono" font-size="14.00" fill="#ffcc66">existing 21:00 expiry cost = $24.90</text>
<text text-anchor="middle" x="1490" y="-22.8" font-family="JetBrains Mono" font-size="14.00" fill="#ffcc66">→ all 3 new strikes SKIPPED</text>
<text text-anchor="middle" x="1490" y="-7.8" font-family="JetBrains Mono" font-size="14.00" fill="#ffcc66">(would push to $27.80 vs cap $21.28)</text>
</g>
<!-- skip&#45;&gt;note -->
<g id="edge10" class="edge">
<title>skip&#45;&gt;note</title>
<path fill="none" stroke="#ffaa00" stroke-width="1.5" stroke-dasharray="1,5" d="M1204.29,-41.5C1248.53,-41.5 1298.32,-41.5 1343.75,-41.5"/>
</g>
</g>
</svg>
