<?xml version="1.0" encoding="UTF-8" standalone="no"?>
<!DOCTYPE svg PUBLIC "-//W3C//DTD SVG 1.1//EN"
 "http://www.w3.org/Graphics/SVG/1.1/DTD/svg11.dtd">
<!-- Generated by graphviz version 2.43.0 (0)
 -->
<!-- Title: phaseB_flow Pages: 1 -->
<svg width="2002pt" height="640pt"
 viewBox="0.00 0.00 2002.00 640.00" xmlns="http://www.w3.org/2000/svg" xmlns:xlink="http://www.w3.org/1999/xlink">
<g id="graph0" class="graph" transform="scale(1 1) rotate(0) translate(4 636)">
<title>phaseB_flow</title>
<polygon fill="#0a0e14" stroke="transparent" points="-4,4 -4,-636 1998,-636 1998,4 -4,4"/>
<g id="clust1" class="cluster">
<title>cluster_src</title>
<path fill="#1a0a1a" stroke="#ff00ff" stroke-width="2" d="M20,-439C20,-439 239,-439 239,-439 245,-439 251,-445 251,-451 251,-451 251,-576 251,-576 251,-582 245,-588 239,-588 239,-588 20,-588 20,-588 14,-588 8,-582 8,-576 8,-576 8,-451 8,-451 8,-445 14,-439 20,-439"/>
<text text-anchor="middle" x="129.5" y="-572.8" font-family="JetBrains Mono" font-size="14.00" fill="#ff66ff">Data sources (already collecting)</text>
</g>
<g id="clust2" class="cluster">
<title>cluster_new</title>
<path fill="#1a0a1a" stroke="#ff66ff" stroke-width="2" d="M1392,-168C1392,-168 1655,-168 1655,-168 1661,-168 1667,-174 1667,-180 1667,-180 1667,-409 1667,-409 1667,-415 1661,-421 1655,-421 1655,-421 1392,-421 1392,-421 1386,-421 1380,-415 1380,-409 1380,-409 1380,-180 1380,-180 1380,-174 1386,-168 1392,-168"/>
<text text-anchor="middle" x="1523.5" y="-405.8" font-family="JetBrains Mono" font-size="14.00" fill="#ff66ff">Phase B modules (scaffolded, unwired)</text>
</g>
<g id="clust3" class="cluster">
<title>cluster_train</title>
<path fill="#1a1408" stroke="#ffaa00" stroke-width="2" d="M737.5,-339C737.5,-339 1233,-339 1233,-339 1239,-339 1245,-345 1245,-351 1245,-351 1245,-506 1245,-506 1245,-512 1239,-518 1233,-518 1233,-518 737.5,-518 737.5,-518 731.5,-518 725.5,-512 725.5,-506 725.5,-506 725.5,-351 725.5,-351 725.5,-345 731.5,-339 737.5,-339"/>
<text text-anchor="middle" x="985.25" y="-502.8" font-family="JetBrains Mono" font-size="14.00" fill="#ffcc66">Training path (not yet written)</text>
</g>
<g id="clust4" class="cluster">
<title>cluster_models</title>
<path fill="#0a1a0a" stroke="#39ff14" stroke-width="2" d="M1074,-8C1074,-8 1241,-8 1241,-8 1247,-8 1253,-14 1253,-20 1253,-20 1253,-319 1253,-319 1253,-325 1247,-331 1241,-331 1241,-331 1074,-331 1074,-331 1068,-331 1062,-325 1062,-319 1062,-319 1062,-20 1062,-20 1062,-14 1068,-8 1074,-8"/>
<text text-anchor="middle" x="1157.5" y="-315.8" font-family="JetBrains Mono" font-size="14.00" fill="#aaff66">Model artifacts</text>
</g>
<!-- gemws -->
<g id="node1" class="node">
<title>gemws</title>
<path fill="#2a0a2a" stroke="#ff66ff" stroke-width="2" d="M182.5,-556.5C182.5,-556.5 76.5,-556.5 76.5,-556.5 70.5,-556.5 64.5,-550.5 64.5,-544.5 64.5,-544.5 64.5,-515.5 64.5,-515.5 64.5,-509.5 70.5,-503.5 76.5,-503.5 76.5,-503.5 182.5,-503.5 182.5,-503.5 188.5,-503.5 194.5,-509.5 194.5,-515.5 194.5,-515.5 194.5,-544.5 194.5,-544.5 194.5,-550.5 188.5,-556.5 182.5,-556.5"/>
<text text-anchor="middle" x="129.5" y="-541.3" font-family="JetBrains Mono" font-size="14.00" fill="#e6e6e6">Gemini WS</text>
<text text-anchor="middle" x="129.5" y="-526.3" font-family="JetBrains Mono" font-size="14.00" fill="#e6e6e6">L2 orderbook</text>
<text text-anchor="middle" x="129.5" y="-511.3" font-family="JetBrains Mono" font-size="14.00" fill="#e6e6e6">~60s snapshots</text>
</g>
<!-- ob_coll -->
<g id="node3" class="node">
<title>ob_coll</title>
<path fill="#1a2a1a" stroke="#39ff14" stroke-width="2" d="M439,-550C439,-550 290,-550 290,-550 284,-550 278,-544 278,-538 278,-538 278,-524 278,-524 278,-518 284,-512 290,-512 290,-512 439,-512 439,-512 445,-512 451,-518 451,-524 451,-524 451,-538 451,-538 451,-544 445,-550 439,-550"/>
<text text-anchor="middle" x="364.5" y="-534.8" font-family="JetBrains Mono" font-size="14.00" fill="#e6e6e6">orderbook_collector.py</text>
<text text-anchor="middle" x="364.5" y="-519.8" font-family="JetBrains Mono" font-size="14.00" fill="#e6e6e6">(systemd service)</text>
</g>
<!-- gemws&#45;&gt;ob_coll -->
<g id="edge1" class="edge">
<title>gemws&#45;&gt;ob_coll</title>
<path fill="none" stroke="#39ff14" stroke-width="1.5" d="M194.79,-530.28C217.28,-530.37 243.05,-530.48 267.56,-530.59"/>
<polygon fill="#39ff14" stroke="#39ff14" stroke-width="1.5" points="267.6,-534.09 277.61,-530.63 267.63,-527.09 267.6,-534.09"/>
</g>
<!-- cand -->
<g id="node2" class="node">
<title>cand</title>
<path fill="#2a0a2a" stroke="#ff66ff" stroke-width="2" d="M197,-485C197,-485 62,-485 62,-485 56,-485 50,-479 50,-473 50,-473 50,-459 50,-459 50,-453 56,-447 62,-447 62,-447 197,-447 197,-447 203,-447 209,-453 209,-459 209,-459 209,-473 209,-473 209,-479 203,-485 197,-485"/>
<text text-anchor="middle" x="129.5" y="-469.8" font-family="JetBrains Mono" font-size="14.00" fill="#e6e6e6">Gemini 1m candles</text>
<text text-anchor="middle" x="129.5" y="-454.8" font-family="JetBrains Mono" font-size="14.00" fill="#e6e6e6">90d training window</text>
</g>
<!-- train_ob -->
<g id="node7" class="node">
<title>train_ob</title>
<path fill="#2a1a0a" stroke="#ffcc66" stroke-width="2" d="M893,-486.5C893,-486.5 765,-486.5 765,-486.5 759,-486.5 753,-480.5 753,-474.5 753,-474.5 753,-445.5 753,-445.5 753,-439.5 759,-433.5 765,-433.5 765,-433.5 893,-433.5 893,-433.5 899,-433.5 905,-439.5 905,-445.5 905,-445.5 905,-474.5 905,-474.5 905,-480.5 899,-486.5 893,-486.5"/>
<text text-anchor="middle" x="829" y="-471.3" font-family="JetBrains Mono" font-size="14.00" fill="#e6e6e6">train_classifier</text>
<text text-anchor="middle" x="829" y="-456.3" font-family="JetBrains Mono" font-size="14.00" fill="#e6e6e6">_with_orderbook.py</text>
<text text-anchor="middle" x="829" y="-441.3" font-family="JetBrains Mono" font-size="14.00" fill="#e6e6e6">(TODO)</text>
</g>
<!-- cand&#45;&gt;train_ob -->
<g id="edge3" class="edge">
<title>cand&#45;&gt;train_ob</title>
<path fill="none" stroke="#39ff14" stroke-width="1.5" d="M209.16,-465.32C341.1,-464.19 605.96,-461.91 742.41,-460.74"/>
<polygon fill="#39ff14" stroke="#39ff14" stroke-width="1.5" points="742.84,-464.23 752.81,-460.65 742.78,-457.23 742.84,-464.23"/>
</g>
<!-- ob_db -->
<g id="node4" class="node">
<title>ob_db</title>
<path fill="#2a1a0a" stroke="#ffaa00" stroke-width="2" d="M621,-562.76C621,-566.41 591.19,-569.38 554.5,-569.38 517.81,-569.38 488,-566.41 488,-562.76 488,-562.76 488,-503.24 488,-503.24 488,-499.59 517.81,-496.62 554.5,-496.62 591.19,-496.62 621,-499.59 621,-503.24 621,-503.24 621,-562.76 621,-562.76"/>
<path fill="none" stroke="#ffaa00" stroke-width="2" d="M621,-562.76C621,-559.11 591.19,-556.15 554.5,-556.15 517.81,-556.15 488,-559.11 488,-562.76"/>
<text text-anchor="middle" x="554.5" y="-544.3" font-family="JetBrains Mono" font-size="14.00" fill="#e6e6e6">orderbook.db</text>
<text text-anchor="middle" x="554.5" y="-529.3" font-family="JetBrains Mono" font-size="14.00" fill="#e6e6e6">3,724 snapshots</text>
<text text-anchor="middle" x="554.5" y="-514.3" font-family="JetBrains Mono" font-size="14.00" fill="#e6e6e6">~3 days history</text>
</g>
<!-- ob_coll&#45;&gt;ob_db -->
<g id="edge2" class="edge">
<title>ob_coll&#45;&gt;ob_db</title>
<path fill="none" stroke="#39ff14" stroke-width="1.5" d="M451.25,-531.91C460.09,-532.01 469.03,-532.1 477.75,-532.19"/>
<polygon fill="#39ff14" stroke="#39ff14" stroke-width="1.5" points="477.83,-535.7 487.86,-532.3 477.9,-528.7 477.83,-535.7"/>
</g>
<!-- obf -->
<g id="node5" class="node">
<title>obf</title>
<path fill="#3a0a3a" stroke="#ff66ff" stroke-width="3" d="M1632,-390C1632,-390 1415,-390 1415,-390 1409,-390 1403,-384 1403,-378 1403,-378 1403,-304 1403,-304 1403,-298 1409,-292 1415,-292 1415,-292 1632,-292 1632,-292 1638,-292 1644,-298 1644,-304 1644,-304 1644,-378 1644,-378 1644,-384 1638,-390 1632,-390"/>
<text text-anchor="middle" x="1523.5" y="-374.8" font-family="JetBrains Mono" font-size="14.00" fill="#ffccff">orderbook_features.py</text>
<text text-anchor="middle" x="1523.5" y="-359.8" font-family="JetBrains Mono" font-size="14.00" fill="#ffccff">• ob_features_at(ts)</text>
<text text-anchor="middle" x="1523.5" y="-344.8" font-family="JetBrains Mono" font-size="14.00" fill="#ffccff">• ob_features_for_training(ts[])</text>
<text text-anchor="middle" x="1523.5" y="-329.8" font-family="JetBrains Mono" font-size="14.00" fill="#ffccff">• 5 features: spread bps,</text>
<text text-anchor="middle" x="1523.5" y="-314.8" font-family="JetBrains Mono" font-size="14.00" fill="#ffccff"> &#160;bid_imbalance, depth ratio log,</text>
<text text-anchor="middle" x="1523.5" y="-299.8" font-family="JetBrains Mono" font-size="14.00" fill="#ffccff"> &#160;top size ratio, staleness</text>
</g>
<!-- ob_db&#45;&gt;obf -->
<g id="edge4" class="edge">
<title>ob_db&#45;&gt;obf</title>
<path fill="none" stroke="#39ff14" stroke-width="1.5" d="M621.05,-536.68C771.29,-544.35 1136.56,-558.48 1253,-522 1332.81,-497 1410.64,-440.17 1461.97,-396.81"/>
<polygon fill="#39ff14" stroke="#39ff14" stroke-width="1.5" points="1464.33,-399.4 1469.67,-390.25 1459.79,-394.08 1464.33,-399.4"/>
</g>
<!-- ob_db&#45;&gt;train_ob -->
<g id="edge5" class="edge">
<title>ob_db&#45;&gt;train_ob</title>
<path fill="none" stroke="#ffaa00" stroke-width="1.5" stroke-dasharray="5,2" d="M621.12,-515.42C657.7,-505.62 703.68,-493.3 742.99,-482.77"/>
<polygon fill="#ffaa00" stroke="#ffaa00" stroke-width="1.5" points="744.08,-486.1 752.84,-480.14 742.27,-479.34 744.08,-486.1"/>
<text text-anchor="middle" x="662" y="-512" font-family="JetBrains Mono" font-size="10.00" fill="#cccccc">join by ts</text>
</g>
<!-- wait -->
<g id="node15" class="node">
<title>wait</title>
<polygon fill="#2a1a0a" stroke="#ffaa00" stroke-width="2" points="949,-632 703,-632 703,-564 955,-564 955,-626 949,-632"/>
<polyline fill="none" stroke="#ffaa00" stroke-width="2" points="949,-632 949,-626 "/>
<polyline fill="none" stroke="#ffaa00" stroke-width="2" points="955,-626 949,-626 "/>
<text text-anchor="middle" x="829" y="-616.8" font-family="JetBrains Mono" font-size="14.00" fill="#ffcc66">Calendar wait:</text>
<text text-anchor="middle" x="829" y="-601.8" font-family="JetBrains Mono" font-size="14.00" fill="#ffcc66">need ≥30d of OB snapshots</text>
<text text-anchor="middle" x="829" y="-586.8" font-family="JetBrains Mono" font-size="14.00" fill="#ffcc66">for statistically meaningful retrain</text>
<text text-anchor="middle" x="829" y="-571.8" font-family="JetBrains Mono" font-size="14.00" fill="#ffcc66">(currently 3 days)</text>
</g>
<!-- ob_db&#45;&gt;wait -->
<g id="edge19" class="edge">
<title>ob_db&#45;&gt;wait</title>
<path fill="none" stroke="#ffaa00" stroke-width="1.5" stroke-dasharray="1,5" d="M621.12,-548.65C645.76,-554.53 674.67,-561.43 702.93,-568.17"/>
</g>
<!-- obf&#45;&gt;train_ob -->
<g id="edge6" class="edge">
<title>obf&#45;&gt;train_ob</title>
<path fill="none" stroke="#ffaa00" stroke-width="1.5" stroke-dasharray="5,2" d="M1402.86,-333.82C1308.53,-331.46 1174.58,-335.49 1062,-367 1010.11,-381.52 1004.94,-403.77 955,-424 942.28,-429.15 928.56,-433.89 915.03,-438.11"/>
<polygon fill="#ffaa00" stroke="#ffaa00" stroke-width="1.5" points="913.77,-434.83 905.23,-441.1 915.81,-441.53 913.77,-434.83"/>
<text text-anchor="middle" x="1157.5" y="-370" font-family="JetBrains Mono" font-size="10.00" fill="#cccccc">features</text>
</g>
<!-- auto -->
<g id="node14" class="node">
<title>auto</title>
<path fill="#1a2a1a" stroke="#39ff14" stroke-width="2" d="M1982,-312C1982,-312 1772,-312 1772,-312 1766,-312 1760,-306 1760,-300 1760,-300 1760,-286 1760,-286 1760,-280 1766,-274 1772,-274 1772,-274 1982,-274 1982,-274 1988,-274 1994,-280 1994,-286 1994,-286 1994,-300 1994,-300 1994,-306 1988,-312 1982,-312"/>
<text text-anchor="middle" x="1877" y="-296.8" font-family="JetBrains Mono" font-size="14.00" fill="#e6e6e6">auto_trader.py</text>
<text text-anchor="middle" x="1877" y="-281.8" font-family="JetBrains Mono" font-size="14.00" fill="#e6e6e6">(wires in once backtest passes)</text>
</g>
<!-- obf&#45;&gt;auto -->
<g id="edge7" class="edge">
<title>obf&#45;&gt;auto</title>
<path fill="none" stroke="#ff66ff" stroke-width="1.5" stroke-dasharray="5,2" d="M1644.48,-324.62C1678.42,-319.98 1715.46,-314.92 1749.76,-310.24"/>
<polygon fill="#ff66ff" stroke="#ff66ff" stroke-width="1.5" points="1750.39,-313.69 1759.83,-308.86 1749.44,-306.75 1750.39,-313.69"/>
<text text-anchor="middle" x="1708.5" y="-333" font-family="JetBrains Mono" font-size="10.00" fill="#cccccc">inference</text>
<text text-anchor="middle" x="1708.5" y="-322" font-family="JetBrains Mono" font-size="10.00" fill="#cccccc">(future)</text>
</g>
<!-- ens -->
<g id="node6" class="node">
<title>ens</title>
<path fill="#3a0a3a" stroke="#ff66ff" stroke-width="3" d="M1616,-274C1616,-274 1431,-274 1431,-274 1425,-274 1419,-268 1419,-262 1419,-262 1419,-188 1419,-188 1419,-182 1425,-176 1431,-176 1431,-176 1616,-176 1616,-176 1622,-176 1628,-182 1628,-188 1628,-188 1628,-262 1628,-262 1628,-268 1622,-274 1616,-274"/>
<text text-anchor="middle" x="1523.5" y="-258.8" font-family="JetBrains Mono" font-size="14.00" fill="#ffccff">classifier_ensemble.py</text>
<text text-anchor="middle" x="1523.5" y="-243.8" font-family="JetBrains Mono" font-size="14.00" fill="#ffccff">• load_ensemble()</text>
<text text-anchor="middle" x="1523.5" y="-228.8" font-family="JetBrains Mono" font-size="14.00" fill="#ffccff">• predict_proba_ensemble()</text>
<text text-anchor="middle" x="1523.5" y="-213.8" font-family="JetBrains Mono" font-size="14.00" fill="#ffccff">• vote=&#39;bucket&#39;|&#39;avg&#39;</text>
<text text-anchor="middle" x="1523.5" y="-198.8" font-family="JetBrains Mono" font-size="14.00" fill="#ffccff">• 3 buckets: early [10,25),</text>
<text text-anchor="middle" x="1523.5" y="-183.8" font-family="JetBrains Mono" font-size="14.00" fill="#ffccff"> &#160;mid [25,50), late [50,90]</text>
</g>
<!-- ens&#45;&gt;auto -->
<g id="edge18" class="edge">
<title>ens&#45;&gt;auto</title>
<path fill="none" stroke="#ff66ff" stroke-width="1.5" stroke-dasharray="5,2" d="M1628.06,-245.03C1672.02,-253.54 1723.28,-263.45 1767.74,-272.06"/>
<polygon fill="#ff66ff" stroke="#ff66ff" stroke-width="1.5" points="1767.22,-275.52 1777.7,-273.98 1768.55,-268.65 1767.22,-275.52"/>
<text text-anchor="middle" x="1708.5" y="-268" font-family="JetBrains Mono" font-size="10.00" fill="#cccccc">future wire&#45;in</text>
</g>
<!-- bt -->
<g id="node9" class="node">
<title>bt</title>
<path fill="#2a1a0a" stroke="#ffcc66" stroke-width="2" d="M1225,-439.5C1225,-439.5 1090,-439.5 1090,-439.5 1084,-439.5 1078,-433.5 1078,-427.5 1078,-427.5 1078,-398.5 1078,-398.5 1078,-392.5 1084,-386.5 1090,-386.5 1090,-386.5 1225,-386.5 1225,-386.5 1231,-386.5 1237,-392.5 1237,-398.5 1237,-398.5 1237,-427.5 1237,-427.5 1237,-433.5 1231,-439.5 1225,-439.5"/>
<text text-anchor="middle" x="1157.5" y="-424.3" font-family="JetBrains Mono" font-size="14.00" fill="#e6e6e6">backtest_gates.py</text>
<text text-anchor="middle" x="1157.5" y="-409.3" font-family="JetBrains Mono" font-size="14.00" fill="#e6e6e6">require WR ≥ 68.3%</text>
<text text-anchor="middle" x="1157.5" y="-394.3" font-family="JetBrains Mono" font-size="14.00" fill="#e6e6e6">and EV ≥ +0.099</text>
</g>
<!-- train_ob&#45;&gt;bt -->
<g id="edge8" class="edge">
<title>train_ob&#45;&gt;bt</title>
<path fill="none" stroke="#aaff66" stroke-width="1.5" d="M905.32,-449.16C953.78,-442.18 1016.98,-433.08 1067.86,-425.76"/>
<polygon fill="#aaff66" stroke="#aaff66" stroke-width="1.5" points="1068.47,-429.21 1077.87,-424.32 1067.47,-422.28 1068.47,-429.21"/>
<text text-anchor="middle" x="1012.5" y="-442" font-family="JetBrains Mono" font-size="10.00" fill="#cccccc">swap if WR/EV↑</text>
</g>
<!-- train_ens -->
<g id="node8" class="node">
<title>train_ens</title>
<path fill="#2a1a0a" stroke="#ffcc66" stroke-width="2" d="M912.5,-415C912.5,-415 745.5,-415 745.5,-415 739.5,-415 733.5,-409 733.5,-403 733.5,-403 733.5,-359 733.5,-359 733.5,-353 739.5,-347 745.5,-347 745.5,-347 912.5,-347 912.5,-347 918.5,-347 924.5,-353 924.5,-359 924.5,-359 924.5,-403 924.5,-403 924.5,-409 918.5,-415 912.5,-415"/>
<text text-anchor="middle" x="829" y="-399.8" font-family="JetBrains Mono" font-size="14.00" fill="#e6e6e6">train_classifier</text>
<text text-anchor="middle" x="829" y="-384.8" font-family="JetBrains Mono" font-size="14.00" fill="#e6e6e6">_ensemble.py</text>
<text text-anchor="middle" x="829" y="-369.8" font-family="JetBrains Mono" font-size="14.00" fill="#e6e6e6">&#45;&#45;bucket {early,mid,late}</text>
<text text-anchor="middle" x="829" y="-354.8" font-family="JetBrains Mono" font-size="14.00" fill="#e6e6e6">(TODO)</text>
</g>
<!-- train_ens&#45;&gt;bt -->
<g id="edge10" class="edge">
<title>train_ens&#45;&gt;bt</title>
<path fill="none" stroke="#39ff14" stroke-width="1.5" d="M924.88,-390.3C969.94,-394.72 1023.49,-399.96 1067.75,-404.3"/>
<polygon fill="#39ff14" stroke="#39ff14" stroke-width="1.5" points="1067.62,-407.81 1077.91,-405.3 1068.3,-400.84 1067.62,-407.81"/>
</g>
<!-- fut_early -->
<g id="node11" class="node">
<title>fut_early</title>
<path fill="#1a2a1a" stroke="#aaff66" stroke-width="2" stroke-dasharray="5,2" d="M1229,-295.48C1229,-298.11 1196.95,-300.25 1157.5,-300.25 1118.05,-300.25 1086,-298.11 1086,-295.48 1086,-295.48 1086,-252.52 1086,-252.52 1086,-249.89 1118.05,-247.75 1157.5,-247.75 1196.95,-247.75 1229,-249.89 1229,-252.52 1229,-252.52 1229,-295.48 1229,-295.48"/>
<path fill="none" stroke="#aaff66" stroke-width="2" stroke-dasharray="5,2" d="M1229,-295.48C1229,-292.84 1196.95,-290.7 1157.5,-290.7 1118.05,-290.7 1086,-292.84 1086,-295.48"/>
<text text-anchor="middle" x="1157.5" y="-277.8" font-family="JetBrains Mono" font-size="14.00" fill="#e6e6e6">classifier_early.pkl</text>
<text text-anchor="middle" x="1157.5" y="-262.8" font-family="JetBrains Mono" font-size="14.00" fill="#e6e6e6">(future)</text>
</g>
<!-- train_ens&#45;&gt;fut_early -->
<g id="edge11" class="edge">
<title>train_ens&#45;&gt;fut_early</title>
<path fill="none" stroke="#39ff14" stroke-width="1.5" stroke-dasharray="5,2" d="M924.88,-349.91C972.86,-334.18 1030.47,-315.3 1076.23,-300.31"/>
<polygon fill="#39ff14" stroke="#39ff14" stroke-width="1.5" points="1077.39,-303.61 1085.81,-297.17 1075.21,-296.96 1077.39,-303.61"/>
</g>
<!-- fut_mid -->
<g id="node12" class="node">
<title>fut_mid</title>
<path fill="#1a2a1a" stroke="#aaff66" stroke-width="2" stroke-dasharray="5,2" d="M1226,-225.48C1226,-228.11 1195.3,-230.25 1157.5,-230.25 1119.7,-230.25 1089,-228.11 1089,-225.48 1089,-225.48 1089,-182.52 1089,-182.52 1089,-179.89 1119.7,-177.75 1157.5,-177.75 1195.3,-177.75 1226,-179.89 1226,-182.52 1226,-182.52 1226,-225.48 1226,-225.48"/>
<path fill="none" stroke="#aaff66" stroke-width="2" stroke-dasharray="5,2" d="M1226,-225.48C1226,-222.84 1195.3,-220.7 1157.5,-220.7 1119.7,-220.7 1089,-222.84 1089,-225.48"/>
<text text-anchor="middle" x="1157.5" y="-207.8" font-family="JetBrains Mono" font-size="14.00" fill="#e6e6e6">classifier_mid.pkl</text>
<text text-anchor="middle" x="1157.5" y="-192.8" font-family="JetBrains Mono" font-size="14.00" fill="#e6e6e6">(future)</text>
</g>
<!-- train_ens&#45;&gt;fut_mid -->
<g id="edge12" class="edge">
<title>train_ens&#45;&gt;fut_mid</title>
<path fill="none" stroke="#39ff14" stroke-width="1.5" stroke-dasharray="5,2" d="M861.96,-346.79C889.14,-319.52 930.44,-282.18 973,-259 1005.83,-241.12 1045.21,-228.34 1079.05,-219.62"/>
<polygon fill="#39ff14" stroke="#39ff14" stroke-width="1.5" points="1080.05,-222.98 1088.9,-217.16 1078.35,-216.19 1080.05,-222.98"/>
</g>
<!-- fut_late -->
<g id="node13" class="node">
<title>fut_late</title>
<path fill="#1a2a1a" stroke="#aaff66" stroke-width="2" stroke-dasharray="5,2" d="M1225.5,-63.48C1225.5,-66.11 1195.02,-68.25 1157.5,-68.25 1119.98,-68.25 1089.5,-66.11 1089.5,-63.48 1089.5,-63.48 1089.5,-20.52 1089.5,-20.52 1089.5,-17.89 1119.98,-15.75 1157.5,-15.75 1195.02,-15.75 1225.5,-17.89 1225.5,-20.52 1225.5,-20.52 1225.5,-63.48 1225.5,-63.48"/>
<path fill="none" stroke="#aaff66" stroke-width="2" stroke-dasharray="5,2" d="M1225.5,-63.48C1225.5,-60.84 1195.02,-58.7 1157.5,-58.7 1119.98,-58.7 1089.5,-60.84 1089.5,-63.48"/>
<text text-anchor="middle" x="1157.5" y="-45.8" font-family="JetBrains Mono" font-size="14.00" fill="#e6e6e6">classifier_late.pkl</text>
<text text-anchor="middle" x="1157.5" y="-30.8" font-family="JetBrains Mono" font-size="14.00" fill="#e6e6e6">(future)</text>
</g>
<!-- train_ens&#45;&gt;fut_late -->
<g id="edge13" class="edge">
<title>train_ens&#45;&gt;fut_late</title>
<path fill="none" stroke="#39ff14" stroke-width="1.5" stroke-dasharray="5,2" d="M847.65,-346.95C881.34,-285.08 960.55,-153.64 1062,-78 1067.71,-73.74 1073.98,-69.93 1080.5,-66.53"/>
<polygon fill="#39ff14" stroke="#39ff14" stroke-width="1.5" points="1082.04,-69.67 1089.5,-62.15 1078.97,-63.38 1082.04,-69.67"/>
</g>
<!-- cur -->
<g id="node10" class="node">
<title>cur</title>
<path fill="#0a2a0a" stroke="#39ff14" stroke-width="2" d="M1245,-152.76C1245,-156.41 1205.78,-159.38 1157.5,-159.38 1109.22,-159.38 1070,-156.41 1070,-152.76 1070,-152.76 1070,-93.24 1070,-93.24 1070,-89.59 1109.22,-86.62 1157.5,-86.62 1205.78,-86.62 1245,-89.59 1245,-93.24 1245,-93.24 1245,-152.76 1245,-152.76"/>
<path fill="none" stroke="#39ff14" stroke-width="2" d="M1245,-152.76C1245,-149.11 1205.78,-146.15 1157.5,-146.15 1109.22,-146.15 1070,-149.11 1070,-152.76"/>
<text text-anchor="middle" x="1157.5" y="-134.3" font-family="JetBrains Mono" font-size="14.00" fill="#e6e6e6">classifier_model.pkl</text>
<text text-anchor="middle" x="1157.5" y="-119.3" font-family="JetBrains Mono" font-size="14.00" fill="#e6e6e6">(current; single&#45;model)</text>
<text text-anchor="middle" x="1157.5" y="-104.3" font-family="JetBrains Mono" font-size="14.00" fill="#e6e6e6">AUC 0.992 WR 68.3%</text>
</g>
<!-- bt&#45;&gt;cur -->
<g id="edge9" class="edge">
<title>bt&#45;&gt;cur</title>
<path fill="none" stroke="#aaff66" stroke-width="1.5" d="M1083,-386.24C1075.53,-382.06 1068.37,-377.32 1062,-372 1021.77,-338.35 1012.08,-323.74 997,-273.5 982.74,-226 1024.23,-187.96 1068.59,-162.02"/>
<polygon fill="#aaff66" stroke="#aaff66" stroke-width="1.5" points="1070.51,-164.96 1077.49,-156.99 1067.06,-158.86 1070.51,-164.96"/>
<text text-anchor="middle" x="1012.5" y="-265.5" font-family="JetBrains Mono" font-size="10.00" fill="#cccccc">swap if WR/EV↑</text>
</g>
<!-- cur&#45;&gt;ens -->
<g id="edge17" class="edge">
<title>cur&#45;&gt;ens</title>
<path fill="none" stroke="#aaff66" stroke-width="1.5" stroke-dasharray="5,2" d="M1245.22,-147.3C1294.32,-161.06 1356.29,-178.43 1409.19,-193.25"/>
<polygon fill="#aaff66" stroke="#aaff66" stroke-width="1.5" points="1408.39,-196.66 1418.96,-195.99 1410.28,-189.92 1408.39,-196.66"/>
<text text-anchor="middle" x="1317.5" y="-195" font-family="JetBrains Mono" font-size="10.00" fill="#cccccc">fallback</text>
<text text-anchor="middle" x="1317.5" y="-184" font-family="JetBrains Mono" font-size="10.00" fill="#cccccc">when buckets missing</text>
</g>
<!-- fut_early&#45;&gt;ens -->
<g id="edge14" class="edge">
<title>fut_early&#45;&gt;ens</title>
<path fill="none" stroke="#39ff14" stroke-width="1.5" d="M1229.11,-264.49C1280.03,-257.64 1349.83,-248.24 1408.58,-240.34"/>
<polygon fill="#39ff14" stroke="#39ff14" stroke-width="1.5" points="1409.22,-243.78 1418.66,-238.98 1408.28,-236.84 1409.22,-243.78"/>
</g>
<!-- fut_mid&#45;&gt;ens -->
<g id="edge15" class="edge">
<title>fut_mid&#45;&gt;ens</title>
<path fill="none" stroke="#39ff14" stroke-width="1.5" d="M1226.11,-207.9C1277.23,-210.85 1348.59,-214.97 1408.48,-218.42"/>
<polygon fill="#39ff14" stroke="#39ff14" stroke-width="1.5" points="1408.56,-221.93 1418.75,-219.01 1408.97,-214.94 1408.56,-221.93"/>
</g>
<!-- fut_late&#45;&gt;ens -->
<g id="edge16" class="edge">
<title>fut_late&#45;&gt;ens</title>
<path fill="none" stroke="#39ff14" stroke-width="1.5" d="M1225.32,-66.16C1234.7,-69.92 1244.15,-73.92 1253,-78 1313.52,-105.88 1379.2,-141.58 1430.57,-170.82"/>
<polygon fill="#39ff14" stroke="#39ff14" stroke-width="1.5" points="1428.92,-173.91 1439.34,-175.83 1432.39,-167.83 1428.92,-173.91"/>
</g>
</g>
</svg>
