<?xml version="1.0" encoding="UTF-8" standalone="no"?>
<!DOCTYPE svg PUBLIC "-//W3C//DTD SVG 1.1//EN"
 "http://www.w3.org/Graphics/SVG/1.1/DTD/svg11.dtd">
<!-- Generated by graphviz version 2.43.0 (0)
 -->
<!-- Title: module_deps Pages: 1 -->
<svg width="1489pt" height="410pt"
 viewBox="0.00 0.00 1488.81 410.25" xmlns="http://www.w3.org/2000/svg" xmlns:xlink="http://www.w3.org/1999/xlink">
<g id="graph0" class="graph" transform="scale(1 1) rotate(0) translate(4 406.25)">
<title>module_deps</title>
<polygon fill="#0a0e14" stroke="transparent" points="-4,4 -4,-406.25 1484.81,-406.25 1484.81,4 -4,4"/>
<g id="clust1" class="cluster">
<title>cluster_entry</title>
<path fill="#1a0a1a" stroke="#ff00ff" stroke-width="2" d="M391,-212.25C391,-212.25 1034,-212.25 1034,-212.25 1040,-212.25 1046,-218.25 1046,-224.25 1046,-224.25 1046,-382.25 1046,-382.25 1046,-388.25 1040,-394.25 1034,-394.25 1034,-394.25 391,-394.25 391,-394.25 385,-394.25 379,-388.25 379,-382.25 379,-382.25 379,-224.25 379,-224.25 379,-218.25 385,-212.25 391,-212.25"/>
<text text-anchor="middle" x="712.5" y="-379.05" font-family="JetBrains Mono" font-size="14.00" fill="#ff66ff">Entrypoints (systemd or CLI)</text>
</g>
<g id="clust2" class="cluster">
<title>cluster_rt</title>
<path fill="#0a1a0a" stroke="#39ff14" stroke-width="2" d="M320,-97.25C320,-97.25 1221,-97.25 1221,-97.25 1227,-97.25 1233,-103.25 1233,-109.25 1233,-109.25 1233,-162.25 1233,-162.25 1233,-168.25 1227,-174.25 1221,-174.25 1221,-174.25 320,-174.25 320,-174.25 314,-174.25 308,-168.25 308,-162.25 308,-162.25 308,-109.25 308,-109.25 308,-103.25 314,-97.25 320,-97.25"/>
<text text-anchor="middle" x="770.5" y="-159.05" font-family="JetBrains Mono" font-size="14.00" fill="#aaff66">Runtime support</text>
</g>
<g id="clust3" class="cluster">
<title>cluster_pb</title>
<path fill="#1a0a1a" stroke="#ff66ff" stroke-width="2" d="M1066,-212.25C1066,-212.25 1424,-212.25 1424,-212.25 1430,-212.25 1436,-218.25 1436,-224.25 1436,-224.25 1436,-277.25 1436,-277.25 1436,-283.25 1430,-289.25 1424,-289.25 1424,-289.25 1066,-289.25 1066,-289.25 1060,-289.25 1054,-283.25 1054,-277.25 1054,-277.25 1054,-224.25 1054,-224.25 1054,-218.25 1060,-212.25 1066,-212.25"/>
<text text-anchor="middle" x="1245" y="-274.05" font-family="JetBrains Mono" font-size="14.00" fill="#ff66ff">Phase B scaffolds (not yet imported by auto_trader)</text>
</g>
<g id="clust4" class="cluster">
<title>cluster_train</title>
<path fill="#1a1408" stroke="#ffaa00" stroke-width="2" d="M20,-8C20,-8 196,-8 196,-8 202,-8 208,-14 208,-20 208,-20 208,-162.25 208,-162.25 208,-168.25 202,-174.25 196,-174.25 196,-174.25 20,-174.25 20,-174.25 14,-174.25 8,-168.25 8,-162.25 8,-162.25 8,-20 8,-20 8,-14 14,-8 20,-8"/>
<text text-anchor="middle" x="108" y="-159.05" font-family="JetBrains Mono" font-size="14.00" fill="#ffcc66">time_series/ (training)</text>
</g>
<!-- auto -->
<g id="node1" class="node">
<title>auto</title>
<path fill="#3a0a3a" stroke="#ff66ff" stroke-width="3" d="M722.5,-258.25C722.5,-258.25 607.5,-258.25 607.5,-258.25 601.5,-258.25 595.5,-252.25 595.5,-246.25 595.5,-246.25 595.5,-232.25 595.5,-232.25 595.5,-226.25 601.5,-220.25 607.5,-220.25 607.5,-220.25 722.5,-220.25 722.5,-220.25 728.5,-220.25 734.5,-226.25 734.5,-232.25 734.5,-232.25 734.5,-246.25 734.5,-246.25 734.5,-252.25 728.5,-258.25 722.5,-258.25"/>
<text text-anchor="middle" x="665" y="-243.05" font-family="JetBrains Mono" font-size="14.00" fill="#e6e6e6">auto_trader.py</text>
<text text-anchor="middle" x="665" y="-228.05" font-family="JetBrains Mono" font-size="14.00" fill="#e6e6e6">⚡ systemd timer</text>
</g>
<!-- auth -->
<g id="node7" class="node">
<title>auth</title>
<path fill="#0a2a0a" stroke="#39ff14" stroke-width="2" d="M903,-143.25C903,-143.25 803,-143.25 803,-143.25 797,-143.25 791,-137.25 791,-131.25 791,-131.25 791,-117.25 791,-117.25 791,-111.25 797,-105.25 803,-105.25 803,-105.25 903,-105.25 903,-105.25 909,-105.25 915,-111.25 915,-117.25 915,-117.25 915,-131.25 915,-131.25 915,-137.25 909,-143.25 903,-143.25"/>
<text text-anchor="middle" x="853" y="-128.05" font-family="JetBrains Mono" font-size="14.00" fill="#e6e6e6">kalshi_auth.py</text>
<text text-anchor="middle" x="853" y="-113.05" font-family="JetBrains Mono" font-size="14.00" fill="#e6e6e6">RSA&#45;PSS signer</text>
</g>
<!-- auto&#45;&gt;auth -->
<g id="edge2" class="edge">
<title>auto&#45;&gt;auth</title>
<path fill="none" stroke="#39ff14" stroke-width="1.3" d="M700.35,-220.14C723.85,-207.8 755.19,-190.77 782,-174.25 794.62,-166.47 808.09,-157.38 819.88,-149.16"/>
<polygon fill="#39ff14" stroke="#39ff14" stroke-width="1.3" points="821.96,-151.98 828.12,-143.36 817.93,-146.25 821.96,-151.98"/>
</g>
<!-- cand -->
<g id="node9" class="node">
<title>cand</title>
<path fill="#0a2a0a" stroke="#39ff14" stroke-width="2" d="M611.5,-143.25C611.5,-143.25 468.5,-143.25 468.5,-143.25 462.5,-143.25 456.5,-137.25 456.5,-131.25 456.5,-131.25 456.5,-117.25 456.5,-117.25 456.5,-111.25 462.5,-105.25 468.5,-105.25 468.5,-105.25 611.5,-105.25 611.5,-105.25 617.5,-105.25 623.5,-111.25 623.5,-117.25 623.5,-117.25 623.5,-131.25 623.5,-131.25 623.5,-137.25 617.5,-143.25 611.5,-143.25"/>
<text text-anchor="middle" x="540" y="-128.05" font-family="JetBrains Mono" font-size="14.00" fill="#e6e6e6">live_candles.py</text>
<text text-anchor="middle" x="540" y="-113.05" font-family="JetBrains Mono" font-size="14.00" fill="#e6e6e6">Gemini WS → candles</text>
</g>
<!-- auto&#45;&gt;cand -->
<g id="edge1" class="edge">
<title>auto&#45;&gt;cand</title>
<path fill="none" stroke="#39ff14" stroke-width="1.3" d="M647.76,-220.16C636.9,-208.97 622.43,-194.46 609,-182.25 596.95,-171.29 583.2,-159.75 571.16,-149.95"/>
<polygon fill="#39ff14" stroke="#39ff14" stroke-width="1.3" points="573.12,-147.03 563.15,-143.46 568.72,-152.47 573.12,-147.03"/>
</g>
<!-- risk -->
<g id="node10" class="node">
<title>risk</title>
<path fill="#0a2a0a" stroke="#39ff14" stroke-width="2" d="M760.5,-143.25C760.5,-143.25 653.5,-143.25 653.5,-143.25 647.5,-143.25 641.5,-137.25 641.5,-131.25 641.5,-131.25 641.5,-117.25 641.5,-117.25 641.5,-111.25 647.5,-105.25 653.5,-105.25 653.5,-105.25 760.5,-105.25 760.5,-105.25 766.5,-105.25 772.5,-111.25 772.5,-117.25 772.5,-117.25 772.5,-131.25 772.5,-131.25 772.5,-137.25 766.5,-143.25 760.5,-143.25"/>
<text text-anchor="middle" x="707" y="-128.05" font-family="JetBrains Mono" font-size="14.00" fill="#e6e6e6">risk_manager.py</text>
<text text-anchor="middle" x="707" y="-113.05" font-family="JetBrains Mono" font-size="14.00" fill="#e6e6e6">Kelly criterion</text>
</g>
<!-- auto&#45;&gt;risk -->
<g id="edge3" class="edge">
<title>auto&#45;&gt;risk</title>
<path fill="none" stroke="#39ff14" stroke-width="1.3" d="M671.75,-220.09C678.48,-201.97 688.92,-173.89 696.7,-152.97"/>
<polygon fill="#39ff14" stroke="#39ff14" stroke-width="1.3" points="700.07,-153.95 700.27,-143.36 693.5,-151.51 700.07,-153.95"/>
</g>
<!-- cdev -->
<g id="node11" class="node">
<title>cdev</title>
<path fill="#0a2a0a" stroke="#39ff14" stroke-width="2" d="M1213,-143.25C1213,-143.25 1085,-143.25 1085,-143.25 1079,-143.25 1073,-137.25 1073,-131.25 1073,-131.25 1073,-117.25 1073,-117.25 1073,-111.25 1079,-105.25 1085,-105.25 1085,-105.25 1213,-105.25 1213,-105.25 1219,-105.25 1225,-111.25 1225,-117.25 1225,-117.25 1225,-131.25 1225,-131.25 1225,-137.25 1219,-143.25 1213,-143.25"/>
<text text-anchor="middle" x="1149" y="-128.05" font-family="JetBrains Mono" font-size="14.00" fill="#e6e6e6">classifier_device.py</text>
<text text-anchor="middle" x="1149" y="-113.05" font-family="JetBrains Mono" font-size="14.00" fill="#e6e6e6">GPU/CPU probe</text>
</g>
<!-- auto&#45;&gt;cdev -->
<g id="edge4" class="edge">
<title>auto&#45;&gt;cdev</title>
<path fill="none" stroke="#39ff14" stroke-width="1.3" d="M734.58,-227.25C847.89,-209.32 1060.13,-175.62 1064,-174.25 1081.71,-167.96 1099.95,-157.99 1114.96,-148.68"/>
<polygon fill="#39ff14" stroke="#39ff14" stroke-width="1.3" points="1116.85,-151.63 1123.41,-143.31 1113.09,-145.73 1116.85,-151.63"/>
</g>
<!-- tc -->
<g id="node15" class="node">
<title>tc</title>
<path fill="#2a1a0a" stroke="#ffaa00" stroke-width="2" d="M187.5,-143.25C187.5,-143.25 28.5,-143.25 28.5,-143.25 22.5,-143.25 16.5,-137.25 16.5,-131.25 16.5,-131.25 16.5,-117.25 16.5,-117.25 16.5,-111.25 22.5,-105.25 28.5,-105.25 28.5,-105.25 187.5,-105.25 187.5,-105.25 193.5,-105.25 199.5,-111.25 199.5,-117.25 199.5,-117.25 199.5,-131.25 199.5,-131.25 199.5,-137.25 193.5,-143.25 187.5,-143.25"/>
<text text-anchor="middle" x="108" y="-128.05" font-family="JetBrains Mono" font-size="14.00" fill="#e6e6e6">train_classifier.py</text>
<text text-anchor="middle" x="108" y="-113.05" font-family="JetBrains Mono" font-size="14.00" fill="#e6e6e6">XGBoost GBT + isotonic</text>
</g>
<!-- auto&#45;&gt;tc -->
<g id="edge5" class="edge">
<title>auto&#45;&gt;tc</title>
<path fill="none" stroke="#39ff14" stroke-width="1.3" stroke-dasharray="5,2" d="M615.28,-220.18C605.66,-217.17 595.59,-214.35 586,-212.25 549.51,-204.26 288.45,-182.42 252,-174.25 221.82,-167.48 189.12,-156.65 162.51,-146.89"/>
<polygon fill="#39ff14" stroke="#39ff14" stroke-width="1.3" points="163.6,-143.56 153.01,-143.35 161.16,-150.12 163.6,-143.56"/>
<text text-anchor="middle" x="537.5" y="-195.05" font-family="JetBrains Mono" font-size="9.00" fill="#cccccc">CalibratedXGB</text>
<text text-anchor="middle" x="537.5" y="-185.05" font-family="JetBrains Mono" font-size="9.00" fill="#cccccc">unpickle</text>
</g>
<!-- pkl -->
<g id="node16" class="node">
<title>pkl</title>
<path fill="#2a1a0a" stroke="#ffaa00" stroke-width="2" d="M199.5,-63.6C199.5,-66.24 159.38,-68.38 110,-68.38 60.62,-68.38 20.5,-66.24 20.5,-63.6 20.5,-63.6 20.5,-20.65 20.5,-20.65 20.5,-18.01 60.62,-15.87 110,-15.87 159.38,-15.87 199.5,-18.01 199.5,-20.65 199.5,-20.65 199.5,-63.6 199.5,-63.6"/>
<path fill="none" stroke="#ffaa00" stroke-width="2" d="M199.5,-63.6C199.5,-60.97 159.38,-58.83 110,-58.83 60.62,-58.83 20.5,-60.97 20.5,-63.6"/>
<text text-anchor="middle" x="110" y="-45.92" font-family="JetBrains Mono" font-size="14.00" fill="#e6e6e6">classifier_model.pkl</text>
<text text-anchor="middle" x="110" y="-30.93" font-family="JetBrains Mono" font-size="14.00" fill="#e6e6e6">+ training_metrics.json</text>
</g>
<!-- auto&#45;&gt;pkl -->
<g id="edge6" class="edge">
<title>auto&#45;&gt;pkl</title>
<path fill="none" stroke="#39ff14" stroke-width="1.3" d="M636.26,-220.07C610.92,-204.12 577.49,-183.29 574,-182.25 542.68,-172.92 307.33,-192.17 280,-174.25 248.41,-153.54 271.42,-123.24 244,-97.25 232.72,-86.56 219.06,-77.87 204.82,-70.85"/>
<polygon fill="#39ff14" stroke="#39ff14" stroke-width="1.3" points="205.95,-67.51 195.41,-66.47 203,-73.86 205.95,-67.51"/>
<text text-anchor="middle" x="292" y="-122.05" font-family="JetBrains Mono" font-size="9.00" fill="#cccccc">loads</text>
</g>
<!-- ob_c -->
<g id="node2" class="node">
<title>ob_c</title>
<path fill="#3a0a3a" stroke="#ff66ff" stroke-width="2" d="M681.5,-363.25C681.5,-363.25 532.5,-363.25 532.5,-363.25 526.5,-363.25 520.5,-357.25 520.5,-351.25 520.5,-351.25 520.5,-337.25 520.5,-337.25 520.5,-331.25 526.5,-325.25 532.5,-325.25 532.5,-325.25 681.5,-325.25 681.5,-325.25 687.5,-325.25 693.5,-331.25 693.5,-337.25 693.5,-337.25 693.5,-351.25 693.5,-351.25 693.5,-357.25 687.5,-363.25 681.5,-363.25"/>
<text text-anchor="middle" x="607" y="-348.05" font-family="JetBrains Mono" font-size="14.00" fill="#e6e6e6">orderbook_collector.py</text>
<text text-anchor="middle" x="607" y="-333.05" font-family="JetBrains Mono" font-size="14.00" fill="#e6e6e6">⚡ systemd service</text>
</g>
<!-- ob_c&#45;&gt;auth -->
<g id="edge15" class="edge">
<title>ob_c&#45;&gt;auth</title>
<path fill="none" stroke="#39ff14" stroke-width="1.3" d="M676.17,-325.18C699.37,-316.84 724.32,-305.16 744,-289.25 790.54,-251.63 824.4,-188.78 841.15,-152.79"/>
<polygon fill="#39ff14" stroke="#39ff14" stroke-width="1.3" points="844.47,-153.95 845.42,-143.4 838.1,-151.05 844.47,-153.95"/>
</g>
<!-- cli -->
<g id="node8" class="node">
<title>cli</title>
<path fill="#0a2a0a" stroke="#39ff14" stroke-width="2" d="M1043,-143.25C1043,-143.25 945,-143.25 945,-143.25 939,-143.25 933,-137.25 933,-131.25 933,-131.25 933,-117.25 933,-117.25 933,-111.25 939,-105.25 945,-105.25 945,-105.25 1043,-105.25 1043,-105.25 1049,-105.25 1055,-111.25 1055,-117.25 1055,-117.25 1055,-131.25 1055,-131.25 1055,-137.25 1049,-143.25 1043,-143.25"/>
<text text-anchor="middle" x="994" y="-128.05" font-family="JetBrains Mono" font-size="14.00" fill="#e6e6e6">kalshi_client.py</text>
<text text-anchor="middle" x="994" y="-113.05" font-family="JetBrains Mono" font-size="14.00" fill="#e6e6e6">HTTP wrappers</text>
</g>
<!-- ob_c&#45;&gt;cli -->
<g id="edge16" class="edge">
<title>ob_c&#45;&gt;cli</title>
<path fill="none" stroke="#39ff14" stroke-width="1.3" d="M675.91,-325.22C696.01,-319.71 717.95,-313.47 738,-307.25 761.36,-300.01 768.6,-301.09 790,-289.25 860.91,-250.03 932.01,-185.88 968.63,-150.56"/>
<polygon fill="#39ff14" stroke="#39ff14" stroke-width="1.3" points="971.19,-152.96 975.91,-143.48 966.31,-147.94 971.19,-152.96"/>
</g>
<!-- pred -->
<g id="node3" class="node">
<title>pred</title>
<path fill="#3a0a3a" stroke="#ff66ff" stroke-width="2" d="M565,-258.25C565,-258.25 399,-258.25 399,-258.25 393,-258.25 387,-252.25 387,-246.25 387,-246.25 387,-232.25 387,-232.25 387,-226.25 393,-220.25 399,-220.25 399,-220.25 565,-220.25 565,-220.25 571,-220.25 577,-226.25 577,-232.25 577,-232.25 577,-246.25 577,-246.25 577,-252.25 571,-258.25 565,-258.25"/>
<text text-anchor="middle" x="482" y="-243.05" font-family="JetBrains Mono" font-size="14.00" fill="#e6e6e6">predict_classifier_json.py</text>
<text text-anchor="middle" x="482" y="-228.05" font-family="JetBrains Mono" font-size="14.00" fill="#e6e6e6">• wizard / TUI</text>
</g>
<!-- pred&#45;&gt;auth -->
<g id="edge7" class="edge">
<title>pred&#45;&gt;auth</title>
<path fill="none" stroke="#39ff14" stroke-width="1.3" d="M481.26,-220.13C481.81,-207.42 484.91,-191.16 496,-182.25 508.39,-172.29 766.89,-179.19 782,-174.25 797.73,-169.11 813.11,-159.27 825.51,-149.76"/>
<polygon fill="#39ff14" stroke="#39ff14" stroke-width="1.3" points="827.97,-152.27 833.59,-143.28 823.59,-146.81 827.97,-152.27"/>
</g>
<!-- pred&#45;&gt;cand -->
<g id="edge9" class="edge">
<title>pred&#45;&gt;cand</title>
<path fill="none" stroke="#39ff14" stroke-width="1.3" d="M472.93,-220.15C468.57,-208.82 465.39,-194.17 471,-182.25 477.13,-169.24 487.84,-158.19 499.02,-149.38"/>
<polygon fill="#39ff14" stroke="#39ff14" stroke-width="1.3" points="501.21,-152.11 507.19,-143.37 497.06,-146.48 501.21,-152.11"/>
</g>
<!-- pred&#45;&gt;cdev -->
<g id="edge8" class="edge">
<title>pred&#45;&gt;cdev</title>
<path fill="none" stroke="#39ff14" stroke-width="1.3" d="M548.63,-220.21C561.3,-217.22 574.51,-214.4 587,-212.25 722.12,-189.05 757.26,-192.14 894,-182.25 931.72,-179.52 1027.71,-184.88 1064,-174.25 1082.45,-168.85 1101.15,-158.68 1116.29,-149.01"/>
<polygon fill="#39ff14" stroke="#39ff14" stroke-width="1.3" points="1118.36,-151.84 1124.77,-143.41 1114.5,-146 1118.36,-151.84"/>
</g>
<!-- pred&#45;&gt;tc -->
<g id="edge11" class="edge">
<title>pred&#45;&gt;tc</title>
<path fill="none" stroke="#39ff14" stroke-width="1.3" stroke-dasharray="5,2" d="M386.71,-236.8C334.17,-233.23 268.69,-224.15 214,-202.25 183.99,-190.23 154.63,-167.82 134.44,-150.27"/>
<polygon fill="#39ff14" stroke="#39ff14" stroke-width="1.3" points="136.71,-147.6 126.91,-143.57 132.06,-152.83 136.71,-147.6"/>
</g>
<!-- pred&#45;&gt;pkl -->
<g id="edge10" class="edge">
<title>pred&#45;&gt;pkl</title>
<path fill="none" stroke="#39ff14" stroke-width="1.3" d="M386.91,-228.65C342.25,-220.17 290.51,-204.23 252,-174.25 220.9,-150.04 236.07,-124.92 208,-97.25 198.73,-88.12 187.61,-80.06 176.24,-73.14"/>
<polygon fill="#39ff14" stroke="#39ff14" stroke-width="1.3" points="177.93,-70.07 167.52,-68.07 174.41,-76.12 177.93,-70.07"/>
</g>
<!-- wiz -->
<g id="node4" class="node">
<title>wiz</title>
<path fill="#3a0a3a" stroke="#ff66ff" stroke-width="2" d="M490.5,-363.25C490.5,-363.25 399.5,-363.25 399.5,-363.25 393.5,-363.25 387.5,-357.25 387.5,-351.25 387.5,-351.25 387.5,-337.25 387.5,-337.25 387.5,-331.25 393.5,-325.25 399.5,-325.25 399.5,-325.25 490.5,-325.25 490.5,-325.25 496.5,-325.25 502.5,-331.25 502.5,-337.25 502.5,-337.25 502.5,-351.25 502.5,-351.25 502.5,-357.25 496.5,-363.25 490.5,-363.25"/>
<text text-anchor="middle" x="445" y="-348.05" font-family="JetBrains Mono" font-size="14.00" fill="#e6e6e6">wizard.py</text>
<text text-anchor="middle" x="445" y="-333.05" font-family="JetBrains Mono" font-size="14.00" fill="#e6e6e6">• operator CLI</text>
</g>
<!-- wiz&#45;&gt;auto -->
<g id="edge18" class="edge">
<title>wiz&#45;&gt;auto</title>
<path fill="none" stroke="#39ff14" stroke-width="1.3" d="M499.25,-325.2C525.9,-315.65 558.17,-303.05 586,-289.25 600.94,-281.84 616.7,-272.42 630.17,-263.83"/>
<polygon fill="#39ff14" stroke="#39ff14" stroke-width="1.3" points="632.17,-266.71 638.67,-258.33 628.37,-260.83 632.17,-266.71"/>
<text text-anchor="middle" x="593" y="-300.05" font-family="JetBrains Mono" font-size="9.00" fill="#cccccc">subprocess</text>
</g>
<!-- wiz&#45;&gt;pred -->
<g id="edge17" class="edge">
<title>wiz&#45;&gt;pred</title>
<path fill="none" stroke="#39ff14" stroke-width="1.3" d="M451.61,-324.84C457.3,-309.02 465.57,-285.98 472.05,-267.94"/>
<polygon fill="#39ff14" stroke="#39ff14" stroke-width="1.3" points="475.36,-269.1 475.44,-258.5 468.77,-266.73 475.36,-269.1"/>
<text text-anchor="middle" x="488" y="-300.05" font-family="JetBrains Mono" font-size="9.00" fill="#cccccc">subprocess</text>
</g>
<!-- invest -->
<g id="node5" class="node">
<title>invest</title>
<path fill="#3a0a3a" stroke="#ff66ff" stroke-width="2" d="M864.5,-363.25C864.5,-363.25 723.5,-363.25 723.5,-363.25 717.5,-363.25 711.5,-357.25 711.5,-351.25 711.5,-351.25 711.5,-337.25 711.5,-337.25 711.5,-331.25 717.5,-325.25 723.5,-325.25 723.5,-325.25 864.5,-325.25 864.5,-325.25 870.5,-325.25 876.5,-331.25 876.5,-337.25 876.5,-337.25 876.5,-351.25 876.5,-351.25 876.5,-357.25 870.5,-363.25 864.5,-363.25"/>
<text text-anchor="middle" x="794" y="-348.05" font-family="JetBrains Mono" font-size="14.00" fill="#e6e6e6">investigate_recent.py</text>
<text text-anchor="middle" x="794" y="-333.05" font-family="JetBrains Mono" font-size="14.00" fill="#e6e6e6">• calibration audit</text>
</g>
<!-- invest&#45;&gt;cdev -->
<g id="edge13" class="edge">
<title>invest&#45;&gt;cdev</title>
<path fill="none" stroke="#39ff14" stroke-width="1.3" d="M876.74,-327C879.87,-326.41 882.96,-325.82 886,-325.25 930.38,-316.91 948.18,-331.92 986,-307.25 1028.64,-279.43 1016.38,-250.48 1050,-212.25 1070.32,-189.14 1096.61,-166.31 1116.99,-149.83"/>
<polygon fill="#39ff14" stroke="#39ff14" stroke-width="1.3" points="1119.41,-152.38 1125.05,-143.4 1115.05,-146.9 1119.41,-152.38"/>
</g>
<!-- invest&#45;&gt;pkl -->
<g id="edge12" class="edge">
<title>invest&#45;&gt;pkl</title>
<path fill="none" stroke="#39ff14" stroke-width="1.3" d="M876.67,-326.56C879.82,-326.09 882.93,-325.65 886,-325.25 947.17,-317.31 1397.82,-334.26 1440,-289.25 1463.4,-264.28 1455.14,-242.94 1440,-212.25 1389.97,-110.86 1331.54,-97.12 1219,-86.25 848.06,-50.42 404.59,-44.12 209.93,-43.17"/>
<polygon fill="#39ff14" stroke="#39ff14" stroke-width="1.3" points="209.73,-39.67 199.72,-43.13 209.7,-46.67 209.73,-39.67"/>
</g>
<!-- bt -->
<g id="node6" class="node">
<title>bt</title>
<path fill="#3a0a3a" stroke="#ff66ff" stroke-width="2" d="M1025.5,-363.25C1025.5,-363.25 906.5,-363.25 906.5,-363.25 900.5,-363.25 894.5,-357.25 894.5,-351.25 894.5,-351.25 894.5,-337.25 894.5,-337.25 894.5,-331.25 900.5,-325.25 906.5,-325.25 906.5,-325.25 1025.5,-325.25 1025.5,-325.25 1031.5,-325.25 1037.5,-331.25 1037.5,-337.25 1037.5,-337.25 1037.5,-351.25 1037.5,-351.25 1037.5,-357.25 1031.5,-363.25 1025.5,-363.25"/>
<text text-anchor="middle" x="966" y="-348.05" font-family="JetBrains Mono" font-size="14.00" fill="#e6e6e6">backtest_gates.py</text>
<text text-anchor="middle" x="966" y="-333.05" font-family="JetBrains Mono" font-size="14.00" fill="#e6e6e6">• model gate test</text>
</g>
<!-- bt&#45;&gt;pkl -->
<g id="edge14" class="edge">
<title>bt&#45;&gt;pkl</title>
<path fill="none" stroke="#39ff14" stroke-width="1.3" d="M1037.55,-341.38C1169.13,-337.1 1438.22,-324.13 1461,-289.25 1512.43,-210.5 1455.37,-140.79 1372,-97.25 1270.23,-44.1 490.49,-41.69 210.06,-42.57"/>
<polygon fill="#39ff14" stroke="#39ff14" stroke-width="1.3" points="209.88,-39.07 199.9,-42.6 209.91,-46.07 209.88,-39.07"/>
</g>
<!-- tlog -->
<g id="node12" class="node">
<title>tlog</title>
<path fill="#0a2a0a" stroke="#39ff14" stroke-width="2" d="M426,-143.25C426,-143.25 328,-143.25 328,-143.25 322,-143.25 316,-137.25 316,-131.25 316,-131.25 316,-117.25 316,-117.25 316,-111.25 322,-105.25 328,-105.25 328,-105.25 426,-105.25 426,-105.25 432,-105.25 438,-111.25 438,-117.25 438,-117.25 438,-131.25 438,-131.25 438,-137.25 432,-143.25 426,-143.25"/>
<text text-anchor="middle" x="377" y="-128.05" font-family="JetBrains Mono" font-size="14.00" fill="#e6e6e6">trader_log.py</text>
<text text-anchor="middle" x="377" y="-113.05" font-family="JetBrains Mono" font-size="14.00" fill="#e6e6e6">log fmt helpers</text>
</g>
<!-- obf -->
<g id="node13" class="node">
<title>obf</title>
<path fill="#2a0a2a" stroke="#ff66ff" stroke-width="2" d="M1415.5,-258.25C1415.5,-258.25 1266.5,-258.25 1266.5,-258.25 1260.5,-258.25 1254.5,-252.25 1254.5,-246.25 1254.5,-246.25 1254.5,-232.25 1254.5,-232.25 1254.5,-226.25 1260.5,-220.25 1266.5,-220.25 1266.5,-220.25 1415.5,-220.25 1415.5,-220.25 1421.5,-220.25 1427.5,-226.25 1427.5,-232.25 1427.5,-232.25 1427.5,-246.25 1427.5,-246.25 1427.5,-252.25 1421.5,-258.25 1415.5,-258.25"/>
<text text-anchor="middle" x="1341" y="-243.05" font-family="JetBrains Mono" font-size="14.00" fill="#e6e6e6">orderbook_features.py</text>
<text text-anchor="middle" x="1341" y="-228.05" font-family="JetBrains Mono" font-size="14.00" fill="#e6e6e6">5 microstructure feats</text>
</g>
<!-- ens -->
<g id="node14" class="node">
<title>ens</title>
<path fill="#2a0a2a" stroke="#ff66ff" stroke-width="2" d="M1224,-258.25C1224,-258.25 1074,-258.25 1074,-258.25 1068,-258.25 1062,-252.25 1062,-246.25 1062,-246.25 1062,-232.25 1062,-232.25 1062,-226.25 1068,-220.25 1074,-220.25 1074,-220.25 1224,-220.25 1224,-220.25 1230,-220.25 1236,-226.25 1236,-232.25 1236,-232.25 1236,-246.25 1236,-246.25 1236,-252.25 1230,-258.25 1224,-258.25"/>
<text text-anchor="middle" x="1149" y="-243.05" font-family="JetBrains Mono" font-size="14.00" fill="#e6e6e6">classifier_ensemble.py</text>
<text text-anchor="middle" x="1149" y="-228.05" font-family="JetBrains Mono" font-size="14.00" fill="#e6e6e6">horizon&#45;bucket voter</text>
</g>
<!-- ens&#45;&gt;cdev -->
<g id="edge20" class="edge">
<title>ens&#45;&gt;cdev</title>
<path fill="none" stroke="#ff66ff" stroke-width="1.3" stroke-dasharray="5,2" d="M1149,-220.09C1149,-202.14 1149,-174.4 1149,-153.55"/>
<polygon fill="#ff66ff" stroke="#ff66ff" stroke-width="1.3" points="1152.5,-153.36 1149,-143.36 1145.5,-153.36 1152.5,-153.36"/>
<text text-anchor="middle" x="1173" y="-190.05" font-family="JetBrains Mono" font-size="9.00" fill="#cccccc">CPU probe</text>
</g>
<!-- ens&#45;&gt;pkl -->
<g id="edge19" class="edge">
<title>ens&#45;&gt;pkl</title>
<path fill="none" stroke="#ff66ff" stroke-width="1.3" stroke-dasharray="5,2" d="M1189.15,-220.23C1207.41,-209.69 1227.12,-194.44 1237,-174.25 1252.04,-143.51 1260.61,-122.02 1237,-97.25 1201.85,-60.37 479.31,-47.68 210.01,-44.23"/>
<polygon fill="#ff66ff" stroke="#ff66ff" stroke-width="1.3" points="209.89,-40.73 199.85,-44.1 209.8,-47.73 209.89,-40.73"/>
<text text-anchor="middle" x="1268.5" y="-122.05" font-family="JetBrains Mono" font-size="9.00" fill="#cccccc">fallback</text>
</g>
<!-- tc&#45;&gt;pkl -->
<g id="edge21" class="edge">
<title>tc&#45;&gt;pkl</title>
<path fill="none" stroke="#39ff14" stroke-width="1.3" d="M108.45,-105.07C108.65,-97.22 108.89,-87.75 109.11,-78.61"/>
<polygon fill="#39ff14" stroke="#39ff14" stroke-width="1.3" points="112.62,-78.61 109.37,-68.52 105.62,-78.43 112.62,-78.61"/>
</g>
</g>
</svg>
