<?xml version="1.0" encoding="UTF-8" standalone="no"?>
<!DOCTYPE svg PUBLIC "-//W3C//DTD SVG 1.1//EN"
 "http://www.w3.org/Graphics/SVG/1.1/DTD/svg11.dtd">
<!-- Generated by graphviz version 2.43.0 (0)
 -->
<!-- Title: db_schema Pages: 1 -->
<svg width="1071pt" height="1000pt"
 viewBox="0.00 0.00 1071.00 1000.00" xmlns="http://www.w3.org/2000/svg" xmlns:xlink="http://www.w3.org/1999/xlink">
<g id="graph0" class="graph" transform="scale(1 1) rotate(0) translate(4 996)">
<title>db_schema</title>
<polygon fill="#0a0e14" stroke="transparent" points="-4,4 -4,-996 1067,-996 1067,4 -4,4"/>
<!-- runs -->
<g id="node1" class="node">
<title>runs</title>
<polygon fill="#1a2a1a" stroke="transparent" points="776,-305.5 776,-605.5 1055,-605.5 1055,-305.5 776,-305.5"/>
<polygon fill="#0a3a0a" stroke="transparent" points="776.5,-580.5 776.5,-605.5 1055.5,-605.5 1055.5,-580.5 776.5,-580.5"/>
<polygon fill="none" stroke="#39ff14" points="776.5,-580.5 776.5,-605.5 1055.5,-605.5 1055.5,-580.5 776.5,-580.5"/>
<text text-anchor="start" x="831" y="-590.3" font-family="JetBrains Mono" font-weight="bold" font-size="14.00" fill="#aaffaa">auto_trader.db :: runs</text>
<polygon fill="none" stroke="#39ff14" points="776.5,-555.5 776.5,-580.5 961.5,-580.5 961.5,-555.5 776.5,-555.5"/>
<text text-anchor="start" x="862.5" y="-564.3" font-family="JetBrains Mono" font-size="14.00" fill="#ffaa00">id</text>
<polygon fill="none" stroke="#39ff14" points="961.5,-555.5 961.5,-580.5 1055.5,-580.5 1055.5,-555.5 961.5,-555.5"/>
<text text-anchor="start" x="966.5" y="-564.3" font-family="JetBrains Mono" font-size="14.00" fill="#e6e6e6">INTEGER PK</text>
<polygon fill="none" stroke="#39ff14" points="776.5,-530.5 776.5,-555.5 961.5,-555.5 961.5,-530.5 776.5,-530.5"/>
<text text-anchor="start" x="846.5" y="-539.3" font-family="JetBrains Mono" font-size="14.00" fill="#e6e6e6">run_at</text>
<polygon fill="none" stroke="#39ff14" points="961.5,-530.5 961.5,-555.5 1055.5,-555.5 1055.5,-530.5 961.5,-530.5"/>
<text text-anchor="start" x="991" y="-539.3" font-family="JetBrains Mono" font-size="14.00" fill="#e6e6e6">TEXT</text>
<polygon fill="none" stroke="#39ff14" points="776.5,-505.5 776.5,-530.5 961.5,-530.5 961.5,-505.5 776.5,-505.5"/>
<text text-anchor="start" x="823.5" y="-514.3" font-family="JetBrains Mono" font-size="14.00" fill="#e6e6e6">current_price</text>
<polygon fill="none" stroke="#39ff14" points="961.5,-505.5 961.5,-530.5 1055.5,-530.5 1055.5,-505.5 961.5,-505.5"/>
<text text-anchor="start" x="990" y="-514.3" font-family="JetBrains Mono" font-size="14.00" fill="#e6e6e6">REAL</text>
<polygon fill="none" stroke="#39ff14" points="776.5,-480.5 776.5,-505.5 961.5,-505.5 961.5,-480.5 776.5,-480.5"/>
<text text-anchor="start" x="809.5" y="-489.3" font-family="JetBrains Mono" font-size="14.00" fill="#e6e6e6">model_prediction</text>
<polygon fill="none" stroke="#39ff14" points="961.5,-480.5 961.5,-505.5 1055.5,-505.5 1055.5,-480.5 961.5,-480.5"/>
<text text-anchor="start" x="990" y="-489.3" font-family="JetBrains Mono" font-size="14.00" fill="#e6e6e6">REAL</text>
<polygon fill="none" stroke="#39ff14" points="776.5,-455.5 776.5,-480.5 961.5,-480.5 961.5,-455.5 776.5,-455.5"/>
<text text-anchor="start" x="825.5" y="-464.3" font-family="JetBrains Mono" font-size="14.00" fill="#e6e6e6">mae_current</text>
<polygon fill="none" stroke="#39ff14" points="961.5,-455.5 961.5,-480.5 1055.5,-480.5 1055.5,-455.5 961.5,-455.5"/>
<text text-anchor="start" x="990" y="-464.3" font-family="JetBrains Mono" font-size="14.00" fill="#e6e6e6">REAL</text>
<polygon fill="none" stroke="#39ff14" points="776.5,-430.5 776.5,-455.5 961.5,-455.5 961.5,-430.5 776.5,-430.5"/>
<text text-anchor="start" x="816.5" y="-439.3" font-family="JetBrains Mono" font-size="14.00" fill="#e6e6e6">mins_to_expiry</text>
<polygon fill="none" stroke="#39ff14" points="961.5,-430.5 961.5,-455.5 1055.5,-455.5 1055.5,-430.5 961.5,-430.5"/>
<text text-anchor="start" x="990" y="-439.3" font-family="JetBrains Mono" font-size="14.00" fill="#e6e6e6">REAL</text>
<polygon fill="none" stroke="#39ff14" points="776.5,-405.5 776.5,-430.5 961.5,-430.5 961.5,-405.5 776.5,-405.5"/>
<text text-anchor="start" x="781.5" y="-414.3" font-family="JetBrains Mono" font-size="14.00" fill="#e6e6e6">rsi, volatility, momentum</text>
<polygon fill="none" stroke="#39ff14" points="961.5,-405.5 961.5,-430.5 1055.5,-430.5 1055.5,-405.5 961.5,-405.5"/>
<text text-anchor="start" x="990" y="-414.3" font-family="JetBrains Mono" font-size="14.00" fill="#e6e6e6">REAL</text>
<polygon fill="none" stroke="#39ff14" points="776.5,-380.5 776.5,-405.5 961.5,-405.5 961.5,-380.5 776.5,-380.5"/>
<text text-anchor="start" x="822.5" y="-389.3" font-family="JetBrains Mono" font-size="14.00" fill="#e6e6e6">opportunities</text>
<polygon fill="none" stroke="#39ff14" points="961.5,-380.5 961.5,-405.5 1055.5,-405.5 1055.5,-380.5 961.5,-380.5"/>
<text text-anchor="start" x="977.5" y="-389.3" font-family="JetBrains Mono" font-size="14.00" fill="#e6e6e6">INTEGER</text>
<polygon fill="none" stroke="#39ff14" points="776.5,-355.5 776.5,-380.5 961.5,-380.5 961.5,-355.5 776.5,-355.5"/>
<text text-anchor="start" x="820.5" y="-364.3" font-family="JetBrains Mono" font-size="14.00" fill="#e6e6e6">trades_placed</text>
<polygon fill="none" stroke="#39ff14" points="961.5,-355.5 961.5,-380.5 1055.5,-380.5 1055.5,-355.5 961.5,-355.5"/>
<text text-anchor="start" x="977.5" y="-364.3" font-family="JetBrains Mono" font-size="14.00" fill="#e6e6e6">INTEGER</text>
<polygon fill="none" stroke="#39ff14" points="776.5,-330.5 776.5,-355.5 961.5,-355.5 961.5,-330.5 776.5,-330.5"/>
<text text-anchor="start" x="827" y="-339.3" font-family="JetBrains Mono" font-size="14.00" fill="#e6e6e6">total_staked</text>
<polygon fill="none" stroke="#39ff14" points="961.5,-330.5 961.5,-355.5 1055.5,-355.5 1055.5,-330.5 961.5,-330.5"/>
<text text-anchor="start" x="990" y="-339.3" font-family="JetBrains Mono" font-size="14.00" fill="#e6e6e6">REAL</text>
<polygon fill="none" stroke="#39ff14" points="776.5,-305.5 776.5,-330.5 961.5,-330.5 961.5,-305.5 776.5,-305.5"/>
<text text-anchor="start" x="841.5" y="-314.3" font-family="JetBrains Mono" font-size="14.00" fill="#e6e6e6">dry_run</text>
<polygon fill="none" stroke="#39ff14" points="961.5,-305.5 961.5,-330.5 1055.5,-330.5 1055.5,-305.5 961.5,-305.5"/>
<text text-anchor="start" x="977.5" y="-314.3" font-family="JetBrains Mono" font-size="14.00" fill="#e6e6e6">INTEGER</text>
</g>
<!-- trades -->
<g id="node2" class="node">
<title>trades</title>
<polygon fill="#1a2a1a" stroke="transparent" points="386,-155 386,-530 650,-530 650,-155 386,-155"/>
<polygon fill="#0a3a0a" stroke="transparent" points="386,-504.5 386,-529.5 650,-529.5 650,-504.5 386,-504.5"/>
<polygon fill="none" stroke="#39ff14" points="386,-504.5 386,-529.5 650,-529.5 650,-504.5 386,-504.5"/>
<text text-anchor="start" x="424.5" y="-514.3" font-family="JetBrains Mono" font-weight="bold" font-size="14.00" fill="#aaffaa">auto_trader.db :: trades</text>
<polygon fill="none" stroke="#39ff14" points="386,-479.5 386,-504.5 523,-504.5 523,-479.5 386,-479.5"/>
<text text-anchor="start" x="448" y="-488.3" font-family="JetBrains Mono" font-size="14.00" fill="#ffaa00">id</text>
<polygon fill="none" stroke="#39ff14" points="523,-479.5 523,-504.5 650,-504.5 650,-479.5 523,-479.5"/>
<text text-anchor="start" x="544.5" y="-488.3" font-family="JetBrains Mono" font-size="14.00" fill="#e6e6e6">INTEGER PK</text>
<polygon fill="none" stroke="#39ff14" points="386,-454.5 386,-479.5 523,-479.5 523,-454.5 386,-454.5"/>
<text text-anchor="start" x="432.5" y="-463.3" font-family="JetBrains Mono" font-size="14.00" fill="#ff66ff">run_id</text>
<polygon fill="none" stroke="#39ff14" points="523,-454.5 523,-479.5 650,-479.5 650,-454.5 523,-454.5"/>
<text text-anchor="start" x="544.5" y="-463.3" font-family="JetBrains Mono" font-size="14.00" fill="#e6e6e6">INTEGER FK</text>
<polygon fill="none" stroke="#39ff14" points="386,-429.5 386,-454.5 523,-454.5 523,-429.5 386,-429.5"/>
<text text-anchor="start" x="421" y="-438.3" font-family="JetBrains Mono" font-size="14.00" fill="#e6e6e6">placed_at</text>
<polygon fill="none" stroke="#39ff14" points="523,-429.5 523,-454.5 650,-454.5 650,-429.5 523,-429.5"/>
<text text-anchor="start" x="569" y="-438.3" font-family="JetBrains Mono" font-size="14.00" fill="#e6e6e6">TEXT</text>
<polygon fill="none" stroke="#39ff14" points="386,-404.5 386,-429.5 523,-429.5 523,-404.5 386,-404.5"/>
<text text-anchor="start" x="435" y="-413.3" font-family="JetBrains Mono" font-size="14.00" fill="#e6e6e6">ticker</text>
<polygon fill="none" stroke="#39ff14" points="523,-404.5 523,-429.5 650,-429.5 650,-404.5 523,-404.5"/>
<text text-anchor="start" x="569" y="-413.3" font-family="JetBrains Mono" font-size="14.00" fill="#e6e6e6">TEXT</text>
<polygon fill="none" stroke="#39ff14" points="386,-379.5 386,-404.5 523,-404.5 523,-379.5 386,-379.5"/>
<text text-anchor="start" x="391" y="-388.3" font-family="JetBrains Mono" font-size="14.00" fill="#e6e6e6">strike, price_cents</text>
<polygon fill="none" stroke="#39ff14" points="523,-379.5 523,-404.5 650,-404.5 650,-379.5 523,-379.5"/>
<text text-anchor="start" x="550" y="-388.3" font-family="JetBrains Mono" font-size="14.00" fill="#e6e6e6">REAL / INT</text>
<polygon fill="none" stroke="#39ff14" points="386,-354.5 386,-379.5 523,-379.5 523,-354.5 386,-354.5"/>
<text text-anchor="start" x="440" y="-363.3" font-family="JetBrains Mono" font-size="14.00" fill="#e6e6e6">side</text>
<polygon fill="none" stroke="#39ff14" points="523,-354.5 523,-379.5 650,-379.5 650,-354.5 523,-354.5"/>
<text text-anchor="start" x="552.5" y="-363.3" font-family="JetBrains Mono" font-size="14.00" fill="#e6e6e6">&#39;YES&#39;|&#39;NO&#39;</text>
<polygon fill="none" stroke="#39ff14" points="386,-329.5 386,-354.5 523,-354.5 523,-329.5 386,-329.5"/>
<text text-anchor="start" x="434.5" y="-338.3" font-family="JetBrains Mono" font-size="14.00" fill="#e6e6e6">count</text>
<polygon fill="none" stroke="#39ff14" points="523,-329.5 523,-354.5 650,-354.5 650,-329.5 523,-329.5"/>
<text text-anchor="start" x="555.5" y="-338.3" font-family="JetBrains Mono" font-size="14.00" fill="#e6e6e6">INTEGER</text>
<polygon fill="none" stroke="#39ff14" points="386,-304.5 386,-329.5 523,-329.5 523,-304.5 386,-304.5"/>
<text text-anchor="start" x="413.5" y="-313.3" font-family="JetBrains Mono" font-size="14.00" fill="#e6e6e6">cost_dollars</text>
<polygon fill="none" stroke="#39ff14" points="523,-304.5 523,-329.5 650,-329.5 650,-304.5 523,-304.5"/>
<text text-anchor="start" x="568" y="-313.3" font-family="JetBrains Mono" font-size="14.00" fill="#e6e6e6">REAL</text>
<polygon fill="none" stroke="#39ff14" points="386,-279.5 386,-304.5 523,-304.5 523,-279.5 386,-279.5"/>
<text text-anchor="start" x="413.5" y="-288.3" font-family="JetBrains Mono" font-size="14.00" fill="#e6e6e6">model_prob</text>
<polygon fill="none" stroke="#39ff14" points="523,-279.5 523,-304.5 650,-304.5 650,-279.5 523,-279.5"/>
<text text-anchor="start" x="568" y="-288.3" font-family="JetBrains Mono" font-size="14.00" fill="#e6e6e6">REAL</text>
<polygon fill="none" stroke="#39ff14" points="386,-254.5 386,-279.5 523,-279.5 523,-254.5 386,-254.5"/>
<text text-anchor="start" x="409" y="-263.3" font-family="JetBrains Mono" font-size="14.00" fill="#e6e6e6">market_price</text>
<polygon fill="none" stroke="#39ff14" points="523,-254.5 523,-279.5 650,-279.5 650,-254.5 523,-254.5"/>
<text text-anchor="start" x="568" y="-263.3" font-family="JetBrains Mono" font-size="14.00" fill="#e6e6e6">REAL</text>
<polygon fill="none" stroke="#39ff14" points="386,-229.5 386,-254.5 523,-254.5 523,-229.5 386,-229.5"/>
<text text-anchor="start" x="400" y="-238.3" font-family="JetBrains Mono" font-size="14.00" fill="#e6e6e6">edge, stake_pct</text>
<polygon fill="none" stroke="#39ff14" points="523,-229.5 523,-254.5 650,-254.5 650,-229.5 523,-229.5"/>
<text text-anchor="start" x="568" y="-238.3" font-family="JetBrains Mono" font-size="14.00" fill="#e6e6e6">REAL</text>
<polygon fill="none" stroke="#39ff14" points="386,-204.5 386,-229.5 523,-229.5 523,-204.5 386,-204.5"/>
<text text-anchor="start" x="426" y="-213.3" font-family="JetBrains Mono" font-size="14.00" fill="#e6e6e6">order_id</text>
<polygon fill="none" stroke="#39ff14" points="523,-204.5 523,-229.5 650,-229.5 650,-204.5 523,-204.5"/>
<text text-anchor="start" x="569" y="-213.3" font-family="JetBrains Mono" font-size="14.00" fill="#e6e6e6">TEXT</text>
<polygon fill="none" stroke="#39ff14" points="386,-179.5 386,-204.5 523,-204.5 523,-179.5 386,-179.5"/>
<text text-anchor="start" x="433" y="-188.3" font-family="JetBrains Mono" font-size="14.00" fill="#e6e6e6">status</text>
<polygon fill="none" stroke="#39ff14" points="523,-179.5 523,-204.5 650,-204.5 650,-179.5 523,-179.5"/>
<text text-anchor="start" x="528" y="-188.3" font-family="JetBrains Mono" font-size="14.00" fill="#e6e6e6">&#39;placed&#39;|&#39;error&#39;|...</text>
<polygon fill="none" stroke="#39ff14" points="386,-154.5 386,-179.5 523,-179.5 523,-154.5 386,-154.5"/>
<text text-anchor="start" x="437.5" y="-163.3" font-family="JetBrains Mono" font-size="14.00" fill="#e6e6e6">error</text>
<polygon fill="none" stroke="#39ff14" points="523,-154.5 523,-179.5 650,-179.5 650,-154.5 523,-154.5"/>
<text text-anchor="start" x="569" y="-163.3" font-family="JetBrains Mono" font-size="14.00" fill="#e6e6e6">TEXT</text>
</g>
<!-- trades&#45;&gt;runs -->
<g id="edge1" class="edge">
<title>trades&#45;&gt;runs</title>
<path fill="none" stroke="#ff66ff" stroke-width="1.3" d="M658.16,-382.26C690.46,-391.49 725.05,-401.37 758.04,-410.8"/>
<polygon fill="#ff66ff" stroke="#ff66ff" stroke-width="1.3" points="758.14,-410.83 766.52,-417.9 762.95,-412.2 767.75,-413.57 767.75,-413.57 767.75,-413.57 762.95,-412.2 768.99,-409.25 758.14,-410.83 758.14,-410.83"/>
<text text-anchor="middle" x="713" y="-409.3" font-family="JetBrains Mono" font-size="9.00" fill="#cccccc">run_id → runs.id</text>
</g>
<!-- snaps -->
<g id="node3" class="node">
<title>snaps</title>
<polygon fill="#2a1a2a" stroke="transparent" points="402.5,-602 402.5,-827 633.5,-827 633.5,-602 402.5,-602"/>
<polygon fill="#3a0a3a" stroke="transparent" points="403,-801.5 403,-826.5 634,-826.5 634,-801.5 403,-801.5"/>
<polygon fill="none" stroke="#ff66ff" points="403,-801.5 403,-826.5 634,-826.5 634,-801.5 403,-801.5"/>
<text text-anchor="start" x="415.5" y="-811.3" font-family="JetBrains Mono" font-weight="bold" font-size="14.00" fill="#ffccff">orderbook.db :: snapshots</text>
<polygon fill="none" stroke="#ff66ff" points="403,-776.5 403,-801.5 540,-801.5 540,-776.5 403,-776.5"/>
<text text-anchor="start" x="420" y="-785.3" font-family="JetBrains Mono" font-size="14.00" fill="#ffaa00">timestamp_ms</text>
<polygon fill="none" stroke="#ff66ff" points="540,-776.5 540,-801.5 634,-801.5 634,-776.5 540,-776.5"/>
<text text-anchor="start" x="545" y="-785.3" font-family="JetBrains Mono" font-size="14.00" fill="#e6e6e6">INTEGER PK</text>
<polygon fill="none" stroke="#ff66ff" points="403,-751.5 403,-776.5 540,-776.5 540,-751.5 403,-751.5"/>
<text text-anchor="start" x="437.5" y="-760.3" font-family="JetBrains Mono" font-size="14.00" fill="#e6e6e6">mid_price</text>
<polygon fill="none" stroke="#ff66ff" points="540,-751.5 540,-776.5 634,-776.5 634,-751.5 540,-751.5"/>
<text text-anchor="start" x="568.5" y="-760.3" font-family="JetBrains Mono" font-size="14.00" fill="#e6e6e6">REAL</text>
<polygon fill="none" stroke="#ff66ff" points="403,-726.5 403,-751.5 540,-751.5 540,-726.5 403,-726.5"/>
<text text-anchor="start" x="447.5" y="-735.3" font-family="JetBrains Mono" font-size="14.00" fill="#e6e6e6">spread</text>
<polygon fill="none" stroke="#ff66ff" points="540,-726.5 540,-751.5 634,-751.5 634,-726.5 540,-726.5"/>
<text text-anchor="start" x="568.5" y="-735.3" font-family="JetBrains Mono" font-size="14.00" fill="#e6e6e6">REAL</text>
<polygon fill="none" stroke="#ff66ff" points="403,-701.5 403,-726.5 540,-726.5 540,-701.5 403,-701.5"/>
<text text-anchor="start" x="421.5" y="-710.3" font-family="JetBrains Mono" font-size="14.00" fill="#e6e6e6">bid_imbalance</text>
<polygon fill="none" stroke="#ff66ff" points="540,-701.5 540,-726.5 634,-726.5 634,-701.5 540,-701.5"/>
<text text-anchor="start" x="568.5" y="-710.3" font-family="JetBrains Mono" font-size="14.00" fill="#e6e6e6">REAL</text>
<polygon fill="none" stroke="#ff66ff" points="403,-676.5 403,-701.5 540,-701.5 540,-676.5 403,-676.5"/>
<text text-anchor="start" x="429" y="-685.3" font-family="JetBrains Mono" font-size="14.00" fill="#e6e6e6">bid_depth_5</text>
<polygon fill="none" stroke="#ff66ff" points="540,-676.5 540,-701.5 634,-701.5 634,-676.5 540,-676.5"/>
<text text-anchor="start" x="568.5" y="-685.3" font-family="JetBrains Mono" font-size="14.00" fill="#e6e6e6">REAL</text>
<polygon fill="none" stroke="#ff66ff" points="403,-651.5 403,-676.5 540,-676.5 540,-651.5 403,-651.5"/>
<text text-anchor="start" x="427.5" y="-660.3" font-family="JetBrains Mono" font-size="14.00" fill="#e6e6e6">ask_depth_5</text>
<polygon fill="none" stroke="#ff66ff" points="540,-651.5 540,-676.5 634,-676.5 634,-651.5 540,-651.5"/>
<text text-anchor="start" x="568.5" y="-660.3" font-family="JetBrains Mono" font-size="14.00" fill="#e6e6e6">REAL</text>
<polygon fill="none" stroke="#ff66ff" points="403,-626.5 403,-651.5 540,-651.5 540,-626.5 403,-626.5"/>
<text text-anchor="start" x="435" y="-635.3" font-family="JetBrains Mono" font-size="14.00" fill="#e6e6e6">bid1, ask1</text>
<polygon fill="none" stroke="#ff66ff" points="540,-626.5 540,-651.5 634,-651.5 634,-626.5 540,-626.5"/>
<text text-anchor="start" x="568.5" y="-635.3" font-family="JetBrains Mono" font-size="14.00" fill="#e6e6e6">REAL</text>
<polygon fill="none" stroke="#ff66ff" points="403,-601.5 403,-626.5 540,-626.5 540,-601.5 403,-601.5"/>
<text text-anchor="start" x="408" y="-610.3" font-family="JetBrains Mono" font-size="14.00" fill="#e6e6e6">bid1_vol, ask1_vol</text>
<polygon fill="none" stroke="#ff66ff" points="540,-601.5 540,-626.5 634,-626.5 634,-601.5 540,-601.5"/>
<text text-anchor="start" x="568.5" y="-610.3" font-family="JetBrains Mono" font-size="14.00" fill="#e6e6e6">REAL</text>
</g>
<!-- preds -->
<g id="node4" class="node">
<title>preds</title>
<polygon fill="#2a1a0a" stroke="transparent" points="8,-763 8,-988 301,-988 301,-763 8,-763"/>
<polygon fill="#3a1a0a" stroke="transparent" points="8.5,-962.5 8.5,-987.5 301.5,-987.5 301.5,-962.5 8.5,-962.5"/>
<polygon fill="none" stroke="#ffaa00" points="8.5,-962.5 8.5,-987.5 301.5,-987.5 301.5,-962.5 8.5,-962.5"/>
<text text-anchor="start" x="45" y="-972.3" font-family="JetBrains Mono" font-weight="bold" font-size="14.00" fill="#ffcc66">predictions.db :: predictions</text>
<polygon fill="none" stroke="#ffaa00" points="8.5,-937.5 8.5,-962.5 206.5,-962.5 206.5,-937.5 8.5,-937.5"/>
<text text-anchor="start" x="101" y="-946.3" font-family="JetBrains Mono" font-size="14.00" fill="#ffaa00">id</text>
<polygon fill="none" stroke="#ffaa00" points="206.5,-937.5 206.5,-962.5 301.5,-962.5 301.5,-937.5 206.5,-937.5"/>
<text text-anchor="start" x="212" y="-946.3" font-family="JetBrains Mono" font-size="14.00" fill="#e6e6e6">INTEGER PK</text>
<polygon fill="none" stroke="#ffaa00" points="8.5,-912.5 8.5,-937.5 206.5,-937.5 206.5,-912.5 8.5,-912.5"/>
<text text-anchor="start" x="71" y="-921.3" font-family="JetBrains Mono" font-size="14.00" fill="#e6e6e6">created_at</text>
<polygon fill="none" stroke="#ffaa00" points="206.5,-912.5 206.5,-937.5 301.5,-937.5 301.5,-912.5 206.5,-912.5"/>
<text text-anchor="start" x="236.5" y="-921.3" font-family="JetBrains Mono" font-size="14.00" fill="#e6e6e6">TEXT</text>
<polygon fill="none" stroke="#ffaa00" points="8.5,-887.5 8.5,-912.5 206.5,-912.5 206.5,-887.5 8.5,-887.5"/>
<text text-anchor="start" x="44" y="-896.3" font-family="JetBrains Mono" font-size="14.00" fill="#e6e6e6">series, strike, side</text>
<polygon fill="none" stroke="#ffaa00" points="206.5,-887.5 206.5,-912.5 301.5,-912.5 301.5,-887.5 206.5,-887.5"/>
<text text-anchor="start" x="211.5" y="-896.3" font-family="JetBrains Mono" font-size="14.00" fill="#e6e6e6">TEXT / REAL</text>
<polygon fill="none" stroke="#ffaa00" points="8.5,-862.5 8.5,-887.5 206.5,-887.5 206.5,-862.5 8.5,-862.5"/>
<text text-anchor="start" x="58" y="-871.3" font-family="JetBrains Mono" font-size="14.00" fill="#e6e6e6">price_at_entry</text>
<polygon fill="none" stroke="#ffaa00" points="206.5,-862.5 206.5,-887.5 301.5,-887.5 301.5,-862.5 206.5,-862.5"/>
<text text-anchor="start" x="235.5" y="-871.3" font-family="JetBrains Mono" font-size="14.00" fill="#e6e6e6">REAL</text>
<polygon fill="none" stroke="#ffaa00" points="8.5,-837.5 8.5,-862.5 206.5,-862.5 206.5,-837.5 8.5,-837.5"/>
<text text-anchor="start" x="66" y="-846.3" font-family="JetBrains Mono" font-size="14.00" fill="#e6e6e6">target_price</text>
<polygon fill="none" stroke="#ffaa00" points="206.5,-837.5 206.5,-862.5 301.5,-862.5 301.5,-837.5 206.5,-837.5"/>
<text text-anchor="start" x="235.5" y="-846.3" font-family="JetBrains Mono" font-size="14.00" fill="#e6e6e6">REAL</text>
<polygon fill="none" stroke="#ffaa00" points="8.5,-812.5 8.5,-837.5 206.5,-837.5 206.5,-812.5 8.5,-812.5"/>
<text text-anchor="start" x="92" y="-821.3" font-family="JetBrains Mono" font-size="14.00" fill="#e6e6e6">note</text>
<polygon fill="none" stroke="#ffaa00" points="206.5,-812.5 206.5,-837.5 301.5,-837.5 301.5,-812.5 206.5,-812.5"/>
<text text-anchor="start" x="236.5" y="-821.3" font-family="JetBrains Mono" font-size="14.00" fill="#e6e6e6">TEXT</text>
<polygon fill="none" stroke="#ffaa00" points="8.5,-787.5 8.5,-812.5 206.5,-812.5 206.5,-787.5 8.5,-787.5"/>
<text text-anchor="start" x="77" y="-796.3" font-family="JetBrains Mono" font-size="14.00" fill="#e6e6e6">outcome</text>
<polygon fill="none" stroke="#ffaa00" points="206.5,-787.5 206.5,-812.5 301.5,-812.5 301.5,-787.5 206.5,-787.5"/>
<text text-anchor="start" x="236.5" y="-796.3" font-family="JetBrains Mono" font-size="14.00" fill="#e6e6e6">TEXT</text>
<polygon fill="none" stroke="#ffaa00" points="8.5,-762.5 8.5,-787.5 206.5,-787.5 206.5,-762.5 8.5,-762.5"/>
<text text-anchor="start" x="13.5" y="-771.3" font-family="JetBrains Mono" font-size="14.00" fill="#e6e6e6">resolved_at, resolved_price</text>
<polygon fill="none" stroke="#ffaa00" points="206.5,-762.5 206.5,-787.5 301.5,-787.5 301.5,-762.5 206.5,-762.5"/>
<text text-anchor="start" x="211.5" y="-771.3" font-family="JetBrains Mono" font-size="14.00" fill="#e6e6e6">TEXT / REAL</text>
</g>
<!-- hwm -->
<g id="node5" class="node">
<title>hwm</title>
<polygon fill="#1a1408" stroke="transparent" points="435,-4 435,-129 601,-129 601,-4 435,-4"/>
<polygon fill="#3a2a0a" stroke="transparent" points="435,-103.5 435,-128.5 601,-128.5 601,-103.5 435,-103.5"/>
<polygon fill="none" stroke="#ffaa00" points="435,-103.5 435,-128.5 601,-128.5 601,-103.5 435,-103.5"/>
<text text-anchor="start" x="480.5" y="-113.3" font-family="JetBrains Mono" font-weight="bold" font-size="14.00" fill="#ffcc66">hwm.json</text>
<polygon fill="none" stroke="#ffaa00" points="435,-78.5 435,-103.5 548,-103.5 548,-78.5 435,-78.5"/>
<text text-anchor="start" x="474.5" y="-87.3" font-family="JetBrains Mono" font-size="14.00" fill="#e6e6e6">hwm</text>
<polygon fill="none" stroke="#ffaa00" points="548,-78.5 548,-103.5 601,-103.5 601,-78.5 548,-78.5"/>
<text text-anchor="start" x="559" y="-87.3" font-family="JetBrains Mono" font-size="14.00" fill="#e6e6e6">float</text>
<polygon fill="none" stroke="#ffaa00" points="435,-53.5 435,-78.5 548,-78.5 548,-53.5 435,-53.5"/>
<text text-anchor="start" x="440" y="-62.3" font-family="JetBrains Mono" font-size="14.00" fill="#e6e6e6">portfolio_value</text>
<polygon fill="none" stroke="#ffaa00" points="548,-53.5 548,-78.5 601,-78.5 601,-53.5 548,-53.5"/>
<text text-anchor="start" x="559" y="-62.3" font-family="JetBrains Mono" font-size="14.00" fill="#e6e6e6">float</text>
<polygon fill="none" stroke="#ffaa00" points="435,-28.5 435,-53.5 548,-53.5 548,-28.5 435,-28.5"/>
<text text-anchor="start" x="441" y="-37.3" font-family="JetBrains Mono" font-size="14.00" fill="#e6e6e6">drawdown_pct</text>
<polygon fill="none" stroke="#ffaa00" points="548,-28.5 548,-53.5 601,-53.5 601,-28.5 548,-28.5"/>
<text text-anchor="start" x="559" y="-37.3" font-family="JetBrains Mono" font-size="14.00" fill="#e6e6e6">float</text>
<polygon fill="none" stroke="#ffaa00" points="435,-3.5 435,-28.5 548,-28.5 548,-3.5 435,-3.5"/>
<text text-anchor="start" x="452" y="-12.3" font-family="JetBrains Mono" font-size="14.00" fill="#e6e6e6">updated_at</text>
<polygon fill="none" stroke="#ffaa00" points="548,-3.5 548,-28.5 601,-28.5 601,-3.5 548,-3.5"/>
<text text-anchor="start" x="553" y="-12.3" font-family="JetBrains Mono" font-size="14.00" fill="#e6e6e6">ISO ts</text>
</g>
<!-- auto -->
<g id="node6" class="node">
<title>auto</title>
<ellipse fill="#0a3a0a" stroke="#39ff14" cx="154.5" cy="-342.5" rx="76.09" ry="18"/>
<text text-anchor="middle" x="154.5" y="-338.8" font-family="JetBrains Mono" font-size="14.00" fill="#aaffaa">auto_trader.py</text>
</g>
<!-- auto&#45;&gt;runs -->
<g id="edge2" class="edge">
<title>auto&#45;&gt;runs</title>
<path fill="none" stroke="#aaff66" stroke-width="1.3" d="M167.95,-360.43C198.14,-402.13 280.03,-504.94 378,-542.5 500.85,-589.6 649.04,-559.58 758.51,-522.48"/>
<polygon fill="#aaff66" stroke="#aaff66" stroke-width="1.3" points="759.67,-525.78 767.99,-519.22 757.39,-519.16 759.67,-525.78"/>
<text text-anchor="middle" x="518" y="-570.3" font-family="JetBrains Mono" font-size="9.00" fill="#cccccc">INSERT</text>
</g>
<!-- auto&#45;&gt;trades -->
<g id="edge3" class="edge">
<title>auto&#45;&gt;trades</title>
<path fill="none" stroke="#aaff66" stroke-width="1.3" d="M230.84,-342.5C270.54,-342.5 320.67,-342.5 367.83,-342.5"/>
<polygon fill="#aaff66" stroke="#aaff66" stroke-width="1.3" points="367.85,-346 377.85,-342.5 367.85,-339 367.85,-346"/>
<text text-anchor="middle" x="343.5" y="-345.3" font-family="JetBrains Mono" font-size="9.00" fill="#cccccc">INSERT</text>
</g>
<!-- auto&#45;&gt;hwm -->
<g id="edge4" class="edge">
<title>auto&#45;&gt;hwm</title>
<path fill="none" stroke="#aaff66" stroke-width="1.3" d="M172.16,-324.82C207.62,-287.79 294.22,-200.65 378,-141.5 390.5,-132.68 404.14,-124.14 417.85,-116.18"/>
<polygon fill="#aaff66" stroke="#aaff66" stroke-width="1.3" points="419.91,-119.04 426.86,-111.04 416.44,-112.96 419.91,-119.04"/>
<text text-anchor="middle" x="343.5" y="-179.3" font-family="JetBrains Mono" font-size="9.00" fill="#cccccc">WRITE</text>
</g>
<!-- coll -->
<g id="node7" class="node">
<title>coll</title>
<ellipse fill="#0a3a3a" stroke="#66ffff" cx="154.5" cy="-714.5" rx="67.35" ry="26.74"/>
<text text-anchor="middle" x="154.5" y="-718.3" font-family="JetBrains Mono" font-size="14.00" fill="#ccffff">orderbook_</text>
<text text-anchor="middle" x="154.5" y="-703.3" font-family="JetBrains Mono" font-size="14.00" fill="#ccffff">collector.py</text>
</g>
<!-- coll&#45;&gt;snaps -->
<g id="edge5" class="edge">
<title>coll&#45;&gt;snaps</title>
<path fill="none" stroke="#66ffff" stroke-width="1.3" d="M221.8,-714.5C267.19,-714.5 328.92,-714.5 384.2,-714.5"/>
<polygon fill="#66ffff" stroke="#66ffff" stroke-width="1.3" points="384.44,-718 394.44,-714.5 384.44,-711 384.44,-718"/>
<text text-anchor="middle" x="343.5" y="-717.3" font-family="JetBrains Mono" font-size="9.00" fill="#cccccc">INSERT</text>
</g>
</g>
</svg>
