<?xml version="1.0" encoding="UTF-8" standalone="no"?>
<!DOCTYPE svg PUBLIC "-//W3C//DTD SVG 1.1//EN"
 "http://www.w3.org/Graphics/SVG/1.1/DTD/svg11.dtd">
<!-- Generated by graphviz version 2.43.0 (0)
 -->
<!-- Title: config Pages: 1 -->
<svg width="1496pt" height="830pt"
 viewBox="0.00 0.00 1496.00 830.00" xmlns="http://www.w3.org/2000/svg" xmlns:xlink="http://www.w3.org/1999/xlink">
<g id="graph0" class="graph" transform="scale(1 1) rotate(0) translate(4 826)">
<title>config</title>
<polygon fill="#0a0e14" stroke="transparent" points="-4,4 -4,-826 1492,-826 1492,4 -4,4"/>
<g id="clust1" class="cluster">
<title>cluster_override</title>
<path fill="#1a1408" stroke="#ffaa00" stroke-width="2" d="M636,-463.5C636,-463.5 1468,-463.5 1468,-463.5 1474,-463.5 1480,-469.5 1480,-475.5 1480,-475.5 1480,-543.5 1480,-543.5 1480,-549.5 1474,-555.5 1468,-555.5 1468,-555.5 636,-555.5 636,-555.5 630,-555.5 624,-549.5 624,-543.5 624,-543.5 624,-475.5 624,-475.5 624,-469.5 630,-463.5 636,-463.5"/>
<text text-anchor="middle" x="1052" y="-540.3" font-family="JetBrains Mono" font-size="14.00" fill="#ffcc66">Override paths</text>
</g>
<!-- svc -->
<g id="node1" class="node">
<title>svc</title>
<path fill="#0a2a2a" stroke="#66ffff" stroke-width="3" d="M430.5,-822C430.5,-822 77.5,-822 77.5,-822 71.5,-822 65.5,-816 65.5,-810 65.5,-810 65.5,-735 65.5,-735 65.5,-729 71.5,-723 77.5,-723 77.5,-723 430.5,-723 430.5,-723 436.5,-723 442.5,-729 442.5,-735 442.5,-735 442.5,-810 442.5,-810 442.5,-816 436.5,-822 430.5,-822"/>
<text text-anchor="middle" x="254" y="-806.8" font-family="JetBrains Mono" font-size="14.00" fill="#ccffff">/etc/systemd/system/</text>
<text text-anchor="middle" x="254" y="-791.8" font-family="JetBrains Mono" font-size="14.00" fill="#ccffff">kalshi&#45;auto&#45;trader.service</text>
<text text-anchor="middle" x="254" y="-760.8" font-family="JetBrains Mono" font-size="14.00" fill="#ccffff">Environment=&quot;MIN_CONVICTION=0.15&quot;</text>
<text text-anchor="middle" x="254" y="-745.8" font-family="JetBrains Mono" font-size="14.00" fill="#ccffff">Environment=&quot;MAX_EXPIRY_EXPOSURE_PCT=0.50&quot;</text>
<text text-anchor="middle" x="254" y="-730.8" font-family="JetBrains Mono" font-size="14.00" fill="#ccffff">... (20+ Environment lines)</text>
</g>
<!-- reload -->
<g id="node2" class="node">
<title>reload</title>
<path fill="#1a2a1a" stroke="#39ff14" stroke-width="2" d="M180,-517C180,-517 12,-517 12,-517 6,-517 0,-511 0,-505 0,-505 0,-491 0,-491 0,-485 6,-479 12,-479 12,-479 180,-479 180,-479 186,-479 192,-485 192,-491 192,-491 192,-505 192,-505 192,-511 186,-517 180,-517"/>
<text text-anchor="middle" x="96" y="-501.8" font-family="JetBrains Mono" font-size="14.00" fill="#e6e6e6">systemctl daemon&#45;reload</text>
<text text-anchor="middle" x="96" y="-486.8" font-family="JetBrains Mono" font-size="14.00" fill="#e6e6e6">(required after edits)</text>
</g>
<!-- svc&#45;&gt;reload -->
<g id="edge1" class="edge">
<title>svc&#45;&gt;reload</title>
<path fill="none" stroke="#39ff14" stroke-width="1.5" d="M223.36,-722.89C215.94,-710.89 208.1,-698.03 201,-686 167.81,-629.78 130.83,-562.85 110.82,-526.26"/>
<polygon fill="#39ff14" stroke="#39ff14" stroke-width="1.5" points="113.74,-524.3 105.88,-517.2 107.6,-527.65 113.74,-524.3"/>
</g>
<!-- vars -->
<g id="node10" class="node">
<title>vars</title>
<path fill="lightgrey" stroke="black" stroke-width="2" d="M601.5,-686C601.5,-686 222.5,-686 222.5,-686 216.5,-686 210.5,-680 210.5,-674 210.5,-674 210.5,-322 210.5,-322 210.5,-316 216.5,-310 222.5,-310 222.5,-310 601.5,-310 601.5,-310 607.5,-310 613.5,-316 613.5,-322 613.5,-322 613.5,-674 613.5,-674 613.5,-680 607.5,-686 601.5,-686"/>
<polygon fill="#1a2a1a" stroke="transparent" points="218.5,-314 218.5,-682 605.5,-682 605.5,-314 218.5,-314"/>
<polygon fill="#0a3a0a" stroke="transparent" points="219,-659 219,-682 606,-682 606,-659 219,-659"/>
<polygon fill="none" stroke="#39ff14" points="219,-659 219,-682 606,-682 606,-659 219,-659"/>
<text text-anchor="start" x="315" y="-667.8" font-family="JetBrains Mono" font-weight="bold" font-size="14.00" fill="#aaffaa">All env vars (service file)</text>
<polygon fill="none" stroke="#39ff14" points="219,-636 219,-659 498,-659 498,-636 219,-636"/>
<text text-anchor="start" x="325.5" y="-643.8" font-family="JetBrains Mono" font-size="14.00" fill="#e6e6e6">DRY_RUN</text>
<polygon fill="none" stroke="#39ff14" points="498,-636 498,-659 606,-659 606,-636 498,-636"/>
<text text-anchor="start" x="524.5" y="-643.8" font-family="JetBrains Mono" font-size="14.00" fill="#e6e6e6">0 (LIVE)</text>
<polygon fill="none" stroke="#39ff14" points="219,-613 219,-636 498,-636 498,-613 219,-613"/>
<text text-anchor="start" x="301.5" y="-620.8" font-family="JetBrains Mono" font-size="14.00" fill="#e6e6e6">MAX_BANKROLL</text>
<polygon fill="none" stroke="#39ff14" points="498,-613 498,-636 606,-636 606,-613 498,-613"/>
<text text-anchor="start" x="538" y="-620.8" font-family="JetBrains Mono" font-size="14.00" fill="#e6e6e6">500</text>
<polygon fill="none" stroke="#39ff14" points="219,-590 219,-613 498,-613 498,-590 219,-590"/>
<text text-anchor="start" x="257.5" y="-597.8" font-family="JetBrains Mono" font-size="14.00" fill="#e6e6e6">MAX_STAKE_PCT / _DOLLARS</text>
<polygon fill="none" stroke="#39ff14" points="498,-590 498,-613 606,-613 606,-590 498,-590"/>
<text text-anchor="start" x="520" y="-597.8" font-family="JetBrains Mono" font-size="14.00" fill="#e6e6e6">0.12 / 25</text>
<polygon fill="none" stroke="#39ff14" points="219,-567 219,-590 498,-590 498,-567 219,-567"/>
<text text-anchor="start" x="264" y="-574.8" font-family="JetBrains Mono" font-size="14.00" fill="#e6e6e6">MAX_RUN_PCT / _DOLLARS</text>
<polygon fill="none" stroke="#39ff14" points="498,-567 498,-590 606,-590 606,-567 498,-567"/>
<text text-anchor="start" x="515.5" y="-574.8" font-family="JetBrains Mono" font-size="14.00" fill="#e6e6e6">0.40 / 100</text>
<polygon fill="none" stroke="#39ff14" points="219,-544 219,-567 498,-567 498,-544 219,-544"/>
<text text-anchor="start" x="272" y="-551.8" font-family="JetBrains Mono" font-size="14.00" fill="#e6e6e6">DAILY_LOSS_PCT / _LIMIT</text>
<polygon fill="none" stroke="#39ff14" points="498,-544 498,-567 606,-567 606,-544 498,-544"/>
<text text-anchor="start" x="502" y="-551.8" font-family="JetBrains Mono" font-size="14.00" fill="#e6e6e6">100.0 / 10000</text>
<polygon fill="none" stroke="#39ff14" points="219,-521 219,-544 498,-544 498,-521 219,-521"/>
<text text-anchor="start" x="239" y="-528.8" font-family="JetBrains Mono" font-size="14.00" fill="#e6e6e6">MIN_BALANCE, DRAWDOWN_HALT</text>
<polygon fill="none" stroke="#39ff14" points="498,-521 498,-544 606,-544 606,-521 498,-521"/>
<text text-anchor="start" x="524.5" y="-528.8" font-family="JetBrains Mono" font-size="14.00" fill="#e6e6e6">5 / 0.50</text>
<polygon fill="none" stroke="#39ff14" points="219,-498 219,-521 498,-521 498,-498 219,-498"/>
<text text-anchor="start" x="250" y="-505.8" font-family="JetBrains Mono" font-size="14.00" fill="#e6e6e6">MIN_EDGE, FRACTIONAL_KELLY</text>
<polygon fill="none" stroke="#39ff14" points="498,-498 498,-521 606,-521 606,-498 498,-498"/>
<text text-anchor="start" x="513.5" y="-505.8" font-family="JetBrains Mono" font-size="14.00" fill="#e6e6e6">0.05 / 0.33</text>
<polygon fill="none" stroke="#39ff14" points="219,-475 219,-498 498,-498 498,-475 219,-475"/>
<text text-anchor="start" x="259" y="-482.8" font-family="JetBrains Mono" font-size="14.00" fill="#e6e6e6">MIN/MAX_CONTRACT_CENTS</text>
<polygon fill="none" stroke="#39ff14" points="498,-475 498,-498 606,-498 606,-475 498,-475"/>
<text text-anchor="start" x="527" y="-482.8" font-family="JetBrains Mono" font-size="14.00" fill="#e6e6e6">10 / 95</text>
<polygon fill="none" stroke="#39ff14" points="219,-452 219,-475 498,-475 498,-452 219,-452"/>
<text text-anchor="start" x="295.5" y="-459.8" font-family="JetBrains Mono" font-size="14.00" fill="#e6e6e6">MAX_PROB_RATIO</text>
<polygon fill="none" stroke="#39ff14" points="498,-452 498,-475 606,-475 606,-452 498,-452"/>
<text text-anchor="start" x="540.5" y="-459.8" font-family="JetBrains Mono" font-size="14.00" fill="#e6e6e6">3.0</text>
<polygon fill="none" stroke="#39ff14" points="219,-429 219,-452 498,-452 498,-429 219,-429"/>
<text text-anchor="start" x="223" y="-436.8" font-family="JetBrains Mono" font-size="14.00" fill="#e6e6e6">MAX_SETTLEMENT_WINDOW_MINUTES</text>
<polygon fill="none" stroke="#39ff14" points="498,-429 498,-452 606,-452 606,-429 498,-429"/>
<text text-anchor="start" x="542.5" y="-436.8" font-family="JetBrains Mono" font-size="14.00" fill="#e6e6e6">90</text>
<polygon fill="none" stroke="#39ff14" points="219,-406 219,-429 498,-429 498,-406 219,-406"/>
<text text-anchor="start" x="257" y="-413.8" font-family="JetBrains Mono" font-size="14.00" fill="#e6e6e6">MAX_PLACEMENTS_PER_RUN</text>
<polygon fill="none" stroke="#39ff14" points="498,-406 498,-429 606,-429 606,-406 498,-406"/>
<text text-anchor="start" x="547" y="-413.8" font-family="JetBrains Mono" font-size="14.00" fill="#e6e6e6">3</text>
<polygon fill="#3a0a3a" stroke="transparent" points="219,-383 219,-406 498,-406 498,-383 219,-383"/>
<polygon fill="none" stroke="#39ff14" points="219,-383 219,-406 498,-406 498,-383 219,-383"/>
<text text-anchor="start" x="296.5" y="-390.8" font-family="JetBrains Mono" font-size="14.00" fill="#ffccff">MIN_CONVICTION</text>
<polygon fill="#3a0a3a" stroke="transparent" points="498,-383 498,-406 606,-406 606,-383 498,-383"/>
<polygon fill="none" stroke="#39ff14" points="498,-383 498,-406 606,-406 606,-383 498,-383"/>
<text text-anchor="start" x="536" y="-390.8" font-family="JetBrains Mono" font-size="14.00" fill="#ffccff">0.15</text>
<polygon fill="#3a0a3a" stroke="transparent" points="219,-360 219,-383 498,-383 498,-360 219,-360"/>
<polygon fill="none" stroke="#39ff14" points="219,-360 219,-383 498,-383 498,-360 219,-360"/>
<text text-anchor="start" x="256.5" y="-367.8" font-family="JetBrains Mono" font-size="14.00" fill="#ffccff">MAX_EXPIRY_EXPOSURE_PCT</text>
<polygon fill="#3a0a3a" stroke="transparent" points="498,-360 498,-383 606,-383 606,-360 498,-360"/>
<polygon fill="none" stroke="#39ff14" points="498,-360 498,-383 606,-383 606,-360 498,-360"/>
<text text-anchor="start" x="536" y="-367.8" font-family="JetBrains Mono" font-size="14.00" fill="#ffccff">0.50</text>
<polygon fill="#3a0a3a" stroke="transparent" points="219,-337 219,-360 498,-360 498,-337 219,-337"/>
<polygon fill="none" stroke="#39ff14" points="219,-337 219,-360 498,-360 498,-337 219,-337"/>
<text text-anchor="start" x="251.5" y="-344.8" font-family="JetBrains Mono" font-size="14.00" fill="#ffccff">REGIME_RSI_LOW/HIGH/SCALE</text>
<polygon fill="#3a0a3a" stroke="transparent" points="498,-337 498,-360 606,-360 606,-337 498,-337"/>
<polygon fill="none" stroke="#39ff14" points="498,-337 498,-360 606,-360 606,-337 498,-337"/>
<text text-anchor="start" x="509" y="-344.8" font-family="JetBrains Mono" font-size="14.00" fill="#ffccff">20 / 80 / 0.5</text>
<polygon fill="#3a0a3a" stroke="transparent" points="219,-314 219,-337 498,-337 498,-314 219,-314"/>
<polygon fill="none" stroke="#39ff14" points="219,-314 219,-337 498,-337 498,-314 219,-314"/>
<text text-anchor="start" x="281.5" y="-321.8" font-family="JetBrains Mono" font-size="14.00" fill="#ffccff">NET_RECONCILIATION</text>
<polygon fill="#3a0a3a" stroke="transparent" points="498,-314 498,-337 606,-337 606,-314 498,-314"/>
<polygon fill="none" stroke="#39ff14" points="498,-314 498,-337 606,-337 606,-314 498,-314"/>
<text text-anchor="start" x="547" y="-321.8" font-family="JetBrains Mono" font-size="14.00" fill="#ffccff">1</text>
</g>
<!-- svc&#45;&gt;vars -->
<g id="edge9" class="edge">
<title>svc&#45;&gt;vars</title>
<path fill="none" stroke="#aaff66" stroke-width="1.5" stroke-dasharray="1,5" d="M282.25,-722.78C288.68,-711.68 295.9,-699.24 303.54,-686.06"/>
</g>
<!-- proc -->
<g id="node3" class="node">
<title>proc</title>
<path fill="#1a2a1a" stroke="#39ff14" stroke-width="2" d="M1057,-263C1057,-263 865,-263 865,-263 859,-263 853,-257 853,-251 853,-251 853,-237 853,-237 853,-231 859,-225 865,-225 865,-225 1057,-225 1057,-225 1063,-225 1069,-231 1069,-237 1069,-237 1069,-251 1069,-251 1069,-257 1063,-263 1057,-263"/>
<text text-anchor="middle" x="961" y="-247.8" font-family="JetBrains Mono" font-size="14.00" fill="#e6e6e6">child process env</text>
<text text-anchor="middle" x="961" y="-232.8" font-family="JetBrains Mono" font-size="14.00" fill="#e6e6e6">(inherited by auto_trader.py)</text>
</g>
<!-- reload&#45;&gt;proc -->
<g id="edge2" class="edge">
<title>reload&#45;&gt;proc</title>
<path fill="none" stroke="#39ff14" stroke-width="1.5" d="M100.11,-478.99C109.96,-440.41 138.87,-350.02 201,-310 253.56,-276.14 642.13,-256.87 842.38,-249.08"/>
<polygon fill="#39ff14" stroke="#39ff14" stroke-width="1.5" points="842.8,-252.57 852.65,-248.69 842.53,-245.58 842.8,-252.57"/>
</g>
<!-- code -->
<g id="node4" class="node">
<title>code</title>
<path fill="#1a2a1a" stroke="#39ff14" stroke-width="2" d="M1222.5,-188C1222.5,-188 929.5,-188 929.5,-188 923.5,-188 917.5,-182 917.5,-176 917.5,-176 917.5,-162 917.5,-162 917.5,-156 923.5,-150 929.5,-150 929.5,-150 1222.5,-150 1222.5,-150 1228.5,-150 1234.5,-156 1234.5,-162 1234.5,-162 1234.5,-176 1234.5,-176 1234.5,-182 1228.5,-188 1222.5,-188"/>
<text text-anchor="middle" x="1076" y="-172.8" font-family="JetBrains Mono" font-size="14.00" fill="#e6e6e6">os.environ.get(&quot;MIN_CONVICTION&quot;, &quot;0.15&quot;)</text>
<text text-anchor="middle" x="1076" y="-157.8" font-family="JetBrains Mono" font-size="14.00" fill="#e6e6e6">in auto_trader.py config block</text>
</g>
<!-- proc&#45;&gt;code -->
<g id="edge3" class="edge">
<title>proc&#45;&gt;code</title>
<path fill="none" stroke="#39ff14" stroke-width="1.5" d="M989.43,-224.96C1004.36,-215.48 1022.83,-203.75 1038.88,-193.57"/>
<polygon fill="#39ff14" stroke="#39ff14" stroke-width="1.5" points="1040.93,-196.4 1047.5,-188.09 1037.18,-190.49 1040.93,-196.4"/>
</g>
<!-- rt -->
<g id="node5" class="node">
<title>rt</title>
<path fill="#1a3a1a" stroke="#aaff66" stroke-width="2" d="M1160.5,-113C1160.5,-113 991.5,-113 991.5,-113 985.5,-113 979.5,-107 979.5,-101 979.5,-101 979.5,-87 979.5,-87 979.5,-81 985.5,-75 991.5,-75 991.5,-75 1160.5,-75 1160.5,-75 1166.5,-75 1172.5,-81 1172.5,-87 1172.5,-87 1172.5,-101 1172.5,-101 1172.5,-107 1166.5,-113 1160.5,-113"/>
<text text-anchor="middle" x="1076" y="-97.8" font-family="JetBrains Mono" font-size="14.00" fill="#e6e6e6">MIN_CONVICTION = 0.15</text>
<text text-anchor="middle" x="1076" y="-82.8" font-family="JetBrains Mono" font-size="14.00" fill="#e6e6e6">(module&#45;level float)</text>
</g>
<!-- code&#45;&gt;rt -->
<g id="edge4" class="edge">
<title>code&#45;&gt;rt</title>
<path fill="none" stroke="#39ff14" stroke-width="1.5" d="M1076,-149.96C1076,-141.88 1076,-132.18 1076,-123.18"/>
<polygon fill="#39ff14" stroke="#39ff14" stroke-width="1.5" points="1079.5,-123.09 1076,-113.09 1072.5,-123.09 1079.5,-123.09"/>
</g>
<!-- use -->
<g id="node6" class="node">
<title>use</title>
<path fill="#0a3a0a" stroke="#39ff14" stroke-width="3" d="M1205.5,-38C1205.5,-38 946.5,-38 946.5,-38 940.5,-38 934.5,-32 934.5,-26 934.5,-26 934.5,-12 934.5,-12 934.5,-6 940.5,0 946.5,0 946.5,0 1205.5,0 1205.5,0 1211.5,0 1217.5,-6 1217.5,-12 1217.5,-12 1217.5,-26 1217.5,-26 1217.5,-32 1211.5,-38 1205.5,-38"/>
<text text-anchor="middle" x="1076" y="-22.8" font-family="JetBrains Mono" font-size="14.00" fill="#aaffaa">inside find_opportunities:</text>
<text text-anchor="middle" x="1076" y="-7.8" font-family="JetBrains Mono" font-size="14.00" fill="#aaffaa">if conviction &lt; MIN_CONVICTION: skip</text>
</g>
<!-- rt&#45;&gt;use -->
<g id="edge5" class="edge">
<title>rt&#45;&gt;use</title>
<path fill="none" stroke="#39ff14" stroke-width="1.5" d="M1076,-74.96C1076,-66.88 1076,-57.18 1076,-48.18"/>
<polygon fill="#39ff14" stroke="#39ff14" stroke-width="1.5" points="1079.5,-48.09 1076,-38.09 1072.5,-48.09 1079.5,-48.09"/>
</g>
<!-- cli -->
<g id="node7" class="node">
<title>cli</title>
<path fill="#2a1a0a" stroke="#ffaa00" stroke-width="2" d="M962,-517C962,-517 644,-517 644,-517 638,-517 632,-511 632,-505 632,-505 632,-491 632,-491 632,-485 638,-479 644,-479 644,-479 962,-479 962,-479 968,-479 974,-485 974,-491 974,-491 974,-505 974,-505 974,-511 968,-517 962,-517"/>
<text text-anchor="middle" x="803" y="-501.8" font-family="JetBrains Mono" font-size="14.00" fill="#e6e6e6">CLI one&#45;shot:</text>
<text text-anchor="middle" x="803" y="-486.8" font-family="JetBrains Mono" font-size="14.00" fill="#e6e6e6">MIN_CONVICTION=0.20 python auto_trader.py</text>
</g>
<!-- cli&#45;&gt;proc -->
<g id="edge6" class="edge">
<title>cli&#45;&gt;proc</title>
<path fill="none" stroke="#ffaa00" stroke-width="1.5" stroke-dasharray="5,2" d="M807.69,-478.84C818.71,-439.04 849.53,-342.8 904,-281 907.87,-276.61 912.4,-272.57 917.18,-268.9"/>
<polygon fill="#ffaa00" stroke="#ffaa00" stroke-width="1.5" points="919.26,-271.71 925.41,-263.08 915.22,-266 919.26,-271.71"/>
<text text-anchor="middle" x="940.5" y="-284" font-family="JetBrains Mono" font-size="10.00" fill="#cccccc">bypass service</text>
</g>
<!-- dry -->
<g id="node8" class="node">
<title>dry</title>
<path fill="#2a1a0a" stroke="#ffaa00" stroke-width="2" d="M1204,-517C1204,-517 1004,-517 1004,-517 998,-517 992,-511 992,-505 992,-505 992,-491 992,-491 992,-485 998,-479 1004,-479 1004,-479 1204,-479 1204,-479 1210,-479 1216,-485 1216,-491 1216,-491 1216,-505 1216,-505 1216,-511 1210,-517 1204,-517"/>
<text text-anchor="middle" x="1104" y="-501.8" font-family="JetBrains Mono" font-size="14.00" fill="#e6e6e6">DRY_RUN=1 override</text>
<text text-anchor="middle" x="1104" y="-486.8" font-family="JetBrains Mono" font-size="14.00" fill="#e6e6e6">for testing without real orders</text>
</g>
<!-- dry&#45;&gt;proc -->
<g id="edge7" class="edge">
<title>dry&#45;&gt;proc</title>
<path fill="none" stroke="#ffaa00" stroke-width="1.5" stroke-dasharray="5,2" d="M1093.72,-478.88C1068.94,-435.21 1005.82,-323.98 976.46,-272.24"/>
<polygon fill="#ffaa00" stroke="#ffaa00" stroke-width="1.5" points="979.36,-270.27 971.38,-263.3 973.27,-273.72 979.36,-270.27"/>
</g>
<!-- drop -->
<g id="node9" class="node">
<title>drop</title>
<path fill="#2a1a0a" stroke="#ffaa00" stroke-width="2" d="M1459.5,-524.5C1459.5,-524.5 1246.5,-524.5 1246.5,-524.5 1240.5,-524.5 1234.5,-518.5 1234.5,-512.5 1234.5,-512.5 1234.5,-483.5 1234.5,-483.5 1234.5,-477.5 1240.5,-471.5 1246.5,-471.5 1246.5,-471.5 1459.5,-471.5 1459.5,-471.5 1465.5,-471.5 1471.5,-477.5 1471.5,-483.5 1471.5,-483.5 1471.5,-512.5 1471.5,-512.5 1471.5,-518.5 1465.5,-524.5 1459.5,-524.5"/>
<text text-anchor="middle" x="1353" y="-509.3" font-family="JetBrains Mono" font-size="14.00" fill="#e6e6e6">Back&#45;compat:</text>
<text text-anchor="middle" x="1353" y="-494.3" font-family="JetBrains Mono" font-size="14.00" fill="#e6e6e6">if unset, code default = 0.15</text>
<text text-anchor="middle" x="1353" y="-479.3" font-family="JetBrains Mono" font-size="14.00" fill="#e6e6e6">(deployed before service patch)</text>
</g>
<!-- drop&#45;&gt;code -->
<g id="edge8" class="edge">
<title>drop&#45;&gt;code</title>
<path fill="none" stroke="#ffaa00" stroke-width="1.5" stroke-dasharray="5,2" d="M1337.85,-471.25C1315.39,-433.99 1270.95,-363.63 1225,-310 1187.48,-266.2 1137.56,-221.6 1106.1,-194.86"/>
<polygon fill="#ffaa00" stroke="#ffaa00" stroke-width="1.5" points="1108.03,-191.91 1098.13,-188.14 1103.52,-197.26 1108.03,-191.91"/>
</g>
</g>
</svg>
