<?xml version="1.0" encoding="UTF-8" standalone="no"?>
<!DOCTYPE svg PUBLIC "-//W3C//DTD SVG 1.1//EN"
 "http://www.w3.org/Graphics/SVG/1.1/DTD/svg11.dtd">
<!-- Generated by graphviz version 2.43.0 (0)
 -->
<!-- Title: lifecycle Pages: 1 -->
<svg width="3177pt" height="294pt"
 viewBox="0.00 0.00 3176.83 294.48" xmlns="http://www.w3.org/2000/svg" xmlns:xlink="http://www.w3.org/1999/xlink">
<g id="graph0" class="graph" transform="scale(1 1) rotate(0) translate(4 290.48)">
<title>lifecycle</title>
<polygon fill="#0a0e14" stroke="transparent" points="-4,4 -4,-290.48 3172.83,-290.48 3172.83,4 -4,4"/>
<!-- t0 -->
<g id="node1" class="node">
<title>t0</title>
<ellipse fill="#0a2a2a" stroke="#66ffff" stroke-width="2" cx="430.15" cy="-119.48" rx="130.22" ry="37.45"/>
<text text-anchor="middle" x="430.15" y="-130.78" font-family="JetBrains Mono" font-size="14.00" fill="#e6e6e6">T − 90 min</text>
<text text-anchor="middle" x="430.15" y="-115.78" font-family="JetBrains Mono" font-size="14.00" fill="#e6e6e6">data collection</text>
<text text-anchor="middle" x="430.15" y="-100.78" font-family="JetBrains Mono" font-size="14.00" fill="#e6e6e6">(Gemini WS continuous)</text>
</g>
<!-- t3 -->
<g id="node4" class="node">
<title>t3</title>
<path fill="#1a2a1a" stroke="#39ff14" stroke-width="2" d="M815.26,-104.98C815.26,-104.98 642.26,-104.98 642.26,-104.98 636.26,-104.98 630.26,-98.98 630.26,-92.98 630.26,-92.98 630.26,-63.98 630.26,-63.98 630.26,-57.98 636.26,-51.98 642.26,-51.98 642.26,-51.98 815.26,-51.98 815.26,-51.98 821.26,-51.98 827.26,-57.98 827.26,-63.98 827.26,-63.98 827.26,-92.98 827.26,-92.98 827.26,-98.98 821.26,-104.98 815.26,-104.98"/>
<text text-anchor="middle" x="728.76" y="-89.78" font-family="JetBrains Mono" font-size="14.00" fill="#e6e6e6">• fetch candles &amp; OB</text>
<text text-anchor="middle" x="728.76" y="-74.78" font-family="JetBrains Mono" font-size="14.00" fill="#e6e6e6">• classifier P(y&gt;strike)</text>
<text text-anchor="middle" x="728.76" y="-59.78" font-family="JetBrains Mono" font-size="14.00" fill="#e6e6e6">• edge &amp; conviction gates</text>
</g>
<!-- t0&#45;&gt;t3 -->
<g id="edge1" class="edge">
<title>t0&#45;&gt;t3</title>
<path fill="none" stroke="#39ff14" stroke-width="1.5" d="M547.95,-103.33C571.78,-100.04 596.75,-96.59 620.24,-93.34"/>
<polygon fill="#39ff14" stroke="#39ff14" stroke-width="1.5" points="620.78,-96.8 630.21,-91.96 619.82,-89.86 620.78,-96.8"/>
<text text-anchor="middle" x="595.26" y="-101.48" font-family="JetBrains Mono" font-size="10.00" fill="#cccccc">6 feats</text>
</g>
<!-- t1 -->
<g id="node2" class="node">
<title>t1</title>
<ellipse fill="#2a0a2a" stroke="#ff66ff" stroke-width="2" cx="131.52" cy="-37.48" rx="131.54" ry="37.45"/>
<text text-anchor="middle" x="131.52" y="-48.78" font-family="JetBrains Mono" font-size="14.00" fill="#e6e6e6">T − 90 min</text>
<text text-anchor="middle" x="131.52" y="-33.78" font-family="JetBrains Mono" font-size="14.00" fill="#e6e6e6">settlement market listed</text>
<text text-anchor="middle" x="131.52" y="-18.78" font-family="JetBrains Mono" font-size="14.00" fill="#e6e6e6">on Kalshi</text>
</g>
<!-- t2 -->
<g id="node3" class="node">
<title>t2</title>
<path fill="#1a2a1a" stroke="#39ff14" stroke-width="2" d="M504.65,-63.98C504.65,-63.98 355.65,-63.98 355.65,-63.98 349.65,-63.98 343.65,-57.98 343.65,-51.98 343.65,-51.98 343.65,-22.98 343.65,-22.98 343.65,-16.98 349.65,-10.98 355.65,-10.98 355.65,-10.98 504.65,-10.98 504.65,-10.98 510.65,-10.98 516.65,-16.98 516.65,-22.98 516.65,-22.98 516.65,-51.98 516.65,-51.98 516.65,-57.98 510.65,-63.98 504.65,-63.98"/>
<text text-anchor="middle" x="430.15" y="-48.78" font-family="JetBrains Mono" font-size="14.00" fill="#e6e6e6">T − 10 min (or earlier)</text>
<text text-anchor="middle" x="430.15" y="-33.78" font-family="JetBrains Mono" font-size="14.00" fill="#e6e6e6">systemd timer fires</text>
<text text-anchor="middle" x="430.15" y="-18.78" font-family="JetBrains Mono" font-size="14.00" fill="#e6e6e6">auto_trader.py runs</text>
</g>
<!-- t1&#45;&gt;t2 -->
<g id="edge2" class="edge">
<title>t1&#45;&gt;t2</title>
<path fill="none" stroke="#39ff14" stroke-width="1.5" d="M263.06,-37.48C286.65,-37.48 310.84,-37.48 333.22,-37.48"/>
<polygon fill="#39ff14" stroke="#39ff14" stroke-width="1.5" points="333.36,-40.98 343.36,-37.48 333.36,-33.98 333.36,-40.98"/>
</g>
<!-- t2&#45;&gt;t3 -->
<g id="edge3" class="edge">
<title>t2&#45;&gt;t3</title>
<path fill="none" stroke="#39ff14" stroke-width="1.5" d="M516.94,-49.34C549.18,-53.79 586.23,-58.91 620.2,-63.61"/>
<polygon fill="#39ff14" stroke="#39ff14" stroke-width="1.5" points="619.78,-67.08 630.16,-64.99 620.73,-60.15 619.78,-67.08"/>
</g>
<!-- t4 -->
<g id="node5" class="node">
<title>t4</title>
<path fill="#1a2a1a" stroke="#39ff14" stroke-width="2" d="M1073.26,-119.98C1073.26,-119.98 876.26,-119.98 876.26,-119.98 870.26,-119.98 864.26,-113.98 864.26,-107.98 864.26,-107.98 864.26,-48.98 864.26,-48.98 864.26,-42.98 870.26,-36.98 876.26,-36.98 876.26,-36.98 1073.26,-36.98 1073.26,-36.98 1079.26,-36.98 1085.26,-42.98 1085.26,-48.98 1085.26,-48.98 1085.26,-107.98 1085.26,-107.98 1085.26,-113.98 1079.26,-119.98 1073.26,-119.98"/>
<text text-anchor="middle" x="974.76" y="-104.78" font-family="JetBrains Mono" font-size="14.00" fill="#e6e6e6">• Kelly size</text>
<text text-anchor="middle" x="974.76" y="-89.78" font-family="JetBrains Mono" font-size="14.00" fill="#e6e6e6">• regime scale if RSI&#45;extreme</text>
<text text-anchor="middle" x="974.76" y="-74.78" font-family="JetBrains Mono" font-size="14.00" fill="#e6e6e6">• reconcile positions</text>
<text text-anchor="middle" x="974.76" y="-59.78" font-family="JetBrains Mono" font-size="14.00" fill="#e6e6e6">• top&#45;N cap</text>
<text text-anchor="middle" x="974.76" y="-44.78" font-family="JetBrains Mono" font-size="14.00" fill="#e6e6e6">• expiry cap</text>
</g>
<!-- t3&#45;&gt;t4 -->
<g id="edge4" class="edge">
<title>t3&#45;&gt;t4</title>
<path fill="none" stroke="#39ff14" stroke-width="1.5" d="M827.6,-78.48C836.17,-78.48 844.92,-78.48 853.65,-78.48"/>
<polygon fill="#39ff14" stroke="#39ff14" stroke-width="1.5" points="853.88,-81.98 863.88,-78.48 853.88,-74.98 853.88,-81.98"/>
</g>
<!-- t5 -->
<g id="node6" class="node">
<title>t5</title>
<path fill="#1a2a1a" stroke="#39ff14" stroke-width="2" d="M1279.26,-137.48C1279.26,-137.48 1134.26,-137.48 1134.26,-137.48 1128.26,-137.48 1122.26,-131.48 1122.26,-125.48 1122.26,-125.48 1122.26,-111.48 1122.26,-111.48 1122.26,-105.48 1128.26,-99.48 1134.26,-99.48 1134.26,-99.48 1279.26,-99.48 1279.26,-99.48 1285.26,-99.48 1291.26,-105.48 1291.26,-111.48 1291.26,-111.48 1291.26,-125.48 1291.26,-125.48 1291.26,-131.48 1285.26,-137.48 1279.26,-137.48"/>
<text text-anchor="middle" x="1206.76" y="-122.28" font-family="JetBrains Mono" font-size="14.00" fill="#e6e6e6">POST /portfolio/orders</text>
<text text-anchor="middle" x="1206.76" y="-107.28" font-family="JetBrains Mono" font-size="14.00" fill="#e6e6e6">(RSA&#45;PSS signed)</text>
</g>
<!-- t4&#45;&gt;t5 -->
<g id="edge5" class="edge">
<title>t4&#45;&gt;t5</title>
<path fill="none" stroke="#39ff14" stroke-width="1.5" d="M1085.37,-97.54C1094.37,-99.1 1103.4,-100.68 1112.27,-102.22"/>
<polygon fill="#39ff14" stroke="#39ff14" stroke-width="1.5" points="1111.73,-105.68 1122.19,-103.94 1112.93,-98.78 1111.73,-105.68"/>
</g>
<!-- t6 -->
<g id="node7" class="node">
<title>t6</title>
<path fill="#1a2a1a" stroke="#39ff14" stroke-width="2" d="M1537.26,-143.48C1537.26,-143.48 1340.26,-143.48 1340.26,-143.48 1334.26,-143.48 1328.26,-137.48 1328.26,-131.48 1328.26,-131.48 1328.26,-117.48 1328.26,-117.48 1328.26,-111.48 1334.26,-105.48 1340.26,-105.48 1340.26,-105.48 1537.26,-105.48 1537.26,-105.48 1543.26,-105.48 1549.26,-111.48 1549.26,-117.48 1549.26,-117.48 1549.26,-131.48 1549.26,-131.48 1549.26,-137.48 1543.26,-143.48 1537.26,-143.48"/>
<text text-anchor="middle" x="1438.76" y="-128.28" font-family="JetBrains Mono" font-size="14.00" fill="#e6e6e6">order filled</text>
<text text-anchor="middle" x="1438.76" y="-113.28" font-family="JetBrains Mono" font-size="14.00" fill="#e6e6e6">(usually instant at limit price)</text>
</g>
<!-- t5&#45;&gt;t6 -->
<g id="edge6" class="edge">
<title>t5&#45;&gt;t6</title>
<path fill="none" stroke="#39ff14" stroke-width="1.5" d="M1291.44,-120.66C1300.12,-120.89 1309.06,-121.12 1318.04,-121.35"/>
<polygon fill="#39ff14" stroke="#39ff14" stroke-width="1.5" points="1318.08,-124.86 1328.17,-121.62 1318.27,-117.86 1318.08,-124.86"/>
</g>
<!-- t7 -->
<g id="node8" class="node">
<title>t7</title>
<path fill="#2a1a0a" stroke="#ffaa00" stroke-width="2" d="M1704.26,-165.24C1704.26,-168.89 1677.81,-171.85 1645.26,-171.85 1612.7,-171.85 1586.26,-168.89 1586.26,-165.24 1586.26,-165.24 1586.26,-105.72 1586.26,-105.72 1586.26,-102.07 1612.7,-99.1 1645.26,-99.1 1677.81,-99.1 1704.26,-102.07 1704.26,-105.72 1704.26,-105.72 1704.26,-165.24 1704.26,-165.24"/>
<path fill="none" stroke="#ffaa00" stroke-width="2" d="M1704.26,-165.24C1704.26,-161.59 1677.81,-158.62 1645.26,-158.62 1612.7,-158.62 1586.26,-161.59 1586.26,-165.24"/>
<text text-anchor="middle" x="1645.26" y="-146.78" font-family="JetBrains Mono" font-size="14.00" fill="#e6e6e6">auto_trader.db</text>
<text text-anchor="middle" x="1645.26" y="-131.78" font-family="JetBrains Mono" font-size="14.00" fill="#e6e6e6">INSERT trades</text>
<text text-anchor="middle" x="1645.26" y="-116.78" font-family="JetBrains Mono" font-size="14.00" fill="#e6e6e6">INSERT runs</text>
</g>
<!-- t6&#45;&gt;t7 -->
<g id="edge7" class="edge">
<title>t6&#45;&gt;t7</title>
<path fill="none" stroke="#39ff14" stroke-width="1.5" d="M1549.49,-130.38C1558.45,-130.86 1567.33,-131.34 1575.86,-131.8"/>
<polygon fill="#39ff14" stroke="#39ff14" stroke-width="1.5" points="1575.9,-135.3 1586.07,-132.35 1576.27,-128.31 1575.9,-135.3"/>
</g>
<!-- t8 -->
<g id="node9" class="node">
<title>t8</title>
<polygon fill="#2a1a0a" stroke="#ffaa00" stroke-width="2" points="1907.26,-168.48 1741.26,-168.48 1741.26,-130.48 1913.26,-130.48 1913.26,-162.48 1907.26,-168.48"/>
<polyline fill="none" stroke="#ffaa00" stroke-width="2" points="1907.26,-168.48 1907.26,-162.48 "/>
<polyline fill="none" stroke="#ffaa00" stroke-width="2" points="1913.26,-162.48 1907.26,-162.48 "/>
<text text-anchor="middle" x="1827.26" y="-153.28" font-family="JetBrains Mono" font-size="14.00" fill="#e6e6e6">hwm.json</text>
<text text-anchor="middle" x="1827.26" y="-138.28" font-family="JetBrains Mono" font-size="14.00" fill="#e6e6e6">update portfolio_value</text>
</g>
<!-- t7&#45;&gt;t8 -->
<g id="edge8" class="edge">
<title>t7&#45;&gt;t8</title>
<path fill="none" stroke="#39ff14" stroke-width="1.5" d="M1704.7,-140.02C1713.13,-140.68 1721.98,-141.37 1730.9,-142.06"/>
<polygon fill="#39ff14" stroke="#39ff14" stroke-width="1.5" points="1730.74,-145.56 1740.98,-142.84 1731.29,-138.58 1730.74,-145.56"/>
</g>
<!-- t9 -->
<g id="node10" class="node">
<title>t9</title>
<path fill="#3a0a3a" stroke="#ff66ff" stroke-width="3" d="M2232.26,-178.98C2232.26,-178.98 2023.26,-178.98 2023.26,-178.98 2017.26,-178.98 2011.26,-172.98 2011.26,-166.98 2011.26,-166.98 2011.26,-137.98 2011.26,-137.98 2011.26,-131.98 2017.26,-125.98 2023.26,-125.98 2023.26,-125.98 2232.26,-125.98 2232.26,-125.98 2238.26,-125.98 2244.26,-131.98 2244.26,-137.98 2244.26,-137.98 2244.26,-166.98 2244.26,-166.98 2244.26,-172.98 2238.26,-178.98 2232.26,-178.98"/>
<text text-anchor="middle" x="2127.76" y="-163.78" font-family="JetBrains Mono" font-size="14.00" fill="#ffccff">T (settlement tick)</text>
<text text-anchor="middle" x="2127.76" y="-148.78" font-family="JetBrains Mono" font-size="14.00" fill="#ffccff">Kalshi reads BTC index price</text>
<text text-anchor="middle" x="2127.76" y="-133.78" font-family="JetBrains Mono" font-size="14.00" fill="#ffccff">→ contracts resolve to $0 or $1</text>
</g>
<!-- t8&#45;&gt;t9 -->
<g id="edge9" class="edge">
<title>t8&#45;&gt;t9</title>
<path fill="none" stroke="#39ff14" stroke-width="1.5" d="M1913.4,-150.33C1940.6,-150.61 1971.32,-150.91 2000.79,-151.21"/>
<polygon fill="#39ff14" stroke="#39ff14" stroke-width="1.5" points="2001.13,-154.71 2011.16,-151.31 2001.2,-147.71 2001.13,-154.71"/>
<text text-anchor="middle" x="1962.26" y="-164.48" font-family="JetBrains Mono" font-size="10.00" fill="#cccccc">wait</text>
<text text-anchor="middle" x="1962.26" y="-153.48" font-family="JetBrains Mono" font-size="10.00" fill="#cccccc">up to 90 min</text>
</g>
<!-- win -->
<g id="node11" class="node">
<title>win</title>
<ellipse fill="#0a3a0a" stroke="#39ff14" stroke-width="2" cx="2520.54" cy="-268.48" rx="170.07" ry="18"/>
<text text-anchor="middle" x="2520.54" y="-264.78" font-family="JetBrains Mono" font-size="14.00" fill="#aaffaa">WIN &#160;→ cash += contracts × $1.00</text>
</g>
<!-- t9&#45;&gt;win -->
<g id="edge10" class="edge">
<title>t9&#45;&gt;win</title>
<path fill="none" stroke="#39ff14" stroke-width="1.5" d="M2184.91,-179.12C2228.98,-199.02 2292.35,-225.44 2350.26,-241.48 2366.2,-245.89 2383.21,-249.66 2400.05,-252.86"/>
<polygon fill="#39ff14" stroke="#39ff14" stroke-width="1.5" points="2399.48,-256.31 2409.95,-254.68 2400.74,-249.43 2399.48,-256.31"/>
<text text-anchor="middle" x="2297.26" y="-238.48" font-family="JetBrains Mono" font-size="10.00" fill="#cccccc">P(WR)=65%</text>
</g>
<!-- lose -->
<g id="node12" class="node">
<title>lose</title>
<ellipse fill="#2a0a0a" stroke="#ff3333" stroke-width="2" cx="2520.54" cy="-214.48" rx="116.98" ry="18"/>
<text text-anchor="middle" x="2520.54" y="-210.78" font-family="JetBrains Mono" font-size="14.00" fill="#ff9999">LOSE → cash += $0.00</text>
</g>
<!-- t9&#45;&gt;lose -->
<g id="edge11" class="edge">
<title>t9&#45;&gt;lose</title>
<path fill="none" stroke="#39ff14" stroke-width="1.5" d="M2244.42,-170.83C2303.22,-180.16 2373.64,-191.33 2428.52,-200.03"/>
<polygon fill="#39ff14" stroke="#39ff14" stroke-width="1.5" points="2428.15,-203.52 2438.58,-201.63 2429.25,-196.61 2428.15,-203.52"/>
<text text-anchor="middle" x="2297.26" y="-186.48" font-family="JetBrains Mono" font-size="10.00" fill="#cccccc">P(1&#45;WR)=35%</text>
</g>
<!-- ev -->
<g id="node15" class="node">
<title>ev</title>
<polygon fill="#2a1a0a" stroke="#ffcc66" stroke-width="2" points="2672.54,-177.98 2362.54,-177.98 2362.54,-94.98 2678.54,-94.98 2678.54,-171.98 2672.54,-177.98"/>
<polyline fill="none" stroke="#ffcc66" stroke-width="2" points="2672.54,-177.98 2672.54,-171.98 "/>
<polyline fill="none" stroke="#ffcc66" stroke-width="2" points="2678.54,-171.98 2672.54,-171.98 "/>
<text text-anchor="middle" x="2520.54" y="-162.78" font-family="JetBrains Mono" font-size="14.00" fill="#ffcc66">Expected value per trade:</text>
<text text-anchor="middle" x="2520.54" y="-147.78" font-family="JetBrains Mono" font-size="14.00" fill="#ffcc66">EV = WR × (1 − price) − (1 − WR) × price</text>
<text text-anchor="middle" x="2520.54" y="-132.78" font-family="JetBrains Mono" font-size="14.00" fill="#ffcc66">e.g. WR=0.68, price=$0.60</text>
<text text-anchor="middle" x="2520.54" y="-117.78" font-family="JetBrains Mono" font-size="14.00" fill="#ffcc66">→ EV = +$0.26/contract</text>
<text text-anchor="middle" x="2520.54" y="-102.78" font-family="JetBrains Mono" font-size="14.00" fill="#ffcc66">(average long&#45;run, not per trade)</text>
</g>
<!-- t9&#45;&gt;ev -->
<g id="edge16" class="edge">
<title>t9&#45;&gt;ev</title>
<path fill="none" stroke="#ffcc66" stroke-width="1.5" stroke-dasharray="1,5" d="M2244.42,-147.74C2281.44,-146.23 2323.08,-144.52 2362.54,-142.91"/>
</g>
<!-- t10 -->
<g id="node13" class="node">
<title>t10</title>
<path fill="#1a2a1a" stroke="#39ff14" stroke-width="2" d="M2951.83,-240.98C2951.83,-240.98 2739.83,-240.98 2739.83,-240.98 2733.83,-240.98 2727.83,-234.98 2727.83,-228.98 2727.83,-228.98 2727.83,-199.98 2727.83,-199.98 2727.83,-193.98 2733.83,-187.98 2739.83,-187.98 2739.83,-187.98 2951.83,-187.98 2951.83,-187.98 2957.83,-187.98 2963.83,-193.98 2963.83,-199.98 2963.83,-199.98 2963.83,-228.98 2963.83,-228.98 2963.83,-234.98 2957.83,-240.98 2951.83,-240.98"/>
<text text-anchor="middle" x="2845.83" y="-225.78" font-family="JetBrains Mono" font-size="14.00" fill="#e6e6e6">next tick (T + ε)</text>
<text text-anchor="middle" x="2845.83" y="-210.78" font-family="JetBrains Mono" font-size="14.00" fill="#e6e6e6">balance API reflects settled P&amp;L</text>
<text text-anchor="middle" x="2845.83" y="-195.78" font-family="JetBrains Mono" font-size="14.00" fill="#e6e6e6">HWM + drawdown update</text>
</g>
<!-- win&#45;&gt;t10 -->
<g id="edge12" class="edge">
<title>win&#45;&gt;t10</title>
<path fill="none" stroke="#39ff14" stroke-width="1.5" d="M2616.49,-253.6C2640.74,-249.72 2666.76,-245.51 2690.83,-241.48 2699.58,-240.01 2708.6,-238.48 2717.69,-236.93"/>
<polygon fill="#39ff14" stroke="#39ff14" stroke-width="1.5" points="2718.3,-240.37 2727.57,-235.23 2717.12,-233.47 2718.3,-240.37"/>
</g>
<!-- lose&#45;&gt;t10 -->
<g id="edge13" class="edge">
<title>lose&#45;&gt;t10</title>
<path fill="none" stroke="#39ff14" stroke-width="1.5" d="M2637.8,-214.48C2663.72,-214.48 2691.34,-214.48 2717.68,-214.48"/>
<polygon fill="#39ff14" stroke="#39ff14" stroke-width="1.5" points="2717.7,-217.98 2727.7,-214.48 2717.7,-210.98 2717.7,-217.98"/>
</g>
<!-- t11 -->
<g id="node14" class="node">
<title>t11</title>
<path fill="#1a2a1a" stroke="#39ff14" stroke-width="2" d="M3156.83,-104.98C3156.83,-104.98 3012.83,-104.98 3012.83,-104.98 3006.83,-104.98 3000.83,-98.98 3000.83,-92.98 3000.83,-92.98 3000.83,-63.98 3000.83,-63.98 3000.83,-57.98 3006.83,-51.98 3012.83,-51.98 3012.83,-51.98 3156.83,-51.98 3156.83,-51.98 3162.83,-51.98 3168.83,-57.98 3168.83,-63.98 3168.83,-63.98 3168.83,-92.98 3168.83,-92.98 3168.83,-98.98 3162.83,-104.98 3156.83,-104.98"/>
<text text-anchor="middle" x="3084.83" y="-89.78" font-family="JetBrains Mono" font-size="14.00" fill="#e6e6e6">feedback into sizing:</text>
<text text-anchor="middle" x="3084.83" y="-74.78" font-family="JetBrains Mono" font-size="14.00" fill="#e6e6e6">shrunk bankroll</text>
<text text-anchor="middle" x="3084.83" y="-59.78" font-family="JetBrains Mono" font-size="14.00" fill="#e6e6e6">→ smaller next stakes</text>
</g>
<!-- t10&#45;&gt;t11 -->
<g id="edge14" class="edge">
<title>t10&#45;&gt;t11</title>
<path fill="none" stroke="#39ff14" stroke-width="1.5" d="M2893.09,-187.93C2931.87,-165.68 2987.34,-133.85 3028.47,-110.24"/>
<polygon fill="#39ff14" stroke="#39ff14" stroke-width="1.5" points="3030.35,-113.2 3037.28,-105.19 3026.87,-107.13 3030.35,-113.2"/>
</g>
<!-- t11&#45;&gt;t4 -->
<g id="edge15" class="edge">
<title>t11&#45;&gt;t4</title>
<path fill="none" stroke="#aaff66" stroke-width="1.5" stroke-dasharray="5,2" d="M3000.8,-72.21C2955.35,-69.3 2898.02,-66.48 2846.83,-66.48 1205.76,-66.48 1205.76,-66.48 1205.76,-66.48 1170,-66.48 1131.16,-67.94 1095.76,-69.85"/>
<polygon fill="#aaff66" stroke="#aaff66" stroke-width="1.5" points="1095.17,-66.37 1085.38,-70.42 1095.56,-73.36 1095.17,-66.37"/>
<text text-anchor="middle" x="1827.26" y="-69.48" font-family="JetBrains Mono" font-size="10.00" fill="#cccccc">next&#45;run sizing</text>
</g>
</g>
</svg>
