<?xml version="1.0" encoding="UTF-8" standalone="no"?>
<!DOCTYPE svg PUBLIC "-//W3C//DTD SVG 1.1//EN"
 "http://www.w3.org/Graphics/SVG/1.1/DTD/svg11.dtd">
<!-- Generated by graphviz version 2.43.0 (0)
 -->
<!-- Title: ensemble_routing Pages: 1 -->
<svg width="1487pt" height="457pt"
 viewBox="0.00 0.00 1486.57 456.50" xmlns="http://www.w3.org/2000/svg" xmlns:xlink="http://www.w3.org/1999/xlink">
<g id="graph0" class="graph" transform="scale(1 1) rotate(0) translate(4 452.5)">
<title>ensemble_routing</title>
<polygon fill="#0a0e14" stroke="transparent" points="-4,4 -4,-452.5 1482.57,-452.5 1482.57,4 -4,4"/>
<g id="clust1" class="cluster">
<title>cluster_models</title>
<path fill="#1a0a1a" stroke="#ff66ff" stroke-width="2" d="M686.14,-67.5C686.14,-67.5 862.14,-67.5 862.14,-67.5 868.14,-67.5 874.14,-73.5 874.14,-79.5 874.14,-79.5 874.14,-428.5 874.14,-428.5 874.14,-434.5 868.14,-440.5 862.14,-440.5 862.14,-440.5 686.14,-440.5 686.14,-440.5 680.14,-440.5 674.14,-434.5 674.14,-428.5 674.14,-428.5 674.14,-79.5 674.14,-79.5 674.14,-73.5 680.14,-67.5 686.14,-67.5"/>
<text text-anchor="middle" x="774.14" y="-425.3" font-family="JetBrains Mono" font-size="14.00" fill="#ff66ff">Trained models (GPU/CPU)</text>
</g>
<g id="clust2" class="cluster">
<title>cluster_vote</title>
<path fill="#0a1a1a" stroke="#00ffff" stroke-width="2" d="M911.64,-195.5C911.64,-195.5 1151.64,-195.5 1151.64,-195.5 1157.64,-195.5 1163.64,-201.5 1163.64,-207.5 1163.64,-207.5 1163.64,-347.5 1163.64,-347.5 1163.64,-353.5 1157.64,-359.5 1151.64,-359.5 1151.64,-359.5 911.64,-359.5 911.64,-359.5 905.64,-359.5 899.64,-353.5 899.64,-347.5 899.64,-347.5 899.64,-207.5 899.64,-207.5 899.64,-201.5 905.64,-195.5 911.64,-195.5"/>
<text text-anchor="middle" x="1031.64" y="-344.3" font-family="JetBrains Mono" font-size="14.00" fill="#66ffff">Vote modes (env&#45;selectable)</text>
</g>
<!-- input -->
<g id="node1" class="node">
<title>input</title>
<ellipse fill="#0a3a0a" stroke="#39ff14" stroke-width="3" cx="126.57" cy="-163.5" rx="126.64" ry="26.74"/>
<text text-anchor="middle" x="126.57" y="-167.3" font-family="JetBrains Mono" font-size="14.00" fill="#e6e6e6">strike candidate</text>
<text text-anchor="middle" x="126.57" y="-152.3" font-family="JetBrains Mono" font-size="14.00" fill="#e6e6e6">(base_feats, dist, mins)</text>
</g>
<!-- router -->
<g id="node2" class="node">
<title>router</title>
<path fill="#1a2a1a" stroke="#39ff14" stroke-width="2" d="M439.47,-198.74C439.47,-198.74 301.82,-166.26 301.82,-166.26 295.98,-164.88 295.98,-162.12 301.82,-160.74 301.82,-160.74 439.47,-128.26 439.47,-128.26 445.3,-126.88 456.98,-126.88 462.82,-128.26 462.82,-128.26 600.47,-160.74 600.47,-160.74 606.3,-162.12 606.3,-164.88 600.47,-166.26 600.47,-166.26 462.82,-198.74 462.82,-198.74 456.98,-200.12 445.3,-200.12 439.47,-198.74"/>
<text text-anchor="middle" x="451.14" y="-167.3" font-family="JetBrains Mono" font-size="14.00" fill="#e6e6e6">bucket_for(mins)</text>
<text text-anchor="middle" x="451.14" y="-152.3" font-family="JetBrains Mono" font-size="14.00" fill="#e6e6e6">mins → bucket index</text>
</g>
<!-- input&#45;&gt;router -->
<g id="edge1" class="edge">
<title>input&#45;&gt;router</title>
<path fill="none" stroke="#39ff14" stroke-width="1.5" d="M253.21,-163.5C262.01,-163.5 270.97,-163.5 279.96,-163.5"/>
<polygon fill="#39ff14" stroke="#39ff14" stroke-width="1.5" points="280.12,-167 290.12,-163.5 280.12,-160 280.12,-167"/>
</g>
<!-- early -->
<g id="node3" class="node">
<title>early</title>
<path fill="#3a0a3a" stroke="#ff66ff" stroke-width="2" d="M849.14,-409C849.14,-409 699.14,-409 699.14,-409 693.14,-409 687.14,-403 687.14,-397 687.14,-397 687.14,-322 687.14,-322 687.14,-316 693.14,-310 699.14,-310 699.14,-310 849.14,-310 849.14,-310 855.14,-310 861.14,-316 861.14,-322 861.14,-322 861.14,-397 861.14,-397 861.14,-403 855.14,-409 849.14,-409"/>
<text text-anchor="middle" x="774.14" y="-393.8" font-family="JetBrains Mono" font-size="14.00" fill="#ffccff">classifier_early.pkl</text>
<text text-anchor="middle" x="774.14" y="-378.8" font-family="JetBrains Mono" font-size="14.00" fill="#ffccff">horizons [10, 25) min</text>
<text text-anchor="middle" x="774.14" y="-347.8" font-family="JetBrains Mono" font-size="14.00" fill="#ffccff">2.7M train samples</text>
<text text-anchor="middle" x="774.14" y="-332.8" font-family="JetBrains Mono" font-size="14.00" fill="#ffccff">WR 68.4% &#160;EV +0.094</text>
<text text-anchor="middle" x="774.14" y="-317.8" font-family="JetBrains Mono" font-size="14.00" fill="#ffccff">best_iter 277</text>
</g>
<!-- router&#45;&gt;early -->
<g id="edge2" class="edge">
<title>router&#45;&gt;early</title>
<path fill="none" stroke="#aaff66" stroke-width="1.5" d="M495.74,-191.07C540.36,-219.17 611.79,-263.86 674.14,-301.5 675.87,-302.54 677.62,-303.59 679.38,-304.65"/>
<polygon fill="#aaff66" stroke="#aaff66" stroke-width="1.5" points="677.89,-307.84 688.27,-309.97 681.49,-301.83 677.89,-307.84"/>
<text text-anchor="middle" x="647.14" y="-296.5" font-family="JetBrains Mono" font-size="10.00" fill="#cccccc">12 min</text>
</g>
<!-- mid -->
<g id="node4" class="node">
<title>mid</title>
<path fill="#3a0a3a" stroke="#ff66ff" stroke-width="3" d="M849.14,-175C849.14,-175 699.14,-175 699.14,-175 693.14,-175 687.14,-169 687.14,-163 687.14,-163 687.14,-88 687.14,-88 687.14,-82 693.14,-76 699.14,-76 699.14,-76 849.14,-76 849.14,-76 855.14,-76 861.14,-82 861.14,-88 861.14,-88 861.14,-163 861.14,-163 861.14,-169 855.14,-175 849.14,-175"/>
<text text-anchor="middle" x="774.14" y="-159.8" font-family="JetBrains Mono" font-size="14.00" fill="#ffccff">classifier_mid.pkl</text>
<text text-anchor="middle" x="774.14" y="-144.8" font-family="JetBrains Mono" font-size="14.00" fill="#ffccff">horizons [25, 50) min</text>
<text text-anchor="middle" x="774.14" y="-113.8" font-family="JetBrains Mono" font-size="14.00" fill="#ffccff">3.6M train samples</text>
<text text-anchor="middle" x="774.14" y="-98.8" font-family="JetBrains Mono" font-size="14.00" fill="#ffccff">WR 71.3% &#160;EV +0.096</text>
<text text-anchor="middle" x="774.14" y="-83.8" font-family="JetBrains Mono" font-size="14.00" fill="#ffccff">best_iter 267</text>
</g>
<!-- router&#45;&gt;mid -->
<g id="edge3" class="edge">
<title>router&#45;&gt;mid</title>
<path fill="none" stroke="#ff66ff" stroke-width="1.5" d="M559.03,-150.85C597.04,-146.35 639.58,-141.31 676.67,-136.92"/>
<polygon fill="#ff66ff" stroke="#ff66ff" stroke-width="1.5" points="677.46,-140.35 686.98,-135.7 676.63,-133.4 677.46,-140.35"/>
<text text-anchor="middle" x="647.14" y="-144.5" font-family="JetBrains Mono" font-size="10.00" fill="#cccccc">35 min</text>
</g>
<!-- late -->
<g id="node5" class="node">
<title>late</title>
<path fill="#3a0a3a" stroke="#ff66ff" stroke-width="2" d="M849.14,-292C849.14,-292 699.14,-292 699.14,-292 693.14,-292 687.14,-286 687.14,-280 687.14,-280 687.14,-205 687.14,-205 687.14,-199 693.14,-193 699.14,-193 699.14,-193 849.14,-193 849.14,-193 855.14,-193 861.14,-199 861.14,-205 861.14,-205 861.14,-280 861.14,-280 861.14,-286 855.14,-292 849.14,-292"/>
<text text-anchor="middle" x="774.14" y="-276.8" font-family="JetBrains Mono" font-size="14.00" fill="#ffccff">classifier_late.pkl</text>
<text text-anchor="middle" x="774.14" y="-261.8" font-family="JetBrains Mono" font-size="14.00" fill="#ffccff">horizons [50, 90] min</text>
<text text-anchor="middle" x="774.14" y="-230.8" font-family="JetBrains Mono" font-size="14.00" fill="#ffccff">4.4M train samples</text>
<text text-anchor="middle" x="774.14" y="-215.8" font-family="JetBrains Mono" font-size="14.00" fill="#ffccff">WR 67.9% &#160;EV +0.086</text>
<text text-anchor="middle" x="774.14" y="-200.8" font-family="JetBrains Mono" font-size="14.00" fill="#ffccff">best_iter 288</text>
</g>
<!-- router&#45;&gt;late -->
<g id="edge4" class="edge">
<title>router&#45;&gt;late</title>
<path fill="none" stroke="#ffaa00" stroke-width="1.5" d="M530.67,-182.83C574.86,-193.7 630.38,-207.36 677.13,-218.87"/>
<polygon fill="#ffaa00" stroke="#ffaa00" stroke-width="1.5" points="676.43,-222.3 686.97,-221.29 678.1,-215.5 676.43,-222.3"/>
<text text-anchor="middle" x="647.14" y="-217.5" font-family="JetBrains Mono" font-size="10.00" fill="#cccccc">70 min</text>
</g>
<!-- fallback -->
<g id="node9" class="node">
<title>fallback</title>
<path fill="#2a1a0a" stroke="#ffaa00" stroke-width="2" d="M1131.64,-53C1131.64,-53 931.64,-53 931.64,-53 925.64,-53 919.64,-47 919.64,-41 919.64,-41 919.64,-12 919.64,-12 919.64,-6 925.64,0 931.64,0 931.64,0 1131.64,0 1131.64,0 1137.64,0 1143.64,-6 1143.64,-12 1143.64,-12 1143.64,-41 1143.64,-41 1143.64,-47 1137.64,-53 1131.64,-53"/>
<text text-anchor="middle" x="1031.64" y="-37.8" font-family="JetBrains Mono" font-size="14.00" fill="#ffcc66">classifier_model.pkl</text>
<text text-anchor="middle" x="1031.64" y="-22.8" font-family="JetBrains Mono" font-size="14.00" fill="#ffcc66">(unified, all horizons)</text>
<text text-anchor="middle" x="1031.64" y="-7.8" font-family="JetBrains Mono" font-size="14.00" fill="#ffcc66">loaded if NO bucket pkls exist</text>
</g>
<!-- router&#45;&gt;fallback -->
<g id="edge13" class="edge">
<title>router&#45;&gt;fallback</title>
<path fill="none" stroke="#ffaa00" stroke-width="1.5" stroke-dasharray="5,2" d="M491.02,-134.8C533.54,-105.24 604.89,-60.84 674.14,-41.5 750.35,-20.22 839.25,-16.44 909.21,-18"/>
<polygon fill="#ffaa00" stroke="#ffaa00" stroke-width="1.5" points="909.3,-21.5 919.39,-18.26 909.49,-14.5 909.3,-21.5"/>
<text text-anchor="middle" x="774.14" y="-55.5" font-family="JetBrains Mono" font-size="10.00" fill="#cccccc">fallback</text>
<text text-anchor="middle" x="774.14" y="-44.5" font-family="JetBrains Mono" font-size="10.00" fill="#cccccc">(bucket pkls missing)</text>
</g>
<!-- vb -->
<g id="node7" class="node">
<title>vb</title>
<path fill="#0a2a2a" stroke="#66ffff" stroke-width="2" d="M1122.64,-257C1122.64,-257 940.64,-257 940.64,-257 934.64,-257 928.64,-251 928.64,-245 928.64,-245 928.64,-216 928.64,-216 928.64,-210 934.64,-204 940.64,-204 940.64,-204 1122.64,-204 1122.64,-204 1128.64,-204 1134.64,-210 1134.64,-216 1134.64,-216 1134.64,-245 1134.64,-245 1134.64,-251 1128.64,-257 1122.64,-257"/>
<text text-anchor="middle" x="1031.64" y="-241.8" font-family="JetBrains Mono" font-size="14.00" fill="#e6e6e6">vote=&#39;bucket&#39; (default)</text>
<text text-anchor="middle" x="1031.64" y="-226.8" font-family="JetBrains Mono" font-size="14.00" fill="#e6e6e6">route to owning model only</text>
<text text-anchor="middle" x="1031.64" y="-211.8" font-family="JetBrains Mono" font-size="14.00" fill="#e6e6e6">→ specialist prediction</text>
</g>
<!-- early&#45;&gt;vb -->
<g id="edge5" class="edge">
<title>early&#45;&gt;vb</title>
<path fill="none" stroke="#39ff14" stroke-width="1.5" d="M861.5,-311.96C865.91,-308.6 870.16,-305.11 874.14,-301.5 888.41,-288.59 883.81,-277.44 899.64,-266.5 905.71,-262.31 912.26,-258.6 919.07,-255.32"/>
<polygon fill="#39ff14" stroke="#39ff14" stroke-width="1.5" points="920.79,-258.39 928.5,-251.12 917.94,-251.99 920.79,-258.39"/>
</g>
<!-- va -->
<g id="node8" class="node">
<title>va</title>
<path fill="#0a2a2a" stroke="#66ffff" stroke-width="2" d="M1143.64,-328C1143.64,-328 919.64,-328 919.64,-328 913.64,-328 907.64,-322 907.64,-316 907.64,-316 907.64,-287 907.64,-287 907.64,-281 913.64,-275 919.64,-275 919.64,-275 1143.64,-275 1143.64,-275 1149.64,-275 1155.64,-281 1155.64,-287 1155.64,-287 1155.64,-316 1155.64,-316 1155.64,-322 1149.64,-328 1143.64,-328"/>
<text text-anchor="middle" x="1031.64" y="-312.8" font-family="JetBrains Mono" font-size="14.00" fill="#e6e6e6">vote=&#39;avg&#39;</text>
<text text-anchor="middle" x="1031.64" y="-297.8" font-family="JetBrains Mono" font-size="14.00" fill="#e6e6e6">avg across all 3 models</text>
<text text-anchor="middle" x="1031.64" y="-282.8" font-family="JetBrains Mono" font-size="14.00" fill="#e6e6e6">→ ensemble&#45;smoothed prediction</text>
</g>
<!-- early&#45;&gt;va -->
<g id="edge8" class="edge">
<title>early&#45;&gt;va</title>
<path fill="none" stroke="#66ffff" stroke-width="1.5" stroke-dasharray="5,2" d="M861.29,-339.94C874.94,-336.85 889.31,-333.58 903.66,-330.33"/>
<polygon fill="#66ffff" stroke="#66ffff" stroke-width="1.5" points="904.61,-333.7 913.59,-328.07 903.06,-326.87 904.61,-333.7"/>
</g>
<!-- mid&#45;&gt;vb -->
<g id="edge6" class="edge">
<title>mid&#45;&gt;vb</title>
<path fill="none" stroke="#39ff14" stroke-width="1.5" d="M858.19,-175.06C871.78,-182.14 885.91,-188.9 899.64,-194.5 905.81,-197.01 912.2,-199.41 918.71,-201.68"/>
<polygon fill="#39ff14" stroke="#39ff14" stroke-width="1.5" points="917.7,-205.04 928.3,-204.93 919.95,-198.41 917.7,-205.04"/>
</g>
<!-- mid&#45;&gt;va -->
<g id="edge9" class="edge">
<title>mid&#45;&gt;va</title>
<path fill="none" stroke="#66ffff" stroke-width="1.5" stroke-dasharray="5,2" d="M861.24,-170.82C865.94,-175.07 870.31,-179.63 874.14,-184.5 897.77,-214.48 872.12,-240.06 899.64,-266.5 900.33,-267.16 901.03,-267.81 901.74,-268.44"/>
<polygon fill="#66ffff" stroke="#66ffff" stroke-width="1.5" points="899.71,-271.3 909.71,-274.81 904.08,-265.83 899.71,-271.3"/>
</g>
<!-- perf -->
<g id="node10" class="node">
<title>perf</title>
<polygon fill="#2a1a0a" stroke="#ffcc66" stroke-width="2" points="1154.14,-185.5 903.14,-185.5 903.14,-71.5 1160.14,-71.5 1160.14,-179.5 1154.14,-185.5"/>
<polyline fill="none" stroke="#ffcc66" stroke-width="2" points="1154.14,-185.5 1154.14,-179.5 "/>
<polyline fill="none" stroke="#ffcc66" stroke-width="2" points="1160.14,-179.5 1154.14,-179.5 "/>
<text text-anchor="middle" x="1031.64" y="-170.3" font-family="JetBrains Mono" font-size="14.00" fill="#ffcc66">Mid bucket is the standout:</text>
<text text-anchor="middle" x="1031.64" y="-155.3" font-family="JetBrains Mono" font-size="14.00" fill="#ffcc66">71.3% WR vs 68.3% unified</text>
<text text-anchor="middle" x="1031.64" y="-140.3" font-family="JetBrains Mono" font-size="14.00" fill="#ffcc66">(+3pp from horizon specialization)</text>
<text text-anchor="middle" x="1031.64" y="-109.3" font-family="JetBrains Mono" font-size="14.00" fill="#ffcc66">Longer horizons = noisier;</text>
<text text-anchor="middle" x="1031.64" y="-94.3" font-family="JetBrains Mono" font-size="14.00" fill="#ffcc66">late bucket trained on 5 horizons</text>
<text text-anchor="middle" x="1031.64" y="-79.3" font-family="JetBrains Mono" font-size="14.00" fill="#ffcc66">but still shows 67.9% — on par</text>
</g>
<!-- mid&#45;&gt;perf -->
<g id="edge15" class="edge">
<title>mid&#45;&gt;perf</title>
<path fill="none" stroke="#ffcc66" stroke-width="1.5" stroke-dasharray="1,5" d="M861.29,-126.51C874.76,-126.67 888.93,-126.84 903.09,-127"/>
</g>
<!-- late&#45;&gt;vb -->
<g id="edge7" class="edge">
<title>late&#45;&gt;vb</title>
<path fill="none" stroke="#39ff14" stroke-width="1.5" d="M861.29,-238.45C879.59,-237.59 899.16,-236.68 918.27,-235.78"/>
<polygon fill="#39ff14" stroke="#39ff14" stroke-width="1.5" points="918.7,-239.26 928.52,-235.3 918.37,-232.27 918.7,-239.26"/>
</g>
<!-- late&#45;&gt;va -->
<g id="edge10" class="edge">
<title>late&#45;&gt;va</title>
<path fill="none" stroke="#66ffff" stroke-width="1.5" stroke-dasharray="5,2" d="M861.43,-282.68C869.01,-285.3 876.65,-287.63 884.14,-289.5 888.51,-290.59 892.97,-291.58 897.49,-292.5"/>
<polygon fill="#66ffff" stroke="#66ffff" stroke-width="1.5" points="896.99,-295.96 907.47,-294.35 898.28,-289.08 896.99,-295.96"/>
</g>
<!-- prob -->
<g id="node6" class="node">
<title>prob</title>
<ellipse fill="#0a3a0a" stroke="#39ff14" stroke-width="3" cx="1337.86" cy="-230.5" rx="140.93" ry="26.74"/>
<text text-anchor="middle" x="1337.86" y="-234.3" font-family="JetBrains Mono" font-size="14.00" fill="#e6e6e6">clf_prob</text>
<text text-anchor="middle" x="1337.86" y="-219.3" font-family="JetBrains Mono" font-size="14.00" fill="#e6e6e6">= P(BTC &gt; strike at settle)</text>
</g>
<!-- vb&#45;&gt;prob -->
<g id="edge11" class="edge">
<title>vb&#45;&gt;prob</title>
<path fill="none" stroke="#39ff14" stroke-width="1.5" d="M1134.79,-230.5C1151.53,-230.5 1169.17,-230.5 1186.78,-230.5"/>
<polygon fill="#39ff14" stroke="#39ff14" stroke-width="1.5" points="1187.14,-234 1197.14,-230.5 1187.14,-227 1187.14,-234"/>
</g>
<!-- va&#45;&gt;prob -->
<g id="edge12" class="edge">
<title>va&#45;&gt;prob</title>
<path fill="none" stroke="#66ffff" stroke-width="1.5" stroke-dasharray="5,2" d="M1146.35,-274.96C1176.53,-267.92 1208.86,-260.37 1238.16,-253.54"/>
<polygon fill="#66ffff" stroke="#66ffff" stroke-width="1.5" points="1239.03,-256.93 1247.97,-251.24 1237.44,-250.11 1239.03,-256.93"/>
</g>
<!-- fallback&#45;&gt;prob -->
<g id="edge14" class="edge">
<title>fallback&#45;&gt;prob</title>
<path fill="none" stroke="#ffaa00" stroke-width="1.5" stroke-dasharray="5,2" d="M1143.97,-52.78C1150.78,-55.7 1157.4,-58.93 1163.64,-62.5 1224.01,-96.99 1278.9,-157.36 1310.04,-195.57"/>
<polygon fill="#ffaa00" stroke="#ffaa00" stroke-width="1.5" points="1307.7,-198.24 1316.7,-203.83 1313.15,-193.85 1307.7,-198.24"/>
</g>
</g>
</svg>
