<?xml version="1.0" encoding="UTF-8" standalone="no"?>
<!DOCTYPE svg PUBLIC "-//W3C//DTD SVG 1.1//EN"
 "http://www.w3.org/Graphics/SVG/1.1/DTD/svg11.dtd">
<!-- Generated by graphviz version 2.43.0 (0)
 -->
<!-- Title: training Pages: 1 -->
<svg width="756pt" height="1385pt"
 viewBox="0.00 0.00 755.78 1384.83" xmlns="http://www.w3.org/2000/svg" xmlns:xlink="http://www.w3.org/1999/xlink">
<g id="graph0" class="graph" transform="scale(1 1) rotate(0) translate(4 1380.83)">
<title>training</title>
<polygon fill="#0a0e14" stroke="transparent" points="-4,4 -4,-1380.83 751.78,-1380.83 751.78,4 -4,4"/>
<g id="clust1" class="cluster">
<title>cluster_samples</title>
<path fill="#1a0a1a" stroke="#ff66ff" stroke-width="2" d="M204.78,-718.95C204.78,-718.95 504.78,-718.95 504.78,-718.95 510.78,-718.95 516.78,-724.95 516.78,-730.95 516.78,-730.95 516.78,-979.95 516.78,-979.95 516.78,-985.95 510.78,-991.95 504.78,-991.95 504.78,-991.95 204.78,-991.95 204.78,-991.95 198.78,-991.95 192.78,-985.95 192.78,-979.95 192.78,-979.95 192.78,-730.95 192.78,-730.95 192.78,-724.95 198.78,-718.95 204.78,-718.95"/>
<text text-anchor="middle" x="354.78" y="-976.75" font-family="JetBrains Mono" font-size="14.00" fill="#ff66ff">build_samples() per horizon</text>
</g>
<g id="clust2" class="cluster">
<title>cluster_train</title>
<path fill="#0a1a1a" stroke="#00ffff" stroke-width="2" d="M227.78,-382.95C227.78,-382.95 481.78,-382.95 481.78,-382.95 487.78,-382.95 493.78,-388.95 493.78,-394.95 493.78,-394.95 493.78,-687.95 493.78,-687.95 493.78,-693.95 487.78,-699.95 481.78,-699.95 481.78,-699.95 227.78,-699.95 227.78,-699.95 221.78,-699.95 215.78,-693.95 215.78,-687.95 215.78,-687.95 215.78,-394.95 215.78,-394.95 215.78,-388.95 221.78,-382.95 227.78,-382.95"/>
<text text-anchor="middle" x="354.78" y="-684.75" font-family="JetBrains Mono" font-size="14.00" fill="#66ffff">XGBoost GPU training</text>
</g>
<g id="clust3" class="cluster">
<title>cluster_gate</title>
<path fill="#0a1a0a" stroke="#39ff14" stroke-width="2" d="M230.78,-113.95C230.78,-113.95 478.78,-113.95 478.78,-113.95 484.78,-113.95 490.78,-119.95 490.78,-125.95 490.78,-125.95 490.78,-351.95 490.78,-351.95 490.78,-357.95 484.78,-363.95 478.78,-363.95 478.78,-363.95 230.78,-363.95 230.78,-363.95 224.78,-363.95 218.78,-357.95 218.78,-351.95 218.78,-351.95 218.78,-125.95 218.78,-125.95 218.78,-119.95 224.78,-113.95 230.78,-113.95"/>
<text text-anchor="middle" x="354.78" y="-348.75" font-family="JetBrains Mono" font-size="14.00" fill="#aaff66">Deployment gate</text>
</g>
<!-- csv -->
<g id="node1" class="node">
<title>csv</title>
<path fill="#2a1a0a" stroke="#ffaa00" stroke-width="3" d="M494.78,-1370.15C494.78,-1373.8 432.03,-1376.77 354.78,-1376.77 277.53,-1376.77 214.78,-1373.8 214.78,-1370.15 214.78,-1370.15 214.78,-1310.63 214.78,-1310.63 214.78,-1306.98 277.53,-1304.02 354.78,-1304.02 432.03,-1304.02 494.78,-1306.98 494.78,-1310.63 494.78,-1310.63 494.78,-1370.15 494.78,-1370.15"/>
<path fill="none" stroke="#ffaa00" stroke-width="3" d="M494.78,-1370.15C494.78,-1366.5 432.03,-1363.54 354.78,-1363.54 277.53,-1363.54 214.78,-1366.5 214.78,-1370.15"/>
<text text-anchor="middle" x="354.78" y="-1351.69" font-family="JetBrains Mono" font-size="14.00" fill="#e6e6e6">historical_candle_data_btcusd_full.csv</text>
<text text-anchor="middle" x="354.78" y="-1336.69" font-family="JetBrains Mono" font-size="14.00" fill="#e6e6e6">523K rows × 1&#45;min candles</text>
<text text-anchor="middle" x="354.78" y="-1321.69" font-family="JetBrains Mono" font-size="14.00" fill="#e6e6e6">~364 days</text>
</g>
<!-- trim -->
<g id="node2" class="node">
<title>trim</title>
<path fill="#1a2a1a" stroke="#39ff14" stroke-width="2" d="M409.78,-1266.95C409.78,-1266.95 299.78,-1266.95 299.78,-1266.95 293.78,-1266.95 287.78,-1260.95 287.78,-1254.95 287.78,-1254.95 287.78,-1240.95 287.78,-1240.95 287.78,-1234.95 293.78,-1228.95 299.78,-1228.95 299.78,-1228.95 409.78,-1228.95 409.78,-1228.95 415.78,-1228.95 421.78,-1234.95 421.78,-1240.95 421.78,-1240.95 421.78,-1254.95 421.78,-1254.95 421.78,-1260.95 415.78,-1266.95 409.78,-1266.95"/>
<text text-anchor="middle" x="354.78" y="-1251.75" font-family="JetBrains Mono" font-size="14.00" fill="#e6e6e6">trim to &#45;&#45;days 90</text>
<text text-anchor="middle" x="354.78" y="-1236.75" font-family="JetBrains Mono" font-size="14.00" fill="#e6e6e6">→ ~129K bars</text>
</g>
<!-- csv&#45;&gt;trim -->
<g id="edge1" class="edge">
<title>csv&#45;&gt;trim</title>
<path fill="none" stroke="#39ff14" stroke-width="1.5" d="M354.78,-1303.91C354.78,-1295.07 354.78,-1285.71 354.78,-1277.27"/>
<polygon fill="#39ff14" stroke="#39ff14" stroke-width="1.5" points="358.28,-1277.18 354.78,-1267.18 351.28,-1277.18 358.28,-1277.18"/>
</g>
<!-- feats -->
<g id="node3" class="node">
<title>feats</title>
<path fill="#1a2a1a" stroke="#39ff14" stroke-width="2" d="M472.78,-1191.95C472.78,-1191.95 236.78,-1191.95 236.78,-1191.95 230.78,-1191.95 224.78,-1185.95 224.78,-1179.95 224.78,-1179.95 224.78,-1135.95 224.78,-1135.95 224.78,-1129.95 230.78,-1123.95 236.78,-1123.95 236.78,-1123.95 472.78,-1123.95 472.78,-1123.95 478.78,-1123.95 484.78,-1129.95 484.78,-1135.95 484.78,-1135.95 484.78,-1179.95 484.78,-1179.95 484.78,-1185.95 478.78,-1191.95 472.78,-1191.95"/>
<text text-anchor="middle" x="354.78" y="-1176.75" font-family="JetBrains Mono" font-size="14.00" fill="#e6e6e6">load_and_engineer()</text>
<text text-anchor="middle" x="354.78" y="-1161.75" font-family="JetBrains Mono" font-size="14.00" fill="#e6e6e6">price_rel_ma, volatility,</text>
<text text-anchor="middle" x="354.78" y="-1146.75" font-family="JetBrains Mono" font-size="14.00" fill="#e6e6e6">momentum, rsi, ma_slope, amount</text>
<text text-anchor="middle" x="354.78" y="-1131.75" font-family="JetBrains Mono" font-size="14.00" fill="#e6e6e6">(rolling window = 5)</text>
</g>
<!-- trim&#45;&gt;feats -->
<g id="edge2" class="edge">
<title>trim&#45;&gt;feats</title>
<path fill="none" stroke="#39ff14" stroke-width="1.5" d="M354.78,-1228.72C354.78,-1220.96 354.78,-1211.54 354.78,-1202.17"/>
<polygon fill="#39ff14" stroke="#39ff14" stroke-width="1.5" points="358.28,-1202.1 354.78,-1192.1 351.28,-1202.1 358.28,-1202.1"/>
</g>
<!-- split -->
<g id="node4" class="node">
<title>split</title>
<path fill="#1a2a1a" stroke="#39ff14" stroke-width="2" d="M462.78,-1086.95C462.78,-1086.95 246.78,-1086.95 246.78,-1086.95 240.78,-1086.95 234.78,-1080.95 234.78,-1074.95 234.78,-1074.95 234.78,-1030.95 234.78,-1030.95 234.78,-1024.95 240.78,-1018.95 246.78,-1018.95 246.78,-1018.95 462.78,-1018.95 462.78,-1018.95 468.78,-1018.95 474.78,-1024.95 474.78,-1030.95 474.78,-1030.95 474.78,-1074.95 474.78,-1074.95 474.78,-1080.95 468.78,-1086.95 462.78,-1086.95"/>
<text text-anchor="middle" x="354.78" y="-1071.75" font-family="JetBrains Mono" font-size="14.00" fill="#e6e6e6">chronological split</text>
<text text-anchor="middle" x="354.78" y="-1056.75" font-family="JetBrains Mono" font-size="14.00" fill="#e6e6e6">85% train | 15% test</text>
<text text-anchor="middle" x="354.78" y="-1041.75" font-family="JetBrains Mono" font-size="14.00" fill="#e6e6e6">(train further split 90/10 for val)</text>
<text text-anchor="middle" x="354.78" y="-1026.75" font-family="JetBrains Mono" font-size="14.00" fill="#e6e6e6">NEVER shuffled</text>
</g>
<!-- feats&#45;&gt;split -->
<g id="edge3" class="edge">
<title>feats&#45;&gt;split</title>
<path fill="none" stroke="#39ff14" stroke-width="1.5" d="M354.78,-1123.8C354.78,-1115.34 354.78,-1106.13 354.78,-1097.25"/>
<polygon fill="#39ff14" stroke="#39ff14" stroke-width="1.5" points="358.28,-1097.05 354.78,-1087.05 351.28,-1097.05 358.28,-1097.05"/>
</g>
<!-- samp -->
<g id="node5" class="node">
<title>samp</title>
<path fill="#2a0a2a" stroke="#ff66ff" stroke-width="2" d="M496.78,-960.95C496.78,-960.95 212.78,-960.95 212.78,-960.95 206.78,-960.95 200.78,-954.95 200.78,-948.95 200.78,-948.95 200.78,-859.95 200.78,-859.95 200.78,-853.95 206.78,-847.95 212.78,-847.95 212.78,-847.95 496.78,-847.95 496.78,-847.95 502.78,-847.95 508.78,-853.95 508.78,-859.95 508.78,-859.95 508.78,-948.95 508.78,-948.95 508.78,-954.95 502.78,-960.95 496.78,-960.95"/>
<text text-anchor="middle" x="354.78" y="-945.75" font-family="JetBrains Mono" font-size="14.00" fill="#ffccff">for each bar i:</text>
<text text-anchor="middle" x="354.78" y="-930.75" font-family="JetBrains Mono" font-size="14.00" fill="#ffccff"> &#160;future = price[i + horizon]</text>
<text text-anchor="middle" x="354.78" y="-915.75" font-family="JetBrains Mono" font-size="14.00" fill="#ffccff"> &#160;for k in −4..+4:</text>
<text text-anchor="middle" x="354.78" y="-900.75" font-family="JetBrains Mono" font-size="14.00" fill="#ffccff"> &#160;&#160;&#160;strike = round(price/250)*250 + k*250</text>
<text text-anchor="middle" x="354.78" y="-885.75" font-family="JetBrains Mono" font-size="14.00" fill="#ffccff"> &#160;&#160;&#160;dist = (strike − price) / price</text>
<text text-anchor="middle" x="354.78" y="-870.75" font-family="JetBrains Mono" font-size="14.00" fill="#ffccff"> &#160;&#160;&#160;y = 1 if future &gt; strike else 0</text>
<text text-anchor="middle" x="354.78" y="-855.75" font-family="JetBrains Mono" font-size="14.00" fill="#ffccff"> &#160;&#160;&#160;X = [6 feats, dist, horizon]</text>
</g>
<!-- split&#45;&gt;samp -->
<g id="edge4" class="edge">
<title>split&#45;&gt;samp</title>
<path fill="none" stroke="#39ff14" stroke-width="1.5" d="M354.78,-1018.71C354.78,-1004.59 354.78,-987.6 354.78,-971.14"/>
<polygon fill="#39ff14" stroke="#39ff14" stroke-width="1.5" points="358.28,-970.98 354.78,-960.98 351.28,-970.98 358.28,-970.98"/>
</g>
<!-- multi -->
<g id="node6" class="node">
<title>multi</title>
<path fill="#2a0a2a" stroke="#ff66ff" stroke-width="2" d="M457.78,-810.95C457.78,-810.95 251.78,-810.95 251.78,-810.95 245.78,-810.95 239.78,-804.95 239.78,-798.95 239.78,-798.95 239.78,-738.95 239.78,-738.95 239.78,-732.95 245.78,-726.95 251.78,-726.95 251.78,-726.95 457.78,-726.95 457.78,-726.95 463.78,-726.95 469.78,-732.95 469.78,-738.95 469.78,-738.95 469.78,-798.95 469.78,-798.95 469.78,-804.95 463.78,-810.95 457.78,-810.95"/>
<text text-anchor="middle" x="354.78" y="-795.75" font-family="JetBrains Mono" font-size="14.00" fill="#ffccff">unified: all 12 horizons</text>
<text text-anchor="middle" x="354.78" y="-780.75" font-family="JetBrains Mono" font-size="14.00" fill="#ffccff">→ 6.2M samples</text>
<text text-anchor="middle" x="354.78" y="-749.75" font-family="JetBrains Mono" font-size="14.00" fill="#ffccff">ensemble: per&#45;bucket horizons</text>
<text text-anchor="middle" x="354.78" y="-734.75" font-family="JetBrains Mono" font-size="14.00" fill="#ffccff">→ 2.7M / 3.6M / 4.4M</text>
</g>
<!-- samp&#45;&gt;multi -->
<g id="edge5" class="edge">
<title>samp&#45;&gt;multi</title>
<path fill="none" stroke="#39ff14" stroke-width="1.5" d="M354.78,-847.61C354.78,-838.98 354.78,-830.09 354.78,-821.55"/>
<polygon fill="#39ff14" stroke="#39ff14" stroke-width="1.5" points="358.28,-821.35 354.78,-811.35 351.28,-821.35 358.28,-821.35"/>
</g>
<!-- xgb -->
<g id="node7" class="node">
<title>xgb</title>
<path fill="#0a2a2a" stroke="#66ffff" stroke-width="2" d="M473.28,-668.95C473.28,-668.95 236.28,-668.95 236.28,-668.95 230.28,-668.95 224.28,-662.95 224.28,-656.95 224.28,-656.95 224.28,-597.95 224.28,-597.95 224.28,-591.95 230.28,-585.95 236.28,-585.95 236.28,-585.95 473.28,-585.95 473.28,-585.95 479.28,-585.95 485.28,-591.95 485.28,-597.95 485.28,-597.95 485.28,-656.95 485.28,-656.95 485.28,-662.95 479.28,-668.95 473.28,-668.95"/>
<text text-anchor="middle" x="354.78" y="-653.75" font-family="JetBrains Mono" font-size="14.00" fill="#e6e6e6">XGBClassifier</text>
<text text-anchor="middle" x="354.78" y="-638.75" font-family="JetBrains Mono" font-size="14.00" fill="#e6e6e6">device=&#39;cuda&#39; (dual GPU via NCCL)</text>
<text text-anchor="middle" x="354.78" y="-623.75" font-family="JetBrains Mono" font-size="14.00" fill="#e6e6e6">n_estimators=1000, max_depth=6</text>
<text text-anchor="middle" x="354.78" y="-608.75" font-family="JetBrains Mono" font-size="14.00" fill="#e6e6e6">lr=0.05, subsample=0.8</text>
<text text-anchor="middle" x="354.78" y="-593.75" font-family="JetBrains Mono" font-size="14.00" fill="#e6e6e6">early_stopping_rounds=30</text>
</g>
<!-- multi&#45;&gt;xgb -->
<g id="edge6" class="edge">
<title>multi&#45;&gt;xgb</title>
<path fill="none" stroke="#39ff14" stroke-width="1.5" d="M354.78,-726.85C354.78,-711.95 354.78,-694.94 354.78,-679.3"/>
<polygon fill="#39ff14" stroke="#39ff14" stroke-width="1.5" points="358.28,-679.26 354.78,-669.26 351.28,-679.26 358.28,-679.26"/>
</g>
<!-- iso -->
<g id="node8" class="node">
<title>iso</title>
<path fill="#0a2a2a" stroke="#66ffff" stroke-width="2" d="M420.28,-533.95C420.28,-533.95 289.28,-533.95 289.28,-533.95 283.28,-533.95 277.28,-527.95 277.28,-521.95 277.28,-521.95 277.28,-492.95 277.28,-492.95 277.28,-486.95 283.28,-480.95 289.28,-480.95 289.28,-480.95 420.28,-480.95 420.28,-480.95 426.28,-480.95 432.28,-486.95 432.28,-492.95 432.28,-492.95 432.28,-521.95 432.28,-521.95 432.28,-527.95 426.28,-533.95 420.28,-533.95"/>
<text text-anchor="middle" x="354.78" y="-518.75" font-family="JetBrains Mono" font-size="14.00" fill="#e6e6e6">IsotonicRegression</text>
<text text-anchor="middle" x="354.78" y="-503.75" font-family="JetBrains Mono" font-size="14.00" fill="#e6e6e6">on validation set</text>
<text text-anchor="middle" x="354.78" y="-488.75" font-family="JetBrains Mono" font-size="14.00" fill="#e6e6e6">→ calibrated P(y=1)</text>
</g>
<!-- xgb&#45;&gt;iso -->
<g id="edge7" class="edge">
<title>xgb&#45;&gt;iso</title>
<path fill="none" stroke="#39ff14" stroke-width="1.5" d="M354.78,-585.84C354.78,-572.27 354.78,-557.26 354.78,-544.09"/>
<polygon fill="#39ff14" stroke="#39ff14" stroke-width="1.5" points="358.28,-544 354.78,-534 351.28,-544 358.28,-544"/>
</g>
<!-- timing -->
<g id="node14" class="node">
<title>timing</title>
<polygon fill="#2a1a0a" stroke="#ffcc66" stroke-width="2" points="741.78,-548.95 501.78,-548.95 501.78,-465.95 747.78,-465.95 747.78,-542.95 741.78,-548.95"/>
<polyline fill="none" stroke="#ffcc66" stroke-width="2" points="741.78,-548.95 741.78,-542.95 "/>
<polyline fill="none" stroke="#ffcc66" stroke-width="2" points="747.78,-542.95 741.78,-542.95 "/>
<text text-anchor="middle" x="624.78" y="-533.75" font-family="JetBrains Mono" font-size="14.00" fill="#ffcc66">Wall clock:</text>
<text text-anchor="middle" x="624.78" y="-518.75" font-family="JetBrains Mono" font-size="14.00" fill="#ffcc66">data prep: ~14 min (CPU&#45;bound)</text>
<text text-anchor="middle" x="624.78" y="-503.75" font-family="JetBrains Mono" font-size="14.00" fill="#ffcc66">GPU training: 2–3s</text>
<text text-anchor="middle" x="624.78" y="-488.75" font-family="JetBrains Mono" font-size="14.00" fill="#ffcc66">calibration: &lt;1s</text>
<text text-anchor="middle" x="624.78" y="-473.75" font-family="JetBrains Mono" font-size="14.00" fill="#ffcc66">backtest: ~10s</text>
</g>
<!-- xgb&#45;&gt;timing -->
<g id="edge13" class="edge">
<title>xgb&#45;&gt;timing</title>
<path fill="none" stroke="#ffcc66" stroke-width="1.5" stroke-dasharray="1,5" d="M447.7,-585.84C474.85,-573.98 504.52,-561.01 531.69,-549.14"/>
</g>
<!-- wrap -->
<g id="node9" class="node">
<title>wrap</title>
<path fill="#0a2a2a" stroke="#66ffff" stroke-width="2" d="M437.78,-428.95C437.78,-428.95 271.78,-428.95 271.78,-428.95 265.78,-428.95 259.78,-422.95 259.78,-416.95 259.78,-416.95 259.78,-402.95 259.78,-402.95 259.78,-396.95 265.78,-390.95 271.78,-390.95 271.78,-390.95 437.78,-390.95 437.78,-390.95 443.78,-390.95 449.78,-396.95 449.78,-402.95 449.78,-402.95 449.78,-416.95 449.78,-416.95 449.78,-422.95 443.78,-428.95 437.78,-428.95"/>
<text text-anchor="middle" x="354.78" y="-413.75" font-family="JetBrains Mono" font-size="14.00" fill="#e6e6e6">CalibratedXGB(base, iso)</text>
<text text-anchor="middle" x="354.78" y="-398.75" font-family="JetBrains Mono" font-size="14.00" fill="#e6e6e6">pickled as .pkl</text>
</g>
<!-- iso&#45;&gt;wrap -->
<g id="edge8" class="edge">
<title>iso&#45;&gt;wrap</title>
<path fill="none" stroke="#39ff14" stroke-width="1.5" d="M354.78,-480.86C354.78,-468.08 354.78,-452.59 354.78,-439.44"/>
<polygon fill="#39ff14" stroke="#39ff14" stroke-width="1.5" points="358.28,-439.05 354.78,-429.05 351.28,-439.05 358.28,-439.05"/>
</g>
<!-- bt -->
<g id="node10" class="node">
<title>bt</title>
<path fill="#0a2a0a" stroke="#39ff14" stroke-width="2" d="M465.28,-332.95C465.28,-332.95 244.28,-332.95 244.28,-332.95 238.28,-332.95 232.28,-326.95 232.28,-320.95 232.28,-320.95 232.28,-246.95 232.28,-246.95 232.28,-240.95 238.28,-234.95 244.28,-234.95 244.28,-234.95 465.28,-234.95 465.28,-234.95 471.28,-234.95 477.28,-240.95 477.28,-246.95 477.28,-246.95 477.28,-320.95 477.28,-320.95 477.28,-326.95 471.28,-332.95 465.28,-332.95"/>
<text text-anchor="middle" x="354.78" y="-317.75" font-family="JetBrains Mono" font-size="14.00" fill="#e6e6e6">backtest()</text>
<text text-anchor="middle" x="354.78" y="-302.75" font-family="JetBrains Mono" font-size="14.00" fill="#e6e6e6">simulate Kalshi bets on test set:</text>
<text text-anchor="middle" x="354.78" y="-287.75" font-family="JetBrains Mono" font-size="14.00" fill="#e6e6e6"> &#160;• strike discovery</text>
<text text-anchor="middle" x="354.78" y="-272.75" font-family="JetBrains Mono" font-size="14.00" fill="#e6e6e6"> &#160;• edge ≥ 5%</text>
<text text-anchor="middle" x="354.78" y="-257.75" font-family="JetBrains Mono" font-size="14.00" fill="#e6e6e6"> &#160;• min&#45;contract, max&#45;ratio gates</text>
<text text-anchor="middle" x="354.78" y="-242.75" font-family="JetBrains Mono" font-size="14.00" fill="#e6e6e6"> &#160;• track bets, wins, PnL</text>
</g>
<!-- wrap&#45;&gt;bt -->
<g id="edge9" class="edge">
<title>wrap&#45;&gt;bt</title>
<path fill="none" stroke="#39ff14" stroke-width="1.5" d="M354.78,-390.92C354.78,-378.23 354.78,-360.48 354.78,-343.13"/>
<polygon fill="#39ff14" stroke="#39ff14" stroke-width="1.5" points="358.28,-343 354.78,-333 351.28,-343 358.28,-343"/>
</g>
<!-- gate -->
<g id="node11" class="node">
<title>gate</title>
<path fill="#0a2a0a" stroke="#39ff14" stroke-width="2" d="M343.27,-194.54C343.27,-194.54 238.28,-163.37 238.28,-163.37 232.53,-161.66 232.53,-158.25 238.28,-156.54 238.28,-156.54 343.27,-125.37 343.27,-125.37 349.02,-123.66 360.53,-123.66 366.28,-125.37 366.28,-125.37 471.27,-156.54 471.27,-156.54 477.02,-158.25 477.02,-161.66 471.27,-163.37 471.27,-163.37 366.28,-194.54 366.28,-194.54 360.53,-196.25 349.02,-196.25 343.27,-194.54"/>
<text text-anchor="middle" x="354.78" y="-163.75" font-family="JetBrains Mono" font-size="14.00" fill="#e6e6e6">avg_ev &gt; 0</text>
<text text-anchor="middle" x="354.78" y="-148.75" font-family="JetBrains Mono" font-size="14.00" fill="#e6e6e6">AND bets ≥ 50?</text>
</g>
<!-- bt&#45;&gt;gate -->
<g id="edge10" class="edge">
<title>bt&#45;&gt;gate</title>
<path fill="none" stroke="#39ff14" stroke-width="1.5" d="M354.78,-234.74C354.78,-226.12 354.78,-217.14 354.78,-208.54"/>
<polygon fill="#39ff14" stroke="#39ff14" stroke-width="1.5" points="358.28,-208.29 354.78,-198.29 351.28,-208.29 358.28,-208.29"/>
</g>
<!-- ship -->
<g id="node12" class="node">
<title>ship</title>
<ellipse fill="#0a3a0a" stroke="#39ff14" stroke-width="3" cx="176.78" cy="-37.48" rx="176.55" ry="37.45"/>
<text text-anchor="middle" x="176.78" y="-48.78" font-family="JetBrains Mono" font-size="14.00" fill="#aaffaa">classifier_{bucket}.pkl</text>
<text text-anchor="middle" x="176.78" y="-33.78" font-family="JetBrains Mono" font-size="14.00" fill="#aaffaa">written to time_series/</text>
<text text-anchor="middle" x="176.78" y="-18.78" font-family="JetBrains Mono" font-size="14.00" fill="#aaffaa">+ training_metrics_{bucket}.json</text>
</g>
<!-- gate&#45;&gt;ship -->
<g id="edge11" class="edge">
<title>gate&#45;&gt;ship</title>
<path fill="none" stroke="#aaff66" stroke-width="1.5" d="M316.59,-133.11C293.36,-117.39 263.19,-96.96 236.82,-79.12"/>
<polygon fill="#aaff66" stroke="#aaff66" stroke-width="1.5" points="238.65,-76.13 228.41,-73.42 234.73,-81.93 238.65,-76.13"/>
<text text-anchor="middle" x="280.78" y="-95.95" font-family="JetBrains Mono" font-size="10.00" fill="#cccccc">yes</text>
</g>
<!-- reject -->
<g id="node13" class="node">
<title>reject</title>
<ellipse fill="#2a0a0a" stroke="#ff3333" stroke-width="2" cx="531.78" cy="-37.48" rx="160.53" ry="26.74"/>
<text text-anchor="middle" x="531.78" y="-41.28" font-family="JetBrains Mono" font-size="14.00" fill="#ff9999">REJECT</text>
<text text-anchor="middle" x="531.78" y="-26.28" font-family="JetBrains Mono" font-size="14.00" fill="#ff9999">(rerun with &#45;&#45;force to override)</text>
</g>
<!-- gate&#45;&gt;reject -->
<g id="edge12" class="edge">
<title>gate&#45;&gt;reject</title>
<path fill="none" stroke="#ff3333" stroke-width="1.5" d="M392.75,-133.11C420.21,-114.42 457.42,-89.09 486.44,-69.33"/>
<polygon fill="#ff3333" stroke="#ff3333" stroke-width="1.5" points="488.48,-72.18 494.78,-63.66 484.54,-66.39 488.48,-72.18"/>
<text text-anchor="middle" x="454.28" y="-95.95" font-family="JetBrains Mono" font-size="10.00" fill="#cccccc">no</text>
</g>
</g>
</svg>
