<?xml version="1.0" encoding="UTF-8" standalone="no"?>
<!DOCTYPE svg PUBLIC "-//W3C//DTD SVG 1.1//EN"
 "http://www.w3.org/Graphics/SVG/1.1/DTD/svg11.dtd">
<!-- Generated by graphviz version 2.43.0 (0)
 -->
<!-- Title: incident Pages: 1 -->
<svg width="1834pt" height="930pt"
 viewBox="0.00 0.00 1834.00 929.50" xmlns="http://www.w3.org/2000/svg" xmlns:xlink="http://www.w3.org/1999/xlink">
<g id="graph0" class="graph" transform="scale(1 1) rotate(0) translate(4 925.5)">
<title>incident</title>
<polygon fill="#0a0e14" stroke="transparent" points="-4,4 -4,-925.5 1830,-925.5 1830,4 -4,4"/>
<g id="clust1" class="cluster">
<title>cluster_fixes</title>
<path fill="#0a1a0a" stroke="#39ff14" stroke-width="2" d="M290,-104.5C290,-104.5 1806,-104.5 1806,-104.5 1812,-104.5 1818,-110.5 1818,-116.5 1818,-116.5 1818,-199.5 1818,-199.5 1818,-205.5 1812,-211.5 1806,-211.5 1806,-211.5 290,-211.5 290,-211.5 284,-211.5 278,-205.5 278,-199.5 278,-199.5 278,-116.5 278,-116.5 278,-110.5 284,-104.5 290,-104.5"/>
<text text-anchor="middle" x="1048" y="-196.3" font-family="JetBrains Mono" font-size="14.00" fill="#aaff66">Gates that now prevent this shape</text>
</g>
<!-- t0 -->
<g id="node1" class="node">
<title>t0</title>
<path fill="#0a2a2a" stroke="#66ffff" stroke-width="2" d="M1621.5,-921.5C1621.5,-921.5 1366.5,-921.5 1366.5,-921.5 1360.5,-921.5 1354.5,-915.5 1354.5,-909.5 1354.5,-909.5 1354.5,-865.5 1354.5,-865.5 1354.5,-859.5 1360.5,-853.5 1366.5,-853.5 1366.5,-853.5 1621.5,-853.5 1621.5,-853.5 1627.5,-853.5 1633.5,-859.5 1633.5,-865.5 1633.5,-865.5 1633.5,-909.5 1633.5,-909.5 1633.5,-915.5 1627.5,-921.5 1621.5,-921.5"/>
<text text-anchor="middle" x="1494" y="-906.3" font-family="JetBrains Mono" font-size="14.00" fill="#e6e6e6">02:10 CDT</text>
<text text-anchor="middle" x="1494" y="-891.3" font-family="JetBrains Mono" font-size="14.00" fill="#e6e6e6">BTC = $73,894 &#160;RSI 30.6</text>
<text text-anchor="middle" x="1494" y="-876.3" font-family="JetBrains Mono" font-size="14.00" fill="#e6e6e6">Classifier: YES on low strikes</text>
<text text-anchor="middle" x="1494" y="-861.3" font-family="JetBrains Mono" font-size="14.00" fill="#e6e6e6">(momentum −33.9, oversold bounce)</text>
</g>
<!-- t1 -->
<g id="node2" class="node">
<title>t1</title>
<path fill="#0a2a2a" stroke="#66ffff" stroke-width="2" d="M1639,-816.5C1639,-816.5 1349,-816.5 1349,-816.5 1343,-816.5 1337,-810.5 1337,-804.5 1337,-804.5 1337,-745.5 1337,-745.5 1337,-739.5 1343,-733.5 1349,-733.5 1349,-733.5 1639,-733.5 1639,-733.5 1645,-733.5 1651,-739.5 1651,-745.5 1651,-745.5 1651,-804.5 1651,-804.5 1651,-810.5 1645,-816.5 1639,-816.5"/>
<text text-anchor="middle" x="1494" y="-801.3" font-family="JetBrains Mono" font-size="14.00" fill="#e6e6e6">02:20 CDT</text>
<text text-anchor="middle" x="1494" y="-786.3" font-family="JetBrains Mono" font-size="14.00" fill="#e6e6e6">BTC = $73,699 &#160;RSI 7.6</text>
<text text-anchor="middle" x="1494" y="-771.3" font-family="JetBrains Mono" font-size="14.00" fill="#e6e6e6">Deepest oversold of the night</text>
<text text-anchor="middle" x="1494" y="-756.3" font-family="JetBrains Mono" font-size="14.00" fill="#e6e6e6">Model doubles down: YES $73,499–73,799</text>
<text text-anchor="middle" x="1494" y="-741.3" font-family="JetBrains Mono" font-size="14.00" fill="#e6e6e6">+ NO on $74,799+ (400 errors — bug a)</text>
</g>
<!-- t0&#45;&gt;t1 -->
<g id="edge1" class="edge">
<title>t0&#45;&gt;t1</title>
<path fill="none" stroke="#39ff14" stroke-width="1.5" d="M1494,-853.35C1494,-844.94 1494,-835.72 1494,-826.66"/>
<polygon fill="#39ff14" stroke="#39ff14" stroke-width="1.5" points="1497.5,-826.56 1494,-816.56 1490.5,-826.56 1497.5,-826.56"/>
</g>
<!-- t2 -->
<g id="node3" class="node">
<title>t2</title>
<path fill="#2a0a0a" stroke="#ff6666" stroke-width="2" d="M1391.5,-696.5C1391.5,-696.5 1134.5,-696.5 1134.5,-696.5 1128.5,-696.5 1122.5,-690.5 1122.5,-684.5 1122.5,-684.5 1122.5,-625.5 1122.5,-625.5 1122.5,-619.5 1128.5,-613.5 1134.5,-613.5 1134.5,-613.5 1391.5,-613.5 1391.5,-613.5 1397.5,-613.5 1403.5,-619.5 1403.5,-625.5 1403.5,-625.5 1403.5,-684.5 1403.5,-684.5 1403.5,-690.5 1397.5,-696.5 1391.5,-696.5"/>
<text text-anchor="middle" x="1263" y="-681.3" font-family="JetBrains Mono" font-size="14.00" fill="#ffcccc">02:30 CDT</text>
<text text-anchor="middle" x="1263" y="-666.3" font-family="JetBrains Mono" font-size="14.00" fill="#ffcccc">BTC = $73,746 &#160;RSI 53.0</text>
<text text-anchor="middle" x="1263" y="-651.3" font-family="JetBrains Mono" font-size="14.00" fill="#ffcccc">Model starts hedging:</text>
<text text-anchor="middle" x="1263" y="-636.3" font-family="JetBrains Mono" font-size="14.00" fill="#ffcccc">NO on $73,799 (opposing earlier YES)</text>
<text text-anchor="middle" x="1263" y="-621.3" font-family="JetBrains Mono" font-size="14.00" fill="#ffcccc">BUG: conviction was only 0.114</text>
</g>
<!-- t1&#45;&gt;t2 -->
<g id="edge2" class="edge">
<title>t1&#45;&gt;t2</title>
<path fill="none" stroke="#39ff14" stroke-width="1.5" d="M1414.5,-733.39C1394.27,-723.05 1372.39,-711.88 1351.73,-701.32"/>
<polygon fill="#39ff14" stroke="#39ff14" stroke-width="1.5" points="1353.14,-698.12 1342.64,-696.68 1349.96,-704.35 1353.14,-698.12"/>
</g>
<!-- f5 -->
<g id="node13" class="node">
<title>f5</title>
<path fill="#0a2a0a" stroke="#39ff14" stroke-width="2" d="M1566.5,-173C1566.5,-173 1421.5,-173 1421.5,-173 1415.5,-173 1409.5,-167 1409.5,-161 1409.5,-161 1409.5,-132 1409.5,-132 1409.5,-126 1415.5,-120 1421.5,-120 1421.5,-120 1566.5,-120 1566.5,-120 1572.5,-120 1578.5,-126 1578.5,-132 1578.5,-132 1578.5,-161 1578.5,-161 1578.5,-167 1572.5,-173 1566.5,-173"/>
<text text-anchor="middle" x="1494" y="-157.8" font-family="JetBrains Mono" font-size="14.00" fill="#aaffaa">regime detector</text>
<text text-anchor="middle" x="1494" y="-142.8" font-family="JetBrains Mono" font-size="14.00" fill="#aaffaa">RSI 7.6 at 02:20 &lt; 20</text>
<text text-anchor="middle" x="1494" y="-127.8" font-family="JetBrains Mono" font-size="14.00" fill="#aaffaa">→ stakes halved</text>
</g>
<!-- t1&#45;&gt;f5 -->
<g id="edge12" class="edge">
<title>t1&#45;&gt;f5</title>
<path fill="none" stroke="#aaff66" stroke-width="1.5" stroke-dasharray="5,2" d="M1494,-733.31C1494,-710.57 1494,-681.71 1494,-656 1494,-656 1494,-656 1494,-281.5 1494,-248.23 1494,-210.31 1494,-183.32"/>
<polygon fill="#aaff66" stroke="#aaff66" stroke-width="1.5" points="1497.5,-183.19 1494,-173.19 1490.5,-183.19 1497.5,-183.19"/>
<text text-anchor="middle" x="1510.5" y="-467.5" font-family="JetBrains Mono" font-size="10.00" fill="#cccccc">halves</text>
</g>
<!-- f6 -->
<g id="node14" class="node">
<title>f6</title>
<path fill="#0a2a0a" stroke="#39ff14" stroke-width="2" d="M1798,-173C1798,-173 1608,-173 1608,-173 1602,-173 1596,-167 1596,-161 1596,-161 1596,-132 1596,-132 1596,-126 1602,-120 1608,-120 1608,-120 1798,-120 1798,-120 1804,-120 1810,-126 1810,-132 1810,-132 1810,-161 1810,-161 1810,-167 1804,-173 1798,-173"/>
<text text-anchor="middle" x="1703" y="-157.8" font-family="JetBrains Mono" font-size="14.00" fill="#aaffaa">real side&#45;price gate</text>
<text text-anchor="middle" x="1703" y="-142.8" font-family="JetBrains Mono" font-size="14.00" fill="#aaffaa">100¢ NO orders now filtered</text>
<text text-anchor="middle" x="1703" y="-127.8" font-family="JetBrains Mono" font-size="14.00" fill="#aaffaa">(were 54 errors per night)</text>
</g>
<!-- t1&#45;&gt;f6 -->
<g id="edge13" class="edge">
<title>t1&#45;&gt;f6</title>
<path fill="none" stroke="#aaff66" stroke-width="1.5" stroke-dasharray="5,2" d="M1576.85,-733.5C1603.37,-714.41 1626,-688.58 1626,-656 1626,-656 1626,-656 1626,-281.5 1626,-243.49 1649.58,-206.51 1670.64,-181.06"/>
<polygon fill="#aaff66" stroke="#aaff66" stroke-width="1.5" points="1673.51,-183.09 1677.36,-173.22 1668.2,-178.54 1673.51,-183.09"/>
<text text-anchor="middle" x="1655" y="-467.5" font-family="JetBrains Mono" font-size="10.00" fill="#cccccc">blocks 400s</text>
</g>
<!-- t3 -->
<g id="node4" class="node">
<title>t3</title>
<path fill="#2a0a0a" stroke="#ff6666" stroke-width="2" d="M1105.5,-576.5C1105.5,-576.5 848.5,-576.5 848.5,-576.5 842.5,-576.5 836.5,-570.5 836.5,-564.5 836.5,-564.5 836.5,-505.5 836.5,-505.5 836.5,-499.5 842.5,-493.5 848.5,-493.5 848.5,-493.5 1105.5,-493.5 1105.5,-493.5 1111.5,-493.5 1117.5,-499.5 1117.5,-505.5 1117.5,-505.5 1117.5,-564.5 1117.5,-564.5 1117.5,-570.5 1111.5,-576.5 1105.5,-576.5"/>
<text text-anchor="middle" x="977" y="-561.3" font-family="JetBrains Mono" font-size="14.00" fill="#ffcccc">02:40 CDT</text>
<text text-anchor="middle" x="977" y="-546.3" font-family="JetBrains Mono" font-size="14.00" fill="#ffcccc">BTC = $73,683 &#160;RSI 58.9</text>
<text text-anchor="middle" x="977" y="-531.3" font-family="JetBrains Mono" font-size="14.00" fill="#ffcccc">NO on $73,699 (opposing 02:10 YES)</text>
<text text-anchor="middle" x="977" y="-516.3" font-family="JetBrains Mono" font-size="14.00" fill="#ffcccc">Portfolio has YES+NO on same strikes</text>
<text text-anchor="middle" x="977" y="-501.3" font-family="JetBrains Mono" font-size="14.00" fill="#ffcccc">→ narrow $100 profitable corridor</text>
</g>
<!-- t2&#45;&gt;t3 -->
<g id="edge3" class="edge">
<title>t2&#45;&gt;t3</title>
<path fill="none" stroke="#39ff14" stroke-width="1.5" d="M1164.58,-613.39C1138.96,-602.82 1111.22,-591.38 1085.14,-580.62"/>
<polygon fill="#39ff14" stroke="#39ff14" stroke-width="1.5" points="1086.19,-577.26 1075.61,-576.68 1083.52,-583.73 1086.19,-577.26"/>
</g>
<!-- f1 -->
<g id="node9" class="node">
<title>f1</title>
<path fill="#0a2a0a" stroke="#39ff14" stroke-width="2" d="M1379.5,-173C1379.5,-173 1146.5,-173 1146.5,-173 1140.5,-173 1134.5,-167 1134.5,-161 1134.5,-161 1134.5,-132 1134.5,-132 1134.5,-126 1140.5,-120 1146.5,-120 1146.5,-120 1379.5,-120 1379.5,-120 1385.5,-120 1391.5,-126 1391.5,-132 1391.5,-132 1391.5,-161 1391.5,-161 1391.5,-167 1385.5,-173 1379.5,-173"/>
<text text-anchor="middle" x="1263" y="-157.8" font-family="JetBrains Mono" font-size="14.00" fill="#aaffaa">conviction gate</text>
<text text-anchor="middle" x="1263" y="-142.8" font-family="JetBrains Mono" font-size="14.00" fill="#aaffaa">02:30 NO had conv=0.114 &lt; 0.15</text>
<text text-anchor="middle" x="1263" y="-127.8" font-family="JetBrains Mono" font-size="14.00" fill="#aaffaa">→ SKIPPED before placement</text>
</g>
<!-- t2&#45;&gt;f1 -->
<g id="edge8" class="edge">
<title>t2&#45;&gt;f1</title>
<path fill="none" stroke="#aaff66" stroke-width="1.5" stroke-dasharray="5,2" d="M1263,-613.31C1263,-590.57 1263,-561.71 1263,-536 1263,-536 1263,-536 1263,-281.5 1263,-248.23 1263,-210.31 1263,-183.32"/>
<polygon fill="#aaff66" stroke="#aaff66" stroke-width="1.5" points="1266.5,-183.19 1263,-173.19 1259.5,-183.19 1266.5,-183.19"/>
<text text-anchor="middle" x="1282" y="-402.5" font-family="JetBrains Mono" font-size="10.00" fill="#cccccc">catches</text>
</g>
<!-- t4 -->
<g id="node5" class="node">
<title>t4</title>
<path fill="#1a2a1a" stroke="#39ff14" stroke-width="2" d="M804.5,-446.5C804.5,-446.5 553.5,-446.5 553.5,-446.5 547.5,-446.5 541.5,-440.5 541.5,-434.5 541.5,-434.5 541.5,-375.5 541.5,-375.5 541.5,-369.5 547.5,-363.5 553.5,-363.5 553.5,-363.5 804.5,-363.5 804.5,-363.5 810.5,-363.5 816.5,-369.5 816.5,-375.5 816.5,-375.5 816.5,-434.5 816.5,-434.5 816.5,-440.5 810.5,-446.5 804.5,-446.5"/>
<text text-anchor="middle" x="679" y="-431.3" font-family="JetBrains Mono" font-size="14.00" fill="#e6e6e6">03:10–03:40 CDT</text>
<text text-anchor="middle" x="679" y="-416.3" font-family="JetBrains Mono" font-size="14.00" fill="#e6e6e6">BTC rallies: $73,789 → $74,135</text>
<text text-anchor="middle" x="679" y="-401.3" font-family="JetBrains Mono" font-size="14.00" fill="#e6e6e6">+$436 in 30 min</text>
<text text-anchor="middle" x="679" y="-386.3" font-family="JetBrains Mono" font-size="14.00" fill="#e6e6e6">Model keeps placing (20 orders total)</text>
<text text-anchor="middle" x="679" y="-371.3" font-family="JetBrains Mono" font-size="14.00" fill="#e6e6e6">$59.21 deployed on single expiry</text>
</g>
<!-- t3&#45;&gt;t4 -->
<g id="edge4" class="edge">
<title>t3&#45;&gt;t4</title>
<path fill="none" stroke="#39ff14" stroke-width="1.5" d="M882.3,-493.32C850.66,-479.73 815.23,-464.51 782.92,-450.64"/>
<polygon fill="#39ff14" stroke="#39ff14" stroke-width="1.5" points="784.02,-447.3 773.45,-446.57 781.26,-453.73 784.02,-447.3"/>
</g>
<!-- f2 -->
<g id="node10" class="node">
<title>f2</title>
<path fill="#0a2a0a" stroke="#39ff14" stroke-width="2" d="M1104,-180.5C1104,-180.5 850,-180.5 850,-180.5 844,-180.5 838,-174.5 838,-168.5 838,-168.5 838,-124.5 838,-124.5 838,-118.5 844,-112.5 850,-112.5 850,-112.5 1104,-112.5 1104,-112.5 1110,-112.5 1116,-118.5 1116,-124.5 1116,-124.5 1116,-168.5 1116,-168.5 1116,-174.5 1110,-180.5 1104,-180.5"/>
<text text-anchor="middle" x="977" y="-165.3" font-family="JetBrains Mono" font-size="14.00" fill="#aaffaa">netting reconciliation</text>
<text text-anchor="middle" x="977" y="-150.3" font-family="JetBrains Mono" font-size="14.00" fill="#aaffaa">02:40 NO opposes 02:10 YES</text>
<text text-anchor="middle" x="977" y="-135.3" font-family="JetBrains Mono" font-size="14.00" fill="#aaffaa">conv 0.114 &lt; override threshold 0.30</text>
<text text-anchor="middle" x="977" y="-120.3" font-family="JetBrains Mono" font-size="14.00" fill="#aaffaa">→ SKIP&#45;OPP</text>
</g>
<!-- t3&#45;&gt;f2 -->
<g id="edge9" class="edge">
<title>t3&#45;&gt;f2</title>
<path fill="none" stroke="#aaff66" stroke-width="1.5" stroke-dasharray="5,2" d="M977,-493.37C977,-419.97 977,-265.94 977,-190.71"/>
<polygon fill="#aaff66" stroke="#aaff66" stroke-width="1.5" points="980.5,-190.63 977,-180.63 973.5,-190.63 980.5,-190.63"/>
<text text-anchor="middle" x="996" y="-337.5" font-family="JetBrains Mono" font-size="10.00" fill="#cccccc">catches</text>
</g>
<!-- t5 -->
<g id="node6" class="node">
<title>t5</title>
<path fill="#0a3a0a" stroke="#39ff14" stroke-width="3" d="M517,-316.5C517,-316.5 289,-316.5 289,-316.5 283,-316.5 277,-310.5 277,-304.5 277,-304.5 277,-260.5 277,-260.5 277,-254.5 283,-248.5 289,-248.5 289,-248.5 517,-248.5 517,-248.5 523,-248.5 529,-254.5 529,-260.5 529,-260.5 529,-304.5 529,-304.5 529,-310.5 523,-316.5 517,-316.5"/>
<text text-anchor="middle" x="403" y="-301.3" font-family="JetBrains Mono" font-size="14.00" fill="#aaffaa">03:40 CDT — PEAK</text>
<text text-anchor="middle" x="403" y="-286.3" font-family="JetBrains Mono" font-size="14.00" fill="#aaffaa">Portfolio = $86.03</text>
<text text-anchor="middle" x="403" y="-271.3" font-family="JetBrains Mono" font-size="14.00" fill="#aaffaa">(cash $27.77 + $58.26 deployed)</text>
<text text-anchor="middle" x="403" y="-256.3" font-family="JetBrains Mono" font-size="14.00" fill="#aaffaa">HWM set</text>
</g>
<!-- t4&#45;&gt;t5 -->
<g id="edge5" class="edge">
<title>t4&#45;&gt;t5</title>
<path fill="none" stroke="#39ff14" stroke-width="1.5" d="M585.94,-363.37C554.32,-349.56 519.15,-334.21 488.18,-320.69"/>
<polygon fill="#39ff14" stroke="#39ff14" stroke-width="1.5" points="489.27,-317.35 478.7,-316.55 486.47,-323.76 489.27,-317.35"/>
</g>
<!-- f3 -->
<g id="node11" class="node">
<title>f3</title>
<path fill="#0a2a0a" stroke="#39ff14" stroke-width="2" d="M807.5,-173C807.5,-173 550.5,-173 550.5,-173 544.5,-173 538.5,-167 538.5,-161 538.5,-161 538.5,-132 538.5,-132 538.5,-126 544.5,-120 550.5,-120 550.5,-120 807.5,-120 807.5,-120 813.5,-120 819.5,-126 819.5,-132 819.5,-132 819.5,-161 819.5,-161 819.5,-167 813.5,-173 807.5,-173"/>
<text text-anchor="middle" x="679" y="-157.8" font-family="JetBrains Mono" font-size="14.00" fill="#aaffaa">top&#45;N cap (3)</text>
<text text-anchor="middle" x="679" y="-142.8" font-family="JetBrains Mono" font-size="14.00" fill="#aaffaa">20 orders → capped to 3/run</text>
<text text-anchor="middle" x="679" y="-127.8" font-family="JetBrains Mono" font-size="14.00" fill="#aaffaa">fewer strikes → wider profitable range</text>
</g>
<!-- t4&#45;&gt;f3 -->
<g id="edge10" class="edge">
<title>t4&#45;&gt;f3</title>
<path fill="none" stroke="#aaff66" stroke-width="1.5" stroke-dasharray="5,2" d="M679,-363.36C679,-313.71 679,-230.53 679,-183.23"/>
<polygon fill="#aaff66" stroke="#aaff66" stroke-width="1.5" points="682.5,-183.14 679,-173.14 675.5,-183.14 682.5,-183.14"/>
<text text-anchor="middle" x="693" y="-280" font-family="JetBrains Mono" font-size="10.00" fill="#cccccc">limits</text>
</g>
<!-- t6 -->
<g id="node7" class="node">
<title>t6</title>
<path fill="#3a0a0a" stroke="#ff3333" stroke-width="3" d="M256,-188C256,-188 12,-188 12,-188 6,-188 0,-182 0,-176 0,-176 0,-117 0,-117 0,-111 6,-105 12,-105 12,-105 256,-105 256,-105 262,-105 268,-111 268,-117 268,-117 268,-176 268,-176 268,-182 262,-188 256,-188"/>
<text text-anchor="middle" x="134" y="-172.8" font-family="JetBrains Mono" font-size="14.00" fill="#ff9999">04:00 CDT — SETTLEMENT</text>
<text text-anchor="middle" x="134" y="-157.8" font-family="JetBrains Mono" font-size="14.00" fill="#ff9999">BTC ≈ $74,200</text>
<text text-anchor="middle" x="134" y="-142.8" font-family="JetBrains Mono" font-size="14.00" fill="#ff9999">NO on $73,899–$74,199: ALL LOSE</text>
<text text-anchor="middle" x="134" y="-127.8" font-family="JetBrains Mono" font-size="14.00" fill="#ff9999">YES on $73,399–73,799: all win</text>
<text text-anchor="middle" x="134" y="-112.8" font-family="JetBrains Mono" font-size="14.00" fill="#ff9999">but payout $16 on $59.21 deployed</text>
</g>
<!-- t5&#45;&gt;t6 -->
<g id="edge6" class="edge">
<title>t5&#45;&gt;t6</title>
<path fill="none" stroke="#39ff14" stroke-width="1.5" d="M336.51,-248.38C302.8,-231.59 261.36,-210.94 224.77,-192.72"/>
<polygon fill="#39ff14" stroke="#39ff14" stroke-width="1.5" points="226.09,-189.46 215.58,-188.14 222.97,-195.73 226.09,-189.46"/>
</g>
<!-- f4 -->
<g id="node12" class="node">
<title>f4</title>
<path fill="#0a2a0a" stroke="#39ff14" stroke-width="2" d="M508,-173C508,-173 298,-173 298,-173 292,-173 286,-167 286,-161 286,-161 286,-132 286,-132 286,-126 292,-120 298,-120 298,-120 508,-120 508,-120 514,-120 520,-126 520,-132 520,-132 520,-161 520,-161 520,-167 514,-173 508,-173"/>
<text text-anchor="middle" x="403" y="-157.8" font-family="JetBrains Mono" font-size="14.00" fill="#aaffaa">expiry exposure cap (50%)</text>
<text text-anchor="middle" x="403" y="-142.8" font-family="JetBrains Mono" font-size="14.00" fill="#aaffaa">$59.21 on single expiry = 68%</text>
<text text-anchor="middle" x="403" y="-127.8" font-family="JetBrains Mono" font-size="14.00" fill="#aaffaa">would cap at ~$43 ($86×50%)</text>
</g>
<!-- t5&#45;&gt;f4 -->
<g id="edge11" class="edge">
<title>t5&#45;&gt;f4</title>
<path fill="none" stroke="#aaff66" stroke-width="1.5" stroke-dasharray="5,2" d="M403,-248.38C403,-228.58 403,-203.42 403,-183.18"/>
<polygon fill="#aaff66" stroke="#aaff66" stroke-width="1.5" points="406.5,-183.1 403,-173.1 399.5,-183.1 406.5,-183.1"/>
<text text-anchor="middle" x="419" y="-222.5" font-family="JetBrains Mono" font-size="10.00" fill="#cccccc">caps $</text>
</g>
<!-- t7 -->
<g id="node8" class="node">
<title>t7</title>
<path fill="#2a0a0a" stroke="#ff3333" stroke-width="2" d="M212,-68C212,-68 56,-68 56,-68 50,-68 44,-62 44,-56 44,-56 44,-12 44,-12 44,-6 50,0 56,0 56,0 212,0 212,0 218,0 224,-6 224,-12 224,-12 224,-56 224,-56 224,-62 218,-68 212,-68"/>
<text text-anchor="middle" x="134" y="-52.8" font-family="JetBrains Mono" font-size="14.00" fill="#ff9999">04:10 CDT</text>
<text text-anchor="middle" x="134" y="-37.8" font-family="JetBrains Mono" font-size="14.00" fill="#ff9999">Portfolio = $38.29</text>
<text text-anchor="middle" x="134" y="-22.8" font-family="JetBrains Mono" font-size="14.00" fill="#ff9999">−$47.74 (−55.5%)</text>
<text text-anchor="middle" x="134" y="-7.8" font-family="JetBrains Mono" font-size="14.00" fill="#ff9999">Drawdown halt triggers</text>
</g>
<!-- t6&#45;&gt;t7 -->
<g id="edge7" class="edge">
<title>t6&#45;&gt;t7</title>
<path fill="none" stroke="#39ff14" stroke-width="1.5" d="M134,-104.98C134,-96.3 134,-87.1 134,-78.33"/>
<polygon fill="#39ff14" stroke="#39ff14" stroke-width="1.5" points="137.5,-78.27 134,-68.27 130.5,-78.27 137.5,-78.27"/>
</g>
</g>
</svg>
