<?xml version="1.0" encoding="UTF-8" standalone="no"?>
<!DOCTYPE svg PUBLIC "-//W3C//DTD SVG 1.1//EN"
 "http://www.w3.org/Graphics/SVG/1.1/DTD/svg11.dtd">
<!-- Generated by graphviz version 2.43.0 (0)
 -->
<!-- Title: portfolio_sm Pages: 1 -->
<svg width="1944pt" height="357pt"
 viewBox="0.00 0.00 1943.92 356.96" xmlns="http://www.w3.org/2000/svg" xmlns:xlink="http://www.w3.org/1999/xlink">
<g id="graph0" class="graph" transform="scale(1 1) rotate(0) translate(4 352.96)">
<title>portfolio_sm</title>
<polygon fill="#0a0e14" stroke="transparent" points="-4,4 -4,-352.96 1939.92,-352.96 1939.92,4 -4,4"/>
<g id="clust1" class="cluster">
<title>cluster_hwm</title>
<path fill="#1a1408" stroke="#ffaa00" stroke-width="2" d="M922.92,-201.96C922.92,-201.96 1192.92,-201.96 1192.92,-201.96 1198.92,-201.96 1204.92,-207.96 1204.92,-213.96 1204.92,-213.96 1204.92,-328.96 1204.92,-328.96 1204.92,-334.96 1198.92,-340.96 1192.92,-340.96 1192.92,-340.96 922.92,-340.96 922.92,-340.96 916.92,-340.96 910.92,-334.96 910.92,-328.96 910.92,-328.96 910.92,-213.96 910.92,-213.96 910.92,-207.96 916.92,-201.96 922.92,-201.96"/>
<text text-anchor="middle" x="1057.92" y="-325.76" font-family="JetBrains Mono" font-size="14.00" fill="#ffcc66">HWM tracking (every tick)</text>
</g>
<!-- idle -->
<g id="node1" class="node">
<title>idle</title>
<ellipse fill="#0a2a2a" stroke="#66ffff" stroke-width="3" cx="692.86" cy="-152.96" rx="135.11" ry="48.17"/>
<text text-anchor="middle" x="692.86" y="-171.76" font-family="JetBrains Mono" font-size="14.00" fill="#ccffff">IDLE</text>
<text text-anchor="middle" x="692.86" y="-156.76" font-family="JetBrains Mono" font-size="14.00" fill="#ccffff">cash = portfolio</text>
<text text-anchor="middle" x="692.86" y="-141.76" font-family="JetBrains Mono" font-size="14.00" fill="#ccffff">no open positions</text>
<text text-anchor="middle" x="692.86" y="-126.76" font-family="JetBrains Mono" font-size="14.00" fill="#ccffff">dd = (hwm − cash)/hwm</text>
</g>
<!-- deploying -->
<g id="node2" class="node">
<title>deploying</title>
<path fill="#1a2a1a" stroke="#39ff14" stroke-width="2" d="M1174.42,-191.96C1174.42,-191.96 941.42,-191.96 941.42,-191.96 935.42,-191.96 929.42,-185.96 929.42,-179.96 929.42,-179.96 929.42,-135.96 929.42,-135.96 929.42,-129.96 935.42,-123.96 941.42,-123.96 941.42,-123.96 1174.42,-123.96 1174.42,-123.96 1180.42,-123.96 1186.42,-129.96 1186.42,-135.96 1186.42,-135.96 1186.42,-179.96 1186.42,-179.96 1186.42,-185.96 1180.42,-191.96 1174.42,-191.96"/>
<text text-anchor="middle" x="1057.92" y="-176.76" font-family="JetBrains Mono" font-size="14.00" fill="#e6e6e6">DEPLOYING</text>
<text text-anchor="middle" x="1057.92" y="-161.76" font-family="JetBrains Mono" font-size="14.00" fill="#e6e6e6">cash → orders placed</text>
<text text-anchor="middle" x="1057.92" y="-146.76" font-family="JetBrains Mono" font-size="14.00" fill="#e6e6e6">portfolio = cash + open_cost</text>
<text text-anchor="middle" x="1057.92" y="-131.76" font-family="JetBrains Mono" font-size="14.00" fill="#e6e6e6">open_cost from /portfolio/positions</text>
</g>
<!-- idle&#45;&gt;deploying -->
<g id="edge1" class="edge">
<title>idle&#45;&gt;deploying</title>
<path fill="none" stroke="#39ff14" stroke-width="1.5" d="M828.02,-154.8C857.78,-155.21 889.37,-155.65 919.27,-156.06"/>
<polygon fill="#39ff14" stroke="#39ff14" stroke-width="1.5" points="919.3,-159.56 929.34,-156.2 919.39,-152.56 919.3,-159.56"/>
<text text-anchor="middle" x="873.42" y="-169.96" font-family="JetBrains Mono" font-size="10.00" fill="#cccccc">timer fires</text>
<text text-anchor="middle" x="873.42" y="-158.96" font-family="JetBrains Mono" font-size="10.00" fill="#cccccc">opps found</text>
</g>
<!-- calc -->
<g id="node5" class="node">
<title>calc</title>
<path fill="#2a1a0a" stroke="#ffaa00" stroke-width="2" d="M1184.92,-309.46C1184.92,-309.46 930.92,-309.46 930.92,-309.46 924.92,-309.46 918.92,-303.46 918.92,-297.46 918.92,-297.46 918.92,-222.46 918.92,-222.46 918.92,-216.46 924.92,-210.46 930.92,-210.46 930.92,-210.46 1184.92,-210.46 1184.92,-210.46 1190.92,-210.46 1196.92,-216.46 1196.92,-222.46 1196.92,-222.46 1196.92,-297.46 1196.92,-297.46 1196.92,-303.46 1190.92,-309.46 1184.92,-309.46"/>
<text text-anchor="middle" x="1057.92" y="-294.26" font-family="JetBrains Mono" font-size="14.00" fill="#e6e6e6">portfolio_value =</text>
<text text-anchor="middle" x="1057.92" y="-279.26" font-family="JetBrains Mono" font-size="14.00" fill="#e6e6e6"> &#160;GET /portfolio/balance (cash)</text>
<text text-anchor="middle" x="1057.92" y="-264.26" font-family="JetBrains Mono" font-size="14.00" fill="#e6e6e6">+ GET /portfolio/positions (cost basis)</text>
<text text-anchor="middle" x="1057.92" y="-233.26" font-family="JetBrains Mono" font-size="14.00" fill="#e6e6e6">hwm = max(hwm, portfolio_value)</text>
<text text-anchor="middle" x="1057.92" y="-218.26" font-family="JetBrains Mono" font-size="14.00" fill="#e6e6e6">dd &#160;= (hwm − portfolio_value) / hwm</text>
</g>
<!-- idle&#45;&gt;calc -->
<g id="edge6" class="edge">
<title>idle&#45;&gt;calc</title>
<path fill="none" stroke="#ffaa00" stroke-width="1.5" stroke-dasharray="5,2" d="M797.42,-183.47C832.05,-193.68 871.35,-205.27 908.71,-216.28"/>
<polygon fill="#ffaa00" stroke="#ffaa00" stroke-width="1.5" points="908.09,-219.74 918.67,-219.21 910.07,-213.03 908.09,-219.74"/>
</g>
<!-- day -->
<g id="node8" class="node">
<title>day</title>
<polygon fill="#1a2a1a" stroke="#39ff14" stroke-width="2" points="1169.92,-105.46 939.92,-105.46 939.92,-52.46 1175.92,-52.46 1175.92,-99.46 1169.92,-105.46"/>
<polyline fill="none" stroke="#39ff14" stroke-width="2" points="1169.92,-105.46 1169.92,-99.46 "/>
<polyline fill="none" stroke="#39ff14" stroke-width="2" points="1175.92,-99.46 1169.92,-99.46 "/>
<text text-anchor="middle" x="1057.92" y="-90.26" font-family="JetBrains Mono" font-size="14.00" fill="#e6e6e6">midnight boundary</text>
<text text-anchor="middle" x="1057.92" y="-75.26" font-family="JetBrains Mono" font-size="14.00" fill="#e6e6e6">daily_deployed_total resets to 0</text>
<text text-anchor="middle" x="1057.92" y="-60.26" font-family="JetBrains Mono" font-size="14.00" fill="#e6e6e6">(no effect on drawdown halt)</text>
</g>
<!-- idle&#45;&gt;day -->
<g id="edge11" class="edge">
<title>idle&#45;&gt;day</title>
<path fill="none" stroke="#39ff14" stroke-width="1.5" stroke-dasharray="1,5" d="M810.74,-129.13C851.99,-120.73 898.36,-111.27 939.65,-102.86"/>
</g>
<!-- deployed -->
<g id="node3" class="node">
<title>deployed</title>
<path fill="#1a3a1a" stroke="#aaff66" stroke-width="2" d="M1581.92,-195.46C1581.92,-195.46 1372.92,-195.46 1372.92,-195.46 1366.92,-195.46 1360.92,-189.46 1360.92,-183.46 1360.92,-183.46 1360.92,-124.46 1360.92,-124.46 1360.92,-118.46 1366.92,-112.46 1372.92,-112.46 1372.92,-112.46 1581.92,-112.46 1581.92,-112.46 1587.92,-112.46 1593.92,-118.46 1593.92,-124.46 1593.92,-124.46 1593.92,-183.46 1593.92,-183.46 1593.92,-189.46 1587.92,-195.46 1581.92,-195.46"/>
<text text-anchor="middle" x="1477.42" y="-180.26" font-family="JetBrains Mono" font-size="14.00" fill="#e6e6e6">DEPLOYED</text>
<text text-anchor="middle" x="1477.42" y="-165.26" font-family="JetBrains Mono" font-size="14.00" fill="#e6e6e6">positions live on Kalshi</text>
<text text-anchor="middle" x="1477.42" y="-150.26" font-family="JetBrains Mono" font-size="14.00" fill="#e6e6e6">portfolio value includes</text>
<text text-anchor="middle" x="1477.42" y="-135.26" font-family="JetBrains Mono" font-size="14.00" fill="#e6e6e6">market&#45;value of open contracts</text>
<text text-anchor="middle" x="1477.42" y="-120.26" font-family="JetBrains Mono" font-size="14.00" fill="#e6e6e6">(≈ cost basis until near&#45;expiry)</text>
</g>
<!-- deploying&#45;&gt;deployed -->
<g id="edge2" class="edge">
<title>deploying&#45;&gt;deployed</title>
<path fill="none" stroke="#39ff14" stroke-width="1.5" d="M1186.45,-156.73C1238.5,-156.24 1298.52,-155.66 1350.41,-155.16"/>
<polygon fill="#39ff14" stroke="#39ff14" stroke-width="1.5" points="1350.71,-158.66 1360.67,-155.07 1350.64,-151.66 1350.71,-158.66"/>
<text text-anchor="middle" x="1278.92" y="-159.96" font-family="JetBrains Mono" font-size="10.00" fill="#cccccc">orders filled</text>
</g>
<!-- deployed&#45;&gt;deploying -->
<g id="edge5" class="edge">
<title>deployed&#45;&gt;deploying</title>
<path fill="none" stroke="#39ff14" stroke-width="1.5" d="M1360.82,-131.88C1354.78,-131.13 1348.79,-130.48 1342.92,-129.96 1286.26,-124.9 1271.59,-124.91 1214.92,-129.96 1209.04,-130.48 1203.05,-131.11 1197,-131.83"/>
<polygon fill="#39ff14" stroke="#39ff14" stroke-width="1.5" points="1196.28,-128.4 1186.8,-133.12 1197.16,-135.34 1196.28,-128.4"/>
<text text-anchor="middle" x="1278.92" y="-143.96" font-family="JetBrains Mono" font-size="10.00" fill="#cccccc">next 10&#45;min tick</text>
<text text-anchor="middle" x="1278.92" y="-132.96" font-family="JetBrains Mono" font-size="10.00" fill="#cccccc">(add to existing positions)</text>
</g>
<!-- settling -->
<g id="node4" class="node">
<title>settling</title>
<path fill="#3a0a3a" stroke="#ff66ff" stroke-width="2" d="M1923.92,-73.96C1923.92,-73.96 1716.92,-73.96 1716.92,-73.96 1710.92,-73.96 1704.92,-67.96 1704.92,-61.96 1704.92,-61.96 1704.92,-17.96 1704.92,-17.96 1704.92,-11.96 1710.92,-5.96 1716.92,-5.96 1716.92,-5.96 1923.92,-5.96 1923.92,-5.96 1929.92,-5.96 1935.92,-11.96 1935.92,-17.96 1935.92,-17.96 1935.92,-61.96 1935.92,-61.96 1935.92,-67.96 1929.92,-73.96 1923.92,-73.96"/>
<text text-anchor="middle" x="1820.42" y="-58.76" font-family="JetBrains Mono" font-size="14.00" fill="#ffccff">SETTLING</text>
<text text-anchor="middle" x="1820.42" y="-43.76" font-family="JetBrains Mono" font-size="14.00" fill="#ffccff">Kalshi reads BTC index</text>
<text text-anchor="middle" x="1820.42" y="-28.76" font-family="JetBrains Mono" font-size="14.00" fill="#ffccff">contracts resolve to $0 or $1</text>
<text text-anchor="middle" x="1820.42" y="-13.76" font-family="JetBrains Mono" font-size="14.00" fill="#ffccff">cash credited, positions vanish</text>
</g>
<!-- deployed&#45;&gt;settling -->
<g id="edge3" class="edge">
<title>deployed&#45;&gt;settling</title>
<path fill="none" stroke="#39ff14" stroke-width="1.5" d="M1594.34,-115.2C1631.03,-102.94 1671.49,-89.41 1707.87,-77.25"/>
<polygon fill="#39ff14" stroke="#39ff14" stroke-width="1.5" points="1709.14,-80.51 1717.52,-74.02 1706.92,-73.88 1709.14,-80.51"/>
<text text-anchor="middle" x="1649.42" y="-110.96" font-family="JetBrains Mono" font-size="10.00" fill="#cccccc">settlement tick</text>
</g>
<!-- deployed&#45;&gt;calc -->
<g id="edge7" class="edge">
<title>deployed&#45;&gt;calc</title>
<path fill="none" stroke="#ffaa00" stroke-width="1.5" stroke-dasharray="5,2" d="M1360.84,-183.3C1313.18,-195.4 1257.37,-209.57 1206.78,-222.41"/>
<polygon fill="#ffaa00" stroke="#ffaa00" stroke-width="1.5" points="1205.9,-219.03 1197.07,-224.88 1207.63,-225.81 1205.9,-219.03"/>
</g>
<!-- settling&#45;&gt;idle -->
<g id="edge4" class="edge">
<title>settling&#45;&gt;idle</title>
<path fill="none" stroke="#39ff14" stroke-width="1.5" d="M1704.82,-23.64C1530.52,-2.53 1189.63,24.12 910.92,-42.96 859.84,-55.25 807.16,-81.56 766.49,-105.37"/>
<polygon fill="#39ff14" stroke="#39ff14" stroke-width="1.5" points="764.55,-102.45 757.74,-110.56 768.12,-108.47 764.55,-102.45"/>
<text text-anchor="middle" x="1278.92" y="-5.96" font-family="JetBrains Mono" font-size="10.00" fill="#cccccc">cash updated</text>
</g>
<!-- halted -->
<g id="node6" class="node">
<title>halted</title>
<path fill="#2a0a0a" stroke="#ff3333" stroke-width="3" d="M392.71,-250.38C392.71,-250.38 392.71,-269.53 392.71,-269.53 392.71,-275.53 386.92,-283.08 381.12,-284.64 381.12,-284.64 290.48,-308.94 290.48,-308.94 284.68,-310.49 272.89,-312.04 266.89,-312.04 266.89,-312.04 129.92,-312.04 129.92,-312.04 123.92,-312.04 112.12,-310.49 106.33,-308.94 106.33,-308.94 15.69,-284.64 15.69,-284.64 9.89,-283.08 4.09,-275.53 4.09,-269.53 4.09,-269.53 4.09,-250.38 4.09,-250.38 4.09,-244.38 9.89,-236.83 15.69,-235.27 15.69,-235.27 106.33,-210.98 106.33,-210.98 112.12,-209.42 123.92,-207.87 129.92,-207.87 129.92,-207.87 266.89,-207.87 266.89,-207.87 272.89,-207.87 284.68,-209.42 290.48,-210.98 290.48,-210.98 381.12,-235.27 381.12,-235.27 386.92,-236.83 392.71,-244.38 392.71,-250.38"/>
<path fill="none" stroke="#ff3333" stroke-width="3" d="M396.71,-247.31C396.71,-247.31 396.71,-272.6 396.71,-272.6 396.71,-278.6 390.91,-286.16 385.12,-287.71 385.12,-287.71 291.01,-312.94 291.01,-312.94 285.21,-314.49 273.41,-316.05 267.41,-316.05 267.41,-316.05 129.39,-316.05 129.39,-316.05 123.39,-316.05 111.6,-314.49 105.8,-312.94 105.8,-312.94 11.69,-287.71 11.69,-287.71 5.89,-286.16 0.1,-278.6 0.1,-272.6 0.1,-272.6 0.1,-247.31 0.1,-247.31 0.1,-241.31 5.89,-233.76 11.69,-232.2 11.69,-232.2 105.8,-206.97 105.8,-206.97 111.6,-205.42 123.39,-203.87 129.39,-203.87 129.39,-203.87 267.41,-203.87 267.41,-203.87 273.41,-203.87 285.21,-205.42 291.01,-206.97 291.01,-206.97 385.12,-232.2 385.12,-232.2 390.91,-233.76 396.71,-241.31 396.71,-247.31"/>
<text text-anchor="middle" x="198.4" y="-278.76" font-family="JetBrains Mono" font-size="14.00" fill="#ff9999">HALTED</text>
<text text-anchor="middle" x="198.4" y="-263.76" font-family="JetBrains Mono" font-size="14.00" fill="#ff9999">dd ≥ DRAWDOWN_HALT (50%)</text>
<text text-anchor="middle" x="198.4" y="-248.76" font-family="JetBrains Mono" font-size="14.00" fill="#ff9999">no orders placed</text>
<text text-anchor="middle" x="198.4" y="-233.76" font-family="JetBrains Mono" font-size="14.00" fill="#ff9999">timer still fires (to check recovery)</text>
</g>
<!-- calc&#45;&gt;halted -->
<g id="edge8" class="edge">
<title>calc&#45;&gt;halted</title>
<path fill="none" stroke="#ff3333" stroke-width="1.5" d="M918.83,-259.96C780.58,-259.96 566.15,-259.96 407.32,-259.96"/>
<polygon fill="#ff3333" stroke="#ff3333" stroke-width="1.5" points="406.94,-256.46 396.94,-259.96 406.94,-263.46 406.94,-256.46"/>
<text text-anchor="middle" x="692.86" y="-262.96" font-family="JetBrains Mono" font-size="10.00" fill="#cccccc">dd ≥ 50%</text>
</g>
<!-- halted&#45;&gt;idle -->
<g id="edge9" class="edge">
<title>halted&#45;&gt;idle</title>
<path fill="none" stroke="#aaff66" stroke-width="1.5" stroke-dasharray="5,2" d="M359.08,-225.09C377.86,-220.99 396.76,-216.88 414.81,-212.96 464.53,-202.15 519.29,-190.28 566.89,-179.98"/>
<polygon fill="#aaff66" stroke="#aaff66" stroke-width="1.5" points="567.91,-183.34 576.94,-177.8 566.43,-176.5 567.91,-183.34"/>
<text text-anchor="middle" x="477.31" y="-237.96" font-family="JetBrains Mono" font-size="10.00" fill="#cccccc">settlement recovers</text>
<text text-anchor="middle" x="477.31" y="-226.96" font-family="JetBrains Mono" font-size="10.00" fill="#cccccc">→ dd &lt; 50%</text>
<text text-anchor="middle" x="477.31" y="-215.96" font-family="JetBrains Mono" font-size="10.00" fill="#cccccc">(rare without HWM reset)</text>
</g>
<!-- reset -->
<g id="node7" class="node">
<title>reset</title>
<polygon fill="#2a1a0a" stroke="#ffaa00" stroke-width="2" points="286.9,-185.96 103.9,-185.96 103.9,-117.96 292.9,-117.96 292.9,-179.96 286.9,-185.96"/>
<polyline fill="none" stroke="#ffaa00" stroke-width="2" points="286.9,-185.96 286.9,-179.96 "/>
<polyline fill="none" stroke="#ffaa00" stroke-width="2" points="292.9,-179.96 286.9,-179.96 "/>
<text text-anchor="middle" x="198.4" y="-170.76" font-family="JetBrains Mono" font-size="14.00" fill="#ffcc66">HWM RESET</text>
<text text-anchor="middle" x="198.4" y="-155.76" font-family="JetBrains Mono" font-size="14.00" fill="#ffcc66">(manual operator action)</text>
<text text-anchor="middle" x="198.4" y="-140.76" font-family="JetBrains Mono" font-size="14.00" fill="#ffcc66">hwm ← current portfolio</text>
<text text-anchor="middle" x="198.4" y="-125.76" font-family="JetBrains Mono" font-size="14.00" fill="#ffcc66">dd ← 0%</text>
</g>
<!-- reset&#45;&gt;idle -->
<g id="edge10" class="edge">
<title>reset&#45;&gt;idle</title>
<path fill="none" stroke="#ffaa00" stroke-width="1.5" d="M293.19,-152.15C364.99,-152.29 465.29,-152.5 547.32,-152.66"/>
<polygon fill="#ffaa00" stroke="#ffaa00" stroke-width="1.5" points="547.48,-156.16 557.49,-152.68 547.5,-149.16 547.48,-156.16"/>
<text text-anchor="middle" x="477.31" y="-155.96" font-family="JetBrains Mono" font-size="10.00" fill="#cccccc">operator resets hwm.json</text>
</g>
</g>
</svg>
