<?xml version="1.0" encoding="UTF-8" standalone="no"?>
<!DOCTYPE svg PUBLIC "-//W3C//DTD SVG 1.1//EN"
 "http://www.w3.org/Graphics/SVG/1.1/DTD/svg11.dtd">
<!-- Generated by graphviz version 2.43.0 (0)
 -->
<!-- Title: safety_layers Pages: 1 -->
<svg width="1588pt" height="646pt"
 viewBox="0.00 0.00 1588.00 646.00" xmlns="http://www.w3.org/2000/svg" xmlns:xlink="http://www.w3.org/1999/xlink">
<g id="graph0" class="graph" transform="scale(1 1) rotate(0) translate(4 642)">
<title>safety_layers</title>
<polygon fill="#0a0e14" stroke="transparent" points="-4,4 -4,-642 1584,-642 1584,4 -4,4"/>
<text text-anchor="middle" x="790" y="-622.8" font-family="JetBrains Mono" font-size="14.00" fill="#aaff66">Safety net — from outermost (last resort) to innermost (first check)</text>
<g id="clust1" class="cluster">
<title>cluster_L0</title>
<path fill="#1a0808" stroke="#ff3333" stroke-width="3" d="M604,-8C604,-8 1240,-8 1240,-8 1246,-8 1252,-14 1252,-20 1252,-20 1252,-88 1252,-88 1252,-94 1246,-100 1240,-100 1240,-100 604,-100 604,-100 598,-100 592,-94 592,-88 592,-88 592,-20 592,-20 592,-14 598,-8 604,-8"/>
<text text-anchor="middle" x="922" y="-84.8" font-family="JetBrains Mono" font-size="14.00" fill="#ff9999">L0 — Account&#45;level (last resort)</text>
</g>
<g id="clust2" class="cluster">
<title>cluster_L1</title>
<path fill="#1a1408" stroke="#ffaa00" stroke-width="2" d="M821,-129C821,-129 1248,-129 1248,-129 1254,-129 1260,-135 1260,-141 1260,-141 1260,-209 1260,-209 1260,-215 1254,-221 1248,-221 1248,-221 821,-221 821,-221 815,-221 809,-215 809,-209 809,-209 809,-141 809,-141 809,-135 815,-129 821,-129"/>
<text text-anchor="middle" x="1034.5" y="-205.8" font-family="JetBrains Mono" font-size="14.00" fill="#ffcc66">L1 — Budget caps (per day / per run)</text>
</g>
<g id="clust3" class="cluster">
<title>cluster_L2</title>
<path fill="#1a0a1a" stroke="#ff66ff" stroke-width="2" d="M491,-250C491,-250 1288,-250 1288,-250 1294,-250 1300,-256 1300,-262 1300,-262 1300,-330 1300,-330 1300,-336 1294,-342 1288,-342 1288,-342 491,-342 491,-342 485,-342 479,-336 479,-330 479,-330 479,-262 479,-262 479,-256 485,-250 491,-250"/>
<text text-anchor="middle" x="889.5" y="-326.8" font-family="JetBrains Mono" font-size="14.00" fill="#ffccff">L2 — Position&#45;level (Phase A, new)</text>
</g>
<g id="clust4" class="cluster">
<title>cluster_L3</title>
<path fill="#0a1a1a" stroke="#00ffff" stroke-width="2" d="M486,-371C486,-371 1279,-371 1279,-371 1285,-371 1291,-377 1291,-383 1291,-383 1291,-451 1291,-451 1291,-457 1285,-463 1279,-463 1279,-463 486,-463 486,-463 480,-463 474,-457 474,-451 474,-451 474,-383 474,-383 474,-377 480,-371 486,-371"/>
<text text-anchor="middle" x="882.5" y="-447.8" font-family="JetBrains Mono" font-size="14.00" fill="#66ffff">L3 — Per&#45;trade sizing</text>
</g>
<g id="clust5" class="cluster">
<title>cluster_L4</title>
<path fill="#0a1a0a" stroke="#39ff14" stroke-width="2" d="M20,-515C20,-515 1274,-515 1274,-515 1280,-515 1286,-521 1286,-527 1286,-527 1286,-595 1286,-595 1286,-601 1280,-607 1274,-607 1274,-607 20,-607 20,-607 14,-607 8,-601 8,-595 8,-595 8,-527 8,-527 8,-521 14,-515 20,-515"/>
<text text-anchor="middle" x="647" y="-591.8" font-family="JetBrains Mono" font-size="14.00" fill="#aaff66">L4 — Signal quality (first line of defense)</text>
</g>
<!-- l0a -->
<g id="node1" class="node">
<title>l0a</title>
<path fill="#2a0a0a" stroke="#ff6666" stroke-width="2" d="M1232,-69C1232,-69 1062,-69 1062,-69 1056,-69 1050,-63 1050,-57 1050,-57 1050,-28 1050,-28 1050,-22 1056,-16 1062,-16 1062,-16 1232,-16 1232,-16 1238,-16 1244,-22 1244,-28 1244,-28 1244,-57 1244,-57 1244,-63 1238,-69 1232,-69"/>
<text text-anchor="middle" x="1147" y="-53.8" font-family="JetBrains Mono" font-size="14.00" fill="#e6e6e6">MIN_BALANCE = $5</text>
<text text-anchor="middle" x="1147" y="-38.8" font-family="JetBrains Mono" font-size="14.00" fill="#e6e6e6">below → halt immediately</text>
<text text-anchor="middle" x="1147" y="-23.8" font-family="JetBrains Mono" font-size="14.00" fill="#e6e6e6">(wipe prevention)</text>
</g>
<!-- l0b -->
<g id="node2" class="node">
<title>l0b</title>
<path fill="#2a0a0a" stroke="#ff6666" stroke-width="2" d="M1020,-69C1020,-69 846,-69 846,-69 840,-69 834,-63 834,-57 834,-57 834,-28 834,-28 834,-22 840,-16 846,-16 846,-16 1020,-16 1020,-16 1026,-16 1032,-22 1032,-28 1032,-28 1032,-57 1032,-57 1032,-63 1026,-69 1020,-69"/>
<text text-anchor="middle" x="933" y="-53.8" font-family="JetBrains Mono" font-size="14.00" fill="#e6e6e6">DRAWDOWN_HALT = 50%</text>
<text text-anchor="middle" x="933" y="-38.8" font-family="JetBrains Mono" font-size="14.00" fill="#e6e6e6">portfolio vs HWM</text>
<text text-anchor="middle" x="933" y="-23.8" font-family="JetBrains Mono" font-size="14.00" fill="#e6e6e6">→ halt until reset</text>
</g>
<!-- l0c -->
<g id="node3" class="node">
<title>l0c</title>
<path fill="#2a0a0a" stroke="#ff6666" stroke-width="2" d="M803.5,-61.5C803.5,-61.5 612.5,-61.5 612.5,-61.5 606.5,-61.5 600.5,-55.5 600.5,-49.5 600.5,-49.5 600.5,-35.5 600.5,-35.5 600.5,-29.5 606.5,-23.5 612.5,-23.5 612.5,-23.5 803.5,-23.5 803.5,-23.5 809.5,-23.5 815.5,-29.5 815.5,-35.5 815.5,-35.5 815.5,-49.5 815.5,-49.5 815.5,-55.5 809.5,-61.5 803.5,-61.5"/>
<text text-anchor="middle" x="708" y="-46.3" font-family="JetBrains Mono" font-size="14.00" fill="#e6e6e6">Balance API unavailable</text>
<text text-anchor="middle" x="708" y="-31.3" font-family="JetBrains Mono" font-size="14.00" fill="#e6e6e6">→ halt (can&#39;t compute limits)</text>
</g>
<!-- l1a -->
<g id="node4" class="node">
<title>l1a</title>
<path fill="#2a1a0a" stroke="#ffcc66" stroke-width="2" d="M1239.5,-190C1239.5,-190 1054.5,-190 1054.5,-190 1048.5,-190 1042.5,-184 1042.5,-178 1042.5,-178 1042.5,-149 1042.5,-149 1042.5,-143 1048.5,-137 1054.5,-137 1054.5,-137 1239.5,-137 1239.5,-137 1245.5,-137 1251.5,-143 1251.5,-149 1251.5,-149 1251.5,-178 1251.5,-178 1251.5,-184 1245.5,-190 1239.5,-190"/>
<text text-anchor="middle" x="1147" y="-174.8" font-family="JetBrains Mono" font-size="14.00" fill="#e6e6e6">DAILY_LOSS_PCT × bankroll</text>
<text text-anchor="middle" x="1147" y="-159.8" font-family="JetBrains Mono" font-size="14.00" fill="#e6e6e6">(100% = $bankroll/day)</text>
<text text-anchor="middle" x="1147" y="-144.8" font-family="JetBrains Mono" font-size="14.00" fill="#e6e6e6">absolute ceiling: $10,000</text>
</g>
<!-- l1a&#45;&gt;l0a -->
<g id="edge4" class="edge">
<title>l1a&#45;&gt;l0a</title>
<path fill="none" stroke="#aaff66" stroke-width="1.5" d="M1147,-136.97C1147,-120.22 1147,-98.08 1147,-79.54"/>
<polygon fill="#aaff66" stroke="#aaff66" stroke-width="1.5" points="1150.5,-79.4 1147,-69.4 1143.5,-79.4 1150.5,-79.4"/>
<text text-anchor="middle" x="1194" y="-111" font-family="JetBrains Mono" font-size="10.00" fill="#cccccc">within daily budget</text>
</g>
<!-- l1b -->
<g id="node5" class="node">
<title>l1b</title>
<path fill="#2a1a0a" stroke="#ffcc66" stroke-width="2" d="M1012.5,-190C1012.5,-190 829.5,-190 829.5,-190 823.5,-190 817.5,-184 817.5,-178 817.5,-178 817.5,-149 817.5,-149 817.5,-143 823.5,-137 829.5,-137 829.5,-137 1012.5,-137 1012.5,-137 1018.5,-137 1024.5,-143 1024.5,-149 1024.5,-149 1024.5,-178 1024.5,-178 1024.5,-184 1018.5,-190 1012.5,-190"/>
<text text-anchor="middle" x="921" y="-174.8" font-family="JetBrains Mono" font-size="14.00" fill="#e6e6e6">MAX_RUN_PCT × bankroll</text>
<text text-anchor="middle" x="921" y="-159.8" font-family="JetBrains Mono" font-size="14.00" fill="#e6e6e6">(40% = $bankroll×0.4/run)</text>
<text text-anchor="middle" x="921" y="-144.8" font-family="JetBrains Mono" font-size="14.00" fill="#e6e6e6">absolute ceiling: $100</text>
</g>
<!-- l2a -->
<g id="node6" class="node">
<title>l2a</title>
<path fill="#3a0a3a" stroke="#ff66ff" stroke-width="2" d="M1280,-311C1280,-311 1014,-311 1014,-311 1008,-311 1002,-305 1002,-299 1002,-299 1002,-270 1002,-270 1002,-264 1008,-258 1014,-258 1014,-258 1280,-258 1280,-258 1286,-258 1292,-264 1292,-270 1292,-270 1292,-299 1292,-299 1292,-305 1286,-311 1280,-311"/>
<text text-anchor="middle" x="1147" y="-295.8" font-family="JetBrains Mono" font-size="14.00" fill="#e6e6e6">★ MAX_EXPIRY_EXPOSURE_PCT = 50%</text>
<text text-anchor="middle" x="1147" y="-280.8" font-family="JetBrains Mono" font-size="14.00" fill="#e6e6e6">total $ per settlement ≤ 50% portfolio</text>
<text text-anchor="middle" x="1147" y="-265.8" font-family="JetBrains Mono" font-size="14.00" fill="#e6e6e6">(prevents single&#45;settlement wipe)</text>
</g>
<!-- l2a&#45;&gt;l1a -->
<g id="edge3" class="edge">
<title>l2a&#45;&gt;l1a</title>
<path fill="none" stroke="#aaff66" stroke-width="1.5" d="M1147,-257.97C1147,-241.22 1147,-219.08 1147,-200.54"/>
<polygon fill="#aaff66" stroke="#aaff66" stroke-width="1.5" points="1150.5,-200.4 1147,-190.4 1143.5,-200.4 1150.5,-200.4"/>
<text text-anchor="middle" x="1189.5" y="-232" font-family="JetBrains Mono" font-size="10.00" fill="#cccccc">within expiry cap</text>
</g>
<!-- l2b -->
<g id="node7" class="node">
<title>l2b</title>
<path fill="#3a0a3a" stroke="#ff66ff" stroke-width="2" d="M971.5,-311C971.5,-311 736.5,-311 736.5,-311 730.5,-311 724.5,-305 724.5,-299 724.5,-299 724.5,-270 724.5,-270 724.5,-264 730.5,-258 736.5,-258 736.5,-258 971.5,-258 971.5,-258 977.5,-258 983.5,-264 983.5,-270 983.5,-270 983.5,-299 983.5,-299 983.5,-305 977.5,-311 971.5,-311"/>
<text text-anchor="middle" x="854" y="-295.8" font-family="JetBrains Mono" font-size="14.00" fill="#e6e6e6">★ Netting reconciliation</text>
<text text-anchor="middle" x="854" y="-280.8" font-family="JetBrains Mono" font-size="14.00" fill="#e6e6e6">block or net opposing&#45;side signals</text>
<text text-anchor="middle" x="854" y="-265.8" font-family="JetBrains Mono" font-size="14.00" fill="#e6e6e6">(prevents YES+NO on same ticker)</text>
</g>
<!-- l2c -->
<g id="node8" class="node">
<title>l2c</title>
<path fill="#3a0a3a" stroke="#ff66ff" stroke-width="2" d="M694.5,-311C694.5,-311 499.5,-311 499.5,-311 493.5,-311 487.5,-305 487.5,-299 487.5,-299 487.5,-270 487.5,-270 487.5,-264 493.5,-258 499.5,-258 499.5,-258 694.5,-258 694.5,-258 700.5,-258 706.5,-264 706.5,-270 706.5,-270 706.5,-299 706.5,-299 706.5,-305 700.5,-311 694.5,-311"/>
<text text-anchor="middle" x="597" y="-295.8" font-family="JetBrains Mono" font-size="14.00" fill="#e6e6e6">★ TOP&#45;N cap = 3</text>
<text text-anchor="middle" x="597" y="-280.8" font-family="JetBrains Mono" font-size="14.00" fill="#e6e6e6">max 3 orders per 10&#45;min run</text>
<text text-anchor="middle" x="597" y="-265.8" font-family="JetBrains Mono" font-size="14.00" fill="#e6e6e6">(prevents strike sprawl)</text>
</g>
<!-- l3a -->
<g id="node9" class="node">
<title>l3a</title>
<path fill="#0a2a2a" stroke="#66ffff" stroke-width="2" d="M1270.5,-424.5C1270.5,-424.5 1023.5,-424.5 1023.5,-424.5 1017.5,-424.5 1011.5,-418.5 1011.5,-412.5 1011.5,-412.5 1011.5,-398.5 1011.5,-398.5 1011.5,-392.5 1017.5,-386.5 1023.5,-386.5 1023.5,-386.5 1270.5,-386.5 1270.5,-386.5 1276.5,-386.5 1282.5,-392.5 1282.5,-398.5 1282.5,-398.5 1282.5,-412.5 1282.5,-412.5 1282.5,-418.5 1276.5,-424.5 1270.5,-424.5"/>
<text text-anchor="middle" x="1147" y="-409.3" font-family="JetBrains Mono" font-size="14.00" fill="#e6e6e6">Fractional Kelly (0.33×)</text>
<text text-anchor="middle" x="1147" y="-394.3" font-family="JetBrains Mono" font-size="14.00" fill="#e6e6e6">stake = bankroll × K(p,price) × 0.33</text>
</g>
<!-- l3a&#45;&gt;l2a -->
<g id="edge2" class="edge">
<title>l3a&#45;&gt;l2a</title>
<path fill="none" stroke="#aaff66" stroke-width="1.5" d="M1147,-386.43C1147,-369.22 1147,-342.83 1147,-321.35"/>
<polygon fill="#aaff66" stroke="#aaff66" stroke-width="1.5" points="1150.5,-321.26 1147,-311.26 1143.5,-321.26 1150.5,-321.26"/>
<text text-anchor="middle" x="1160" y="-353" font-family="JetBrains Mono" font-size="10.00" fill="#cccccc">sized</text>
</g>
<!-- l3b -->
<g id="node10" class="node">
<title>l3b</title>
<path fill="#0a2a2a" stroke="#66ffff" stroke-width="2" d="M981.5,-424.5C981.5,-424.5 750.5,-424.5 750.5,-424.5 744.5,-424.5 738.5,-418.5 738.5,-412.5 738.5,-412.5 738.5,-398.5 738.5,-398.5 738.5,-392.5 744.5,-386.5 750.5,-386.5 750.5,-386.5 981.5,-386.5 981.5,-386.5 987.5,-386.5 993.5,-392.5 993.5,-398.5 993.5,-398.5 993.5,-412.5 993.5,-412.5 993.5,-418.5 987.5,-424.5 981.5,-424.5"/>
<text text-anchor="middle" x="866" y="-409.3" font-family="JetBrains Mono" font-size="14.00" fill="#e6e6e6">MAX_STAKE_PCT × bankroll (12%)</text>
<text text-anchor="middle" x="866" y="-394.3" font-family="JetBrains Mono" font-size="14.00" fill="#e6e6e6">absolute ceiling: $25</text>
</g>
<!-- l3c -->
<g id="node11" class="node">
<title>l3c</title>
<path fill="#0a2a2a" stroke="#66ffff" stroke-width="2" d="M708,-432C708,-432 494,-432 494,-432 488,-432 482,-426 482,-420 482,-420 482,-391 482,-391 482,-385 488,-379 494,-379 494,-379 708,-379 708,-379 714,-379 720,-385 720,-391 720,-391 720,-420 720,-420 720,-426 714,-432 708,-432"/>
<text text-anchor="middle" x="601" y="-416.8" font-family="JetBrains Mono" font-size="14.00" fill="#e6e6e6">★ Regime detector</text>
<text text-anchor="middle" x="601" y="-401.8" font-family="JetBrains Mono" font-size="14.00" fill="#e6e6e6">RSI &lt; 20 or &gt; 80 → stake × 0.5</text>
<text text-anchor="middle" x="601" y="-386.8" font-family="JetBrains Mono" font-size="14.00" fill="#e6e6e6">(fewer training samples at tails)</text>
</g>
<!-- l4a -->
<g id="node12" class="node">
<title>l4a</title>
<path fill="#0a2a0a" stroke="#39ff14" stroke-width="2" d="M1265.5,-568.5C1265.5,-568.5 1028.5,-568.5 1028.5,-568.5 1022.5,-568.5 1016.5,-562.5 1016.5,-556.5 1016.5,-556.5 1016.5,-542.5 1016.5,-542.5 1016.5,-536.5 1022.5,-530.5 1028.5,-530.5 1028.5,-530.5 1265.5,-530.5 1265.5,-530.5 1271.5,-530.5 1277.5,-536.5 1277.5,-542.5 1277.5,-542.5 1277.5,-556.5 1277.5,-556.5 1277.5,-562.5 1271.5,-568.5 1265.5,-568.5"/>
<text text-anchor="middle" x="1147" y="-553.3" font-family="JetBrains Mono" font-size="14.00" fill="#e6e6e6">MIN_EDGE = 5%</text>
<text text-anchor="middle" x="1147" y="-538.3" font-family="JetBrains Mono" font-size="14.00" fill="#e6e6e6">model_prob − market_price ≥ 0.05</text>
</g>
<!-- l4a&#45;&gt;l3a -->
<g id="edge1" class="edge">
<title>l4a&#45;&gt;l3a</title>
<path fill="none" stroke="#aaff66" stroke-width="1.5" d="M1147,-530.23C1147,-506.05 1147,-463.19 1147,-434.8"/>
<polygon fill="#aaff66" stroke="#aaff66" stroke-width="1.5" points="1150.5,-434.7 1147,-424.7 1143.5,-434.7 1150.5,-434.7"/>
<text text-anchor="middle" x="1179" y="-474" font-family="JetBrains Mono" font-size="10.00" fill="#cccccc">passes all L4</text>
</g>
<!-- l4b -->
<g id="node13" class="node">
<title>l4b</title>
<path fill="#0a2a0a" stroke="#39ff14" stroke-width="2" d="M986,-576C986,-576 800,-576 800,-576 794,-576 788,-570 788,-564 788,-564 788,-535 788,-535 788,-529 794,-523 800,-523 800,-523 986,-523 986,-523 992,-523 998,-529 998,-535 998,-535 998,-564 998,-564 998,-570 992,-576 986,-576"/>
<text text-anchor="middle" x="893" y="-560.8" font-family="JetBrains Mono" font-size="14.00" fill="#e6e6e6">★ MIN_CONVICTION = 0.15</text>
<text text-anchor="middle" x="893" y="-545.8" font-family="JetBrains Mono" font-size="14.00" fill="#e6e6e6">|clf_prob − 0.5| ≥ 0.15</text>
<text text-anchor="middle" x="893" y="-530.8" font-family="JetBrains Mono" font-size="14.00" fill="#e6e6e6">(no coin&#45;flip trades)</text>
</g>
<!-- l4c -->
<g id="node14" class="node">
<title>l4c</title>
<path fill="#0a2a0a" stroke="#39ff14" stroke-width="2" d="M757.5,-568.5C757.5,-568.5 544.5,-568.5 544.5,-568.5 538.5,-568.5 532.5,-562.5 532.5,-556.5 532.5,-556.5 532.5,-542.5 532.5,-542.5 532.5,-536.5 538.5,-530.5 544.5,-530.5 544.5,-530.5 757.5,-530.5 757.5,-530.5 763.5,-530.5 769.5,-536.5 769.5,-542.5 769.5,-542.5 769.5,-556.5 769.5,-556.5 769.5,-562.5 763.5,-568.5 757.5,-568.5"/>
<text text-anchor="middle" x="651" y="-553.3" font-family="JetBrains Mono" font-size="14.00" fill="#e6e6e6">Contract price ∈ [10¢, 95¢)</text>
<text text-anchor="middle" x="651" y="-538.3" font-family="JetBrains Mono" font-size="14.00" fill="#e6e6e6">(filters thin + at&#45;limit contracts)</text>
</g>
<!-- l4d -->
<g id="node15" class="node">
<title>l4d</title>
<path fill="#0a2a0a" stroke="#39ff14" stroke-width="2" d="M502,-568.5C502,-568.5 248,-568.5 248,-568.5 242,-568.5 236,-562.5 236,-556.5 236,-556.5 236,-542.5 236,-542.5 236,-536.5 242,-530.5 248,-530.5 248,-530.5 502,-530.5 502,-530.5 508,-530.5 514,-536.5 514,-542.5 514,-542.5 514,-556.5 514,-556.5 514,-562.5 508,-568.5 502,-568.5"/>
<text text-anchor="middle" x="375" y="-553.3" font-family="JetBrains Mono" font-size="14.00" fill="#e6e6e6">MAX_PROB_RATIO ≤ 3×</text>
<text text-anchor="middle" x="375" y="-538.3" font-family="JetBrains Mono" font-size="14.00" fill="#e6e6e6">(rejects implausible model vs market)</text>
</g>
<!-- l4e -->
<g id="node16" class="node">
<title>l4e</title>
<path fill="#0a2a0a" stroke="#39ff14" stroke-width="2" d="M205.5,-576C205.5,-576 28.5,-576 28.5,-576 22.5,-576 16.5,-570 16.5,-564 16.5,-564 16.5,-535 16.5,-535 16.5,-529 22.5,-523 28.5,-523 28.5,-523 205.5,-523 205.5,-523 211.5,-523 217.5,-529 217.5,-535 217.5,-535 217.5,-564 217.5,-564 217.5,-570 211.5,-576 205.5,-576"/>
<text text-anchor="middle" x="117" y="-560.8" font-family="JetBrains Mono" font-size="14.00" fill="#e6e6e6">★ Ensemble routing</text>
<text text-anchor="middle" x="117" y="-545.8" font-family="JetBrains Mono" font-size="14.00" fill="#e6e6e6">horizon → specialist model</text>
<text text-anchor="middle" x="117" y="-530.8" font-family="JetBrains Mono" font-size="14.00" fill="#e6e6e6">(mid bucket +3pp WR)</text>
</g>
<!-- note -->
<g id="node17" class="node">
<title>note</title>
<polygon fill="#2a1a0a" stroke="#ffcc66" stroke-width="2" points="1574,-599 1296,-599 1296,-500 1580,-500 1580,-593 1574,-599"/>
<polyline fill="none" stroke="#ffcc66" stroke-width="2" points="1574,-599 1574,-593 "/>
<polyline fill="none" stroke="#ffcc66" stroke-width="2" points="1580,-593 1574,-593 "/>
<text text-anchor="middle" x="1438" y="-583.8" font-family="JetBrains Mono" font-size="14.00" fill="#ffcc66">★ = added or modified 2026&#45;04&#45;15</text>
<text text-anchor="middle" x="1438" y="-552.8" font-family="JetBrains Mono" font-size="14.00" fill="#ffcc66">Failure at ANY layer →</text>
<text text-anchor="middle" x="1438" y="-537.8" font-family="JetBrains Mono" font-size="14.00" fill="#ffcc66">trade is blocked or reduced.</text>
<text text-anchor="middle" x="1438" y="-522.8" font-family="JetBrains Mono" font-size="14.00" fill="#ffcc66">Outer layers are last&#45;resort backstops;</text>
<text text-anchor="middle" x="1438" y="-507.8" font-family="JetBrains Mono" font-size="14.00" fill="#ffcc66">inner layers are the primary defense.</text>
</g>
</g>
</svg>
