<?xml version="1.0" encoding="UTF-8" standalone="no"?>
<!DOCTYPE svg PUBLIC "-//W3C//DTD SVG 1.1//EN"
 "http://www.w3.org/Graphics/SVG/1.1/DTD/svg11.dtd">
<!-- Generated by graphviz version 2.43.0 (0)
 -->
<!-- Title: kalshi_api Pages: 1 -->
<svg width="1355pt" height="757pt"
 viewBox="0.00 0.00 1355.00 757.00" xmlns="http://www.w3.org/2000/svg" xmlns:xlink="http://www.w3.org/1999/xlink">
<g id="graph0" class="graph" transform="scale(1 1) rotate(0) translate(4 753)">
<title>kalshi_api</title>
<polygon fill="#0a0e14" stroke="transparent" points="-4,4 -4,-753 1351,-753 1351,4 -4,4"/>
<g id="clust1" class="cluster">
<title>cluster_trader</title>
<path fill="#0a1a0a" stroke="#39ff14" stroke-width="2" d="M388,-187C388,-187 945,-187 945,-187 951,-187 957,-193 957,-199 957,-199 957,-538 957,-538 957,-544 951,-550 945,-550 945,-550 388,-550 388,-550 382,-550 376,-544 376,-538 376,-538 376,-199 376,-199 376,-193 382,-187 388,-187"/>
<text text-anchor="middle" x="666.5" y="-534.8" font-family="JetBrains Mono" font-size="14.00" fill="#aaff66">auto_trader.py (per tick)</text>
</g>
<g id="clust2" class="cluster">
<title>cluster_kalshi</title>
<path fill="#1a0a1a" stroke="#ff00ff" stroke-width="2" d="M1024,-409C1024,-409 1327,-409 1327,-409 1333,-409 1339,-415 1339,-421 1339,-421 1339,-729 1339,-729 1339,-735 1333,-741 1327,-741 1327,-741 1024,-741 1024,-741 1018,-741 1012,-735 1012,-729 1012,-729 1012,-421 1012,-421 1012,-415 1018,-409 1024,-409"/>
<text text-anchor="middle" x="1175.5" y="-725.8" font-family="JetBrains Mono" font-size="14.00" fill="#ff66ff">Kalshi REST API</text>
<text text-anchor="middle" x="1175.5" y="-710.8" font-family="JetBrains Mono" font-size="14.00" fill="#ff66ff">https://api.elections.kalshi.com/trade&#45;api/v2</text>
</g>
<g id="clust3" class="cluster">
<title>cluster_gemini</title>
<path fill="#0a1a1a" stroke="#00ffff" stroke-width="2" d="M20,-330C20,-330 245,-330 245,-330 251,-330 257,-336 257,-342 257,-342 257,-395 257,-395 257,-401 251,-407 245,-407 245,-407 20,-407 20,-407 14,-407 8,-401 8,-395 8,-395 8,-342 8,-342 8,-336 14,-330 20,-330"/>
<text text-anchor="middle" x="132.5" y="-391.8" font-family="JetBrains Mono" font-size="14.00" fill="#66ffff">Gemini WS (data only)</text>
</g>
<g id="clust4" class="cluster">
<title>cluster_usage</title>
<path fill="#1a1408" stroke="#ffaa00" stroke-width="2" d="M1027,-8C1027,-8 1324,-8 1324,-8 1330,-8 1336,-14 1336,-20 1336,-20 1336,-389 1336,-389 1336,-395 1330,-401 1324,-401 1324,-401 1027,-401 1027,-401 1021,-401 1015,-395 1015,-389 1015,-389 1015,-20 1015,-20 1015,-14 1021,-8 1027,-8"/>
<text text-anchor="middle" x="1175.5" y="-385.8" font-family="JetBrains Mono" font-size="14.00" fill="#ffcc66">What each call is used for</text>
</g>
<!-- auth -->
<g id="node1" class="node">
<title>auth</title>
<path fill="#0a2a0a" stroke="#39ff14" stroke-width="2" d="M647,-248.5C647,-248.5 396,-248.5 396,-248.5 390,-248.5 384,-242.5 384,-236.5 384,-236.5 384,-207.5 384,-207.5 384,-201.5 390,-195.5 396,-195.5 396,-195.5 647,-195.5 647,-195.5 653,-195.5 659,-201.5 659,-207.5 659,-207.5 659,-236.5 659,-236.5 659,-242.5 653,-248.5 647,-248.5"/>
<text text-anchor="middle" x="521.5" y="-233.3" font-family="JetBrains Mono" font-size="14.00" fill="#e6e6e6">KalshiSigner.from_config()</text>
<text text-anchor="middle" x="521.5" y="-218.3" font-family="JetBrains Mono" font-size="14.00" fill="#e6e6e6">RSA&#45;PSS / SHA&#45;256</text>
<text text-anchor="middle" x="521.5" y="-203.3" font-family="JetBrains Mono" font-size="14.00" fill="#e6e6e6">message = ts_ms + METHOD + path</text>
</g>
<!-- r1 -->
<g id="node2" class="node">
<title>r1</title>
<path fill="#1a2a1a" stroke="#39ff14" stroke-width="2" d="M937,-367C937,-367 774,-367 774,-367 768,-367 762,-361 762,-355 762,-355 762,-341 762,-341 762,-335 768,-329 774,-329 774,-329 937,-329 937,-329 943,-329 949,-335 949,-341 949,-341 949,-355 949,-355 949,-361 943,-367 937,-367"/>
<text text-anchor="middle" x="855.5" y="-351.8" font-family="JetBrains Mono" font-size="14.00" fill="#e6e6e6">① GET /portfolio/balance</text>
<text text-anchor="middle" x="855.5" y="-336.8" font-family="JetBrains Mono" font-size="14.00" fill="#e6e6e6">→ cash in cents</text>
</g>
<!-- auth&#45;&gt;r1 -->
<g id="edge1" class="edge">
<title>auth&#45;&gt;r1</title>
<path fill="none" stroke="#39ff14" stroke-width="1.5" d="M630.34,-248.56C640.1,-251.53 649.77,-254.69 659,-258 711.91,-276.99 770.14,-304.74 809.18,-324.4"/>
<polygon fill="#39ff14" stroke="#39ff14" stroke-width="1.5" points="807.68,-327.56 818.18,-328.96 810.84,-321.32 807.68,-327.56"/>
<text text-anchor="middle" x="693.5" y="-280" font-family="JetBrains Mono" font-size="10.00" fill="#cccccc">signed</text>
</g>
<!-- auth_detail -->
<g id="node18" class="node">
<title>auth_detail</title>
<polygon fill="#2a1a0a" stroke="#ffcc66" stroke-width="2" points="977,-158.5 728,-158.5 728,-45.5 983,-45.5 983,-152.5 977,-158.5"/>
<polyline fill="none" stroke="#ffcc66" stroke-width="2" points="977,-158.5 977,-152.5 "/>
<polyline fill="none" stroke="#ffcc66" stroke-width="2" points="983,-152.5 977,-152.5 "/>
<text text-anchor="middle" x="855.5" y="-143.3" font-family="JetBrains Mono" font-size="14.00" fill="#ffcc66">RSA&#45;PSS auth detail:</text>
<text text-anchor="middle" x="855.5" y="-128.3" font-family="JetBrains Mono" font-size="14.00" fill="#ffcc66">• key_id from ~/.kalshi/credentials</text>
<text text-anchor="middle" x="855.5" y="-113.3" font-family="JetBrains Mono" font-size="14.00" fill="#ffcc66">• sign(ts_ms + METHOD + path)</text>
<text text-anchor="middle" x="855.5" y="-98.3" font-family="JetBrains Mono" font-size="14.00" fill="#ffcc66"> &#160;with SHA&#45;256/MGF1/salt=32</text>
<text text-anchor="middle" x="855.5" y="-83.3" font-family="JetBrains Mono" font-size="14.00" fill="#ffcc66">• headers: KALSHI&#45;ACCESS&#45;KEY,</text>
<text text-anchor="middle" x="855.5" y="-68.3" font-family="JetBrains Mono" font-size="14.00" fill="#ffcc66"> &#160;KALSHI&#45;ACCESS&#45;SIGNATURE,</text>
<text text-anchor="middle" x="855.5" y="-53.3" font-family="JetBrains Mono" font-size="14.00" fill="#ffcc66"> &#160;KALSHI&#45;ACCESS&#45;TIMESTAMP</text>
</g>
<!-- auth&#45;&gt;auth_detail -->
<g id="edge13" class="edge">
<title>auth&#45;&gt;auth_detail</title>
<path fill="none" stroke="#ffcc66" stroke-width="1.5" stroke-dasharray="1,5" d="M596.18,-195.37C634.87,-181.39 683.36,-163.86 727.85,-147.78"/>
</g>
<!-- api_bal -->
<g id="node7" class="node">
<title>api_bal</title>
<path fill="#2a0a2a" stroke="#ff66ff" stroke-width="2" d="M1239.5,-455C1239.5,-455 1111.5,-455 1111.5,-455 1105.5,-455 1099.5,-449 1099.5,-443 1099.5,-443 1099.5,-429 1099.5,-429 1099.5,-423 1105.5,-417 1111.5,-417 1111.5,-417 1239.5,-417 1239.5,-417 1245.5,-417 1251.5,-423 1251.5,-429 1251.5,-429 1251.5,-443 1251.5,-443 1251.5,-449 1245.5,-455 1239.5,-455"/>
<text text-anchor="middle" x="1175.5" y="-439.8" font-family="JetBrains Mono" font-size="14.00" fill="#e6e6e6">/portfolio/balance</text>
<text text-anchor="middle" x="1175.5" y="-424.8" font-family="JetBrains Mono" font-size="14.00" fill="#e6e6e6">→ {balance: cents}</text>
</g>
<!-- r1&#45;&gt;api_bal -->
<g id="edge2" class="edge">
<title>r1&#45;&gt;api_bal</title>
<path fill="none" stroke="#39ff14" stroke-width="1.5" d="M902.47,-367.09C933.09,-379.25 974.45,-394.61 1012,-405 1036.93,-411.9 1064.42,-417.78 1089.6,-422.5"/>
<polygon fill="#39ff14" stroke="#39ff14" stroke-width="1.5" points="1089.02,-425.95 1099.49,-424.32 1090.29,-419.07 1089.02,-425.95"/>
</g>
<!-- u1 -->
<g id="node13" class="node">
<title>u1</title>
<path fill="#2a1a0a" stroke="#ffcc66" stroke-width="2" d="M1268,-369.5C1268,-369.5 1083,-369.5 1083,-369.5 1077,-369.5 1071,-363.5 1071,-357.5 1071,-357.5 1071,-328.5 1071,-328.5 1071,-322.5 1077,-316.5 1083,-316.5 1083,-316.5 1268,-316.5 1268,-316.5 1274,-316.5 1280,-322.5 1280,-328.5 1280,-328.5 1280,-357.5 1280,-357.5 1280,-363.5 1274,-369.5 1268,-369.5"/>
<text text-anchor="middle" x="1175.5" y="-354.3" font-family="JetBrains Mono" font-size="14.00" fill="#e6e6e6">① balance → bankroll sizing</text>
<text text-anchor="middle" x="1175.5" y="-339.3" font-family="JetBrains Mono" font-size="14.00" fill="#e6e6e6"> &#160;&#160;→ Kelly denominators</text>
<text text-anchor="middle" x="1175.5" y="-324.3" font-family="JetBrains Mono" font-size="14.00" fill="#e6e6e6"> &#160;&#160;→ daily cap check</text>
</g>
<!-- r1&#45;&gt;u1 -->
<g id="edge7" class="edge">
<title>r1&#45;&gt;u1</title>
<path fill="none" stroke="#ffaa00" stroke-width="1.5" stroke-dasharray="5,2" d="M949.33,-346.54C984.19,-345.99 1024.21,-345.36 1060.75,-344.79"/>
<polygon fill="#ffaa00" stroke="#ffaa00" stroke-width="1.5" points="1061.01,-348.28 1070.95,-344.63 1060.9,-341.29 1061.01,-348.28"/>
</g>
<!-- r2 -->
<g id="node3" class="node">
<title>r2</title>
<path fill="#1a2a1a" stroke="#39ff14" stroke-width="2" d="M647,-518.5C647,-518.5 396,-518.5 396,-518.5 390,-518.5 384,-512.5 384,-506.5 384,-506.5 384,-477.5 384,-477.5 384,-471.5 390,-465.5 396,-465.5 396,-465.5 647,-465.5 647,-465.5 653,-465.5 659,-471.5 659,-477.5 659,-477.5 659,-506.5 659,-506.5 659,-512.5 653,-518.5 647,-518.5"/>
<text text-anchor="middle" x="521.5" y="-503.3" font-family="JetBrains Mono" font-size="14.00" fill="#e6e6e6">② GET /portfolio/positions</text>
<text text-anchor="middle" x="521.5" y="-488.3" font-family="JetBrains Mono" font-size="14.00" fill="#e6e6e6">→ event_positions[].total_cost_dollars</text>
<text text-anchor="middle" x="521.5" y="-473.3" font-family="JetBrains Mono" font-size="14.00" fill="#e6e6e6">→ market_positions[].position</text>
</g>
<!-- api_pos -->
<g id="node8" class="node">
<title>api_pos</title>
<path fill="#2a0a2a" stroke="#ff66ff" stroke-width="2" d="M1306.5,-695C1306.5,-695 1044.5,-695 1044.5,-695 1038.5,-695 1032.5,-689 1032.5,-683 1032.5,-683 1032.5,-669 1032.5,-669 1032.5,-663 1038.5,-657 1044.5,-657 1044.5,-657 1306.5,-657 1306.5,-657 1312.5,-657 1318.5,-663 1318.5,-669 1318.5,-669 1318.5,-683 1318.5,-683 1318.5,-689 1312.5,-695 1306.5,-695"/>
<text text-anchor="middle" x="1175.5" y="-679.8" font-family="JetBrains Mono" font-size="14.00" fill="#e6e6e6">/portfolio/positions</text>
<text text-anchor="middle" x="1175.5" y="-664.8" font-family="JetBrains Mono" font-size="14.00" fill="#e6e6e6">→ {event_positions, market_positions}</text>
</g>
<!-- r2&#45;&gt;api_pos -->
<g id="edge3" class="edge">
<title>r2&#45;&gt;api_pos</title>
<path fill="none" stroke="#39ff14" stroke-width="1.5" d="M545.98,-518.67C573.94,-548.45 623.6,-595.42 677,-618 786.48,-664.3 920.89,-677.69 1022.4,-680.12"/>
<polygon fill="#39ff14" stroke="#39ff14" stroke-width="1.5" points="1022.35,-683.62 1032.42,-680.32 1022.5,-676.62 1022.35,-683.62"/>
</g>
<!-- u2 -->
<g id="node14" class="node">
<title>u2</title>
<path fill="#2a1a0a" stroke="#ffcc66" stroke-width="2" d="M1316,-298.5C1316,-298.5 1035,-298.5 1035,-298.5 1029,-298.5 1023,-292.5 1023,-286.5 1023,-286.5 1023,-227.5 1023,-227.5 1023,-221.5 1029,-215.5 1035,-215.5 1035,-215.5 1316,-215.5 1316,-215.5 1322,-215.5 1328,-221.5 1328,-227.5 1328,-227.5 1328,-286.5 1328,-286.5 1328,-292.5 1322,-298.5 1316,-298.5"/>
<text text-anchor="middle" x="1175.5" y="-283.3" font-family="JetBrains Mono" font-size="14.00" fill="#e6e6e6">② positions →</text>
<text text-anchor="middle" x="1175.5" y="-268.3" font-family="JetBrains Mono" font-size="14.00" fill="#e6e6e6"> &#160;&#160;• portfolio_value (cash + cost basis)</text>
<text text-anchor="middle" x="1175.5" y="-253.3" font-family="JetBrains Mono" font-size="14.00" fill="#e6e6e6"> &#160;&#160;• drawdown calc → halt gate</text>
<text text-anchor="middle" x="1175.5" y="-238.3" font-family="JetBrains Mono" font-size="14.00" fill="#e6e6e6"> &#160;&#160;• reconciliation (block opposing)</text>
<text text-anchor="middle" x="1175.5" y="-223.3" font-family="JetBrains Mono" font-size="14.00" fill="#e6e6e6"> &#160;&#160;• expiry cap (existing $ per settlement)</text>
</g>
<!-- r2&#45;&gt;u2 -->
<g id="edge8" class="edge">
<title>r2&#45;&gt;u2</title>
<path fill="none" stroke="#ffaa00" stroke-width="1.5" stroke-dasharray="5,2" d="M650.36,-465.37C653.44,-462.81 656.33,-460.03 659,-457 701.09,-409.3 631.79,-359.76 677,-315 677.19,-314.81 867.82,-292.63 1013.01,-275.75"/>
<polygon fill="#ffaa00" stroke="#ffaa00" stroke-width="1.5" points="1013.42,-279.23 1022.95,-274.6 1012.61,-272.28 1013.42,-279.23"/>
</g>
<!-- r3 -->
<g id="node4" class="node">
<title>r3</title>
<path fill="#1a2a1a" stroke="#39ff14" stroke-width="2" d="M602,-447.5C602,-447.5 441,-447.5 441,-447.5 435,-447.5 429,-441.5 429,-435.5 429,-435.5 429,-406.5 429,-406.5 429,-400.5 435,-394.5 441,-394.5 441,-394.5 602,-394.5 602,-394.5 608,-394.5 614,-400.5 614,-406.5 614,-406.5 614,-435.5 614,-435.5 614,-441.5 608,-447.5 602,-447.5"/>
<text text-anchor="middle" x="521.5" y="-432.3" font-family="JetBrains Mono" font-size="14.00" fill="#e6e6e6">③ GET /events (filtered)</text>
<text text-anchor="middle" x="521.5" y="-417.3" font-family="JetBrains Mono" font-size="14.00" fill="#e6e6e6">→ settlement close_time</text>
<text text-anchor="middle" x="521.5" y="-402.3" font-family="JetBrains Mono" font-size="14.00" fill="#e6e6e6">→ find next window</text>
</g>
<!-- api_evt -->
<g id="node9" class="node">
<title>api_evt</title>
<path fill="#2a0a2a" stroke="#ff66ff" stroke-width="2" d="M1278.5,-639C1278.5,-639 1072.5,-639 1072.5,-639 1066.5,-639 1060.5,-633 1060.5,-627 1060.5,-627 1060.5,-613 1060.5,-613 1060.5,-607 1066.5,-601 1072.5,-601 1072.5,-601 1278.5,-601 1278.5,-601 1284.5,-601 1290.5,-607 1290.5,-613 1290.5,-613 1290.5,-627 1290.5,-627 1290.5,-633 1284.5,-639 1278.5,-639"/>
<text text-anchor="middle" x="1175.5" y="-623.8" font-family="JetBrains Mono" font-size="14.00" fill="#e6e6e6">/events?series_ticker=KXBTCD</text>
<text text-anchor="middle" x="1175.5" y="-608.8" font-family="JetBrains Mono" font-size="14.00" fill="#e6e6e6">→ [{event_ticker, close_time}]</text>
</g>
<!-- r3&#45;&gt;api_evt -->
<g id="edge4" class="edge">
<title>r3&#45;&gt;api_evt</title>
<path fill="none" stroke="#39ff14" stroke-width="1.5" d="M614.08,-430.46C630.85,-435.98 646.85,-444.37 659,-457 684.56,-483.58 650.21,-512.65 677,-538 729.44,-587.62 920.86,-607.34 1050.38,-615.09"/>
<polygon fill="#39ff14" stroke="#39ff14" stroke-width="1.5" points="1050.18,-618.59 1060.37,-615.67 1050.59,-611.6 1050.18,-618.59"/>
</g>
<!-- u3 -->
<g id="node15" class="node">
<title>u3</title>
<path fill="#2a1a0a" stroke="#ffcc66" stroke-width="2" d="M1280,-197C1280,-197 1071,-197 1071,-197 1065,-197 1059,-191 1059,-185 1059,-185 1059,-171 1059,-171 1059,-165 1065,-159 1071,-159 1071,-159 1280,-159 1280,-159 1286,-159 1292,-165 1292,-171 1292,-171 1292,-185 1292,-185 1292,-191 1286,-197 1280,-197"/>
<text text-anchor="middle" x="1175.5" y="-181.8" font-family="JetBrains Mono" font-size="14.00" fill="#e6e6e6">③ events → settlement window</text>
<text text-anchor="middle" x="1175.5" y="-166.8" font-family="JetBrains Mono" font-size="14.00" fill="#e6e6e6"> &#160;&#160;(10 min cutoff before close)</text>
</g>
<!-- r3&#45;&gt;u3 -->
<g id="edge9" class="edge">
<title>r3&#45;&gt;u3</title>
<path fill="none" stroke="#ffaa00" stroke-width="1.5" stroke-dasharray="5,2" d="M614.35,-411.35C631,-405.83 646.89,-397.49 659,-385 683.76,-359.46 655.96,-335.69 677,-307 692.56,-285.8 703.16,-285.64 728,-277 844.12,-236.61 908.19,-318.47 1002,-239 1013.37,-229.37 1000.82,-216.85 1012,-207 1022.83,-197.46 1035.69,-190.55 1049.37,-185.6"/>
<polygon fill="#ffaa00" stroke="#ffaa00" stroke-width="1.5" points="1050.52,-188.91 1058.95,-182.48 1048.35,-182.25 1050.52,-188.91"/>
</g>
<!-- r4 -->
<g id="node5" class="node">
<title>r4</title>
<path fill="#1a2a1a" stroke="#39ff14" stroke-width="2" d="M629.5,-376C629.5,-376 413.5,-376 413.5,-376 407.5,-376 401.5,-370 401.5,-364 401.5,-364 401.5,-350 401.5,-350 401.5,-344 407.5,-338 413.5,-338 413.5,-338 629.5,-338 629.5,-338 635.5,-338 641.5,-344 641.5,-350 641.5,-350 641.5,-364 641.5,-364 641.5,-370 635.5,-376 629.5,-376"/>
<text text-anchor="middle" x="521.5" y="-360.8" font-family="JetBrains Mono" font-size="14.00" fill="#e6e6e6">④ GET /markets?event_ticker=X</text>
<text text-anchor="middle" x="521.5" y="-345.8" font-family="JetBrains Mono" font-size="14.00" fill="#e6e6e6">→ per&#45;strike yes_price, no_price</text>
</g>
<!-- api_mkt -->
<g id="node10" class="node">
<title>api_mkt</title>
<path fill="#2a0a2a" stroke="#ff66ff" stroke-width="2" d="M1308,-583C1308,-583 1043,-583 1043,-583 1037,-583 1031,-577 1031,-571 1031,-571 1031,-557 1031,-557 1031,-551 1037,-545 1043,-545 1043,-545 1308,-545 1308,-545 1314,-545 1320,-551 1320,-557 1320,-557 1320,-571 1320,-571 1320,-577 1314,-583 1308,-583"/>
<text text-anchor="middle" x="1175.5" y="-567.8" font-family="JetBrains Mono" font-size="14.00" fill="#e6e6e6">/markets?event_ticker=X</text>
<text text-anchor="middle" x="1175.5" y="-552.8" font-family="JetBrains Mono" font-size="14.00" fill="#e6e6e6">→ [{ticker, strike, yes_price, no_price}]</text>
</g>
<!-- r4&#45;&gt;api_mkt -->
<g id="edge5" class="edge">
<title>r4&#45;&gt;api_mkt</title>
<path fill="none" stroke="#39ff14" stroke-width="1.5" d="M641.58,-374.16C647.8,-377.5 653.68,-381.42 659,-386 676.27,-400.86 660.39,-418.41 677,-434 790.48,-540.52 860.57,-500.05 1012,-536 1022.34,-538.46 1033.1,-540.79 1043.94,-542.98"/>
<polygon fill="#39ff14" stroke="#39ff14" stroke-width="1.5" points="1043.42,-546.45 1053.91,-544.96 1044.78,-539.58 1043.42,-546.45"/>
</g>
<!-- u4 -->
<g id="node16" class="node">
<title>u4</title>
<path fill="#2a1a0a" stroke="#ffcc66" stroke-width="2" d="M1272.5,-140.5C1272.5,-140.5 1078.5,-140.5 1078.5,-140.5 1072.5,-140.5 1066.5,-134.5 1066.5,-128.5 1066.5,-128.5 1066.5,-99.5 1066.5,-99.5 1066.5,-93.5 1072.5,-87.5 1078.5,-87.5 1078.5,-87.5 1272.5,-87.5 1272.5,-87.5 1278.5,-87.5 1284.5,-93.5 1284.5,-99.5 1284.5,-99.5 1284.5,-128.5 1284.5,-128.5 1284.5,-134.5 1278.5,-140.5 1272.5,-140.5"/>
<text text-anchor="middle" x="1175.5" y="-125.3" font-family="JetBrains Mono" font-size="14.00" fill="#e6e6e6">④ markets → strike prices</text>
<text text-anchor="middle" x="1175.5" y="-110.3" font-family="JetBrains Mono" font-size="14.00" fill="#e6e6e6"> &#160;&#160;→ classifier per&#45;strike input</text>
<text text-anchor="middle" x="1175.5" y="-95.3" font-family="JetBrains Mono" font-size="14.00" fill="#e6e6e6"> &#160;&#160;→ edge calculation</text>
</g>
<!-- r4&#45;&gt;u4 -->
<g id="edge10" class="edge">
<title>r4&#45;&gt;u4</title>
<path fill="none" stroke="#ffaa00" stroke-width="1.5" stroke-dasharray="5,2" d="M641.63,-340.83C647.84,-337.5 653.7,-333.59 659,-329 676.85,-313.54 661.79,-297.07 677,-279 693.79,-259.05 703.48,-258.87 728,-250 844.34,-207.93 913.8,-287.74 1002,-201 1018.47,-184.8 995.87,-166.53 1012,-150 1024.23,-137.47 1039.78,-128.85 1056.39,-123"/>
<polygon fill="#ffaa00" stroke="#ffaa00" stroke-width="1.5" points="1057.8,-126.22 1066.27,-119.86 1055.68,-119.55 1057.8,-126.22"/>
</g>
<!-- r5 -->
<g id="node6" class="node">
<title>r5</title>
<path fill="#1a2a1a" stroke="#39ff14" stroke-width="2" d="M612,-319.5C612,-319.5 431,-319.5 431,-319.5 425,-319.5 419,-313.5 419,-307.5 419,-307.5 419,-278.5 419,-278.5 419,-272.5 425,-266.5 431,-266.5 431,-266.5 612,-266.5 612,-266.5 618,-266.5 624,-272.5 624,-278.5 624,-278.5 624,-307.5 624,-307.5 624,-313.5 618,-319.5 612,-319.5"/>
<text text-anchor="middle" x="521.5" y="-304.3" font-family="JetBrains Mono" font-size="14.00" fill="#e6e6e6">⑤ POST /portfolio/orders</text>
<text text-anchor="middle" x="521.5" y="-289.3" font-family="JetBrains Mono" font-size="14.00" fill="#e6e6e6">(per surviving opportunity)</text>
<text text-anchor="middle" x="521.5" y="-274.3" font-family="JetBrains Mono" font-size="14.00" fill="#e6e6e6">→ order_id or 400 error</text>
</g>
<!-- api_ord -->
<g id="node11" class="node">
<title>api_ord</title>
<path fill="#2a0a2a" stroke="#ff66ff" stroke-width="2" d="M1319,-526.5C1319,-526.5 1032,-526.5 1032,-526.5 1026,-526.5 1020,-520.5 1020,-514.5 1020,-514.5 1020,-485.5 1020,-485.5 1020,-479.5 1026,-473.5 1032,-473.5 1032,-473.5 1319,-473.5 1319,-473.5 1325,-473.5 1331,-479.5 1331,-485.5 1331,-485.5 1331,-514.5 1331,-514.5 1331,-520.5 1325,-526.5 1319,-526.5"/>
<text text-anchor="middle" x="1175.5" y="-511.3" font-family="JetBrains Mono" font-size="14.00" fill="#e6e6e6">/portfolio/orders</text>
<text text-anchor="middle" x="1175.5" y="-496.3" font-family="JetBrains Mono" font-size="14.00" fill="#e6e6e6">← {ticker, side, count, yes/no_price, type}</text>
<text text-anchor="middle" x="1175.5" y="-481.3" font-family="JetBrains Mono" font-size="14.00" fill="#e6e6e6">→ {order: {order_id}}</text>
</g>
<!-- r5&#45;&gt;api_ord -->
<g id="edge6" class="edge">
<title>r5&#45;&gt;api_ord</title>
<path fill="none" stroke="#39ff14" stroke-width="1.5" d="M624.12,-315.66C636.09,-319.53 647.96,-323.97 659,-329 692.76,-344.4 694.58,-359.89 728,-376 847.03,-433.39 884.27,-430.12 1012,-464 1021.02,-466.39 1030.34,-468.75 1039.76,-471.05"/>
<polygon fill="#39ff14" stroke="#39ff14" stroke-width="1.5" points="1039.05,-474.48 1049.6,-473.43 1040.7,-467.68 1039.05,-474.48"/>
</g>
<!-- u5 -->
<g id="node17" class="node">
<title>u5</title>
<path fill="#2a1a0a" stroke="#ffcc66" stroke-width="2" d="M1304,-69.5C1304,-69.5 1047,-69.5 1047,-69.5 1041,-69.5 1035,-63.5 1035,-57.5 1035,-57.5 1035,-28.5 1035,-28.5 1035,-22.5 1041,-16.5 1047,-16.5 1047,-16.5 1304,-16.5 1304,-16.5 1310,-16.5 1316,-22.5 1316,-28.5 1316,-28.5 1316,-57.5 1316,-57.5 1316,-63.5 1310,-69.5 1304,-69.5"/>
<text text-anchor="middle" x="1175.5" y="-54.3" font-family="JetBrains Mono" font-size="14.00" fill="#e6e6e6">⑤ orders → actual trade execution</text>
<text text-anchor="middle" x="1175.5" y="-39.3" font-family="JetBrains Mono" font-size="14.00" fill="#e6e6e6"> &#160;&#160;→ order_id for tracking</text>
<text text-anchor="middle" x="1175.5" y="-24.3" font-family="JetBrains Mono" font-size="14.00" fill="#e6e6e6"> &#160;&#160;→ 400 on at&#45;limit contracts (filtered)</text>
</g>
<!-- r5&#45;&gt;u5 -->
<g id="edge11" class="edge">
<title>r5&#45;&gt;u5</title>
<path fill="none" stroke="#ffaa00" stroke-width="1.5" stroke-dasharray="5,2" d="M624.34,-270.71C636.21,-267 648,-262.77 659,-258 692.37,-243.52 694.13,-227.26 728,-214 835.24,-172.03 896.2,-243.69 983,-168 1014.36,-140.66 981.19,-106.96 1012,-79 1016.28,-75.12 1020.88,-71.62 1025.73,-68.47"/>
<polygon fill="#ffaa00" stroke="#ffaa00" stroke-width="1.5" points="1027.87,-71.27 1034.71,-63.18 1024.32,-65.24 1027.87,-71.27"/>
</g>
<!-- gem -->
<g id="node12" class="node">
<title>gem</title>
<path fill="#0a2a2a" stroke="#66ffff" stroke-width="2" d="M237,-376C237,-376 28,-376 28,-376 22,-376 16,-370 16,-364 16,-364 16,-350 16,-350 16,-344 22,-338 28,-338 28,-338 237,-338 237,-338 243,-338 249,-344 249,-350 249,-350 249,-364 249,-364 249,-370 243,-376 237,-376"/>
<text text-anchor="middle" x="132.5" y="-360.8" font-family="JetBrains Mono" font-size="14.00" fill="#e6e6e6">1&#45;min BTC candles</text>
<text text-anchor="middle" x="132.5" y="-345.8" font-family="JetBrains Mono" font-size="14.00" fill="#e6e6e6">(1440 bars via live_candles.py)</text>
</g>
<!-- gem&#45;&gt;r4 -->
<g id="edge12" class="edge">
<title>gem&#45;&gt;r4</title>
<path fill="none" stroke="#66ffff" stroke-width="1.5" stroke-dasharray="5,2" d="M249.09,-357C293.91,-357 345.42,-357 391.45,-357"/>
<polygon fill="#66ffff" stroke="#66ffff" stroke-width="1.5" points="391.49,-360.5 401.49,-357 391.49,-353.5 391.49,-360.5"/>
<text text-anchor="middle" x="316.5" y="-371" font-family="JetBrains Mono" font-size="10.00" fill="#cccccc">candles feed</text>
<text text-anchor="middle" x="316.5" y="-360" font-family="JetBrains Mono" font-size="10.00" fill="#cccccc">classifier separately</text>
</g>
</g>
</svg>
