<?xml version="1.0" encoding="UTF-8" standalone="no"?>
<!DOCTYPE svg PUBLIC "-//W3C//DTD SVG 1.1//EN"
 "http://www.w3.org/Graphics/SVG/1.1/DTD/svg11.dtd">
<!-- Generated by graphviz version 2.43.0 (0)
 -->
<!-- Title: counterfactual Pages: 1 -->
<svg width="898pt" height="776pt"
 viewBox="0.00 0.00 898.00 776.00" xmlns="http://www.w3.org/2000/svg" xmlns:xlink="http://www.w3.org/1999/xlink">
<g id="graph0" class="graph" transform="scale(1 1) rotate(0) translate(4 772)">
<title>counterfactual</title>
<polygon fill="#0a0e14" stroke="transparent" points="-4,4 -4,-772 894,-772 894,4 -4,4"/>
<text text-anchor="middle" x="445" y="-752.8" font-family="JetBrains Mono" font-size="14.00" fill="#aaff66">2026&#45;04&#45;15 evening — actual vs counterfactual with streak breaker</text>
<g id="clust1" class="cluster">
<title>cluster_actual</title>
<path fill="#1a0808" stroke="#ff3333" stroke-width="2" d="M20,-166.5C20,-166.5 272,-166.5 272,-166.5 278,-166.5 284,-172.5 284,-178.5 284,-178.5 284,-725 284,-725 284,-731 278,-737 272,-737 272,-737 20,-737 20,-737 14,-737 8,-731 8,-725 8,-725 8,-178.5 8,-178.5 8,-172.5 14,-166.5 20,-166.5"/>
<text text-anchor="middle" x="146" y="-721.8" font-family="JetBrains Mono" font-size="14.00" fill="#ff9999">ACTUAL (no streak breaker)</text>
</g>
<g id="clust2" class="cluster">
<title>cluster_counterfactual</title>
<path fill="#0a1a0a" stroke="#39ff14" stroke-width="2" d="M304,-23C304,-23 576,-23 576,-23 582,-23 588,-29 588,-35 588,-35 588,-725 588,-725 588,-731 582,-737 576,-737 576,-737 304,-737 304,-737 298,-737 292,-731 292,-725 292,-725 292,-35 292,-35 292,-29 298,-23 304,-23"/>
<text text-anchor="middle" x="440" y="-721.8" font-family="JetBrains Mono" font-size="14.00" fill="#aaff66">COUNTERFACTUAL (with streak breaker)</text>
</g>
<!-- a1 -->
<g id="node1" class="node">
<title>a1</title>
<path fill="#2a0a0a" stroke="#ff6666" stroke-width="2" d="M249.5,-706C249.5,-706 42.5,-706 42.5,-706 36.5,-706 30.5,-700 30.5,-694 30.5,-694 30.5,-650 30.5,-650 30.5,-644 36.5,-638 42.5,-638 42.5,-638 249.5,-638 249.5,-638 255.5,-638 261.5,-644 261.5,-650 261.5,-650 261.5,-694 261.5,-694 261.5,-700 255.5,-706 249.5,-706"/>
<text text-anchor="middle" x="146" y="-690.8" font-family="JetBrains Mono" font-size="14.00" fill="#e6e6e6">18:10–18:40</text>
<text text-anchor="middle" x="146" y="-675.8" font-family="JetBrains Mono" font-size="14.00" fill="#e6e6e6">12 trades placed: ALL NO</text>
<text text-anchor="middle" x="146" y="-660.8" font-family="JetBrains Mono" font-size="14.00" fill="#e6e6e6">$31.36 staked on 20:00 expiry</text>
<text text-anchor="middle" x="146" y="-645.8" font-family="JetBrains Mono" font-size="14.00" fill="#e6e6e6">BTC ≈ $74,750 &#160;RSI 33–83</text>
</g>
<!-- a2 -->
<g id="node2" class="node">
<title>a2</title>
<path fill="#3a0a0a" stroke="#ff3333" stroke-width="3" d="M235.5,-601C235.5,-601 56.5,-601 56.5,-601 50.5,-601 44.5,-595 44.5,-589 44.5,-589 44.5,-545 44.5,-545 44.5,-539 50.5,-533 56.5,-533 56.5,-533 235.5,-533 235.5,-533 241.5,-533 247.5,-539 247.5,-545 247.5,-545 247.5,-589 247.5,-589 247.5,-595 241.5,-601 235.5,-601"/>
<text text-anchor="middle" x="146" y="-585.8" font-family="JetBrains Mono" font-size="14.00" fill="#ff9999">20:00 SETTLEMENT</text>
<text text-anchor="middle" x="146" y="-570.8" font-family="JetBrains Mono" font-size="14.00" fill="#ff9999">BTC rallied → NO bets lose</text>
<text text-anchor="middle" x="146" y="-555.8" font-family="JetBrains Mono" font-size="14.00" fill="#ff9999">portfolio: $42.56 → $27.66</text>
<text text-anchor="middle" x="146" y="-540.8" font-family="JetBrains Mono" font-size="14.00" fill="#ff9999">−$14.90 (−35%)</text>
</g>
<!-- a1&#45;&gt;a2 -->
<g id="edge1" class="edge">
<title>a1&#45;&gt;a2</title>
<path fill="none" stroke="#ff3333" stroke-width="1.5" d="M146,-637.84C146,-629.39 146,-620.18 146,-611.3"/>
<polygon fill="#ff3333" stroke="#ff3333" stroke-width="1.5" points="149.5,-611.09 146,-601.09 142.5,-611.09 149.5,-611.09"/>
</g>
<!-- a3 -->
<g id="node3" class="node">
<title>a3</title>
<path fill="#2a0a0a" stroke="#ff6666" stroke-width="2" d="M256.5,-488.5C256.5,-488.5 35.5,-488.5 35.5,-488.5 29.5,-488.5 23.5,-482.5 23.5,-476.5 23.5,-476.5 23.5,-432.5 23.5,-432.5 23.5,-426.5 29.5,-420.5 35.5,-420.5 35.5,-420.5 256.5,-420.5 256.5,-420.5 262.5,-420.5 268.5,-426.5 268.5,-432.5 268.5,-432.5 268.5,-476.5 268.5,-476.5 268.5,-482.5 262.5,-488.5 256.5,-488.5"/>
<text text-anchor="middle" x="146" y="-473.3" font-family="JetBrains Mono" font-size="14.00" fill="#e6e6e6">20:10–21:20</text>
<text text-anchor="middle" x="146" y="-458.3" font-family="JetBrains Mono" font-size="14.00" fill="#e6e6e6">9 more trades: ALL NO</text>
<text text-anchor="middle" x="146" y="-443.3" font-family="JetBrains Mono" font-size="14.00" fill="#e6e6e6">$28.94 staked on 22:00 + 23:00</text>
<text text-anchor="middle" x="146" y="-428.3" font-family="JetBrains Mono" font-size="14.00" fill="#e6e6e6">model still stubbornly bearish</text>
</g>
<!-- a2&#45;&gt;a3 -->
<g id="edge2" class="edge">
<title>a2&#45;&gt;a3</title>
<path fill="none" stroke="#ff3333" stroke-width="1.5" d="M146,-532.85C146,-522.14 146,-510.11 146,-498.78"/>
<polygon fill="#ff3333" stroke="#ff3333" stroke-width="1.5" points="149.5,-498.63 146,-488.63 142.5,-498.63 149.5,-498.63"/>
</g>
<!-- c2 -->
<g id="node7" class="node">
<title>c2</title>
<path fill="#2a1a0a" stroke="#ffaa00" stroke-width="2" d="M550,-601C550,-601 344,-601 344,-601 338,-601 332,-595 332,-589 332,-589 332,-545 332,-545 332,-539 338,-533 344,-533 344,-533 550,-533 550,-533 556,-533 562,-539 562,-545 562,-545 562,-589 562,-589 562,-595 556,-601 550,-601"/>
<text text-anchor="middle" x="447" y="-585.8" font-family="JetBrains Mono" font-size="14.00" fill="#ffcc66">20:00 SETTLEMENT — LOSS</text>
<text text-anchor="middle" x="447" y="-570.8" font-family="JetBrains Mono" font-size="14.00" fill="#ffcc66">portfolio: $42.56 → $27.66</text>
<text text-anchor="middle" x="447" y="-555.8" font-family="JetBrains Mono" font-size="14.00" fill="#ffcc66">streak: consecutive_losses = 1</text>
<text text-anchor="middle" x="447" y="-540.8" font-family="JetBrains Mono" font-size="14.00" fill="#ffcc66">last_loss_side = NO</text>
</g>
<!-- a2&#45;&gt;c2 -->
<g id="edge10" class="edge">
<title>a2&#45;&gt;c2</title>
<path fill="none" stroke="#ffaa00" stroke-width="1.5" stroke-dasharray="5,2" d="M247.9,-567C271.66,-567 297.23,-567 321.87,-567"/>
<polygon fill="#ffaa00" stroke="#ffaa00" stroke-width="1.5" points="321.99,-570.5 331.99,-567 321.99,-563.5 321.99,-570.5"/>
<text text-anchor="middle" x="289.75" y="-573" font-family="JetBrains Mono" font-size="10.00" fill="#cccccc">same loss</text>
</g>
<!-- a4 -->
<g id="node4" class="node">
<title>a4</title>
<path fill="#3a0a0a" stroke="#ff3333" stroke-width="3" d="M264,-347.5C264,-347.5 28,-347.5 28,-347.5 22,-347.5 16,-341.5 16,-335.5 16,-335.5 16,-291.5 16,-291.5 16,-285.5 22,-279.5 28,-279.5 28,-279.5 264,-279.5 264,-279.5 270,-279.5 276,-285.5 276,-291.5 276,-291.5 276,-335.5 276,-335.5 276,-341.5 270,-347.5 264,-347.5"/>
<text text-anchor="middle" x="146" y="-332.3" font-family="JetBrains Mono" font-size="14.00" fill="#ff9999">22:00 SETTLEMENT</text>
<text text-anchor="middle" x="146" y="-317.3" font-family="JetBrains Mono" font-size="14.00" fill="#ff9999">BTC still high → NO bets lose again</text>
<text text-anchor="middle" x="146" y="-302.3" font-family="JetBrains Mono" font-size="14.00" fill="#ff9999">portfolio: $32.83 → $19.60</text>
<text text-anchor="middle" x="146" y="-287.3" font-family="JetBrains Mono" font-size="14.00" fill="#ff9999">−$13.23 (−40%)</text>
</g>
<!-- a3&#45;&gt;a4 -->
<g id="edge3" class="edge">
<title>a3&#45;&gt;a4</title>
<path fill="none" stroke="#ff3333" stroke-width="1.5" d="M146,-420.21C146,-401.47 146,-377.85 146,-357.7"/>
<polygon fill="#ff3333" stroke="#ff3333" stroke-width="1.5" points="149.5,-357.52 146,-347.52 142.5,-357.52 149.5,-357.52"/>
</g>
<!-- c3b -->
<g id="node9" class="node">
<title>c3b</title>
<path fill="#0a3a3a" stroke="#66ffff" stroke-width="3" d="M544,-355C544,-355 356,-355 356,-355 350,-355 344,-349 344,-343 344,-343 344,-284 344,-284 344,-278 350,-272 356,-272 356,-272 544,-272 544,-272 550,-272 556,-278 556,-284 556,-284 556,-343 556,-343 556,-349 550,-355 544,-355"/>
<text text-anchor="middle" x="450" y="-339.8" font-family="JetBrains Mono" font-size="14.00" fill="#ccffff">21:xx settlement</text>
<text text-anchor="middle" x="450" y="-324.8" font-family="JetBrains Mono" font-size="14.00" fill="#ccffff">(if another loss occurs here)</text>
<text text-anchor="middle" x="450" y="-309.8" font-family="JetBrains Mono" font-size="14.00" fill="#ccffff">→ consecutive_losses = 2</text>
<text text-anchor="middle" x="450" y="-294.8" font-family="JetBrains Mono" font-size="14.00" fill="#ccffff">→ COOLDOWN 60 min</text>
<text text-anchor="middle" x="450" y="-279.8" font-family="JetBrains Mono" font-size="14.00" fill="#ccffff">→ 22:00 trades NOT placed</text>
</g>
<!-- a3&#45;&gt;c3b -->
<g id="edge11" class="edge">
<title>a3&#45;&gt;c3b</title>
<path fill="none" stroke="#ff66ff" stroke-width="2" stroke-dasharray="5,2" d="M218.43,-420.38C258.43,-402.09 308.68,-379.12 352.14,-359.25"/>
<polygon fill="#ff66ff" stroke="#ff66ff" stroke-width="2" points="353.66,-362.4 361.3,-355.06 350.75,-356.03 353.66,-362.4"/>
<text text-anchor="middle" x="359" y="-387" font-family="JetBrains Mono" font-size="10.00" fill="#cccccc">divergence point:</text>
<text text-anchor="middle" x="359" y="-376" font-family="JetBrains Mono" font-size="10.00" fill="#cccccc">breaker fires here</text>
</g>
<!-- a5 -->
<g id="node5" class="node">
<title>a5</title>
<path fill="#2a0a0a" stroke="#ff6666" stroke-width="2" d="M238.5,-227.5C238.5,-227.5 53.5,-227.5 53.5,-227.5 47.5,-227.5 41.5,-221.5 41.5,-215.5 41.5,-215.5 41.5,-186.5 41.5,-186.5 41.5,-180.5 47.5,-174.5 53.5,-174.5 53.5,-174.5 238.5,-174.5 238.5,-174.5 244.5,-174.5 250.5,-180.5 250.5,-186.5 250.5,-186.5 250.5,-215.5 250.5,-215.5 250.5,-221.5 244.5,-227.5 238.5,-227.5"/>
<text text-anchor="middle" x="146" y="-212.3" font-family="JetBrains Mono" font-size="14.00" fill="#e6e6e6">22:10</text>
<text text-anchor="middle" x="146" y="-197.3" font-family="JetBrains Mono" font-size="14.00" fill="#e6e6e6">Drawdown halt at 62.6%</text>
<text text-anchor="middle" x="146" y="-182.3" font-family="JetBrains Mono" font-size="14.00" fill="#e6e6e6">total evening loss: −$22.96</text>
</g>
<!-- a4&#45;&gt;a5 -->
<g id="edge4" class="edge">
<title>a4&#45;&gt;a5</title>
<path fill="none" stroke="#ff3333" stroke-width="1.5" d="M146,-279.35C146,-266.3 146,-251.3 146,-237.99"/>
<polygon fill="#ff3333" stroke="#ff3333" stroke-width="1.5" points="149.5,-237.75 146,-227.75 142.5,-237.75 149.5,-237.75"/>
</g>
<!-- c1 -->
<g id="node6" class="node">
<title>c1</title>
<path fill="#0a2a0a" stroke="#39ff14" stroke-width="2" d="M550.5,-706C550.5,-706 343.5,-706 343.5,-706 337.5,-706 331.5,-700 331.5,-694 331.5,-694 331.5,-650 331.5,-650 331.5,-644 337.5,-638 343.5,-638 343.5,-638 550.5,-638 550.5,-638 556.5,-638 562.5,-644 562.5,-650 562.5,-650 562.5,-694 562.5,-694 562.5,-700 556.5,-706 550.5,-706"/>
<text text-anchor="middle" x="447" y="-690.8" font-family="JetBrains Mono" font-size="14.00" fill="#e6e6e6">18:10–18:40</text>
<text text-anchor="middle" x="447" y="-675.8" font-family="JetBrains Mono" font-size="14.00" fill="#e6e6e6">same 12 trades: ALL NO</text>
<text text-anchor="middle" x="447" y="-660.8" font-family="JetBrains Mono" font-size="14.00" fill="#e6e6e6">$31.36 staked on 20:00 expiry</text>
<text text-anchor="middle" x="447" y="-645.8" font-family="JetBrains Mono" font-size="14.00" fill="#e6e6e6">(identical to actual)</text>
</g>
<!-- c1&#45;&gt;c2 -->
<g id="edge5" class="edge">
<title>c1&#45;&gt;c2</title>
<path fill="none" stroke="#39ff14" stroke-width="1.5" d="M447,-637.84C447,-629.39 447,-620.18 447,-611.3"/>
<polygon fill="#39ff14" stroke="#39ff14" stroke-width="1.5" points="450.5,-611.09 447,-601.09 443.5,-611.09 450.5,-611.09"/>
</g>
<!-- c3 -->
<g id="node8" class="node">
<title>c3</title>
<path fill="#0a2a0a" stroke="#39ff14" stroke-width="2" d="M568,-496C568,-496 326,-496 326,-496 320,-496 314,-490 314,-484 314,-484 314,-425 314,-425 314,-419 320,-413 326,-413 326,-413 568,-413 568,-413 574,-413 580,-419 580,-425 580,-425 580,-484 580,-484 580,-490 574,-496 568,-496"/>
<text text-anchor="middle" x="447" y="-480.8" font-family="JetBrains Mono" font-size="14.00" fill="#e6e6e6">20:10</text>
<text text-anchor="middle" x="447" y="-465.8" font-family="JetBrains Mono" font-size="14.00" fill="#e6e6e6">Deploy for 22:00 expiry...</text>
<text text-anchor="middle" x="447" y="-450.8" font-family="JetBrains Mono" font-size="14.00" fill="#e6e6e6">BUT streak = 1, next loss would</text>
<text text-anchor="middle" x="447" y="-435.8" font-family="JetBrains Mono" font-size="14.00" fill="#e6e6e6">trigger cooldown. Trading continues</text>
<text text-anchor="middle" x="447" y="-420.8" font-family="JetBrains Mono" font-size="14.00" fill="#e6e6e6">(need 2 to halt).</text>
</g>
<!-- c2&#45;&gt;c3 -->
<g id="edge6" class="edge">
<title>c2&#45;&gt;c3</title>
<path fill="none" stroke="#39ff14" stroke-width="1.5" d="M447,-532.85C447,-524.44 447,-515.22 447,-506.16"/>
<polygon fill="#39ff14" stroke="#39ff14" stroke-width="1.5" points="450.5,-506.06 447,-496.06 443.5,-506.06 450.5,-506.06"/>
</g>
<!-- c3&#45;&gt;c3b -->
<g id="edge7" class="edge">
<title>c3&#45;&gt;c3b</title>
<path fill="none" stroke="#39ff14" stroke-width="1.5" d="M447.88,-412.92C448.2,-398.07 448.56,-381.06 448.9,-365.42"/>
<polygon fill="#39ff14" stroke="#39ff14" stroke-width="1.5" points="452.4,-365.44 449.12,-355.37 445.4,-365.29 452.4,-365.44"/>
</g>
<!-- c4 -->
<g id="node10" class="node">
<title>c4</title>
<path fill="#0a3a0a" stroke="#39ff14" stroke-width="3" d="M557,-235C557,-235 361,-235 361,-235 355,-235 349,-229 349,-223 349,-223 349,-179 349,-179 349,-173 355,-167 361,-167 361,-167 557,-167 557,-167 563,-167 569,-173 569,-179 569,-179 569,-223 569,-223 569,-229 563,-235 557,-235"/>
<text text-anchor="middle" x="459" y="-219.8" font-family="JetBrains Mono" font-size="14.00" fill="#aaffaa">22:00 SETTLEMENT</text>
<text text-anchor="middle" x="459" y="-204.8" font-family="JetBrains Mono" font-size="14.00" fill="#aaffaa">no positions open (cooldown)</text>
<text text-anchor="middle" x="459" y="-189.8" font-family="JetBrains Mono" font-size="14.00" fill="#aaffaa">cash stays at ~$27–32</text>
<text text-anchor="middle" x="459" y="-174.8" font-family="JetBrains Mono" font-size="14.00" fill="#aaffaa">NO second loss</text>
</g>
<!-- c3b&#45;&gt;c4 -->
<g id="edge8" class="edge">
<title>c3b&#45;&gt;c4</title>
<path fill="none" stroke="#39ff14" stroke-width="1.5" d="M453.3,-271.98C454.01,-263.3 454.76,-254.1 455.47,-245.33"/>
<polygon fill="#39ff14" stroke="#39ff14" stroke-width="1.5" points="458.97,-245.52 456.29,-235.27 451.99,-244.95 458.97,-245.52"/>
</g>
<!-- c5 -->
<g id="node11" class="node">
<title>c5</title>
<path fill="#0a2a0a" stroke="#39ff14" stroke-width="2" d="M541,-99C541,-99 377,-99 377,-99 371,-99 365,-93 365,-87 365,-87 365,-43 365,-43 365,-37 371,-31 377,-31 377,-31 541,-31 541,-31 547,-31 553,-37 553,-43 553,-43 553,-87 553,-87 553,-93 547,-99 541,-99"/>
<text text-anchor="middle" x="459" y="-83.8" font-family="JetBrains Mono" font-size="14.00" fill="#e6e6e6">~23:10</text>
<text text-anchor="middle" x="459" y="-68.8" font-family="JetBrains Mono" font-size="14.00" fill="#e6e6e6">cooldown expires</text>
<text text-anchor="middle" x="459" y="-53.8" font-family="JetBrains Mono" font-size="14.00" fill="#e6e6e6">streak reset to 0</text>
<text text-anchor="middle" x="459" y="-38.8" font-family="JetBrains Mono" font-size="14.00" fill="#e6e6e6">resume with fresh signal</text>
</g>
<!-- c4&#45;&gt;c5 -->
<g id="edge9" class="edge">
<title>c4&#45;&gt;c5</title>
<path fill="none" stroke="#39ff14" stroke-width="1.5" d="M459,-166.88C459,-149.48 459,-127.95 459,-109.26"/>
<polygon fill="#39ff14" stroke="#39ff14" stroke-width="1.5" points="462.5,-109.21 459,-99.21 455.5,-109.21 462.5,-109.21"/>
</g>
<!-- savings -->
<g id="node12" class="node">
<title>savings</title>
<polygon fill="#0a3a0a" stroke="#39ff14" stroke-width="3" points="884,-130 596,-130 596,0 890,0 890,-124 884,-130"/>
<polyline fill="none" stroke="#39ff14" stroke-width="3" points="884,-130 884,-124 "/>
<polyline fill="none" stroke="#39ff14" stroke-width="3" points="890,-124 884,-124 "/>
<text text-anchor="middle" x="743" y="-114.8" font-family="JetBrains Mono" font-size="14.00" fill="#aaffaa">SAVED: $13.23</text>
<text text-anchor="middle" x="743" y="-99.8" font-family="JetBrains Mono" font-size="14.00" fill="#aaffaa">(the entire 22:00 settlement loss)</text>
<text text-anchor="middle" x="743" y="-68.8" font-family="JetBrains Mono" font-size="14.00" fill="#aaffaa">Portfolio without breaker: $19.60</text>
<text text-anchor="middle" x="743" y="-53.8" font-family="JetBrains Mono" font-size="14.00" fill="#aaffaa">Portfolio with breaker: &#160;&#160;&#160;~$32</text>
<text text-anchor="middle" x="743" y="-22.8" font-family="JetBrains Mono" font-size="14.00" fill="#aaffaa">Drawdown without: 62.6% → HALT</text>
<text text-anchor="middle" x="743" y="-7.8" font-family="JetBrains Mono" font-size="14.00" fill="#aaffaa">Drawdown with: &#160;&#160;&#160;~39% &#160;→ still trading</text>
</g>
<!-- c4&#45;&gt;savings -->
<g id="edge12" class="edge">
<title>c4&#45;&gt;savings</title>
<path fill="none" stroke="#aaff66" stroke-width="1.5" stroke-dasharray="1,5" d="M529.2,-166.88C552.86,-155.72 580.12,-142.85 607.08,-130.13"/>
</g>
</g>
</svg>
